<svg width="237" height="144" viewBox="0 0 237 144" fill="none" xmlns="http://www.w3.org/2000/svg">
<path d="M231.748 108.973C240.397 137.606 247.334 152.104 171.502 138.45C169.709 138.127 167.822 137.982 166.005 137.849C135.511 135.618 120.297 96.4904 118.242 77.5197C117.949 74.8179 118.367 72.0776 119.142 69.4728C131.408 28.235 134.321 67.6741 159.125 76.3643C165.13 78.4682 171.434 75.785 176.927 72.5736C216.97 49.1626 224.47 92.5118 231.748 108.973Z" fill="#7E6363"/>
<mask id="path-2-inside-1_373_1239" fill="white">
<path fill-rule="evenodd" clip-rule="evenodd" d="M151.712 92.1829L153.584 17.1636L141.858 16.8709L142.148 5.2482L132.765 3.25191L130.295 102.221L139.775 100.343L139.986 91.8903L151.712 92.1829ZM130.463 93.727L132.59 8.49377L6.00023 19.9011L2.66842 33.5625L1.2763 47.8596L1.96226 61.8561L4.60842 75.6667L130.463 93.727Z"/>
</mask>
<path fill-rule="evenodd" clip-rule="evenodd" d="M151.712 92.1829L153.584 17.1636L141.858 16.8709L142.148 5.2482L132.765 3.25191L130.295 102.221L139.775 100.343L139.986 91.8903L151.712 92.1829ZM130.463 93.727L132.59 8.49377L6.00023 19.9011L2.66842 33.5625L1.2763 47.8596L1.96226 61.8561L4.60842 75.6667L130.463 93.727Z" fill="#EFC3C4"/>
<path d="M153.584 17.1636L154.567 17.1881L154.592 16.205L153.608 16.1804L153.584 17.1636ZM151.712 92.1829L151.687 93.1661L152.67 93.1906L152.695 92.2075L151.712 92.1829ZM141.858 16.8709L140.875 16.8464L140.85 17.8295L141.833 17.8541L141.858 16.8709ZM142.148 5.2482L143.131 5.27274L143.152 4.45626L142.353 4.28629L142.148 5.2482ZM132.765 3.25191L132.97 2.29L131.812 2.04357L131.782 3.22737L132.765 3.25191ZM130.295 102.221L129.312 102.197L129.281 103.424L130.486 103.186L130.295 102.221ZM139.775 100.343L139.966 101.308L140.738 101.155L140.758 100.368L139.775 100.343ZM139.986 91.8903L140.01 90.9071L139.027 90.8826L139.002 91.8657L139.986 91.8903ZM132.59 8.49377L133.573 8.51831L133.601 7.41527L132.502 7.51429L132.59 8.49377ZM130.463 93.727L130.323 94.7005L131.419 94.8577L131.446 93.7516L130.463 93.727ZM6.00023 19.9011L5.91197 18.9216L5.21144 18.9848L5.04479 19.6681L6.00023 19.9011ZM2.66842 33.5625L1.71298 33.3294L1.69639 33.3975L1.68961 33.4671L2.66842 33.5625ZM1.2763 47.8596L0.297481 47.7643L0.290509 47.8359L0.294031 47.9077L1.2763 47.8596ZM1.96226 61.8561L0.979997 61.9043L0.98338 61.9733L0.996388 62.0412L1.96226 61.8561ZM4.60842 75.6667L3.64255 75.8517L3.77452 76.5405L4.46872 76.6402L4.60842 75.6667ZM152.601 17.139L150.728 92.1584L152.695 92.2075L154.567 17.1881L152.601 17.139ZM141.833 17.8541L153.559 18.1467L153.608 16.1804L141.882 15.8878L141.833 17.8541ZM141.165 5.22367L140.875 16.8464L142.841 16.8955L143.131 5.27274L141.165 5.22367ZM132.561 4.21382L141.943 6.21012L142.353 4.28629L132.97 2.29L132.561 4.21382ZM131.278 102.246L133.748 3.27645L131.782 3.22737L129.312 102.197L131.278 102.246ZM139.584 99.3784L130.104 101.256L130.486 103.186L139.966 101.308L139.584 99.3784ZM139.002 91.8657L138.791 100.319L140.758 100.368L140.969 91.9148L139.002 91.8657ZM151.736 91.1998L140.01 90.9071L139.961 92.8734L151.687 93.1661L151.736 91.1998ZM131.607 8.46923L129.48 93.7025L131.446 93.7516L133.573 8.51831L131.607 8.46923ZM6.08849 20.8806L132.679 9.47324L132.502 7.51429L5.91197 18.9216L6.08849 20.8806ZM3.62386 33.7955L6.95567 20.1341L5.04479 19.6681L1.71298 33.3294L3.62386 33.7955ZM2.25511 47.9549L3.64724 33.6578L1.68961 33.4671L0.297481 47.7643L2.25511 47.9549ZM2.94453 61.808L2.25856 47.8114L0.294031 47.9077L0.979997 61.9043L2.94453 61.808ZM5.57429 75.4816L2.92814 61.6711L0.996388 62.0412L3.64255 75.8517L5.57429 75.4816ZM130.603 92.7536L4.74811 74.6932L4.46872 76.6402L130.323 94.7005L130.603 92.7536Z" fill="#3A4062" mask="url(#path-2-inside-1_373_1239)"/>
</svg>
