<svg width="417" height="417" viewBox="0 0 417 417" fill="none" xmlns="http://www.w3.org/2000/svg">
<circle cx="208.068" cy="208.069" r="149.5" transform="rotate(146.232 208.068 208.069)" fill="#ECB7C0" stroke="black"/>
<path d="M123.528 239.334C120.911 231.053 111.442 227.155 103.754 231.194L63.5292 252.322C61.1236 253.585 59.3126 255.746 58.4884 258.335V258.335C57.9499 260.027 57.8565 261.829 58.2173 263.568L59.3476 269.015L61.6403 275.639C63.0769 279.79 65.8403 283.353 69.5036 285.777L70.5906 286.497C71.1227 286.849 71.6871 287.149 72.2762 287.395V287.395C74.9974 288.527 78.0785 288.409 80.7052 287.072L123.225 265.425C129.25 262.358 131.405 254.822 127.913 249.033V249.033L123.528 239.334V239.334Z" fill="#959CC4"/>
<circle cx="208.069" cy="208.069" r="104" transform="rotate(146.232 208.069 208.069)" fill="#959CC4"/>
<circle cx="208.07" cy="208.069" r="88" transform="rotate(146.232 208.07 208.069)" fill="#7E6363"/>
<path d="M182.64 206.88C181.104 206.88 179.909 206.368 179.056 205.344C178.203 204.32 177.776 202.997 177.776 201.376C177.776 200.181 178.288 198.347 179.312 195.872C180.507 192.885 181.104 189.6 181.104 186.016C181.104 185.248 181.019 184.736 180.848 184.48C180.763 184.224 180.507 184.096 180.08 184.096C179.653 184.096 179.056 184.352 178.288 184.864C175.301 186.741 172.912 188.832 171.12 191.136C169.84 192.843 168.645 194.123 167.536 194.976C166.512 195.744 165.317 196.128 163.952 196.128C162.501 196.128 161.349 195.659 160.496 194.72C159.643 193.696 159.216 192.587 159.216 191.392C159.216 189.515 159.984 188.149 161.52 187.296C163.056 186.357 165.147 185.717 167.792 185.376C170.949 184.949 174.107 183.84 177.264 182.048C177.435 181.963 177.691 181.792 178.032 181.536C178.373 181.28 178.544 180.981 178.544 180.64C178.544 180.299 178.373 180 178.032 179.744C177.691 179.488 177.435 179.317 177.264 179.232C174.107 177.44 170.949 176.331 167.792 175.904C165.147 175.563 163.056 174.965 161.52 174.112C159.984 173.173 159.216 171.765 159.216 169.888C159.216 168.693 159.643 167.627 160.496 166.688C161.349 165.664 162.501 165.152 163.952 165.152C165.317 165.152 166.512 165.579 167.536 166.432C168.645 167.2 169.84 168.437 171.12 170.144C172.912 172.448 175.301 174.539 178.288 176.416C179.056 176.928 179.653 177.184 180.08 177.184C180.507 177.184 180.763 177.056 180.848 176.8C181.019 176.544 181.104 176.032 181.104 175.264C181.104 171.68 180.507 168.395 179.312 165.408C178.288 162.933 177.776 161.099 177.776 159.904C177.776 158.283 178.203 156.96 179.056 155.936C179.909 154.912 181.104 154.4 182.64 154.4C184.176 154.4 185.371 154.912 186.224 155.936C187.077 156.96 187.504 158.283 187.504 159.904C187.504 161.099 186.992 162.933 185.968 165.408C184.773 168.395 184.176 171.68 184.176 175.264C184.176 176.032 184.219 176.544 184.304 176.8C184.475 177.056 184.773 177.184 185.2 177.184C185.627 177.184 186.224 176.928 186.992 176.416C189.979 174.539 192.368 172.448 194.16 170.144C195.44 168.437 196.635 167.2 197.744 166.432C198.853 165.579 200.048 165.152 201.328 165.152C202.779 165.152 203.931 165.664 204.784 166.688C205.637 167.627 206.064 168.693 206.064 169.888C206.064 171.765 205.296 173.173 203.76 174.112C202.224 174.965 200.133 175.563 197.488 175.904C194.331 176.331 191.173 177.44 188.016 179.232C187.845 179.317 187.589 179.488 187.248 179.744C186.907 180 186.736 180.299 186.736 180.64C186.736 180.981 186.907 181.28 187.248 181.536C187.589 181.792 187.845 181.963 188.016 182.048C191.173 183.84 194.331 184.949 197.488 185.376C200.133 185.717 202.224 186.357 203.76 187.296C205.296 188.149 206.064 189.515 206.064 191.392C206.064 192.587 205.637 193.696 204.784 194.72C203.931 195.659 202.779 196.128 201.328 196.128C200.048 196.128 198.853 195.744 197.744 194.976C196.635 194.123 195.44 192.843 194.16 191.136C192.368 188.832 189.979 186.741 186.992 184.864C186.224 184.352 185.627 184.096 185.2 184.096C184.773 184.096 184.475 184.224 184.304 184.48C184.219 184.736 184.176 185.248 184.176 186.016C184.176 189.6 184.773 192.885 185.968 195.872C186.992 198.347 187.504 200.181 187.504 201.376C187.504 202.997 187.077 204.32 186.224 205.344C185.371 206.368 184.176 206.88 182.64 206.88Z" fill="white"/>
</svg>
