<svg width="311" height="300" viewBox="0 0 311 300" fill="none" xmlns="http://www.w3.org/2000/svg">
<circle cx="150" cy="150" r="149.5" fill="white" stroke="black"/>
<path d="M237.657 171C235.23 179.338 240.935 187.842 249.571 188.758L294.753 193.553C297.455 193.839 300.161 193.05 302.286 191.356V191.356C303.674 190.248 304.753 188.802 305.42 187.156L307.507 182L309.284 175.219C310.397 170.969 310.08 166.471 308.382 162.42L307.878 161.218C307.632 160.63 307.33 160.066 306.976 159.535V159.535C305.344 157.081 302.717 155.466 299.79 155.118L252.411 149.479C245.698 148.68 239.717 153.747 239.403 160.5V160.5L237.657 171V171Z" fill="#EFC3C4"/>
<circle cx="150" cy="150" r="104" fill="#EFC3C4"/>
<circle cx="150" cy="150" r="88" fill="#7E6363"/>
<path d="M182.64 156.88C181.104 156.88 179.909 156.368 179.056 155.344C178.203 154.32 177.776 152.997 177.776 151.376C177.776 150.181 178.288 148.347 179.312 145.872C180.507 142.885 181.104 139.6 181.104 136.016C181.104 135.248 181.019 134.736 180.848 134.48C180.763 134.224 180.507 134.096 180.08 134.096C179.653 134.096 179.056 134.352 178.288 134.864C175.301 136.741 172.912 138.832 171.12 141.136C169.84 142.843 168.645 144.123 167.536 144.976C166.512 145.744 165.317 146.128 163.952 146.128C162.501 146.128 161.349 145.659 160.496 144.72C159.643 143.696 159.216 142.587 159.216 141.392C159.216 139.515 159.984 138.149 161.52 137.296C163.056 136.357 165.147 135.717 167.792 135.376C170.949 134.949 174.107 133.84 177.264 132.048C177.435 131.963 177.691 131.792 178.032 131.536C178.373 131.28 178.544 130.981 178.544 130.64C178.544 130.299 178.373 130 178.032 129.744C177.691 129.488 177.435 129.317 177.264 129.232C174.107 127.44 170.949 126.331 167.792 125.904C165.147 125.563 163.056 124.965 161.52 124.112C159.984 123.173 159.216 121.765 159.216 119.888C159.216 118.693 159.643 117.627 160.496 116.688C161.349 115.664 162.501 115.152 163.952 115.152C165.317 115.152 166.512 115.579 167.536 116.432C168.645 117.2 169.84 118.437 171.12 120.144C172.912 122.448 175.301 124.539 178.288 126.416C179.056 126.928 179.653 127.184 180.08 127.184C180.507 127.184 180.763 127.056 180.848 126.8C181.019 126.544 181.104 126.032 181.104 125.264C181.104 121.68 180.507 118.395 179.312 115.408C178.288 112.933 177.776 111.099 177.776 109.904C177.776 108.283 178.203 106.96 179.056 105.936C179.909 104.912 181.104 104.4 182.64 104.4C184.176 104.4 185.371 104.912 186.224 105.936C187.077 106.96 187.504 108.283 187.504 109.904C187.504 111.099 186.992 112.933 185.968 115.408C184.773 118.395 184.176 121.68 184.176 125.264C184.176 126.032 184.219 126.544 184.304 126.8C184.475 127.056 184.773 127.184 185.2 127.184C185.627 127.184 186.224 126.928 186.992 126.416C189.979 124.539 192.368 122.448 194.16 120.144C195.44 118.437 196.635 117.2 197.744 116.432C198.853 115.579 200.048 115.152 201.328 115.152C202.779 115.152 203.931 115.664 204.784 116.688C205.637 117.627 206.064 118.693 206.064 119.888C206.064 121.765 205.296 123.173 203.76 124.112C202.224 124.965 200.133 125.563 197.488 125.904C194.331 126.331 191.173 127.44 188.016 129.232C187.845 129.317 187.589 129.488 187.248 129.744C186.907 130 186.736 130.299 186.736 130.64C186.736 130.981 186.907 131.28 187.248 131.536C187.589 131.792 187.845 131.963 188.016 132.048C191.173 133.84 194.331 134.949 197.488 135.376C200.133 135.717 202.224 136.357 203.76 137.296C205.296 138.149 206.064 139.515 206.064 141.392C206.064 142.587 205.637 143.696 204.784 144.72C203.931 145.659 202.779 146.128 201.328 146.128C200.048 146.128 198.853 145.744 197.744 144.976C196.635 144.123 195.44 142.843 194.16 141.136C192.368 138.832 189.979 136.741 186.992 134.864C186.224 134.352 185.627 134.096 185.2 134.096C184.773 134.096 184.475 134.224 184.304 134.48C184.219 134.736 184.176 135.248 184.176 136.016C184.176 139.6 184.773 142.885 185.968 145.872C186.992 148.347 187.504 150.181 187.504 151.376C187.504 152.997 187.077 154.32 186.224 155.344C185.371 156.368 184.176 156.88 182.64 156.88Z" fill="white"/>
</svg>
