<svg width="374" height="541" viewBox="0 0 374 541" fill="none" xmlns="http://www.w3.org/2000/svg">
<path d="M36 119H344V512H36V119Z" fill="#B49A9A"/>
<path fill-rule="evenodd" clip-rule="evenodd" d="M343 120H37V511H343V120ZM36 119V512H344V119H36Z" fill="#3A4062"/>
<path d="M320 439C320 443.971 261.573 448 189.5 448C117.427 448 59 443.971 59 439C59 434.029 117.427 430 189.5 430C261.573 430 320 434.029 320 439Z" fill="white"/>
<path fill-rule="evenodd" clip-rule="evenodd" d="M318.891 439C318.858 438.973 318.816 438.942 318.764 438.907C318.429 438.68 317.866 438.416 317.029 438.134C315.37 437.574 312.87 437.02 309.584 436.484C303.026 435.414 293.506 434.447 281.709 433.634C258.122 432.007 225.521 431 189.5 431C153.479 431 120.878 432.007 97.2914 433.634C85.4937 434.447 75.9742 435.414 69.4163 436.484C66.1299 437.02 63.6304 437.574 61.9707 438.134C61.1341 438.416 60.5706 438.68 60.2356 438.907C60.1842 438.942 60.1424 438.973 60.1085 439C60.1424 439.027 60.1842 439.058 60.2356 439.093C60.5706 439.32 61.1341 439.584 61.9707 439.866C63.6304 440.426 66.1299 440.98 69.4163 441.516C75.9742 442.586 85.4937 443.553 97.2914 444.366C120.878 445.993 153.479 447 189.5 447C225.521 447 258.122 445.993 281.709 444.366C293.506 443.553 303.026 442.586 309.584 441.516C312.87 440.98 315.37 440.426 317.029 439.866C317.866 439.584 318.429 439.32 318.764 439.093C318.816 439.058 318.858 439.027 318.891 439ZM189.5 448C261.573 448 320 443.971 320 439C320 434.029 261.573 430 189.5 430C117.427 430 59 434.029 59 439C59 443.971 117.427 448 189.5 448Z" fill="#EFC3C4"/>
<path d="M318.764 438.907C318.816 438.942 318.858 438.973 318.891 439C318.858 439.027 318.816 439.058 318.764 439.093C318.429 439.32 317.866 439.584 317.029 439.866C315.37 440.426 312.87 440.98 309.584 441.516C303.026 442.586 293.506 443.553 281.709 444.366C258.122 445.993 225.521 447 189.5 447C153.479 447 120.878 445.993 97.2914 444.366C85.4937 443.553 75.9742 442.586 69.4163 441.516C66.1299 440.98 63.6304 440.426 61.9707 439.866C61.1341 439.584 60.5706 439.32 60.2356 439.093C60.1842 439.058 60.1424 439.027 60.1085 439C60.1424 438.973 60.1842 438.942 60.2356 438.907C60.5706 438.68 61.1341 438.416 61.9707 438.134C63.6304 437.574 66.1299 437.02 69.4163 436.484C75.9742 435.414 85.4937 434.447 97.2914 433.634C120.878 432.007 153.479 431 189.5 431C225.521 431 258.122 432.007 281.709 433.634C293.506 434.447 303.026 435.414 309.584 436.484C312.87 437.02 315.37 437.574 317.029 438.134C317.866 438.416 318.429 438.68 318.764 438.907Z" fill="#EFC3C4"/>
<path d="M182 447H199V511H182V447Z" fill="white"/>
<path d="M226 400H251.08V437H226V400Z" fill="white"/>
<path fill-rule="evenodd" clip-rule="evenodd" d="M249.942 401.194H227.138V435.806H249.942V401.194ZM226 400V437H251.08V400H226Z" fill="#3A4062"/>
<path d="M259 413.875C259 417.889 256.931 421.143 254.38 421.143C251.828 421.143 249.76 417.889 249.76 413.875C249.76 409.861 251.828 406.607 254.38 406.607C256.931 406.607 259 409.861 259 413.875Z" fill="#B49A9A"/>
<path fill-rule="evenodd" clip-rule="evenodd" d="M256.7 418.352C257.395 417.259 257.862 415.679 257.862 413.875C257.862 412.071 257.395 410.491 256.7 409.398C255.999 408.296 255.157 407.801 254.38 407.801C253.603 407.801 252.76 408.296 252.06 409.398C251.365 410.491 250.898 412.071 250.898 413.875C250.898 415.679 251.365 417.259 252.06 418.352C252.76 419.454 253.603 419.949 254.38 419.949C255.157 419.949 255.999 419.454 256.7 418.352ZM254.38 421.143C256.931 421.143 259 417.889 259 413.875C259 409.861 256.931 406.607 254.38 406.607C251.828 406.607 249.76 409.861 249.76 413.875C249.76 417.889 251.828 421.143 254.38 421.143Z" fill="#3A4062"/>
<path d="M221 393H190.6V443H221V393Z" fill="#C38590"/>
<path fill-rule="evenodd" clip-rule="evenodd" d="M191.979 394.613H219.621V441.387H191.979V394.613ZM221 393V443H190.6V393H221Z" fill="#3A4062"/>
<path d="M180.999 411.75C180.999 417.174 183.506 421.571 186.599 421.571C189.692 421.571 192.199 417.174 192.199 411.75C192.199 406.326 189.692 401.929 186.599 401.929C183.506 401.929 180.999 406.326 180.999 411.75Z" fill="#B49A9A"/>
<path fill-rule="evenodd" clip-rule="evenodd" d="M183.787 417.8C182.944 416.322 182.379 414.188 182.379 411.75C182.379 409.312 182.944 407.178 183.787 405.7C184.636 404.211 185.657 403.541 186.599 403.541C187.541 403.541 188.562 404.211 189.411 405.7C190.254 407.178 190.82 409.312 190.82 411.75C190.82 414.188 190.254 416.322 189.411 417.8C188.562 419.289 187.541 419.959 186.599 419.959C185.657 419.959 184.636 419.289 183.787 417.8ZM186.599 421.571C183.506 421.571 180.999 417.174 180.999 411.75C180.999 406.326 183.506 401.929 186.599 401.929C189.692 401.929 192.199 406.326 192.199 411.75C192.199 417.174 189.692 421.571 186.599 421.571Z" fill="#3A4062"/>
<path fill-rule="evenodd" clip-rule="evenodd" d="M175 247H70V383H175V247ZM69 246V384H176V246H69Z" fill="#3A4062"/>
<path fill-rule="evenodd" clip-rule="evenodd" d="M314 247H209V312H314V247ZM208 246V313H315V246H208Z" fill="#3A4062"/>
<path fill-rule="evenodd" clip-rule="evenodd" d="M314 318H209V383H314V318ZM208 317V384H315V317H208Z" fill="#3A4062"/>
<path fill-rule="evenodd" clip-rule="evenodd" d="M173.513 341.207C173.151 347.078 172.149 352.429 170.507 357.259C168.922 361.945 165.689 364.992 160.808 366.401C154.663 368.173 147.129 365.452 138.206 358.236C137.941 358.022 137.675 357.804 137.408 357.582C137.263 357.894 137.115 358.205 136.965 358.513C134.558 363.458 131.555 367.837 127.955 371.65C124.186 375.556 119.816 378.226 114.845 379.661C106.619 382.034 99.4567 381.473 93.3572 377.979C87.2577 374.484 82.8257 367.946 80.0613 358.364C78.116 351.621 78.1883 344.744 80.2782 337.734C82.3681 330.724 85.2836 323.86 89.0245 317.142L91.9146 311.887L89.7909 309.617C86.3929 305.984 83.4127 302.102 80.8504 297.972C78.2539 293.723 76.3926 289.647 75.2664 285.743C73.5599 279.828 72.9903 274.29 73.5575 269.129C74.1809 263.823 75.6991 259.413 78.1119 255.897C80.5247 252.382 83.584 250.09 87.29 249.021C92.5326 247.508 97.0958 248.562 100.98 252.183C104.92 255.66 107.744 260.355 109.45 266.27C111.361 272.895 111.542 279.122 109.993 284.951C108.534 290.754 105.94 297.205 102.211 304.304L138.022 340.874L138.308 339.83C138.315 339.806 138.322 339.782 138.329 339.758C140.013 333.78 141.04 327.547 141.411 321.058C141.784 314.544 141.475 309.571 140.486 306.14C139.871 304.011 138.834 302.452 137.374 301.464C136.004 300.449 134.596 300.151 133.15 300.568L127.049 302.328L125.411 296.65L159.035 286.949L160.674 292.628L156.471 293.84C154.03 294.544 152.031 295.761 150.474 297.492C149.008 299.197 148.093 302.472 147.728 307.319C146.899 317.681 146.066 325.482 145.227 330.722C144.445 335.817 143.425 340.596 142.167 345.06C147.003 349.944 150.898 353.433 153.852 355.528C156.897 357.597 159.504 358.319 161.674 357.693C165.018 356.728 167.326 354.717 168.598 351.659C169.771 348.839 170.525 345.431 170.859 341.436C170.887 341.099 170.912 340.758 170.935 340.413L173.513 341.207ZM154.423 354.707C157.37 356.708 159.654 357.235 161.396 356.732C164.466 355.847 166.526 354.036 167.675 351.275C168.892 348.347 169.656 344.713 169.937 340.349L170.018 339.085L174.56 340.483L174.512 341.268C174.144 347.214 173.128 352.654 171.454 357.58C169.761 362.586 166.27 365.865 161.085 367.361C154.493 369.263 146.671 366.321 137.761 359.161C135.33 364.107 132.304 368.5 128.682 372.336L128.674 372.344C124.79 376.37 120.27 379.136 115.122 380.621C106.697 383.052 99.2441 382.504 92.8601 378.846C86.4554 375.177 81.9066 368.368 79.1005 358.641C77.0998 351.706 77.1777 344.634 79.3199 337.448C81.4314 330.366 84.3754 323.436 88.1492 316.658C88.1498 316.657 88.1503 316.656 88.1508 316.656L90.6889 312.041L89.0605 310.3C85.6188 306.62 82.5984 302.686 80.0006 298.499L79.9971 298.493C77.3641 294.185 75.4614 290.027 74.3055 286.02C72.5695 280.003 71.9796 274.332 72.5634 269.019L72.5643 269.012C73.2019 263.585 74.7624 259.01 77.2874 255.331C79.8166 251.646 83.0603 249.2 87.0128 248.06C92.5773 246.455 97.5041 247.581 101.652 251.442C105.752 255.064 108.662 259.932 110.411 265.993C112.364 272.764 112.561 279.175 110.961 285.202C109.522 290.923 107.006 297.231 103.433 304.123L137.52 338.932C139.093 333.197 140.057 327.22 140.413 321.001C140.784 314.522 140.467 309.684 139.525 306.418C138.958 304.454 138.034 303.118 136.813 302.292L136.796 302.28L136.779 302.267C135.622 301.41 134.532 301.21 133.427 301.529L126.365 303.566L124.173 295.966L159.719 285.711L161.912 293.311L156.748 294.801C154.474 295.457 152.645 296.578 151.225 298.153C150.627 298.852 150.086 299.94 149.651 301.496C149.217 303.05 148.905 305.011 148.726 307.394L148.725 307.398C147.896 317.765 147.06 325.597 146.215 330.876C145.46 335.793 144.485 340.424 143.287 344.768C147.915 349.419 151.623 352.72 154.423 354.707ZM103.756 283.697L103.759 283.69C105.232 278.726 105.103 273.138 103.301 266.891C102.155 262.919 100.175 259.79 97.3798 257.457C94.6078 255.143 91.9236 254.491 89.2385 255.266C85.94 256.217 83.716 258.646 82.618 262.819L82.6144 262.833C81.4776 266.919 81.6952 271.838 83.3688 277.639C84.4227 281.292 86.2567 284.866 88.8902 288.361C91.562 291.907 94.1599 294.884 96.6825 297.3C96.6833 297.301 96.684 297.301 96.6847 297.302L97.756 298.317C100.432 293.293 102.429 288.422 103.754 283.704L103.756 283.697ZM98.5086 299.031C98.3462 299.333 98.1815 299.636 98.0143 299.94L95.993 298.024C93.4224 295.562 90.7886 292.542 88.0916 288.963C85.3946 285.384 83.5001 281.702 82.4079 277.916C80.7015 272.001 80.4492 266.884 81.6509 262.565C82.8186 258.127 85.2554 255.374 88.9613 254.305C92.0346 253.418 95.0543 254.213 98.0206 256.689C100.987 259.165 103.067 262.473 104.262 266.614C106.105 273.002 106.257 278.789 104.717 283.974C103.349 288.848 101.279 293.867 98.5086 299.031ZM129.014 351.481L96.3052 317.763L95.9966 318.353C93.6494 322.773 92.1255 327.779 91.4368 333.385L91.4357 333.394C90.7236 338.807 91.4337 345.303 93.6286 352.912C95.207 358.383 97.2717 362.702 99.7931 365.912C102.402 369.017 105.02 371.114 107.635 372.276C110.345 373.31 112.669 373.481 114.659 372.907C121.697 370.876 127.56 364.825 132.135 354.394L129.014 351.481ZM107.253 373.201C104.447 371.96 101.702 369.741 99.017 366.543C96.3883 363.2 94.2719 358.749 92.6678 353.189C90.4495 345.5 89.7083 338.858 90.4442 333.263C91.1461 327.551 92.7024 322.424 95.1134 317.884L96.0596 316.074L129.714 350.767L133.332 354.144C128.661 365.103 122.529 371.677 114.936 373.868C112.676 374.52 110.115 374.297 107.253 373.201Z" fill="#3A4062"/>
<path d="M104.114 299.898C100.968 296.582 99.4993 293.025 99.709 289.225C99.9186 285.426 102.006 281.645 105.972 277.882C108.763 275.234 112.109 273.514 116.009 272.722C119.909 271.929 123.939 271.568 128.098 271.638L131.343 271.675L131.926 270.083C132.859 267.536 134.014 265.125 135.39 262.849C136.816 260.528 138.336 258.6 139.952 257.067C142.4 254.745 144.942 253.06 147.577 252.013C150.297 250.957 152.8 250.555 155.087 250.809C157.374 251.062 159.226 251.936 160.644 253.43C162.649 255.543 163.247 257.988 162.438 260.763C161.713 263.529 160.126 266.073 157.678 268.396C154.936 270.997 151.967 272.672 148.769 273.421C145.607 274.206 141.855 274.615 137.514 274.648L128.514 301.052L129.088 300.922C132.404 300.2 135.683 299.096 138.926 297.612C142.169 296.127 144.501 294.711 145.921 293.364C146.802 292.528 147.305 291.636 147.428 290.688C147.587 289.776 147.389 289.028 146.836 288.445L144.502 285.986L146.853 283.756L159.714 297.311L157.363 299.541L155.756 297.847C154.822 296.863 153.748 296.22 152.532 295.92C151.351 295.655 149.544 296.055 147.11 297.118C141.893 299.366 137.916 300.959 135.176 301.897C132.521 302.824 129.96 303.557 127.494 304.096C126.305 307.648 125.563 310.395 125.266 312.338C125.004 314.317 125.288 315.744 126.118 316.619C127.397 317.967 128.931 318.554 130.72 318.38C132.509 318.206 134.512 317.621 136.73 316.625L136.972 318.057C134.043 319.382 131.21 320.27 128.474 320.719C125.821 321.159 123.561 320.395 121.694 318.428C119.274 315.877 118.802 311.408 120.279 305.022C117.099 305.2 114.064 304.894 111.175 304.104C108.369 303.304 106.015 301.902 104.114 299.898ZM138.606 271.534C141.994 271.575 145.112 271.282 147.961 270.656C150.844 270.067 153.608 268.518 156.252 266.01C157.965 264.384 159.061 262.548 159.539 260.502C160.017 258.456 159.668 256.814 158.492 255.575C157.075 254.081 155.151 253.622 152.72 254.197C150.338 254.726 147.922 256.152 145.474 258.475C143.908 259.961 142.586 261.804 141.509 264.003C140.432 266.202 139.61 268.228 139.043 270.082L138.606 271.534ZM106.939 298.464C109.843 301.525 114.514 302.771 120.952 302.202L121.708 299.615L130.324 274.719L129.218 274.73C126.435 274.739 123.576 275.305 120.641 276.428C117.755 277.504 114.721 279.552 111.538 282.572C109.237 284.755 107.597 286.9 106.618 289.006C105.722 291.102 105.315 292.977 105.396 294.631C105.561 296.275 106.075 297.553 106.939 298.464Z" fill="white"/>
<path d="M97.7064 406.069C97.8484 405.11 98.7904 404.531 99.6209 404.891L110.643 409.678C110.965 409.817 111.327 409.82 111.656 409.686L125.567 404.015C125.878 403.888 126.218 403.883 126.526 404.001L148.43 412.369C148.53 412.407 148.634 412.433 148.74 412.445L171.942 415.176C172.717 415.267 173.255 416.027 173.132 416.857L169.608 440.655C169.504 441.361 168.949 441.898 168.285 441.938L144.336 443.355C144.114 443.369 143.893 443.324 143.692 443.227L122.369 432.838C122.003 432.66 121.579 432.663 121.209 432.848L107.396 439.745C106.947 439.969 106.425 439.924 106.024 439.626L94.755 431.229C94.3277 430.91 94.11 430.357 94.1926 429.798L97.7064 406.069Z" fill="white"/>
<path fill-rule="evenodd" clip-rule="evenodd" d="M168.238 440.452L171.762 416.655L148.56 413.924C148.348 413.899 148.14 413.848 147.94 413.772L126.036 405.404L112.126 411.075C111.467 411.344 110.743 411.338 110.099 411.058L99.0768 406.272L95.563 430.001L106.832 438.398L120.645 431.502C121.386 431.132 122.233 431.125 122.965 431.481L144.288 441.87L168.238 440.452ZM99.6209 404.891C98.7904 404.531 97.8484 405.11 97.7064 406.069L94.1926 429.798C94.11 430.357 94.3277 430.91 94.755 431.229L106.024 439.626C106.425 439.924 106.947 439.969 107.396 439.745L121.209 432.848C121.579 432.663 122.003 432.66 122.369 432.838L143.692 443.227C143.893 443.324 144.114 443.369 144.336 443.355L168.285 441.938C168.949 441.898 169.504 441.361 169.608 440.655L173.132 416.857C173.255 416.027 172.717 415.267 171.942 415.176L148.74 412.445C148.634 412.433 148.53 412.407 148.43 412.369L126.526 404.001C126.218 403.883 125.878 403.888 125.567 404.015L111.656 409.686C111.327 409.82 110.965 409.817 110.643 409.678L99.6209 404.891Z" fill="#3A4062"/>
<path d="M167.91 423.214C167.718 423.795 167.43 424.229 167.047 424.516C166.656 424.802 166.197 424.906 165.671 424.828C165.411 424.79 165.206 424.666 165.055 424.456C164.942 424.298 164.9 424.12 164.929 423.922C164.948 423.799 165.009 423.691 165.114 423.597C165.216 423.519 165.342 423.49 165.49 423.512C165.616 423.531 165.724 423.574 165.812 423.642C165.893 423.709 166.01 423.839 166.163 424.034C166.239 424.139 166.354 424.203 166.51 424.226C166.703 424.254 166.896 424.178 167.09 423.995C167.276 423.812 167.431 423.534 167.554 423.162L164.084 422.648L164.051 422.713C163.773 423.211 163.444 423.565 163.064 423.774C162.678 423.975 162.252 424.041 161.785 423.972C161.317 423.902 160.926 423.704 160.611 423.376C160.297 423.04 160.12 422.6 160.079 422.055L159.356 421.948L159.41 421.581L160.078 421.68C160.086 421.525 160.096 421.401 160.11 421.309C160.128 421.187 160.145 421.096 160.162 421.036L159.506 420.939L159.56 420.572L160.261 420.675C160.44 420.132 160.719 419.731 161.098 419.475C161.478 419.211 161.876 419.11 162.291 419.171C162.454 419.195 162.593 419.228 162.708 419.268C162.824 419.309 162.929 419.367 163.023 419.444C163.105 419.51 163.164 419.597 163.201 419.704C163.239 419.804 163.25 419.911 163.233 420.026C163.22 420.11 163.199 420.177 163.169 420.227C163.139 420.277 163.09 420.329 163.021 420.381C162.929 420.438 162.832 420.458 162.728 420.443C162.594 420.423 162.484 420.376 162.396 420.3C162.31 420.217 162.233 420.124 162.165 420.02C162.11 419.934 162.052 419.866 161.99 419.818C161.923 419.761 161.826 419.724 161.7 419.705C161.53 419.68 161.341 419.753 161.133 419.926C160.92 420.089 160.747 420.357 160.617 420.728L163.776 421.196L163.899 420.98C164.155 420.525 164.488 420.196 164.898 419.991C165.301 419.777 165.725 419.703 166.17 419.769C166.704 419.848 167.152 420.071 167.514 420.437C167.871 420.794 168.067 421.261 168.103 421.837L168.926 421.959L168.872 422.325L168.104 422.212C168.102 422.274 168.093 422.366 168.074 422.489C168.05 422.657 168.028 422.779 168.009 422.854L168.777 422.968L168.722 423.335L167.91 423.214ZM160.518 421.088C160.501 421.149 160.484 421.24 160.466 421.362C160.452 421.454 160.442 421.577 160.434 421.732L163.237 422.147L163.577 421.541L160.518 421.088ZM160.446 422.109C160.496 422.492 160.633 422.789 160.86 423.002C161.078 423.215 161.332 423.342 161.621 423.385C161.94 423.432 162.199 423.4 162.397 423.289C162.597 423.17 162.8 422.926 163.006 422.558L163.038 422.493L160.446 422.109ZM167.719 422.436C167.737 422.314 167.747 422.221 167.748 422.159L164.622 421.696L164.283 422.302L167.653 422.801C167.672 422.726 167.694 422.604 167.719 422.436ZM167.736 421.782C167.691 421.369 167.547 421.036 167.304 420.781C167.054 420.525 166.77 420.374 166.451 420.326C166.065 420.269 165.768 420.307 165.559 420.44C165.342 420.572 165.137 420.804 164.944 421.135L164.821 421.351L167.736 421.782Z" fill="#3A4062"/>
<path d="M113.078 426.748C113.126 427.357 113.029 427.876 112.788 428.305C112.539 428.736 112.158 429.034 111.644 429.198C111.39 429.278 111.154 429.258 110.934 429.135C110.769 429.044 110.662 428.902 110.612 428.71C110.582 428.591 110.596 428.467 110.656 428.335C110.72 428.219 110.825 428.138 110.969 428.092C111.092 428.053 111.208 428.044 111.315 428.066C111.416 428.09 111.574 428.155 111.789 428.263C111.899 428.324 112.03 428.33 112.182 428.282C112.37 428.222 112.518 428.067 112.626 427.816C112.726 427.568 112.761 427.249 112.73 426.859L109.343 427.937L109.338 428.011C109.275 428.583 109.109 429.048 108.842 429.406C108.565 429.758 108.198 430.007 107.742 430.152C107.286 430.297 106.85 430.292 106.433 430.137C106.015 429.974 105.682 429.655 105.434 429.182L104.728 429.407L104.636 429.052L105.288 428.845C105.235 428.701 105.197 428.585 105.174 428.497C105.143 428.378 105.124 428.288 105.116 428.227L104.475 428.431L104.383 428.076L105.067 427.858C105.022 427.288 105.123 426.804 105.373 426.404C105.62 425.997 105.946 425.729 106.351 425.6C106.511 425.55 106.651 425.517 106.773 425.502C106.894 425.487 107.013 425.494 107.13 425.52C107.23 425.545 107.318 425.597 107.394 425.677C107.467 425.749 107.519 425.841 107.547 425.952C107.568 426.033 107.575 426.103 107.566 426.162C107.558 426.221 107.533 426.289 107.49 426.366C107.428 426.458 107.346 426.52 107.245 426.552C107.114 426.594 106.994 426.6 106.885 426.571C106.774 426.534 106.667 426.484 106.564 426.421C106.48 426.368 106.4 426.333 106.326 426.317C106.242 426.296 106.138 426.305 106.015 426.344C105.849 426.397 105.703 426.547 105.579 426.795C105.446 427.037 105.392 427.355 105.415 427.747L108.499 426.765L108.528 426.516C108.588 425.993 108.767 425.547 109.064 425.181C109.351 424.809 109.712 424.554 110.147 424.416C110.668 424.25 111.166 424.251 111.64 424.42C112.106 424.584 112.467 424.918 112.722 425.42L113.526 425.165L113.618 425.519L112.868 425.758C112.891 425.815 112.918 425.902 112.948 426.021C112.99 426.183 113.017 426.303 113.029 426.379L113.779 426.141L113.87 426.496L113.078 426.748ZM105.463 428.116C105.472 428.178 105.491 428.268 105.522 428.386C105.545 428.475 105.582 428.591 105.635 428.734L108.371 427.863L108.449 427.165L105.463 428.116ZM105.792 429.068C105.986 429.391 106.227 429.598 106.517 429.69C106.8 429.784 107.083 429.786 107.365 429.696C107.676 429.597 107.902 429.453 108.041 429.264C108.178 429.069 108.271 428.759 108.318 428.336L108.322 428.262L105.792 429.068ZM112.601 426.131C112.57 426.013 112.544 425.926 112.521 425.869L109.47 426.84L109.392 427.538L112.682 426.49C112.67 426.414 112.643 426.294 112.601 426.131ZM112.364 425.535C112.163 425.182 111.902 424.945 111.58 424.824C111.252 424.704 110.932 424.694 110.62 424.793C110.244 424.913 109.985 425.079 109.845 425.292C109.697 425.507 109.598 425.807 109.549 426.191L109.519 426.44L112.364 425.535Z" fill="#3A4062"/>
<path d="M107.598 417.214C107.406 417.795 107.118 418.229 106.734 418.516C106.343 418.801 105.885 418.905 105.358 418.827C105.098 418.789 104.893 418.665 104.743 418.455C104.629 418.298 104.588 418.12 104.617 417.921C104.635 417.798 104.697 417.69 104.801 417.597C104.904 417.518 105.029 417.49 105.178 417.512C105.304 417.53 105.411 417.574 105.5 417.641C105.581 417.708 105.698 417.839 105.851 418.033C105.926 418.138 106.042 418.202 106.197 418.225C106.39 418.254 106.584 418.177 106.777 417.995C106.964 417.811 107.118 417.533 107.242 417.161L103.771 416.647L103.739 416.713C103.46 417.21 103.131 417.564 102.752 417.774C102.366 417.974 101.939 418.04 101.472 417.971C101.005 417.902 100.614 417.703 100.299 417.375C99.9845 417.04 99.8072 416.599 99.7666 416.054L99.0436 415.947L99.0979 415.58L99.7654 415.679C99.7732 415.524 99.7839 415.4 99.7975 415.309C99.8156 415.186 99.8329 415.095 99.8493 415.035L99.193 414.938L99.2474 414.571L99.9482 414.675C100.127 414.131 100.406 413.731 100.785 413.474C101.165 413.21 101.563 413.109 101.978 413.17C102.141 413.195 102.281 413.227 102.396 413.267C102.511 413.308 102.616 413.367 102.711 413.443C102.792 413.51 102.851 413.597 102.888 413.704C102.927 413.803 102.937 413.91 102.92 414.025C102.908 414.109 102.887 414.176 102.856 414.226C102.826 414.277 102.777 414.328 102.709 414.38C102.617 414.437 102.519 414.458 102.415 414.442C102.282 414.423 102.171 414.375 102.084 414.299C101.998 414.216 101.921 414.123 101.853 414.019C101.797 413.933 101.739 413.866 101.678 413.817C101.611 413.761 101.514 413.723 101.388 413.704C101.217 413.679 101.028 413.752 100.821 413.925C100.607 414.089 100.435 414.356 100.304 414.727L103.463 415.195L103.586 414.979C103.843 414.525 104.176 414.195 104.585 413.99C104.988 413.776 105.412 413.702 105.857 413.768C106.391 413.847 106.839 414.07 107.202 414.436C107.558 414.794 107.754 415.26 107.79 415.836L108.614 415.958L108.559 416.325L107.792 416.211C107.79 416.273 107.78 416.366 107.762 416.488C107.737 416.656 107.715 416.778 107.697 416.853L108.464 416.967L108.41 417.334L107.598 417.214ZM100.205 415.088C100.189 415.148 100.172 415.239 100.153 415.361C100.14 415.453 100.129 415.576 100.121 415.732L102.924 416.147L103.264 415.541L100.205 415.088ZM100.134 416.108C100.183 416.491 100.321 416.789 100.547 417.002C100.766 417.214 101.02 417.341 101.309 417.384C101.628 417.431 101.886 417.399 102.085 417.288C102.284 417.169 102.487 416.926 102.693 416.558L102.726 416.492L100.134 416.108ZM107.406 416.435C107.424 416.313 107.434 416.221 107.436 416.158L104.31 415.696L103.97 416.301L107.341 416.801C107.359 416.725 107.381 416.603 107.406 416.435ZM107.423 415.782C107.378 415.369 107.235 415.035 106.992 414.78C106.742 414.524 106.457 414.373 106.138 414.326C105.753 414.268 105.455 414.306 105.246 414.44C105.03 414.572 104.825 414.803 104.632 415.134L104.509 415.35L107.423 415.782Z" fill="#3A4062"/>
<path d="M124.287 410.74C124.389 411.34 124.338 411.866 124.135 412.316C123.925 412.77 123.571 413.104 123.072 413.319C122.827 413.425 122.589 413.428 122.359 413.329C122.187 413.255 122.067 413.124 122 412.938C121.959 412.824 121.963 412.699 122.011 412.562C122.065 412.44 122.162 412.349 122.302 412.288C122.421 412.237 122.536 412.217 122.645 412.227C122.747 412.241 122.91 412.29 123.135 412.375C123.25 412.425 123.381 412.418 123.529 412.354C123.711 412.276 123.845 412.107 123.93 411.847C124.008 411.59 124.015 411.27 123.95 410.885L120.666 412.3L120.668 412.373C120.655 412.948 120.531 413.427 120.295 413.809C120.05 414.187 119.706 414.472 119.264 414.662C118.822 414.852 118.387 414.892 117.957 414.779C117.526 414.66 117.165 414.377 116.876 413.932L116.192 414.227L116.069 413.883L116.701 413.611C116.636 413.474 116.588 413.363 116.557 413.277C116.516 413.163 116.489 413.075 116.475 413.015L115.854 413.283L115.731 412.939L116.394 412.654C116.298 412.092 116.357 411.6 116.571 411.178C116.781 410.749 117.083 410.45 117.476 410.28C117.631 410.214 117.768 410.167 117.888 410.14C118.008 410.113 118.127 410.107 118.246 410.122C118.348 410.136 118.44 410.179 118.523 410.251C118.603 410.315 118.662 410.401 118.7 410.509C118.728 410.587 118.741 410.656 118.738 410.715C118.735 410.775 118.715 410.845 118.68 410.926C118.625 411.024 118.549 411.094 118.451 411.136C118.325 411.191 118.206 411.209 118.094 411.191C117.98 411.166 117.868 411.127 117.761 411.074C117.672 411.03 117.589 411.004 117.513 410.995C117.428 410.982 117.325 411.002 117.206 411.053C117.045 411.123 116.913 411.287 116.811 411.545C116.7 411.8 116.673 412.121 116.731 412.509L119.721 411.221L119.728 410.97C119.742 410.444 119.881 409.983 120.145 409.589C120.399 409.191 120.737 408.901 121.158 408.719C121.663 408.502 122.16 408.453 122.648 408.573C123.127 408.688 123.516 408.983 123.815 409.457L124.594 409.121L124.717 409.465L123.991 409.778C124.019 409.832 124.053 409.916 124.094 410.03C124.15 410.188 124.188 410.304 124.206 410.378L124.933 410.065L125.055 410.409L124.287 410.74ZM116.812 412.87C116.825 412.93 116.853 413.018 116.894 413.132C116.924 413.218 116.972 413.329 117.038 413.466L119.69 412.324L119.707 411.623L116.812 412.87ZM117.224 413.782C117.445 414.083 117.704 414.265 118.002 414.327C118.292 414.391 118.574 414.365 118.848 414.247C119.15 414.117 119.362 413.951 119.484 413.75C119.604 413.541 119.669 413.225 119.678 412.799L119.676 412.726L117.224 413.782ZM123.757 410.176C123.716 410.061 123.682 409.977 123.654 409.923L120.696 411.197L120.68 411.897L123.869 410.523C123.851 410.449 123.813 410.333 123.757 410.176ZM123.468 409.606C123.237 409.277 122.955 409.068 122.624 408.979C122.285 408.894 121.965 408.916 121.664 409.046C121.299 409.204 121.055 409.395 120.934 409.621C120.805 409.85 120.733 410.157 120.717 410.544L120.71 410.795L123.468 409.606Z" fill="#3A4062"/>
<path d="M124.642 425.572C124.272 426.047 123.862 426.348 123.412 426.473C122.955 426.595 122.495 426.519 122.032 426.246C121.803 426.112 121.654 425.917 121.583 425.662C121.53 425.471 121.55 425.287 121.642 425.111C121.699 425.003 121.792 424.924 121.92 424.875C122.041 424.84 122.167 424.86 122.298 424.937C122.408 425.003 122.494 425.084 122.554 425.181C122.607 425.275 122.673 425.442 122.751 425.684C122.786 425.811 122.872 425.915 123.009 425.996C123.179 426.096 123.383 426.097 123.623 425.998C123.857 425.896 124.092 425.692 124.329 425.388L121.277 423.59L121.225 423.639C120.803 424.003 120.381 424.212 119.96 424.266C119.535 424.31 119.118 424.21 118.707 423.968C118.296 423.726 117.998 423.391 117.814 422.962C117.633 422.527 117.613 422.045 117.755 421.515L117.119 421.141L117.29 420.815L117.877 421.161C117.935 421.017 117.986 420.905 118.029 420.824C118.086 420.715 118.132 420.636 118.167 420.585L117.59 420.245L117.761 419.92L118.377 420.283C118.723 419.838 119.113 419.566 119.55 419.468C119.989 419.362 120.392 419.417 120.757 419.632C120.901 419.717 121.019 419.8 121.113 419.882C121.206 419.964 121.285 420.059 121.347 420.167C121.401 420.26 121.427 420.365 121.426 420.48C121.429 420.588 121.404 420.693 121.35 420.795C121.311 420.869 121.269 420.925 121.225 420.961C121.18 420.996 121.117 421.026 121.037 421.05C120.933 421.069 120.835 421.051 120.744 420.997C120.627 420.928 120.54 420.841 120.483 420.737C120.431 420.626 120.39 420.509 120.361 420.385C120.338 420.283 120.306 420.197 120.265 420.129C120.221 420.05 120.144 419.978 120.033 419.912C119.883 419.824 119.684 419.822 119.434 419.906C119.182 419.979 118.934 420.167 118.69 420.467L121.469 422.104L121.654 421.946C122.042 421.615 122.46 421.43 122.907 421.392C123.351 421.343 123.769 421.433 124.161 421.664C124.63 421.941 124.973 422.32 125.189 422.803C125.402 423.275 125.43 423.789 125.274 424.346L125.998 424.772L125.827 425.097L125.152 424.7C125.13 424.758 125.09 424.841 125.033 424.95C124.955 425.099 124.895 425.206 124.852 425.27L125.527 425.667L125.356 425.993L124.642 425.572ZM118.48 420.77C118.445 420.82 118.399 420.9 118.342 421.008C118.299 421.089 118.248 421.202 118.19 421.345L120.655 422.797L121.17 422.354L118.48 420.77ZM118.078 421.705C117.998 422.085 118.028 422.418 118.167 422.704C118.3 422.987 118.494 423.203 118.748 423.353C119.029 423.518 119.28 423.586 119.5 423.556C119.725 423.519 119.993 423.367 120.305 423.097L120.357 423.048L118.078 421.705ZM124.72 424.765C124.777 424.657 124.817 424.574 124.839 424.515L122.09 422.896L121.575 423.339L124.539 425.085C124.581 425.021 124.642 424.915 124.72 424.765ZM124.952 424.155C125.046 423.749 125.022 423.38 124.881 423.048C124.733 422.712 124.519 422.461 124.238 422.296C123.899 422.096 123.61 422.02 123.373 422.066C123.128 422.108 122.862 422.249 122.574 422.488L122.388 422.646L124.952 424.155Z" fill="#3A4062"/>
<path d="M134.831 416.118C134.872 416.728 134.769 417.246 134.523 417.671C134.269 418.1 133.885 418.392 133.369 418.549C133.115 418.626 132.878 418.602 132.66 418.477C132.497 418.383 132.391 418.24 132.344 418.047C132.314 417.928 132.33 417.803 132.392 417.673C132.457 417.557 132.563 417.478 132.708 417.433C132.831 417.396 132.947 417.389 133.054 417.412C133.154 417.437 133.311 417.505 133.526 417.616C133.635 417.678 133.765 417.686 133.918 417.64C134.107 417.583 134.256 417.429 134.367 417.18C134.47 416.934 134.509 416.615 134.483 416.224L131.083 417.257L131.078 417.33C131.008 417.902 130.837 418.365 130.565 418.719C130.284 419.067 129.915 419.311 129.457 419.45C129 419.589 128.564 419.578 128.149 419.417C127.733 419.249 127.404 418.926 127.161 418.449L126.453 418.664L126.365 418.308L127.019 418.109C126.968 417.965 126.932 417.849 126.91 417.76C126.88 417.641 126.862 417.551 126.855 417.489L126.212 417.685L126.124 417.328L126.811 417.12C126.772 416.549 126.879 416.066 127.133 415.67C127.385 415.266 127.714 415.003 128.121 414.879C128.281 414.83 128.421 414.8 128.543 414.787C128.665 414.773 128.784 414.781 128.9 414.81C129 414.835 129.087 414.888 129.162 414.969C129.235 415.043 129.285 415.135 129.312 415.247C129.332 415.328 129.338 415.399 129.329 415.457C129.32 415.516 129.293 415.583 129.25 415.66C129.187 415.752 129.104 415.813 129.002 415.843C128.872 415.883 128.752 415.888 128.643 415.857C128.532 415.819 128.425 415.768 128.324 415.703C128.24 415.648 128.161 415.613 128.086 415.595C128.003 415.573 127.899 415.58 127.776 415.618C127.609 415.669 127.462 415.817 127.335 416.063C127.199 416.304 127.14 416.621 127.159 417.014L130.253 416.073L130.286 415.824C130.352 415.302 130.536 414.859 130.837 414.496C131.129 414.128 131.493 413.878 131.929 413.746C132.451 413.587 132.949 413.595 133.422 413.77C133.885 413.941 134.242 414.279 134.491 414.785L135.298 414.54L135.385 414.897L134.634 415.125C134.656 415.182 134.681 415.27 134.71 415.389C134.751 415.552 134.776 415.672 134.787 415.748L135.539 415.52L135.627 415.876L134.831 416.118ZM127.203 417.383C127.211 417.445 127.229 417.535 127.258 417.654C127.28 417.743 127.317 417.859 127.368 418.003L130.113 417.169L130.199 416.473L127.203 417.383ZM127.521 418.34C127.71 418.665 127.949 418.876 128.238 418.971C128.52 419.069 128.803 419.075 129.086 418.989C129.398 418.894 129.625 418.753 129.767 418.567C129.906 418.373 130.002 418.064 130.054 417.642L130.059 417.568L127.521 418.34ZM134.362 415.495C134.332 415.376 134.307 415.288 134.285 415.231L131.224 416.161L131.137 416.858L134.439 415.854C134.428 415.778 134.402 415.658 134.362 415.495ZM134.132 414.895C133.935 414.54 133.677 414.299 133.357 414.173C133.03 414.049 132.71 414.035 132.398 414.129C132.02 414.244 131.76 414.407 131.616 414.618C131.466 414.831 131.364 415.13 131.31 415.513L131.277 415.762L134.132 414.895Z" fill="#3A4062"/>
<path d="M134.607 434.607C134.287 435.121 133.909 435.467 133.473 435.644C133.03 435.818 132.564 435.797 132.075 435.581C131.834 435.474 131.665 435.299 131.568 435.054C131.496 434.871 131.497 434.686 131.571 434.5C131.617 434.386 131.702 434.297 131.824 434.234C131.941 434.185 132.069 434.191 132.207 434.251C132.324 434.303 132.417 434.374 132.487 434.464C132.549 434.55 132.632 434.709 132.734 434.939C132.782 435.061 132.879 435.154 133.023 435.218C133.202 435.298 133.406 435.274 133.635 435.148C133.857 435.02 134.071 434.79 134.276 434.461L131.052 433.034L131.006 433.089C130.622 433.5 130.223 433.757 129.809 433.859C129.391 433.952 128.964 433.902 128.53 433.71C128.096 433.518 127.766 433.22 127.538 432.817C127.313 432.406 127.245 431.93 127.332 431.389L126.661 431.091L126.798 430.749L127.418 431.023C127.462 430.874 127.501 430.757 127.535 430.671C127.581 430.557 127.619 430.472 127.648 430.418L127.039 430.149L127.176 429.806L127.827 430.094C128.126 429.612 128.488 429.297 128.912 429.148C129.34 428.992 129.746 429 130.132 429.171C130.284 429.238 130.41 429.306 130.512 429.376C130.614 429.447 130.701 429.532 130.775 429.631C130.837 429.718 130.874 429.818 130.885 429.933C130.899 430.04 130.884 430.147 130.841 430.254C130.81 430.332 130.774 430.392 130.733 430.433C130.692 430.474 130.633 430.511 130.555 430.543C130.453 430.574 130.354 430.568 130.258 430.526C130.134 430.471 130.039 430.395 129.972 430.298C129.908 430.194 129.856 430.083 129.814 429.963C129.781 429.865 129.74 429.784 129.693 429.72C129.641 429.647 129.556 429.585 129.439 429.533C129.281 429.463 129.082 429.484 128.842 429.596C128.598 429.699 128.37 429.913 128.158 430.24L131.093 431.538L131.261 431.361C131.614 430.987 132.011 430.755 132.453 430.664C132.891 430.563 133.317 430.605 133.73 430.787C134.226 431.007 134.606 431.343 134.87 431.797C135.131 432.24 135.211 432.746 135.112 433.317L135.877 433.655L135.739 433.998L135.026 433.682C135.01 433.742 134.979 433.83 134.934 433.944C134.871 434.101 134.821 434.214 134.786 434.282L135.499 434.598L135.361 434.941L134.607 434.607ZM127.979 430.565C127.949 430.619 127.912 430.703 127.866 430.817C127.831 430.903 127.792 431.02 127.749 431.169L130.353 432.321L130.821 431.822L127.979 430.565ZM127.673 431.539C127.632 431.925 127.696 432.252 127.864 432.52C128.026 432.784 128.241 432.976 128.509 433.095C128.806 433.226 129.062 433.264 129.279 433.209C129.499 433.146 129.751 432.963 130.035 432.66L130.081 432.605L127.673 431.539ZM134.603 433.798C134.649 433.683 134.68 433.596 134.696 433.536L131.792 432.251L131.324 432.751L134.455 434.136C134.491 434.068 134.54 433.955 134.603 433.798ZM134.771 433.166C134.824 432.752 134.763 432.388 134.588 432.075C134.407 431.76 134.168 431.536 133.871 431.405C133.513 431.247 133.218 431.204 132.986 431.278C132.746 431.349 132.495 431.52 132.233 431.79L132.064 431.968L134.771 433.166Z" fill="#3A4062"/>
<path d="M145.314 427.317C145.122 427.898 144.835 428.332 144.451 428.619C144.06 428.905 143.601 429.009 143.075 428.931C142.815 428.892 142.61 428.768 142.459 428.558C142.346 428.401 142.304 428.223 142.334 428.024C142.352 427.902 142.413 427.793 142.518 427.7C142.621 427.621 142.746 427.593 142.895 427.615C143.021 427.633 143.128 427.677 143.216 427.744C143.297 427.811 143.415 427.942 143.568 428.136C143.643 428.241 143.759 428.305 143.914 428.328C144.107 428.357 144.3 428.28 144.494 428.098C144.68 427.914 144.835 427.636 144.959 427.264L141.488 426.75L141.456 426.816C141.177 427.314 140.848 427.667 140.469 427.877C140.083 428.077 139.656 428.143 139.189 428.074C138.722 428.005 138.331 427.806 138.015 427.478C137.701 427.143 137.524 426.702 137.483 426.157L136.76 426.05L136.815 425.683L137.482 425.782C137.49 425.627 137.501 425.503 137.514 425.412C137.532 425.289 137.55 425.198 137.566 425.138L136.91 425.041L136.964 424.674L137.665 424.778C137.844 424.234 138.123 423.834 138.502 423.577C138.882 423.313 139.28 423.212 139.695 423.274C139.858 423.298 139.997 423.33 140.113 423.371C140.228 423.411 140.333 423.47 140.428 423.546C140.509 423.613 140.568 423.7 140.605 423.807C140.643 423.906 140.654 424.013 140.637 424.128C140.625 424.212 140.603 424.279 140.573 424.329C140.543 424.38 140.494 424.431 140.425 424.483C140.334 424.54 140.236 424.561 140.132 424.545C139.999 424.526 139.888 424.478 139.801 424.403C139.715 424.319 139.637 424.226 139.569 424.122C139.514 424.036 139.456 423.969 139.395 423.921C139.327 423.864 139.231 423.826 139.105 423.807C138.934 423.782 138.745 423.856 138.538 424.028C138.324 424.192 138.152 424.459 138.021 424.83L141.18 425.298L141.303 425.082C141.56 424.628 141.893 424.298 142.302 424.093C142.705 423.879 143.129 423.805 143.574 423.871C144.108 423.95 144.556 424.173 144.919 424.539C145.275 424.897 145.471 425.363 145.507 425.939L146.33 426.061L146.276 426.428L145.508 426.314C145.507 426.376 145.497 426.469 145.479 426.591C145.454 426.759 145.432 426.881 145.413 426.956L146.181 427.07L146.127 427.437L145.314 427.317ZM137.922 425.191C137.906 425.251 137.888 425.342 137.87 425.464C137.857 425.556 137.846 425.68 137.838 425.835L140.641 426.25L140.981 425.644L137.922 425.191ZM137.851 426.212C137.9 426.594 138.038 426.892 138.264 427.105C138.483 427.317 138.737 427.444 139.026 427.487C139.345 427.534 139.603 427.502 139.802 427.391C140.001 427.272 140.204 427.029 140.41 426.661L140.442 426.595L137.851 426.212ZM145.123 426.538C145.141 426.416 145.151 426.324 145.152 426.261L142.027 425.799L141.687 426.405L145.057 426.904C145.076 426.828 145.098 426.707 145.123 426.538ZM145.14 425.885C145.095 425.472 144.951 425.138 144.709 424.883C144.459 424.627 144.174 424.476 143.855 424.429C143.47 424.372 143.172 424.41 142.963 424.543C142.746 424.675 142.542 424.906 142.349 425.237L142.226 425.453L145.14 425.885Z" fill="#3A4062"/>
<path d="M150.25 434.859C150.299 435.468 150.203 435.988 149.962 436.417C149.714 436.849 149.333 437.147 148.819 437.311C148.566 437.392 148.329 437.372 148.109 437.25C147.945 437.159 147.837 437.017 147.787 436.825C147.756 436.707 147.771 436.582 147.831 436.451C147.894 436.334 147.999 436.253 148.143 436.206C148.266 436.167 148.382 436.158 148.489 436.18C148.589 436.204 148.748 436.269 148.964 436.376C149.074 436.437 149.204 436.443 149.356 436.395C149.545 436.334 149.692 436.179 149.799 435.929C149.899 435.68 149.934 435.361 149.903 434.971L146.516 436.054L146.512 436.128C146.449 436.7 146.284 437.166 146.017 437.523C145.74 437.876 145.374 438.125 144.918 438.271C144.463 438.417 144.026 438.413 143.61 438.258C143.191 438.095 142.858 437.778 142.609 437.305L141.904 437.531L141.811 437.176L142.462 436.967C142.409 436.824 142.371 436.708 142.348 436.62C142.317 436.501 142.298 436.412 142.29 436.35L141.649 436.555L141.557 436.2L142.241 435.981C142.194 435.412 142.296 434.927 142.544 434.527C142.791 434.12 143.117 433.851 143.522 433.722C143.681 433.671 143.822 433.638 143.943 433.623C144.065 433.608 144.184 433.614 144.3 433.641C144.401 433.665 144.489 433.717 144.564 433.796C144.638 433.869 144.69 433.961 144.718 434.072C144.74 434.153 144.746 434.223 144.738 434.282C144.73 434.34 144.704 434.408 144.662 434.486C144.599 434.578 144.518 434.64 144.416 434.673C144.286 434.714 144.166 434.721 144.057 434.692C143.945 434.655 143.838 434.605 143.736 434.542C143.651 434.489 143.572 434.454 143.497 434.438C143.413 434.417 143.31 434.426 143.187 434.466C143.02 434.519 142.875 434.669 142.752 434.917C142.619 435.16 142.564 435.478 142.588 435.87L145.671 434.884L145.7 434.634C145.759 434.111 145.937 433.665 146.234 433.298C146.521 432.926 146.882 432.671 147.316 432.532C147.837 432.365 148.335 432.366 148.81 432.534C149.275 432.697 149.636 433.03 149.893 433.533L150.696 433.276L150.788 433.63L150.039 433.87C150.062 433.927 150.089 434.014 150.12 434.133C150.162 434.295 150.189 434.415 150.201 434.491L150.95 434.251L151.042 434.606L150.25 434.859ZM142.637 436.239C142.645 436.3 142.665 436.39 142.696 436.508C142.719 436.597 142.757 436.713 142.81 436.856L145.545 435.981L145.622 435.284L142.637 436.239ZM142.967 437.19C143.161 437.513 143.403 437.719 143.693 437.811C143.976 437.904 144.259 437.906 144.541 437.816C144.852 437.716 145.077 437.572 145.216 437.383C145.353 437.187 145.445 436.878 145.492 436.454L145.496 436.381L142.967 437.19ZM149.772 434.244C149.741 434.125 149.715 434.038 149.692 433.981L146.642 434.957L146.565 435.654L149.854 434.602C149.842 434.526 149.815 434.406 149.772 434.244ZM149.535 433.647C149.333 433.295 149.072 433.059 148.75 432.937C148.421 432.818 148.101 432.809 147.79 432.908C147.414 433.029 147.155 433.195 147.015 433.409C146.867 433.624 146.769 433.924 146.72 434.308L146.691 434.557L149.535 433.647Z" fill="#3A4062"/>
<path d="M151.704 422.045C151.317 422.503 150.895 422.785 150.441 422.89C149.98 422.99 149.523 422.894 149.072 422.6C148.85 422.455 148.708 422.253 148.647 421.995C148.602 421.801 148.629 421.618 148.729 421.446C148.79 421.34 148.886 421.266 149.016 421.223C149.138 421.193 149.263 421.22 149.39 421.303C149.498 421.373 149.58 421.458 149.636 421.559C149.685 421.655 149.744 421.825 149.812 422.07C149.842 422.199 149.924 422.307 150.058 422.394C150.223 422.502 150.427 422.512 150.671 422.424C150.908 422.333 151.151 422.14 151.399 421.846L148.425 419.908L148.371 419.955C147.935 420.3 147.505 420.49 147.083 420.524C146.658 420.548 146.245 420.429 145.844 420.168C145.444 419.908 145.16 419.559 144.993 419.122C144.83 418.678 144.829 418.195 144.992 417.672L144.372 417.268L144.556 416.95L145.128 417.323C145.192 417.182 145.247 417.072 145.293 416.993C145.355 416.887 145.404 416.81 145.441 416.761L144.878 416.394L145.062 416.077L145.663 416.468C146.025 416.039 146.426 415.785 146.865 415.707C147.309 415.622 147.708 415.695 148.064 415.927C148.204 416.018 148.319 416.107 148.409 416.193C148.499 416.279 148.574 416.378 148.632 416.489C148.681 416.585 148.704 416.69 148.698 416.805C148.697 416.913 148.667 417.017 148.61 417.117C148.568 417.189 148.524 417.243 148.478 417.277C148.432 417.311 148.368 417.337 148.287 417.357C148.182 417.371 148.085 417.349 147.996 417.291C147.882 417.217 147.799 417.126 147.747 417.019C147.699 416.906 147.663 416.787 147.639 416.662C147.62 416.558 147.591 416.471 147.553 416.401C147.513 416.32 147.438 416.244 147.33 416.174C147.184 416.078 146.985 416.067 146.733 416.14C146.478 416.202 146.223 416.377 145.968 416.667L148.676 418.431L148.867 418.282C149.267 417.969 149.692 417.803 150.14 417.785C150.585 417.757 150.999 417.867 151.38 418.115C151.838 418.413 152.165 418.809 152.361 419.301C152.555 419.783 152.563 420.298 152.385 420.848L153.09 421.307L152.906 421.625L152.248 421.196C152.224 421.253 152.181 421.335 152.12 421.441C152.036 421.586 151.971 421.69 151.927 421.752L152.584 422.181L152.4 422.499L151.704 422.045ZM145.746 416.96C145.709 417.008 145.66 417.086 145.598 417.192C145.552 417.271 145.497 417.381 145.433 417.522L147.836 419.087L148.368 418.668L145.746 416.96ZM145.307 417.877C145.212 418.252 145.228 418.587 145.356 418.88C145.478 419.169 145.663 419.394 145.91 419.555C146.184 419.733 146.431 419.813 146.653 419.793C146.878 419.767 147.152 419.626 147.475 419.371L147.528 419.324L145.307 417.877ZM151.815 421.242C151.876 421.136 151.919 421.055 151.943 420.998L149.264 419.252L148.732 419.671L151.621 421.554C151.666 421.491 151.731 421.388 151.815 421.242ZM152.07 420.643C152.18 420.241 152.172 419.87 152.044 419.532C151.91 419.189 151.706 418.929 151.432 418.751C151.102 418.535 150.817 418.445 150.578 418.481C150.332 418.512 150.06 418.641 149.763 418.866L149.572 419.015L152.07 420.643Z" fill="#3A4062"/>
<path d="M167.049 429.416C166.986 429.844 166.86 430.205 166.673 430.497C166.478 430.789 166.246 431.001 165.976 431.133C165.699 431.263 165.409 431.306 165.105 431.261C164.756 431.21 164.503 431.078 164.345 430.867C164.186 430.657 164.125 430.429 164.162 430.184C164.192 429.978 164.279 429.826 164.422 429.73C164.559 429.626 164.72 429.587 164.905 429.614C165.031 429.633 165.144 429.689 165.244 429.782C165.337 429.874 165.4 429.985 165.434 430.115C165.47 430.229 165.509 430.321 165.552 430.39C165.595 430.459 165.661 430.5 165.75 430.513C165.987 430.548 166.187 430.48 166.348 430.309C166.51 430.137 166.625 429.822 166.693 429.364C166.777 428.798 166.6 428.354 166.163 428.031C165.726 427.709 165.144 427.493 164.417 427.386C163.735 427.285 163.194 427.33 162.794 427.521C162.394 427.711 162.154 428.082 162.072 428.632C162.04 428.854 162.045 429.05 162.088 429.221C162.123 429.39 162.21 429.571 162.348 429.763C162.411 429.851 162.502 429.93 162.62 430.003C162.732 430.066 162.832 430.104 162.921 430.118C163.003 430.13 163.066 430.162 163.111 430.216C163.157 430.262 163.175 430.319 163.165 430.388C163.147 430.51 163.045 430.558 162.86 430.53L159.022 429.962L158.87 429.682C159.028 429.541 159.174 429.324 159.308 429.032C159.443 428.731 159.531 428.448 159.57 428.18C159.625 427.813 159.641 427.475 159.618 427.167C159.595 426.859 159.518 426.535 159.387 426.196L159.563 426.081C159.871 426.408 160.102 426.79 160.257 427.227C160.406 427.655 160.447 428.095 160.38 428.546C160.338 428.829 160.29 429.052 160.235 429.216C160.173 429.379 160.09 429.534 159.984 429.683L162.109 429.997L162.141 429.932C161.961 429.718 161.834 429.472 161.762 429.196C161.683 428.911 161.664 428.627 161.706 428.344C161.825 427.541 162.147 426.952 162.672 426.577C163.199 426.194 163.84 426.058 164.597 426.17C165.138 426.25 165.608 426.453 166.007 426.778C166.408 427.095 166.702 427.486 166.891 427.951C167.072 428.416 167.125 428.904 167.049 429.416Z" fill="#3A4062"/>
<path d="M165.278 437.687L165.441 436.586C165.458 436.471 165.448 436.387 165.41 436.335C165.373 436.275 165.303 436.237 165.199 436.222L159.738 435.413L159.527 436.835L159.127 436.776L159.22 436.145C159.281 435.732 159.223 435.384 159.045 435.099C158.869 434.808 158.633 434.609 158.338 434.502L158.392 434.136L165.356 435.167C165.459 435.182 165.537 435.17 165.588 435.131C165.641 435.084 165.675 435.003 165.692 434.888L165.855 433.787L166.211 433.84L165.634 437.739L165.278 437.687Z" fill="#3A4062"/>
<line x1="153.423" y1="442.512" x2="157.57" y2="414.511" stroke="#3A4062"/>
<rect x="121" y="166" width="134" height="58" rx="8" fill="#C38590" stroke="black" stroke-width="4"/>
<path d="M147 164L159.053 117.598C166.929 87.2791 210.158 87.8008 217.3 118.301L228 164" stroke="#3A4062"/>
<rect x="152" y="59" width="71" height="60" fill="#EFC3C4"/>
<path d="M69 246H176V384H69V246Z" fill="white"/>
<path d="M208 246H315V313H208V246Z" fill="#3A4062"/>
<path d="M208 317H315V384H208V317Z" fill="#C38590"/>
<path fill-rule="evenodd" clip-rule="evenodd" d="M243.895 280.554L243.895 280.534C243.873 279.674 243.628 277.879 243.098 275.017C242.805 273.492 242.585 272.149 242.44 270.994L242.439 270.985C242.29 269.751 242.245 268.559 242.312 267.414C242.412 265.693 242.915 264.086 244.028 262.84C245.121 261.616 246.509 261 248.045 261C249.58 261 250.897 261.616 251.847 262.84C252.815 264.086 253.131 265.693 253.03 267.414C252.964 268.559 252.78 269.751 252.488 270.985L252.485 270.994C252.206 272.15 251.829 273.493 251.358 275.018C250.578 277.597 250.108 279.433 249.911 280.584L248.645 288.382C249.179 288.64 249.665 289.005 250.089 289.483C251.034 290.551 251.43 291.912 251.343 293.408C251.256 294.905 250.701 296.266 249.632 297.333C248.562 298.401 247.249 298.904 245.837 298.904C244.424 298.904 243.17 298.401 242.225 297.333C241.279 296.266 240.884 294.905 240.971 293.408C241.058 291.912 241.612 290.551 242.682 289.483C243.161 289.005 243.69 288.64 244.254 288.382L243.895 280.554ZM248.13 280.365C248.349 279.079 248.853 277.135 249.64 274.533C250.103 273.033 250.468 271.731 250.734 270.629C251.002 269.496 251.166 268.425 251.225 267.414C251.307 266.006 251.039 264.904 250.421 264.108C249.803 263.312 248.973 262.914 247.933 262.914C246.893 262.914 246.018 263.312 245.307 264.108C244.596 264.904 244.2 266.006 244.118 267.414C244.059 268.425 244.097 269.496 244.234 270.629C244.372 271.731 244.585 273.033 244.873 274.533C245.4 277.38 245.677 279.324 245.703 280.365L246.009 287.025H247.049L248.13 280.365ZM243.58 295.98C244.177 296.654 244.966 296.991 245.948 296.991C246.93 296.991 247.759 296.654 248.434 295.98C249.109 295.307 249.476 294.449 249.537 293.408C249.598 292.367 249.33 291.51 248.733 290.837C248.137 290.163 247.348 289.826 246.366 289.826C245.383 289.826 244.555 290.163 243.88 290.837C243.205 291.51 242.837 292.367 242.777 293.408C242.716 294.449 242.984 295.307 243.58 295.98Z" fill="white"/>
<path fill-rule="evenodd" clip-rule="evenodd" d="M215.108 280.604L215.107 280.583C215.072 279.721 214.798 277.922 214.222 275.052C213.905 273.524 213.663 272.178 213.5 271.02L213.499 271.01C213.331 269.773 213.266 268.578 213.314 267.431C213.386 265.705 213.862 264.094 214.951 262.844C216.021 261.618 217.396 261 218.928 261C220.459 261 221.783 261.618 222.75 262.844C223.736 264.094 224.077 265.705 224.006 267.431C223.958 268.578 223.794 269.773 223.522 271.01L223.52 271.02C223.261 272.178 222.906 273.525 222.462 275.053C221.726 277.639 221.287 279.48 221.109 280.633L219.974 288.452C220.511 288.709 221.002 289.076 221.432 289.555C222.392 290.626 222.809 291.99 222.747 293.49C222.684 294.991 222.154 296.355 221.104 297.425C220.055 298.495 218.753 299 217.344 299C215.936 299 214.676 298.495 213.716 297.425C212.756 296.355 212.339 294.991 212.401 293.49C212.464 291.99 212.994 290.626 214.044 289.555C214.514 289.076 215.035 288.709 215.594 288.452L215.108 280.604ZM219.329 280.414C219.527 279.125 219.997 277.176 220.74 274.567C221.177 273.063 221.52 271.758 221.768 270.653C222.017 269.518 222.162 268.443 222.204 267.431C222.263 266.019 221.978 264.914 221.348 264.116C220.719 263.317 219.885 262.918 218.848 262.918C217.81 262.918 216.944 263.317 216.248 264.116C215.552 264.914 215.174 266.019 215.115 267.431C215.073 268.443 215.129 269.518 215.284 270.653C215.439 271.758 215.673 273.063 215.985 274.567C216.558 277.422 216.866 279.371 216.909 280.414L217.322 287.09H218.359L219.329 280.414ZM215.046 296.069C215.652 296.744 216.445 297.082 217.424 297.082C218.404 297.082 219.225 296.744 219.887 296.069C220.549 295.393 220.902 294.534 220.946 293.49C220.989 292.447 220.708 291.587 220.102 290.912C219.496 290.237 218.703 289.899 217.724 289.899C216.744 289.899 215.923 290.237 215.261 290.912C214.599 291.587 214.246 292.447 214.202 293.49C214.159 294.534 214.44 295.393 215.046 296.069Z" fill="white"/>
<path fill-rule="evenodd" clip-rule="evenodd" d="M273.358 280.604L273.357 280.583C273.322 279.721 273.048 277.922 272.472 275.052C272.155 273.524 271.913 272.178 271.75 271.02L271.749 271.01C271.581 269.773 271.516 268.578 271.564 267.431C271.636 265.705 272.112 264.094 273.201 262.844C274.271 261.618 275.646 261 277.178 261C278.709 261 280.033 261.618 281 262.844C281.986 264.094 282.327 265.705 282.256 267.431C282.208 268.578 282.044 269.773 281.772 271.01L281.77 271.02C281.511 272.178 281.156 273.525 280.712 275.053C279.976 277.639 279.537 279.48 279.359 280.633L278.224 288.452C278.761 288.709 279.252 289.076 279.682 289.555C280.642 290.626 281.059 291.99 280.997 293.49C280.934 294.991 280.404 296.355 279.354 297.425C278.305 298.495 277.003 299 275.594 299C274.186 299 272.926 298.495 271.966 297.425C271.006 296.355 270.589 294.991 270.651 293.49C270.714 291.99 271.244 290.626 272.294 289.555C272.764 289.076 273.285 288.709 273.844 288.452L273.358 280.604ZM277.579 280.414C277.777 279.125 278.247 277.176 278.99 274.567C279.427 273.063 279.77 271.758 280.018 270.653C280.267 269.518 280.412 268.443 280.454 267.431C280.513 266.019 280.228 264.914 279.598 264.116C278.969 263.317 278.135 262.918 277.098 262.918C276.06 262.918 275.194 263.317 274.498 264.116C273.802 264.914 273.424 266.019 273.365 267.431C273.323 268.443 273.379 269.518 273.534 270.653C273.689 271.758 273.923 273.063 274.235 274.567C274.808 277.422 275.116 279.371 275.159 280.414L275.572 287.09H276.609L277.579 280.414ZM273.296 296.069C273.902 296.744 274.695 297.082 275.674 297.082C276.654 297.082 277.475 296.744 278.137 296.069C278.799 295.393 279.152 294.534 279.196 293.49C279.239 292.447 278.958 291.587 278.352 290.912C277.746 290.237 276.953 289.899 275.974 289.899C274.994 289.899 274.173 290.237 273.511 290.912C272.849 291.587 272.496 292.447 272.452 293.49C272.409 294.534 272.69 295.393 273.296 296.069Z" fill="white"/>
<path fill-rule="evenodd" clip-rule="evenodd" d="M301.835 280.604L301.834 280.583C301.798 279.721 301.524 277.922 300.949 275.052C300.632 273.524 300.39 272.178 300.227 271.02L300.225 271.01C300.057 269.773 299.993 268.578 300.041 267.431C300.113 265.705 300.588 264.094 301.678 262.844C302.748 261.618 304.123 261 305.654 261C307.186 261 308.509 261.618 309.477 262.844C310.463 264.094 310.804 265.705 310.732 267.431C310.684 268.578 310.52 269.773 310.249 271.01L310.247 271.02C309.987 272.178 309.633 273.525 309.189 275.053C308.453 277.639 308.014 279.48 307.836 280.633L306.7 288.452C307.238 288.709 307.728 289.076 308.159 289.555C309.119 290.626 309.536 291.99 309.473 293.49C309.411 294.991 308.88 296.355 307.831 297.425C306.782 298.495 305.48 299 304.071 299C302.662 299 301.403 298.495 300.442 297.425C299.482 296.355 299.065 294.991 299.128 293.49C299.19 291.99 299.721 290.626 300.77 289.555C301.241 289.076 301.762 288.709 302.321 288.452L301.835 280.604ZM306.056 280.414C306.254 279.125 306.724 277.176 307.467 274.567C307.904 273.063 308.246 271.758 308.494 270.653C308.743 269.518 308.889 268.443 308.931 267.431C308.99 266.019 308.705 264.914 308.075 264.116C307.445 263.317 306.612 262.918 305.574 262.918C304.537 262.918 303.67 263.317 302.974 264.116C302.278 264.914 301.901 266.019 301.842 267.431C301.8 268.443 301.856 269.518 302.01 270.653C302.166 271.758 302.4 273.063 302.712 274.567C303.284 277.422 303.592 279.371 303.635 280.414L304.049 287.09H305.086L306.056 280.414ZM301.772 296.069C302.378 296.744 303.171 297.082 304.151 297.082C305.131 297.082 305.952 296.744 306.614 296.069C307.276 295.393 307.629 294.534 307.672 293.49C307.716 292.447 307.435 291.587 306.829 290.912C306.223 290.237 305.43 289.899 304.45 289.899C303.47 289.899 302.649 290.237 301.987 290.912C301.325 291.587 300.972 292.447 300.929 293.49C300.885 294.534 301.167 295.393 301.772 296.069Z" fill="white"/>
<path fill-rule="evenodd" clip-rule="evenodd" d="M266.081 351.45C267.83 352.428 270.227 352.918 273.271 352.918C275.344 352.918 276.964 353.321 278.13 354.127C279.36 354.932 279.976 356.026 279.976 357.408C279.976 358.501 279.522 359.451 278.615 360.257C277.773 361.006 276.737 361.38 275.506 361.38C273.563 361.38 271.684 360.2 269.87 357.839C268.445 355.94 266.923 354.443 265.304 353.349C264.721 353.004 264.267 352.831 263.943 352.831C263.619 352.831 263.393 352.918 263.263 353.09C263.198 353.263 263.166 353.608 263.166 354.127C263.166 356.084 263.781 358.07 265.012 360.085C265.984 361.466 266.47 362.876 266.47 364.315C266.47 365.409 266.049 366.33 265.206 367.079C264.364 367.827 263.296 368.201 262 368.201C260.704 368.201 259.636 367.827 258.794 367.079C257.951 366.33 257.53 365.409 257.53 364.315C257.53 362.876 258.016 361.466 258.988 360.085C260.219 358.07 260.834 356.084 260.834 354.127C260.834 353.608 260.769 353.263 260.64 353.09C260.575 352.918 260.381 352.831 260.057 352.831C259.733 352.831 259.279 353.004 258.696 353.349C257.077 354.443 255.555 355.94 254.13 357.839C252.316 360.2 250.437 361.38 248.494 361.38C247.263 361.38 246.194 361.006 245.287 360.257C244.445 359.451 244.024 358.501 244.024 357.408C244.024 356.026 244.607 354.932 245.773 354.127C247.004 353.321 248.656 352.918 250.729 352.918C253.773 352.918 256.17 352.428 257.919 351.45C258.049 351.392 258.243 351.277 258.502 351.104C258.761 350.932 258.891 350.73 258.891 350.5C258.891 350.27 258.761 350.068 258.502 349.896C258.243 349.723 258.049 349.608 257.919 349.55C256.17 348.572 253.773 348.082 250.729 348.082C248.656 348.082 247.004 347.679 245.773 346.873C244.607 346.068 244.024 344.974 244.024 343.592C244.024 342.499 244.445 341.577 245.287 340.829C246.194 340.023 247.263 339.62 248.494 339.62C250.437 339.62 252.316 340.8 254.13 343.161C255.555 345.06 257.077 346.557 258.696 347.651C259.279 347.996 259.733 348.169 260.057 348.169C260.381 348.169 260.575 348.082 260.64 347.91C260.769 347.737 260.834 347.392 260.834 346.873C260.834 344.916 260.219 342.93 258.988 340.915C258.016 339.534 257.53 338.124 257.53 336.685C257.53 335.591 257.951 334.67 258.794 333.921C259.636 333.173 260.704 332.799 262 332.799C263.296 332.799 264.364 333.173 265.206 333.921C266.049 334.67 266.47 335.591 266.47 336.685C266.47 338.124 265.984 339.534 265.012 340.915C263.781 342.93 263.166 344.916 263.166 346.873C263.166 347.392 263.198 347.737 263.263 347.91C263.393 348.082 263.619 348.169 263.943 348.169C264.267 348.169 264.721 347.996 265.304 347.651C266.923 346.557 268.445 345.06 269.87 343.161C271.684 340.8 273.563 339.62 275.506 339.62C276.737 339.62 277.773 340.023 278.615 340.829C279.522 341.577 279.976 342.499 279.976 343.592C279.976 344.974 279.36 346.068 278.13 346.873C276.964 347.679 275.344 348.082 273.271 348.082C270.227 348.082 267.83 348.572 266.081 349.55C265.951 349.608 265.757 349.723 265.498 349.896C265.239 350.068 265.109 350.27 265.109 350.5C265.109 350.73 265.239 350.932 265.498 351.104C265.757 351.277 265.951 351.392 266.081 351.45ZM279.351 348.308C277.714 349.431 275.606 349.881 273.271 349.881C271.276 349.881 269.707 350.109 268.498 350.5C269.707 350.891 271.276 351.119 273.271 351.119C275.606 351.119 277.714 351.569 279.351 352.692C281.096 353.843 282 355.474 282 357.408C282 359 281.315 360.402 280.047 361.529C278.811 362.627 277.254 363.179 275.506 363.179C272.548 363.179 270.14 361.38 268.199 358.854L268.186 358.837L268.186 358.837C267.264 357.608 266.32 356.589 265.361 355.765C265.589 356.863 266.048 358 266.764 359.181C267.887 360.795 268.494 362.515 268.494 364.315C268.494 365.868 267.874 367.253 266.638 368.351C265.381 369.468 263.78 370 262 370C260.22 370 258.619 369.468 257.362 368.351C256.126 367.253 255.506 365.868 255.506 364.315C255.506 362.515 256.113 360.795 257.236 359.181C257.952 357.999 258.411 356.863 258.639 355.765C257.68 356.589 256.736 357.608 255.814 358.837L255.801 358.854L255.801 358.854C253.86 361.38 251.452 363.179 248.494 363.179C246.749 363.179 245.189 362.631 243.91 361.575L243.855 361.53L243.804 361.481C242.616 360.345 242 358.958 242 357.408C242 355.505 242.842 353.874 244.53 352.707L244.551 352.692L244.572 352.678C246.256 351.576 248.375 351.119 250.729 351.119C252.724 351.119 254.293 350.891 255.502 350.5C254.293 350.109 252.724 349.881 250.729 349.881C248.375 349.881 246.256 349.424 244.572 348.322L244.551 348.308L244.53 348.293C242.842 347.126 242 345.495 242 343.592C242 342.039 242.62 340.655 243.856 339.557C245.125 338.43 246.702 337.821 248.494 337.821C251.452 337.821 253.86 339.62 255.801 342.146L255.814 342.163L255.814 342.163C256.736 343.392 257.68 344.411 258.639 345.235C258.411 344.137 257.952 343.001 257.236 341.819C256.113 340.205 255.506 338.485 255.506 336.685C255.506 335.132 256.126 333.748 257.362 332.649C258.619 331.532 260.22 331 262 331C263.78 331 265.381 331.532 266.638 332.649C267.874 333.748 268.494 335.132 268.494 336.685C268.494 338.485 267.887 340.205 266.764 341.819C266.048 343.001 265.589 344.137 265.361 345.235C266.32 344.411 267.264 343.392 268.186 342.163L268.199 342.146L268.199 342.146C270.14 339.62 272.548 337.821 275.506 337.821C277.278 337.821 278.832 338.418 280.047 339.557C281.329 340.636 282 342.017 282 343.592C282 345.526 281.096 347.157 279.351 348.308ZM265.217 347.451C265.218 347.453 265.218 347.454 265.217 347.452Z" fill="#3A4062"/>
<path d="M114.845 379.661C106.619 382.033 99.457 381.473 93.3575 377.978C87.258 374.484 82.826 367.946 80.0616 358.364C78.1163 351.621 78.1885 344.744 80.2785 337.734C82.3684 330.724 85.2838 323.86 89.0248 317.142L91.9148 311.887L89.7911 309.617C86.3932 305.984 83.413 302.102 80.8507 297.972C78.2542 293.723 76.3929 289.647 75.2666 285.743C73.5602 279.828 72.9906 274.29 73.5577 269.129C74.1812 263.823 75.6993 259.412 78.1121 255.897C80.5249 252.382 83.5843 250.09 87.2903 249.021C92.5328 247.508 97.0961 248.562 100.98 252.183C104.92 255.66 107.744 260.355 109.45 266.27C111.361 272.895 111.542 279.122 109.993 284.951C108.534 290.754 105.94 297.205 102.211 304.304L138.022 340.874L138.309 339.83C140.005 333.83 141.039 327.573 141.412 321.058C141.784 314.544 141.476 309.571 140.486 306.14C139.872 304.011 138.834 302.452 137.374 301.464C136.005 300.449 134.597 300.151 133.15 300.568L127.049 302.328L125.411 296.65L159.036 286.949L160.674 292.627L156.471 293.84C154.03 294.544 152.032 295.761 150.475 297.492C149.008 299.197 148.093 302.472 147.729 307.319C146.9 317.681 146.066 325.482 145.228 330.722C144.445 335.817 143.425 340.596 142.167 345.06C147.003 349.944 150.898 353.433 153.853 355.528C156.897 357.597 159.504 358.319 161.674 357.693C165.018 356.728 167.326 354.717 168.598 351.659C169.87 348.601 170.649 344.852 170.935 340.413L173.514 341.207C173.151 347.078 172.149 352.429 170.508 357.259C168.922 361.945 165.689 364.992 160.808 366.401C154.481 368.226 146.681 365.286 137.408 357.581C134.931 362.909 131.78 367.599 127.955 371.65C124.186 375.556 119.816 378.226 114.845 379.661ZM98.0146 299.94C101.034 294.456 103.269 289.134 104.718 283.974C106.257 278.789 106.105 273.002 104.262 266.614C103.068 262.473 100.987 259.165 98.0209 256.689C95.0546 254.213 92.0348 253.418 88.9616 254.305C85.2556 255.374 82.8188 258.127 81.6512 262.565C80.4495 266.884 80.7018 272.001 82.4082 277.916C83.5003 281.702 85.3949 285.384 88.0919 288.963C90.7889 292.542 93.4227 295.562 95.9933 298.024L98.0146 299.94ZM114.936 373.868C122.529 371.677 128.661 365.103 133.332 354.144L129.714 350.767L96.0599 316.074L95.1136 317.884C92.7027 322.424 91.1463 327.55 90.4445 333.263C89.7086 338.858 90.4497 345.5 92.6681 353.189C94.2721 358.749 96.3885 363.2 99.0173 366.543C101.702 369.74 104.448 371.96 107.253 373.201C110.115 374.297 112.676 374.52 114.936 373.868Z" fill="black"/>
<path fill-rule="evenodd" clip-rule="evenodd" d="M136.97 318.057C134.041 319.382 131.208 320.27 128.472 320.719C125.819 321.159 123.559 320.395 121.692 318.428C119.402 316.014 118.856 311.883 120.056 306.035C120.124 305.703 120.197 305.365 120.277 305.022C119.93 305.041 119.585 305.055 119.242 305.063C116.437 305.128 113.747 304.808 111.173 304.104C108.367 303.305 106.013 301.902 104.112 299.898C100.966 296.582 99.4974 293.025 99.707 289.225C99.9166 285.426 102.004 281.645 105.97 277.882C108.761 275.234 112.107 273.514 116.007 272.722C119.907 271.929 123.937 271.568 128.096 271.638L131.341 271.675L131.924 270.083C132.857 267.536 134.012 265.125 135.388 262.849C136.814 260.528 138.334 258.6 139.95 257.067C142.398 254.745 144.94 253.06 147.575 252.013C150.295 250.957 152.798 250.555 155.085 250.809C157.372 251.062 159.224 251.936 160.642 253.43C162.647 255.543 163.245 257.988 162.436 260.763C161.711 263.529 160.124 266.073 157.676 268.396C154.934 270.997 151.965 272.672 148.767 273.421C145.605 274.206 141.853 274.615 137.512 274.648L128.512 301.052L129.086 300.922C129.276 300.881 129.466 300.838 129.656 300.794C132.777 300.072 135.867 299.011 138.924 297.612C142.167 296.127 144.499 294.711 145.919 293.364C146.8 292.528 147.303 291.636 147.426 290.688C147.585 289.776 147.387 289.028 146.834 288.445L144.5 285.986L146.851 283.756L159.712 297.311L157.361 299.541L155.754 297.847C154.82 296.863 153.746 296.22 152.53 295.92C151.349 295.655 149.542 296.055 147.108 297.118C141.891 299.366 137.914 300.959 135.174 301.897C132.519 302.824 129.958 303.557 127.492 304.096C126.303 307.648 125.561 310.395 125.264 312.338C125.002 314.317 125.286 315.744 126.116 316.619C127.395 317.967 128.929 318.554 130.718 318.38C132.249 318.231 133.937 317.781 135.782 317.03C136.093 316.904 136.408 316.769 136.728 316.625L136.97 318.057ZM126.254 312.479C126.009 314.345 126.325 315.386 126.842 315.93C127.917 317.064 129.151 317.528 130.621 317.385C132.271 317.225 134.167 316.679 136.318 315.713L137.498 315.183L138.085 318.65L137.382 318.968C134.386 320.323 131.47 321.24 128.635 321.706C125.651 322.201 123.059 321.322 120.966 319.116C118.36 316.369 117.872 311.889 119.029 306.067C116.217 306.111 113.509 305.78 110.909 305.069L110.898 305.066C107.931 304.22 105.418 302.728 103.386 300.587C100.092 297.114 98.4807 293.299 98.7085 289.17C98.9373 285.023 101.212 281.018 105.282 277.156C108.214 274.375 111.73 272.57 115.808 271.742C119.781 270.935 123.882 270.567 128.11 270.638C128.111 270.638 128.112 270.638 128.113 270.638L130.645 270.667L130.985 269.739C131.94 267.133 133.122 264.663 134.533 262.332L134.536 262.326C135.997 259.946 137.571 257.946 139.262 256.342C141.785 253.948 144.432 252.186 147.206 251.084L147.213 251.081C150.043 249.982 152.711 249.54 155.195 249.815C157.688 250.091 159.768 251.056 161.367 252.742C163.612 255.107 164.304 257.915 163.4 261.03C162.618 264.001 160.919 266.697 158.364 269.121C155.515 271.824 152.394 273.597 149.002 274.393C145.921 275.157 142.327 275.568 138.23 275.639L130.037 299.675C132.884 298.975 135.708 297.984 138.508 296.703C141.719 295.233 143.931 293.872 145.231 292.639C145.991 291.917 146.348 291.223 146.435 290.558L146.438 290.537L146.441 290.517C146.555 289.862 146.409 289.45 146.109 289.134L143.087 285.948L146.888 282.342L161.125 297.348L157.324 300.955L155.028 298.535C154.218 297.681 153.311 297.145 152.301 296.893C151.909 296.808 151.326 296.816 150.505 296.997C149.685 297.179 148.689 297.518 147.508 298.034L147.504 298.036C142.283 300.286 138.278 301.891 135.501 302.842C133.011 303.711 130.598 304.413 128.263 304.948C127.186 308.216 126.524 310.718 126.254 312.479ZM147.751 269.678L147.759 269.677C150.42 269.133 153.021 267.695 155.561 265.284C157.152 263.776 158.135 262.107 158.563 260.275C158.985 258.47 158.654 257.2 157.765 256.263C156.648 255.086 155.119 254.656 152.948 255.17L152.934 255.174C150.785 255.651 148.525 256.957 146.161 259.2C144.691 260.595 143.436 262.337 142.405 264.443C141.346 266.605 140.546 268.581 139.998 270.372C139.997 270.373 139.997 270.374 139.997 270.375L139.949 270.533C142.757 270.49 145.355 270.205 147.744 269.68L147.751 269.678ZM139.648 271.536C139.303 271.539 138.955 271.539 138.604 271.534L139.041 270.082C139.608 268.228 140.43 266.202 141.507 264.003C142.584 261.804 143.906 259.961 145.472 258.475C147.92 256.152 150.336 254.726 152.718 254.197C155.149 253.622 157.073 254.081 158.49 255.575C159.666 256.814 160.015 258.456 159.537 260.502C159.059 262.548 157.963 264.384 156.25 266.01C153.606 268.518 150.842 270.067 147.959 270.656C145.405 271.217 142.635 271.511 139.648 271.536ZM120.753 299.311L128.913 275.733C126.361 275.781 123.724 276.318 120.997 277.362L120.989 277.365C118.27 278.379 115.348 280.334 112.225 283.297C109.989 285.418 108.441 287.459 107.529 289.413C106.682 291.401 106.326 293.109 106.392 294.557C106.544 296.037 106.997 297.074 107.663 297.775C110.17 300.418 114.254 301.67 120.184 301.259L120.753 299.311ZM105.394 294.631C105.313 292.977 105.72 291.102 106.616 289.006C107.595 286.9 109.235 284.755 111.536 282.572C114.719 279.552 117.753 277.504 120.639 276.428C123.574 275.305 126.433 274.739 129.216 274.73L130.322 274.719L121.706 299.615L120.95 302.202C114.512 302.771 109.841 301.525 106.937 298.464C106.073 297.553 105.559 296.275 105.394 294.631Z" fill="#3A4062"/>
<g filter="url(#filter0_f_368_8117)">
<rect x="42" y="122" width="290" height="377" fill="white" fill-opacity="0.27"/>
</g>
<g filter="url(#filter1_f_368_8117)">
<path d="M36.9985 377.501L326.999 120L342.998 120.001L342.998 148.001L36.999 425.5L36.9985 377.501Z" fill="#BAC4FF" fill-opacity="0.46"/>
</g>
<defs>
<filter id="filter0_f_368_8117" x="0.0999985" y="80.1" width="373.8" height="460.8" filterUnits="userSpaceOnUse" color-interpolation-filters="sRGB">
<feFlood flood-opacity="0" result="BackgroundImageFix"/>
<feBlend mode="normal" in="SourceGraphic" in2="BackgroundImageFix" result="shape"/>
<feGaussianBlur stdDeviation="20.95" result="effect1_foregroundBlur_368_8117"/>
</filter>
<filter id="filter1_f_368_8117" x="32.998" y="116" width="314" height="313.5" filterUnits="userSpaceOnUse" color-interpolation-filters="sRGB">
<feFlood flood-opacity="0" result="BackgroundImageFix"/>
<feBlend mode="normal" in="SourceGraphic" in2="BackgroundImageFix" result="shape"/>
<feGaussianBlur stdDeviation="2" result="effect1_foregroundBlur_368_8117"/>
</filter>
</defs>
</svg>
