<svg width="745" height="903" viewBox="0 0 745 903" fill="none" xmlns="http://www.w3.org/2000/svg">
<rect x="-1.94263" y="0.876695" width="53.0277" height="148.321" transform="matrix(-0.358051 0.933702 -0.937034 -0.349238 615.726 70.4342)" fill="#EFC3C4" stroke="#3A4062" stroke-width="3"/>
<rect x="0.868475" y="1.92441" width="533.585" height="673.006" transform="matrix(0.937034 0.349238 -0.358051 0.933702 242.789 83.8243)" fill="#EFC3C4" stroke="#3A4062" stroke-width="3"/>
<rect x="0.868475" y="1.92441" width="53.6292" height="146.713" transform="matrix(0.937034 0.349238 -0.358051 0.933702 437.349 -0.17572)" fill="#EFC3C4" stroke="#3A4062" stroke-width="3"/>
<rect x="0.868475" y="1.92441" width="53.6292" height="146.713" transform="matrix(0.937034 0.349238 -0.358051 0.933702 612.197 64.9922)" fill="#EFC3C4" stroke="#3A4062" stroke-width="3"/>
<rect width="64.9843" height="670.495" transform="matrix(0.937034 0.349238 -0.358051 0.933702 286.293 103.432)" fill="#C38590"/>
<rect width="64.9843" height="670.495" transform="matrix(0.937034 0.349238 -0.358051 0.933702 654.256 240.574)" fill="#C38590"/>
<rect width="64.9843" height="670.495" transform="matrix(0.937034 0.349238 -0.358051 0.933702 409.816 149.471)" fill="#C38590"/>
<rect width="64.9843" height="670.495" transform="matrix(0.937034 0.349238 -0.358051 0.933702 531.602 194.861)" fill="#C38590"/>
<rect width="531.015" height="373.824" transform="matrix(0.937034 0.349238 -0.358051 0.933702 204.203 190.457)" fill="#C38590"/>
</svg>
