<svg width="1440" height="1319" viewBox="0 0 1440 1319" fill="none" xmlns="http://www.w3.org/2000/svg">
<g clip-path="url(#clip0_381_1268)">
<path d="M-121.701 842.678C-146.949 817.283 -140.476 768.42 -158.934 739.352C-178.609 708.37 -222.753 696.97 -234.729 663.116C-245.159 633.629 -221.212 594.144 -225.813 563.432C-230.061 535.067 -263.286 515.533 -262.569 486.851C-261.851 458.093 -225.938 434.01 -220.236 405.636C-214.992 379.545 -240.343 349.105 -230.891 323.911C-218.994 292.202 -180.315 274.743 -161.763 245.435C-141.882 214.027 -142.049 166.295 -114.537 138.944C-73.4543 98.0988 -13.5126 100.031 35.7794 76.2561C66.9017 61.2452 85.993 20.0842 118.932 11.8858C155.233 2.85048 197.18 29.3904 234.249 28.6366C266.33 27.9841 293.532 -1.00186 325.134 4.55377C358.872 10.4848 386.345 57.1057 418.385 70.1178C450.974 83.3532 488.091 63.1023 517.683 83.67C541.374 100.137 545.091 154.668 566.139 175.838C593.355 203.213 635.435 197.329 654.762 228.922C670.449 254.562 652.39 298.723 662.889 326.313C674.143 355.887 713.569 369.008 718.873 399.938C723.967 429.641 696.066 460.065 695.681 490.191C695.29 520.732 722.34 550.974 716.329 581.113C710.692 609.371 669.082 630.945 658.512 658.131C645.346 691.991 661.86 731.072 641.054 762.056C622.772 789.281 580.277 794.601 556.107 818.631C528.443 846.135 519.677 890.305 487.96 910.07C460.427 927.228 420.771 919.431 391.145 930.753C362.519 941.692 343.978 971.944 314.22 977.43C284.586 982.893 249.128 961.336 219.169 961.388C191.389 961.437 169.102 983.473 141.703 978.865C113.032 974.043 94.9637 939.308 67.421 929.385C44.5888 921.158 12.0493 938.542 -9.55034 926.807C-31.5768 914.841 -23.4003 879.421 -43.7097 863.804C-60.6008 850.816 -106.276 858.193 -121.701 842.678Z" fill="#C38590"/>
<circle cx="225.057" cy="489.793" r="407.128" transform="rotate(135.167 225.057 489.793)" fill="#EFC3C4"/>
<path d="M226.103 485.412L602.6 865.245L327.411 1010.54L226.103 485.412Z" fill="#FBF0D4"/>
<path d="M267.004 562.85L619.604 918.574C629.601 928.658 624.007 945.824 609.988 948.083L590.526 951.219C586.307 951.899 582.485 954.103 579.784 957.413L568.359 971.411C555.512 987.152 537.575 997.915 517.641 1001.84L494.003 1006.5C490.624 1007.17 487.518 1008.82 485.075 1011.25L476.244 1020.03C460.984 1035.2 441.191 1044.98 419.869 1047.88L412.661 1048.86C408.899 1049.37 405.406 1051.1 402.713 1053.78L391.542 1064.88C381.638 1074.73 364.754 1069.53 362.108 1055.81L267.004 562.85Z" fill="#C38590"/>
<path d="M264.608 559.021L590.504 888.648C596.126 894.335 596.087 903.5 590.416 909.139L578.397 921.088L539.486 953.059C536.242 955.724 532.773 958.103 529.118 960.169L466.762 995.401C466.133 995.756 465.479 996.064 464.804 996.322L405.863 1018.85C400.285 1020.98 394.492 1022.5 388.586 1023.38L369.485 1026.21C361.807 1027.35 354.591 1022.25 353.111 1014.63L264.608 559.021Z" fill="#EFC3C4"/>
<path d="M45.3002 894.412L219.01 451.244L310.295 917.798C311.746 925.218 307.014 932.441 299.632 934.072L282.935 937.762L233.532 943.698C229.239 944.213 224.909 944.341 220.594 944.08L149.973 939.799C149.254 939.756 148.54 939.657 147.836 939.502L87.0385 926.188C81.0452 924.876 75.2189 922.892 69.6701 920.274L52.3249 912.091C45.6966 908.964 42.6257 901.236 45.3002 894.412Z" stroke="#C38590" stroke-width="1.16322"/>
<path d="M-180.468 357.967L276.153 492.39L-180.669 623.991C-187.934 626.084 -195.542 621.999 -197.811 614.787L-202.942 598.476L-213.16 549.778C-214.048 545.546 -214.553 541.244 -214.669 536.922L-216.56 466.197C-216.579 465.477 -216.542 464.756 -216.45 464.042L-208.486 402.316C-207.7 396.231 -206.232 390.254 -204.108 384.498L-197.468 366.505C-194.93 359.63 -187.499 355.897 -180.468 357.967Z" stroke="#C38590" stroke-width="1.16322"/>
<path d="M338.936 100.182L212.502 559.08L72.9491 104.624C70.7298 97.3966 74.6815 89.7185 81.8528 87.3244L98.0719 81.9097L146.584 70.8424C150.799 69.8808 155.093 69.301 159.412 69.1101L230.093 65.9851C230.813 65.9533 231.533 65.9773 232.249 66.057L294.105 72.943C300.203 73.6218 306.205 74.9858 311.997 77.0092L330.102 83.3342C337.021 85.7512 340.883 93.1167 338.936 100.182Z" stroke="#C38590" stroke-width="1.16322"/>
<path d="M637.137 556.086L166.251 486.52L600.313 292.622C607.216 289.539 615.318 292.525 618.568 299.351L625.919 314.79L642.816 361.591C644.284 365.658 645.383 369.849 646.099 374.112L657.815 443.886C657.934 444.596 657.998 445.315 658.006 446.035L658.71 508.269C658.779 514.404 658.157 520.527 656.854 526.523L652.783 545.264C651.227 552.426 644.387 557.157 637.137 556.086Z" stroke="#C38590" stroke-width="1.16322"/>
<path d="M250.114 500.697C247.644 498.053 248.662 493.746 252.055 492.488L314.015 469.517C329.089 463.928 345.505 463.043 361.093 466.977V466.977C386.405 473.367 406.965 491.779 416.097 516.236L422.771 534.112C424.24 538.045 423.13 542.478 419.981 545.255L400.337 562.583L396.774 565.125C380.722 576.575 360.71 581.019 341.321 577.44V577.44C326.002 574.612 311.995 566.942 301.362 555.559L250.114 500.697Z" fill="#D8FFE7"/>
<path d="M423.289 539.636L423.172 540.1L423.098 540.392L423.041 540.618L248.289 496.508L248.293 496.255L248.357 496.002L248.435 495.695L248.537 495.525L423.289 539.636Z" fill="#BEE3CC"/>
<path d="M412.873 508.725L413.012 509.183L413.099 509.471L413.166 509.695L362.245 525.101L362.158 524.871L362.082 524.621L361.99 524.318L361.952 524.131L412.873 508.725Z" fill="#BEE3CC"/>
<path d="M401.202 491.37L401.607 491.874L401.894 492.167L329.521 516.889L329.419 516.665L329.334 516.418L329.232 516.118L329.194 515.93L401.202 491.37Z" fill="#BEE3CC"/>
<path d="M386.994 478.723L387.823 479.268L387.823 479.267L300.05 509.448L299.943 509.226L299.859 508.978L299.756 508.679L299.723 508.489L386.994 478.723Z" fill="#BEE3CC"/>
<path d="M363.333 467.399L364.212 467.904L364.212 467.902L272.694 502.975L272.578 502.756L272.485 502.512L272.372 502.216L272.334 502.027L363.333 467.399Z" fill="#BEE3CC"/>
<path d="M399.125 563.188L399.465 562.851L399.678 562.639L399.844 562.474L362.334 524.746L362.148 524.907L361.963 525.091L361.738 525.314L361.616 525.46L399.125 563.188Z" fill="#BEE3CC"/>
<path d="M380.614 572.925L381.211 572.674L381.602 572.552L329.632 516.443L329.436 516.592L329.244 516.77L329.012 516.985L328.889 517.132L380.614 572.925Z" fill="#BEE3CC"/>
<path d="M362.108 577.315L363.096 577.228L363.095 577.23L300.162 509.007L299.961 509.152L299.77 509.33L299.538 509.545L299.418 509.696L362.108 577.315Z" fill="#BEE3CC"/>
<path d="M335.908 576.051L336.921 576.025L336.92 576.026L273.011 501.721L272.805 501.858L272.608 502.029L272.368 502.236L272.245 502.384L335.908 576.051Z" fill="#BEE3CC"/>
<ellipse cx="299.535" cy="492.785" rx="83.752" ry="82.5888" transform="rotate(90.1666 299.535 492.785)" fill="#E3D76B"/>
<ellipse cx="299.537" cy="492.785" rx="75.6094" ry="73.283" transform="rotate(90.1666 299.537 492.785)" fill="#FCF4AE"/>
<rect x="376.311" y="491.845" width="2.32644" height="153.545" transform="rotate(90.1666 376.311 491.845)" fill="#E3D76B"/>
<rect x="298.596" y="416.01" width="2.32644" height="153.545" transform="rotate(0.166609 298.596 416.01)" fill="#E3D76B"/>
<rect x="246.486" y="437.278" width="2.32644" height="153.545" transform="rotate(-42.8334 246.486 437.278)" fill="#E3D76B"/>
<rect x="352.191" y="436.902" width="2.32644" height="153.545" transform="rotate(44.1666 352.191 436.902)" fill="#E3D76B"/>
<path d="M262.128 505C259.996 507.371 256.138 506.808 254.774 503.926L229.855 451.31C223.792 438.508 221.754 424.169 224.011 410.185V410.185C227.675 387.479 242.257 368.02 263.021 358.127L278.197 350.897C281.537 349.306 285.512 349.939 288.192 352.49L304.909 368.401L307.413 371.333C318.695 384.542 324.132 401.765 322.48 419.057V419.057C321.174 432.719 315.518 445.602 306.344 455.809L262.128 505Z" fill="#D8FFE7"/>
<path d="M283.006 350.019L283.422 350.086L283.684 350.128L283.887 350.161L258.591 506.923L258.369 506.939L258.142 506.903L257.867 506.858L257.71 506.781L283.006 350.019Z" fill="#BEE3CC"/>
<path d="M256.676 361.533L257.067 361.376L257.314 361.278L257.505 361.201L274.937 404.711L274.741 404.805L274.528 404.891L274.269 404.995L274.108 405.043L256.676 361.533Z" fill="#BEE3CC"/>
<path d="M242.339 373.11L242.75 372.716L242.985 372.441L270.241 434.063L270.052 434.17L269.841 434.263L269.586 434.376L269.424 434.424L242.339 373.11Z" fill="#BEE3CC"/>
<path d="M232.33 386.551L232.745 385.781L232.744 385.781L265.973 460.5L265.786 460.611L265.575 460.704L265.32 460.817L265.156 460.861L232.33 386.551Z" fill="#BEE3CC"/>
<path d="M224.21 408.187L224.585 407.377L224.584 407.377L262.393 485.007L262.21 485.126L262.003 485.226L261.752 485.348L261.589 485.396L224.21 408.187Z" fill="#BEE3CC"/>
<path d="M305.531 369.419L305.209 369.147L305.006 368.976L304.849 368.843L274.616 404.661L274.772 404.812L274.948 404.961L275.161 405.141L275.298 405.237L305.531 369.419Z" fill="#BEE3CC"/>
<path d="M315.497 384.916L315.231 384.412L315.094 384.078L269.839 433.999L269.985 434.16L270.156 434.315L270.362 434.502L270.501 434.599L315.497 384.916Z" fill="#BEE3CC"/>
<path d="M320.773 400.822L320.621 399.962L320.622 399.962L265.577 460.436L265.72 460.601L265.89 460.755L266.097 460.942L266.239 461.035L320.773 400.822Z" fill="#BEE3CC"/>
<path d="M321.676 423.915L321.575 423.028L321.576 423.029L261.267 484.826L261.403 484.996L261.568 485.157L261.769 485.351L261.908 485.448L321.676 423.915Z" fill="#BEE3CC"/>
<path d="M215.313 510.465C218.462 510.961 220.091 514.503 218.418 517.217L187.862 566.773C180.427 578.83 169.511 588.348 156.555 594.072V594.072C135.516 603.366 111.254 601.735 91.6486 589.708L77.3192 580.918C74.1657 578.984 72.5319 575.305 73.2115 571.668L77.4508 548.983L78.546 545.286C83.4796 528.63 94.9624 514.69 110.365 506.657V506.657C122.534 500.311 136.419 498.039 149.976 500.174L215.313 510.465Z" fill="#D8FFE7"/>
<path d="M73.9629 577.362L73.7924 576.976L73.6853 576.733L73.6021 576.545L218.852 512.381L218.986 512.558L219.079 512.769L219.192 513.024L219.212 513.198L73.9629 577.362Z" fill="#BEE3CC"/>
<path d="M97.9609 593.171L97.616 592.928L97.3993 592.776L97.2311 592.657L124.227 554.34L124.413 554.453L124.601 554.585L124.829 554.746L124.957 554.855L97.9609 593.171Z" fill="#BEE3CC"/>
<path d="M115.477 598.89L114.922 598.76L114.564 598.712L151.4 542.292L151.593 542.392L151.785 542.518L152.019 542.671L152.147 542.78L115.477 598.89Z" fill="#BEE3CC"/>
<path d="M132.202 599.965L131.33 600.035L131.331 600.036L175.898 531.473L176.093 531.57L176.285 531.696L176.519 531.848L176.645 531.962L132.202 599.965Z" fill="#BEE3CC"/>
<path d="M154.768 594.992L153.884 595.119L153.885 595.12L198.398 521.13L198.597 521.218L198.794 521.337L199.033 521.482L199.162 521.592L154.768 594.992Z" fill="#BEE3CC"/>
<path d="M77.9629 547.902L77.9102 548.321L77.8772 548.584L77.8515 548.788L124.357 554.636L124.399 554.423L124.428 554.195L124.463 553.918L124.468 553.75L77.9629 547.902Z" fill="#BEE3CC"/>
<path d="M85.5335 531.104L85.2559 531.602L85.0503 531.899L151.565 542.664L151.621 542.454L151.657 542.226L151.702 541.951L151.707 541.782L85.5335 531.104Z" fill="#BEE3CC"/>
<path d="M96.0001 518.016L95.3611 518.612L95.3608 518.611L176.058 531.839L176.119 531.63L176.155 531.403L176.2 531.127L176.201 530.958L96.0001 518.016Z" fill="#BEE3CC"/>
<path d="M114.876 504.683L114.187 505.251L114.187 505.25L198.86 522.171L198.929 521.965L198.974 521.739L199.028 521.465L199.033 521.296L114.876 504.683Z" fill="#BEE3CC"/>
<ellipse cx="200.375" cy="484.491" rx="77.9359" ry="76.8534" transform="rotate(90.1666 200.375 484.491)" fill="#E3D76B"/>
<ellipse cx="200.375" cy="484.491" rx="70.3588" ry="68.1939" transform="rotate(90.1666 200.375 484.491)" fill="#FCF4AE"/>
<rect x="271.82" y="483.615" width="2.16489" height="142.882" transform="rotate(90.1666 271.82 483.615)" fill="#E3D76B"/>
<rect x="199.5" y="413.047" width="2.16489" height="142.882" transform="rotate(0.166609 199.5 413.047)" fill="#E3D76B"/>
<rect x="151.012" y="432.84" width="2.16489" height="142.882" transform="rotate(-42.8334 151.012 432.84)" fill="#E3D76B"/>
<rect x="249.375" y="432.489" width="2.16489" height="142.882" transform="rotate(44.1666 249.375 432.489)" fill="#E3D76B"/>
<ellipse cx="247.277" cy="560.3" rx="70.7763" ry="69.7933" transform="rotate(90.1666 247.277 560.3)" fill="#E3D76B"/>
<ellipse cx="247.276" cy="560.3" rx="63.8953" ry="61.9293" transform="rotate(90.1666 247.276 560.3)" fill="#FCF4AE"/>
<rect x="312.156" y="559.504" width="1.96601" height="129.757" transform="rotate(90.1666 312.156 559.504)" fill="#E3D76B"/>
<rect x="246.482" y="495.419" width="1.96601" height="129.757" transform="rotate(0.166609 246.482 495.419)" fill="#E3D76B"/>
<rect x="202.447" y="513.393" width="1.96601" height="129.757" transform="rotate(-42.8334 202.447 513.393)" fill="#E3D76B"/>
<rect x="291.775" y="513.075" width="1.96601" height="129.757" transform="rotate(44.1666 291.775 513.075)" fill="#E3D76B"/>
<path d="M1449.44 307.534C1483.79 313.955 1505.65 356.795 1536.57 369.926C1569.54 383.923 1611.31 368.636 1639.68 389.203C1664.39 407.116 1667.02 452.098 1687.72 474.225C1706.84 494.66 1744.35 491.956 1759.66 515.395C1775 538.897 1759.49 578.132 1770.62 604.085C1780.85 627.95 1818.08 638.367 1824.43 663.842C1832.44 695.904 1811.03 731.349 1812.35 765.168C1813.77 801.411 1840.34 839.665 1833.38 876.873C1823 932.438 1773.77 964.079 1747.33 1010.47C1730.64 1039.77 1738.1 1083.41 1716.18 1108.24C1692.01 1135.6 1643.62 1137.5 1614.25 1158.63C1588.84 1176.92 1583.04 1215.27 1554.57 1228.31C1524.19 1242.23 1476.3 1219.99 1443.35 1227.28C1409.84 1234.69 1391.24 1271.51 1356.07 1271.37C1327.92 1271.26 1294.74 1229.51 1266.1 1224.16C1229.08 1217.24 1198.53 1245.27 1165.51 1230.59C1138.71 1218.68 1128.76 1173.2 1105.05 1156.85C1079.63 1139.32 1040.69 1150.61 1019.3 1128.7C998.763 1107.66 1004.33 1067.76 987.958 1043.35C971.359 1018.59 932.881 1009.28 921.021 981.735C909.901 955.91 931.383 915.537 924.821 887.842C916.649 853.349 881.74 831.097 881.298 794.682C880.91 762.687 912.104 734.881 918.215 702.191C925.21 664.776 907.793 624.436 922.329 590.993C934.948 561.962 971.125 546.267 988.656 520.766C1005.6 496.125 1003.74 461.554 1024.61 440.668C1045.39 419.869 1085.82 417.552 1109.86 400.921C1132.15 385.499 1137.85 355.454 1162.41 343.983C1188.12 331.98 1221.87 349.881 1249.49 342.601C1272.39 336.567 1288.9 304.582 1312.76 302.049C1337.08 299.465 1350.12 332.449 1375.09 333.749C1395.85 334.83 1428.46 303.611 1449.44 307.534Z" fill="#C38590"/>
<circle cx="1366.27" cy="783.056" r="397.253" transform="rotate(-79.4108 1366.27 783.056)" fill="#EFC3C4"/>
<path d="M1367.86 787.155L855.051 690.488L995.677 421.373L1367.86 787.155Z" fill="#FBF0D4"/>
<path d="M1292.12 747.592L811.86 657.061C798.245 654.494 793.233 637.606 803.245 628.028L817.144 614.731C820.156 611.849 822.007 607.962 822.344 603.807L823.771 586.234C825.376 566.475 833.826 547.895 847.666 533.7L864.076 516.868C866.422 514.461 868.003 511.415 868.621 508.111L870.854 496.167C874.712 475.528 885.198 456.711 900.721 442.573L905.968 437.793C908.708 435.298 910.558 431.977 911.239 428.335L914.063 413.227C916.568 399.831 933.013 394.661 942.732 404.213L1292.12 747.592Z" fill="#C38590"/>
<path d="M1296.16 749.342L851.81 664.988C844.143 663.533 839.1 656.148 840.534 648.477L843.573 632.222L857.129 584.99C858.259 581.052 859.729 577.22 861.522 573.537L892.108 510.701C892.416 510.068 892.772 509.458 893.171 508.878L928.049 458.14C931.349 453.339 935.163 448.912 939.422 444.936L953.197 432.08C958.734 426.913 967.359 427.018 972.767 432.321L1296.16 749.342Z" fill="#EFC3C4"/>
<path d="M1286.8 356.919L1392.65 809.148L1060.95 484.873C1055.68 479.716 1055.48 471.292 1060.51 465.894L1071.88 453.684L1108.28 421.558C1111.44 418.767 1114.85 416.266 1118.46 414.086L1177.57 378.419C1178.17 378.056 1178.8 377.74 1179.45 377.474L1235.67 354.503C1241.21 352.239 1246.99 350.607 1252.9 349.637L1271.36 346.606C1278.42 345.448 1285.17 349.956 1286.8 356.919Z" stroke="#C38590" stroke-width="1.13501"/>
<path d="M1765.24 662.874L1323.95 807.735L1618.08 449.041C1622.76 443.337 1631.14 442.406 1636.95 446.944L1650.11 457.207L1685.28 490.671C1688.34 493.579 1691.13 496.756 1693.61 500.164L1734.3 555.937C1734.71 556.505 1735.08 557.104 1735.4 557.729L1763.19 611.729C1765.92 617.053 1768.05 622.668 1769.54 628.468L1774.16 646.6C1775.93 653.529 1772.03 660.643 1765.24 662.874Z" stroke="#C38590" stroke-width="1.13501"/>
<path d="M1490.53 1159.13L1337.99 720.439L1701.76 1008.27C1707.55 1012.84 1708.63 1021.2 1704.19 1027.09L1694.16 1040.43L1661.31 1076.18C1658.46 1079.29 1655.33 1082.13 1651.97 1084.68L1596.91 1126.33C1596.35 1126.75 1595.76 1127.13 1595.14 1127.46L1541.63 1156.18C1536.36 1159.02 1530.78 1161.24 1525.01 1162.82L1506.96 1167.77C1500.06 1169.66 1492.88 1165.88 1490.53 1159.13Z" stroke="#C38590" stroke-width="1.13501"/>
<path d="M998.67 956.46L1415.5 751.594L1174.15 1147.73C1170.31 1154.03 1162.15 1156.12 1155.76 1152.44L1141.3 1144.1L1101.81 1115.86C1098.38 1113.41 1095.18 1110.65 1092.24 1107.62L1044.19 1058.05C1043.7 1057.55 1043.25 1057 1042.85 1056.43L1007.82 1006.82C1004.36 1001.93 1001.47 996.667 999.2 991.129L992.093 973.818C989.377 967.202 992.253 959.614 998.67 956.46Z" stroke="#C38590" stroke-width="1.13501"/>
<path d="M1340.1 788.171C1343.55 788.928 1345.12 792.952 1343.09 795.842L1306.03 848.607C1297.02 861.444 1284.32 871.246 1269.62 876.717V876.717C1245.74 885.6 1219.03 882.193 1198.15 867.601L1182.89 856.936C1179.53 854.589 1177.97 850.414 1178.96 846.438L1185.15 821.639L1186.6 817.624C1193.16 799.537 1206.77 784.885 1224.33 777.023V777.023C1238.21 770.812 1253.71 769.217 1268.55 772.475L1340.1 788.171Z" fill="#D8FFE7"/>
<path d="M1179.42 852.787L1179.25 852.349L1179.15 852.074L1179.07 851.86L1343.89 790.529L1344.03 790.733L1344.12 790.972L1344.22 791.262L1344.24 791.455L1179.42 852.787Z" fill="#BEE3CC"/>
<path d="M1204.9 871.852L1204.54 871.56L1204.31 871.377L1204.13 871.235L1236.51 830.659L1236.7 830.796L1236.9 830.955L1237.14 831.147L1237.28 831.276L1204.9 871.852Z" fill="#BEE3CC"/>
<path d="M1223.89 879.331L1223.28 879.15L1222.89 879.074L1267.34 819.136L1267.55 819.259L1267.75 819.411L1268 819.595L1268.14 819.725L1223.89 879.331Z" fill="#BEE3CC"/>
<path d="M1242.31 881.623L1241.34 881.644L1241.34 881.645L1295.14 808.793L1295.35 808.913L1295.56 809.065L1295.8 809.249L1295.93 809.383L1242.31 881.623Z" fill="#BEE3CC"/>
<path d="M1267.58 877.619L1266.6 877.7L1266.6 877.701L1320.7 798.846L1320.92 798.957L1321.13 799.102L1321.38 799.277L1321.52 799.408L1267.58 877.619Z" fill="#BEE3CC"/>
<path d="M1185.79 820.483L1185.7 820.942L1185.65 821.231L1185.61 821.455L1236.63 830.994L1236.69 830.762L1236.74 830.511L1236.8 830.208L1236.81 830.022L1185.79 820.483Z" fill="#BEE3CC"/>
<path d="M1195.26 802.411L1194.92 802.943L1194.68 803.257L1267.5 819.556L1267.57 819.328L1267.63 819.079L1267.7 818.777L1267.71 818.591L1195.26 802.411Z" fill="#BEE3CC"/>
<path d="M1207.7 788.635L1206.96 789.252L1206.96 789.251L1295.3 809.21L1295.38 808.983L1295.43 808.734L1295.5 808.433L1295.51 808.245L1207.7 788.635Z" fill="#BEE3CC"/>
<path d="M1229.45 775.142L1228.65 775.725L1228.65 775.723L1321.14 800.029L1321.23 799.805L1321.3 799.559L1321.37 799.26L1321.39 799.072L1229.45 775.142Z" fill="#BEE3CC"/>
<ellipse cx="1304.78" cy="821.896" rx="81.7206" ry="80.5856" transform="rotate(-124.411 1304.78 821.896)" fill="#E3D76B"/>
<ellipse cx="1304.78" cy="821.896" rx="73.7755" ry="71.5055" transform="rotate(-124.411 1304.78 821.896)" fill="#FCF4AE"/>
<rect x="1243.62" y="865.166" width="2.27002" height="149.821" transform="rotate(-124.411 1243.62 865.166)" fill="#E3D76B"/>
<rect x="1348.05" y="883.056" width="2.27002" height="149.821" transform="rotate(145.589 1348.05 883.056)" fill="#E3D76B"/>
<rect x="1378.14" y="837.113" width="2.27002" height="149.821" transform="rotate(102.589 1378.14 837.113)" fill="#E3D76B"/>
<rect x="1293.42" y="895.95" width="2.27002" height="149.821" transform="rotate(-170.411 1293.42 895.95)" fill="#E3D76B"/>
<path d="M1328.07 791.369C1328.47 788.284 1331.88 786.6 1334.57 788.159L1383.73 816.631C1395.69 823.559 1405.27 833.951 1411.2 846.434V846.434C1420.83 866.706 1419.89 890.414 1408.68 909.859L1400.5 924.072C1398.69 927.2 1395.15 928.892 1391.58 928.327L1369.34 924.801L1365.71 923.832C1349.33 919.468 1335.42 908.642 1327.18 893.834V893.834C1320.66 882.136 1318.07 868.654 1319.79 855.373L1328.07 791.369Z" fill="#D8FFE7"/>
<path d="M1397.12 927.439L1396.75 927.616L1396.51 927.727L1396.33 927.813L1329.85 787.863L1330.02 787.728L1330.22 787.631L1330.47 787.515L1330.63 787.49L1397.12 927.439Z" fill="#BEE3CC"/>
<path d="M1411.9 903.607L1411.67 903.95L1411.53 904.166L1411.41 904.333L1373.32 879.031L1373.42 878.847L1373.54 878.66L1373.7 878.433L1373.8 878.305L1411.9 903.607Z" fill="#BEE3CC"/>
<path d="M1417 886.369L1416.89 886.914L1416.85 887.264L1360.83 852.851L1360.93 852.66L1361.04 852.469L1361.19 852.237L1361.29 852.109L1417 886.369Z" fill="#BEE3CC"/>
<path d="M1417.6 870.028L1417.69 870.876L1417.69 870.875L1349.62 829.248L1349.71 829.055L1349.83 828.863L1349.97 828.632L1350.08 828.506L1417.6 870.028Z" fill="#BEE3CC"/>
<path d="M1412.14 848.149L1412.29 849.007L1412.29 849.006L1338.93 807.576L1339.01 807.38L1339.12 807.184L1339.26 806.948L1339.36 806.819L1412.14 848.149Z" fill="#BEE3CC"/>
<path d="M1368.28 924.328L1368.69 924.368L1368.94 924.393L1369.14 924.412L1373.6 878.895L1373.39 878.86L1373.17 878.838L1372.9 878.811L1372.73 878.81L1368.28 924.328Z" fill="#BEE3CC"/>
<path d="M1351.69 917.395L1352.18 917.653L1352.48 917.845L1361.19 852.68L1360.98 852.631L1360.76 852.601L1360.49 852.565L1360.33 852.565L1351.69 917.395Z" fill="#BEE3CC"/>
<path d="M1338.64 907.538L1339.24 908.145L1339.24 908.146L1349.98 829.08L1349.77 829.027L1349.55 828.997L1349.28 828.961L1349.11 828.965L1338.64 907.538Z" fill="#BEE3CC"/>
<path d="M1325.13 889.486L1325.7 890.143L1325.7 890.143L1339.93 807.1L1339.73 807.039L1339.51 807.001L1339.24 806.956L1339.07 806.955L1325.13 889.486Z" fill="#BEE3CC"/>
<path d="M1362.65 761.056C1359.85 762.401 1356.58 760.457 1356.42 757.351L1353.53 700.618C1352.82 686.815 1356.32 673.122 1363.56 661.349V661.349C1375.32 642.232 1395.71 630.108 1418.12 628.913L1434.5 628.04C1438.11 627.848 1441.46 629.899 1442.93 633.197L1452.08 653.769L1453.25 657.346C1458.51 673.459 1457 691.017 1449.08 706V706C1442.81 717.837 1432.92 727.351 1420.84 733.143L1362.65 761.056Z" fill="#D8FFE7"/>
<path d="M1439.17 629.036L1439.52 629.252L1439.74 629.387L1439.91 629.492L1358.75 761.473L1358.54 761.405L1358.35 761.288L1358.12 761.145L1358.01 761.017L1439.17 629.036Z" fill="#BEE3CC"/>
<path d="M1411.13 629.624L1411.55 629.628L1411.81 629.63L1412.01 629.632L1411.54 675.365L1411.32 675.378L1411.1 675.375L1410.83 675.372L1410.66 675.356L1411.13 629.624Z" fill="#BEE3CC"/>
<path d="M1393.9 634.73L1394.42 634.527L1394.73 634.367L1396.38 700.092L1396.17 700.118L1395.94 700.124L1395.67 700.13L1395.51 700.113L1393.9 634.73Z" fill="#BEE3CC"/>
<path d="M1379.86 643.127L1380.53 642.588L1380.52 642.587L1382.69 722.349L1382.48 722.38L1382.25 722.385L1381.98 722.392L1381.82 722.371L1379.86 643.127Z" fill="#BEE3CC"/>
<path d="M1364.49 659.619L1365.13 659.028L1365.13 659.028L1370.34 743.12L1370.13 743.16L1369.9 743.173L1369.63 743.189L1369.47 743.172L1364.49 659.619Z" fill="#BEE3CC"/>
<path d="M1452.27 654.919L1452.08 654.554L1451.96 654.324L1451.87 654.146L1411.27 675.201L1411.35 675.395L1411.45 675.594L1411.58 675.836L1411.67 675.974L1452.27 654.919Z" fill="#BEE3CC"/>
<path d="M1455.49 672.605L1455.44 672.051L1455.44 671.699L1396.04 699.883L1396.11 700.083L1396.21 700.286L1396.32 700.532L1396.41 700.67L1455.49 672.605Z" fill="#BEE3CC"/>
<path d="M1454.32 688.917L1454.51 688.084L1454.51 688.085L1382.35 722.145L1382.42 722.346L1382.52 722.549L1382.63 722.795L1382.73 722.931L1454.32 688.917Z" fill="#BEE3CC"/>
<path d="M1446.55 710.081L1446.78 709.243L1446.79 709.244L1369.39 742.537L1369.45 742.742L1369.54 742.948L1369.65 743.198L1369.74 743.337L1446.55 710.081Z" fill="#BEE3CC"/>
<ellipse cx="1389.04" cy="773.647" rx="76.0455" ry="74.9894" transform="rotate(-124.411 1389.04 773.647)" fill="#E3D76B"/>
<ellipse cx="1389.04" cy="773.646" rx="68.6522" ry="66.5398" transform="rotate(-124.411 1389.04 773.646)" fill="#FCF4AE"/>
<rect x="1332.12" y="813.912" width="2.11238" height="139.417" transform="rotate(-124.411 1332.12 813.912)" fill="#E3D76B"/>
<rect x="1429.3" y="830.56" width="2.11238" height="139.417" transform="rotate(145.589 1429.3 830.56)" fill="#E3D76B"/>
<rect x="1457.3" y="787.809" width="2.11238" height="139.417" transform="rotate(102.589 1457.3 787.809)" fill="#E3D76B"/>
<rect x="1378.47" y="842.559" width="2.11238" height="139.417" transform="rotate(-170.411 1378.47 842.559)" fill="#E3D76B"/>
<ellipse cx="1309.38" cy="738.715" rx="69.0596" ry="68.1005" transform="rotate(-124.411 1309.38 738.715)" fill="#E3D76B"/>
<ellipse cx="1309.38" cy="738.715" rx="62.3455" ry="60.4272" transform="rotate(-124.411 1309.38 738.715)" fill="#FCF4AE"/>
<rect x="1257.7" y="775.281" width="1.91832" height="126.609" transform="rotate(-124.411 1257.7 775.281)" fill="#E3D76B"/>
<rect x="1345.95" y="790.399" width="1.91832" height="126.609" transform="rotate(145.589 1345.95 790.399)" fill="#E3D76B"/>
<rect x="1371.37" y="751.575" width="1.91832" height="126.609" transform="rotate(102.589 1371.37 751.575)" fill="#E3D76B"/>
<rect x="1299.78" y="801.295" width="1.91832" height="126.609" transform="rotate(-170.411 1299.78 801.295)" fill="#E3D76B"/>
</g>
<defs>
<clipPath id="clip0_381_1268">
<rect width="1440" height="1319" fill="white"/>
</clipPath>
</defs>
</svg>
