<svg width="645" height="424" viewBox="0 0 645 424" fill="none" xmlns="http://www.w3.org/2000/svg">
<rect x="642.943" y="2" width="420" height="640.943" transform="rotate(90 642.943 2)" fill="#C38590" stroke="white" stroke-width="4"/>
<rect x="217.161" y="2.63027" width="418.739" height="95.7395" transform="rotate(90 217.161 2.63027)" fill="#EFC3C4" stroke="white" stroke-width="5.26055"/>
<rect x="4.42129" y="118.63" width="637.739" height="95.7395" fill="#EFC3C4" stroke="white" stroke-width="5.26055"/>
<path d="M155.092 400.768C154.727 400.577 154.361 400.382 153.995 400.184L164.842 404.418C161.379 403.814 158.218 402.407 155.092 400.768ZM142.182 394.447C140.167 393.79 137.951 393.672 135.745 393.681L124.094 392.295L115.662 381.551C114.566 379.798 113.376 378.128 111.931 376.808C109.999 375.044 107.449 374.137 105.044 373.282C104.802 373.196 104.561 373.11 104.323 373.024C101.704 372.081 99.3419 371.1 97.8274 369.114L95.5801 356.989C95.5443 356.323 95.4983 355.662 95.4325 355.017C95.2624 353.349 94.957 351.738 94.3317 350.333C93.1923 347.773 91.0538 345.95 89.0476 344.24C88.8273 344.052 88.6087 343.866 88.3931 343.68C86.2057 341.794 84.3115 339.951 83.7478 337.253L86.9254 327.372C87.344 326.51 87.7455 325.648 88.0846 324.805C88.6542 323.389 89.0696 321.976 89.0866 320.651L89.1091 320.581L89.0869 320.497C89.072 318.137 88.2988 316.057 87.3987 314.135L84.6585 303.809C84.9514 302.746 85.5862 301.749 86.4463 300.772C87.3414 299.755 88.4538 298.789 89.6217 297.812C89.8162 297.649 90.0123 297.486 90.2091 297.323C91.1833 296.513 92.173 295.691 93.0489 294.842C94.1026 293.821 95.0293 292.728 95.5939 291.514C96.4967 289.574 96.5578 287.433 96.4736 285.361L97.7376 276.278L106.335 271.383C108.274 270.602 110.183 269.706 111.619 268.358C113.437 266.653 114.504 264.262 115.514 261.997C115.617 261.767 115.719 261.537 115.822 261.31C116.938 258.837 118.076 256.599 120.1 255.252L130.177 253.85C131.008 253.846 131.834 253.828 132.633 253.773C134.086 253.673 135.492 253.449 136.721 252.94L136.776 252.933L136.835 252.892C138.754 252.068 140.354 250.81 141.828 249.468L151.68 242.712L162.795 244.812C164.831 245.45 166.925 245.981 169.027 245.989L169.065 245.997L169.114 245.989C171.169 245.985 173.198 245.61 175.18 245.125L188.785 243.187C191.382 243.782 193.644 245.396 195.934 247.198C196.232 247.433 196.531 247.671 196.832 247.91C198.829 249.502 200.885 251.14 203.161 252.105C204.871 252.831 206.713 253.147 208.535 253.356L218.453 255.649C220.47 257.002 221.92 259.266 223.351 261.727C223.519 262.015 223.686 262.307 223.855 262.599C225.114 264.788 226.412 267.044 228.115 268.659C229.431 269.906 231.026 270.7 232.613 271.375L239.88 275.74C241.199 277.561 241.428 279.922 241.56 282.511C241.572 282.734 241.582 282.958 241.593 283.183C241.706 285.558 241.826 288.081 242.882 290.214C243.38 291.22 244.164 292.072 245.043 292.838C245.572 293.299 246.149 293.739 246.732 294.168L252.116 299.643C252.588 301.347 251.727 302.924 250.615 304.763C250.563 304.849 250.511 304.936 250.458 305.023C249.408 306.752 248.217 308.714 248.529 310.949C248.671 311.96 249.235 312.99 249.933 313.984C250.42 314.678 250.995 315.387 251.584 316.091L255.592 322.73C255.538 325.487 253.957 328.073 252.11 330.752C251.898 331.059 251.683 331.367 251.468 331.676C250.74 332.719 250.004 333.775 249.361 334.835C248.526 336.214 247.825 337.638 247.483 339.123C246.998 341.23 247.159 343.4 247.469 345.516V357.107C246.354 359.254 243.989 360.805 241.355 362.373C241.107 362.52 240.857 362.668 240.606 362.816C239.525 363.454 238.428 364.101 237.42 364.791C236.176 365.642 235.032 366.58 234.179 367.69C232.946 369.296 232.475 371.278 232.144 373.213L229.262 381.133C227.582 382.602 225.032 383.07 222.217 383.475C222.012 383.505 221.806 383.534 221.598 383.563C220.386 383.735 219.148 383.91 217.978 384.172C216.605 384.48 215.286 384.916 214.161 385.637C213.11 386.31 212.299 387.252 211.609 388.281C211.194 388.9 210.815 389.564 210.452 390.232L205.359 396.605C202.82 397.678 199.896 397.656 196.788 397.491C196.406 397.471 196.021 397.448 195.634 397.426C192.868 397.265 189.994 397.097 187.323 397.679C185.514 398.074 183.743 398.809 182 399.654L168.448 404.697L145.432 395.712C144.391 395.249 143.331 394.828 142.246 394.468L142.196 394.449L142.182 394.447Z" fill="#EFC3C4" stroke="black" stroke-width="1.05211"/>
<ellipse cx="169.588" cy="323.551" rx="71.2127" ry="68.1341" fill="#FBF0D4"/>
<rect x="93.8984" y="321.021" width="151.378" height="5.06139" fill="#EFC3C4"/>
<rect x="97.3574" y="289.095" width="143.443" height="5.06139" fill="#EFC3C4"/>
<rect x="120.959" y="259.699" width="96.4423" height="5.06139" fill="#EFC3C4"/>
<rect x="97.3574" y="352.558" width="146.495" height="5.06139" fill="#EFC3C4"/>
<path d="M124.146 381.916H214.628L211.425 387.177H124.146V381.916Z" fill="#EFC3C4"/>
<rect x="166.943" y="395.968" width="144.834" height="5.29008" transform="rotate(-90 166.943 395.968)" fill="#EFC3C4"/>
<rect x="197.055" y="393.048" width="138.994" height="5.29008" transform="rotate(-90 197.055 393.048)" fill="#EFC3C4"/>
<rect x="225.15" y="375.603" width="104.159" height="5.26055" transform="rotate(-90 225.15 375.603)" fill="#EFC3C4"/>
<path d="M137.033 389.349V253.275H142.323V391.782L137.033 389.349Z" fill="#EFC3C4"/>
<rect x="106.92" y="372.802" width="100.449" height="5.29008" transform="rotate(-90 106.92 372.802)" fill="#EFC3C4"/>
</svg>
