<svg width="1440" height="241" viewBox="0 0 1440 241" fill="none" xmlns="http://www.w3.org/2000/svg">
<rect width="1440" height="241" fill="#C38590"/>
<path d="M1282.3 98.6388V70.1544H1292.43V98.6388H1282.3ZM1273.88 118.192V106.347H1278.09V118.192H1273.88ZM1273.88 62.3518V50.5068H1278.09V62.3518H1273.88ZM1273.88 62.3518V50.5068H1278.09V62.3518H1273.88ZM1292.43 70.2484H1282.3C1282.3 67.7416 1281.92 65.7987 1281.14 64.42C1280.41 63.0412 1279.39 62.3518 1278.09 62.3518V50.5068C1280.82 50.5068 1283.26 51.3842 1285.42 53.1391C1287.57 54.8312 1289.28 57.1814 1290.54 60.1896C1291.8 63.1352 1292.43 66.4881 1292.43 70.2484ZM1292.43 98.4507C1292.43 102.211 1291.8 105.595 1290.54 108.604C1289.28 111.549 1287.57 113.899 1285.42 115.654C1283.26 117.346 1280.82 118.192 1278.09 118.192V106.347C1279.39 106.347 1280.41 105.658 1281.14 104.279C1281.92 102.9 1282.3 100.958 1282.3 98.4507H1292.43ZM1264.97 118.192V50.5068H1275.1V118.192H1264.97Z" fill="white"/>
<path d="M1245.15 118.192L1227.76 50.5068H1236.3L1253.7 118.192H1245.15ZM1226.11 118.192V50.5068H1236.24V118.192H1226.11ZM1247.53 118.192V50.5068H1257.66V118.192H1247.53Z" fill="white"/>
<path d="M1199.41 107.663V95.8185H1215.03V107.663H1199.41ZM1210.76 50.5068L1199.84 118.192H1190.07L1200.99 50.5068H1210.76ZM1210.88 50.5068L1221.81 118.192H1212.04L1201.12 50.5068H1210.88Z" fill="white"/>
<path d="M1144.29 62.3518V50.5068H1174.19V62.3518H1144.29ZM1154.17 118.192V50.5068H1164.3V118.192H1154.17Z" fill="white"/>
<path d="M1132.73 118.192L1125.16 87.0758H1134.92L1142.49 118.192H1132.73ZM1124.18 93.6564V81.8114H1127.23V93.6564H1124.18ZM1124.18 62.3518V50.5068H1127.23V62.3518H1124.18ZM1131.38 74.0087V70.1544H1141.52V74.0087H1131.38ZM1141.52 70.2484H1131.38C1131.38 67.7416 1131 65.7987 1130.22 64.42C1129.49 63.0412 1128.48 62.3518 1127.17 62.3518V50.5068C1129.9 50.5068 1132.34 51.3842 1134.5 53.1391C1136.65 54.8312 1138.36 57.1814 1139.62 60.1896C1140.88 63.1352 1141.52 66.4881 1141.52 70.2484ZM1141.52 73.9147C1141.52 77.675 1140.88 81.0593 1139.62 84.0676C1138.36 87.0132 1136.65 89.3633 1134.5 91.1181C1132.34 92.8103 1129.9 93.6564 1127.17 93.6564V81.8114C1128.48 81.8114 1129.49 81.122 1130.22 79.7432C1131 78.3644 1131.38 76.4216 1131.38 73.9147H1141.52ZM1114.66 118.192V50.5068H1124.79V118.192H1114.66Z" fill="white"/>
<path d="M1087.96 107.663V95.8185H1103.58V107.663H1087.96ZM1099.31 50.5068L1088.38 118.192H1078.62L1089.54 50.5068H1099.31ZM1099.43 50.5068L1110.35 118.192H1100.59L1089.67 50.5068H1099.43Z" fill="white"/>
<path d="M1046 118.192V106.347H1061.5V118.192H1046ZM1046 90.2721V78.4271H1057.84V90.2721H1046ZM1038.31 50.5068H1048.44V118.192H1038.31V50.5068ZM1046.61 50.5068H1060.89V62.3518H1046.61V50.5068Z" fill="white"/>
<path d="M1022.39 101.832C1022.39 99.7641 1021.94 98.0093 1021.05 96.5679C1020.15 95.1264 1018.99 93.779 1017.57 92.5255C1016.18 91.2094 1014.7 89.862 1013.11 88.4832C1011.53 87.0418 1010.02 85.381 1008.6 83.5008C1007.21 81.6207 1006.07 79.3331 1005.18 76.6383C1004.28 73.9434 1003.84 70.6531 1003.84 66.7674H1013.97C1013.97 68.7729 1014.41 70.5278 1015.31 72.0319C1016.2 73.4733 1017.34 74.8521 1018.73 76.1682C1020.15 77.4216 1021.66 78.7691 1023.24 80.2105C1024.83 81.5893 1026.32 83.2188 1027.7 85.0989C1029.12 86.9791 1030.28 89.2666 1031.18 91.9615C1032.07 94.6564 1032.52 97.9467 1032.52 101.832H1022.39ZM1003.84 66.8615C1003.84 63.4145 1004.47 60.3749 1005.73 57.7427C1006.99 55.0478 1008.7 52.917 1010.85 51.3502C1013.01 49.7834 1015.45 49 1018.18 49V60.845C1016.88 60.845 1015.84 61.3777 1015.07 62.4431C1014.33 63.5085 1013.97 64.9813 1013.97 66.8615H1003.84ZM1032.52 101.832C1032.52 105.279 1031.89 108.35 1030.63 111.045C1029.37 113.677 1027.66 115.777 1025.5 117.344C1023.35 118.91 1020.9 119.694 1018.18 119.694V107.849C1019.48 107.849 1020.5 107.316 1021.23 106.251C1022 105.185 1022.39 103.712 1022.39 101.832H1032.52ZM1022.08 68.2716C1021.88 65.8901 1021.43 64.0726 1020.74 62.8191C1020.09 61.503 1019.24 60.845 1018.18 60.845V49C1020.5 49 1022.53 49.6581 1024.28 50.9742C1026.07 52.2903 1027.54 54.2018 1028.68 56.7086C1029.81 59.2155 1030.57 62.2551 1030.93 65.8274L1022.08 68.2716ZM1012.69 96.6619C1012.81 100.171 1013.36 102.929 1014.33 104.935C1015.31 106.877 1016.59 107.849 1018.18 107.849V119.694C1013.99 119.694 1010.61 117.876 1008.05 114.241C1005.48 110.606 1004 105.561 1003.59 99.1061L1012.69 96.6619Z" fill="white"/>
<path d="M972.662 90.3661V78.5211H991.337V90.3661H972.662ZM987.675 118.192V50.5068H997.806V118.192H987.675ZM969 118.192V50.5068H979.131V118.192H969Z" fill="white"/>
<path d="M1353.47 190.507V178.748H1367.75V190.507H1353.47ZM1345.17 190.507V123.31H1355.3V190.507H1345.17Z" fill="white"/>
<path d="M1328.01 172.401V141.322H1338.14V172.401H1328.01ZM1309.58 172.401V141.322H1319.71V172.401H1309.58ZM1338.14 141.508H1328.01C1328.01 139.02 1327.62 137.091 1326.85 135.722C1326.12 134.353 1325.1 133.669 1323.8 133.669V121.909C1326.52 121.909 1328.96 122.78 1331.12 124.522C1333.28 126.202 1334.98 128.536 1336.25 131.522C1337.51 134.447 1338.14 137.775 1338.14 141.508ZM1309.58 141.508C1309.58 137.775 1310.21 134.447 1311.47 131.522C1312.73 128.536 1314.44 126.202 1316.59 124.522C1318.75 122.78 1321.19 121.909 1323.92 121.909V133.669C1322.62 133.669 1321.58 134.353 1320.81 135.722C1320.07 137.091 1319.71 139.02 1319.71 141.508H1309.58ZM1338.14 172.307C1338.14 176.041 1337.51 179.4 1336.25 182.387C1334.98 185.311 1333.28 187.645 1331.12 189.387C1328.96 191.067 1326.52 191.907 1323.8 191.907V180.147C1325.1 180.147 1326.12 179.463 1326.85 178.094C1327.62 176.725 1328.01 174.796 1328.01 172.307H1338.14ZM1309.58 172.307H1319.71C1319.71 174.796 1320.07 176.725 1320.81 178.094C1321.58 179.463 1322.62 180.147 1323.92 180.147V191.907C1321.19 191.907 1318.75 191.067 1316.59 189.387C1314.44 187.645 1312.73 185.311 1311.47 182.387C1310.21 179.4 1309.58 176.041 1309.58 172.307Z" fill="white"/>
<path d="M1292.72 172.401V141.322H1302.85V172.401H1292.72ZM1274.29 172.401V141.322H1284.42V172.401H1274.29ZM1302.85 141.508H1292.72C1292.72 139.02 1292.34 137.091 1291.56 135.722C1290.83 134.353 1289.81 133.669 1288.51 133.669V121.909C1291.24 121.909 1293.68 122.78 1295.84 124.522C1297.99 126.202 1299.7 128.536 1300.96 131.522C1302.22 134.447 1302.85 137.775 1302.85 141.508ZM1274.29 141.508C1274.29 137.775 1274.92 134.447 1276.18 131.522C1277.45 128.536 1279.16 126.202 1281.31 124.522C1283.47 122.78 1285.91 121.909 1288.63 121.909V133.669C1287.33 133.669 1286.3 134.353 1285.52 135.722C1284.79 137.091 1284.42 139.02 1284.42 141.508H1274.29ZM1302.85 172.307C1302.85 176.041 1302.22 179.4 1300.96 182.387C1299.7 185.311 1297.99 187.645 1295.84 189.387C1293.68 191.067 1291.24 191.907 1288.51 191.907V180.147C1289.81 180.147 1290.83 179.463 1291.56 178.094C1292.34 176.725 1292.72 174.796 1292.72 172.307H1302.85ZM1274.29 172.307H1284.42C1284.42 174.796 1284.79 176.725 1285.52 178.094C1286.3 179.463 1287.33 180.147 1288.63 180.147V191.907C1285.91 191.907 1283.47 191.067 1281.31 189.387C1279.16 187.645 1277.45 185.311 1276.18 182.387C1274.92 179.4 1274.29 176.041 1274.29 172.307Z" fill="white"/>
<path d="M1242.15 162.882V151.122H1260.82V162.882H1242.15ZM1257.16 190.507V123.31H1267.29V190.507H1257.16ZM1238.48 190.507V123.31H1248.62V190.507H1238.48Z" fill="white"/>
<path d="M1204.14 172.494V141.321H1214.27V172.494H1204.14ZM1204.14 141.415C1204.14 137.682 1204.77 134.353 1206.03 131.428C1207.29 128.442 1209 126.109 1211.16 124.429C1213.32 122.687 1215.76 121.815 1218.48 121.815V133.575C1217.18 133.575 1216.14 134.259 1215.37 135.628C1214.64 136.997 1214.27 138.926 1214.27 141.415H1204.14ZM1204.14 172.4H1214.27C1214.27 174.889 1214.64 176.818 1215.37 178.187C1216.14 179.556 1217.18 180.24 1218.48 180.24V192C1215.76 192 1213.32 191.16 1211.16 189.48C1209 187.738 1207.29 185.404 1206.03 182.48C1204.77 179.493 1204.14 176.134 1204.14 172.4ZM1223.91 144.681C1223.79 141.197 1223.24 138.49 1222.27 136.562C1221.29 134.571 1220.01 133.575 1218.42 133.575V121.815C1222.61 121.815 1225.99 123.62 1228.55 127.229C1231.12 130.775 1232.6 135.784 1233.01 142.255L1223.91 144.681ZM1223.91 169.134L1233.01 171.56C1232.6 177.969 1231.12 182.978 1228.55 186.587C1225.99 190.195 1222.61 192 1218.42 192V180.24C1220.01 180.24 1221.29 179.276 1222.27 177.347C1223.24 175.356 1223.79 172.618 1223.91 169.134Z" fill="white"/>
<path d="M1188.82 174.267C1188.82 172.214 1188.38 170.472 1187.48 169.04C1186.59 167.609 1185.43 166.272 1184 165.027C1182.62 163.721 1181.13 162.383 1179.55 161.014C1177.96 159.583 1176.46 157.934 1175.03 156.068C1173.65 154.201 1172.51 151.93 1171.61 149.254C1170.72 146.579 1170.27 143.312 1170.27 139.455H1180.4C1180.4 141.446 1180.85 143.188 1181.75 144.681C1182.64 146.112 1183.78 147.481 1185.16 148.788C1186.59 150.032 1188.09 151.37 1189.68 152.801C1191.27 154.17 1192.75 155.788 1194.13 157.654C1195.56 159.521 1196.72 161.792 1197.61 164.467C1198.51 167.143 1198.96 170.409 1198.96 174.267H1188.82ZM1170.27 139.548C1170.27 136.126 1170.9 133.108 1172.16 130.495C1173.42 127.82 1175.13 125.704 1177.29 124.149C1179.45 122.593 1181.89 121.815 1184.61 121.815V133.575C1183.31 133.575 1182.27 134.104 1181.5 135.162C1180.77 136.219 1180.4 137.682 1180.4 139.548H1170.27ZM1198.96 174.267C1198.96 177.689 1198.32 180.738 1197.06 183.413C1195.8 186.027 1194.09 188.111 1191.94 189.666C1189.78 191.222 1187.34 192 1184.61 192V180.24C1185.92 180.24 1186.93 179.711 1187.66 178.653C1188.44 177.596 1188.82 176.134 1188.82 174.267H1198.96ZM1188.52 140.948C1188.32 138.584 1187.87 136.779 1187.18 135.535C1186.53 134.228 1185.67 133.575 1184.61 133.575V121.815C1186.93 121.815 1188.97 122.469 1190.72 123.775C1192.51 125.082 1193.97 126.98 1195.11 129.468C1196.25 131.957 1197 134.975 1197.37 138.522L1188.52 140.948ZM1179.12 169.134C1179.24 172.618 1179.79 175.356 1180.77 177.347C1181.75 179.276 1183.03 180.24 1184.61 180.24V192C1180.42 192 1177.05 190.195 1174.48 186.587C1171.92 182.978 1170.43 177.969 1170.03 171.56L1179.12 169.134Z" fill="white"/>
<path d="M1138.92 190.507L1121.53 123.31H1130.07L1147.47 190.507H1138.92ZM1119.88 190.507V123.31H1130.01V190.507H1119.88ZM1141.3 190.507V123.31H1151.43V190.507H1141.3Z" fill="white"/>
<path d="M1097.41 164.467V152.708H1112.61V164.467H1097.41ZM1102.48 172.494V152.988H1112.61V172.494H1102.48ZM1083.99 172.494V141.321H1094.12V172.494H1083.99ZM1083.99 141.415C1083.99 137.682 1084.62 134.353 1085.88 131.428C1087.14 128.442 1088.85 126.109 1091 124.429C1093.16 122.687 1095.6 121.815 1098.33 121.815V133.575C1097.03 133.575 1095.99 134.259 1095.22 135.628C1094.48 136.997 1094.12 138.926 1094.12 141.415H1083.99ZM1083.99 172.4H1094.12C1094.12 174.889 1094.48 176.818 1095.22 178.187C1095.99 179.556 1097.03 180.24 1098.33 180.24V192C1095.6 192 1093.16 191.16 1091 189.48C1088.85 187.738 1087.14 185.404 1085.88 182.48C1084.62 179.493 1083.99 176.134 1083.99 172.4ZM1103.76 144.681C1103.64 141.197 1103.09 138.49 1102.11 136.562C1101.14 134.571 1099.85 133.575 1098.27 133.575V121.815C1102.46 121.815 1105.83 123.62 1108.4 127.229C1110.96 130.775 1112.45 135.784 1112.85 142.255L1103.76 144.681ZM1112.61 172.4C1112.61 176.134 1111.98 179.493 1110.72 182.48C1109.46 185.404 1107.75 187.738 1105.59 189.48C1103.43 191.16 1100.99 192 1098.27 192V180.24C1099.57 180.24 1100.59 179.556 1101.32 178.187C1102.09 176.818 1102.48 174.889 1102.48 172.4H1112.61Z" fill="white"/>
<path d="M1066.55 190.507V123.31H1076.69V190.507H1066.55Z" fill="white"/>
<path d="M1050.02 174.267C1050.02 172.214 1049.57 170.472 1048.68 169.04C1047.78 167.609 1046.62 166.272 1045.2 165.027C1043.81 163.721 1042.33 162.383 1040.74 161.014C1039.15 159.583 1037.65 157.934 1036.23 156.068C1034.84 154.201 1033.7 151.93 1032.81 149.254C1031.91 146.579 1031.46 143.312 1031.46 139.455H1041.6C1041.6 141.446 1042.04 143.188 1042.94 144.681C1043.83 146.112 1044.97 147.481 1046.36 148.788C1047.78 150.032 1049.29 151.37 1050.87 152.801C1052.46 154.17 1053.94 155.788 1055.33 157.654C1056.75 159.521 1057.91 161.792 1058.81 164.467C1059.7 167.143 1060.15 170.409 1060.15 174.267H1050.02ZM1031.46 139.548C1031.46 136.126 1032.1 133.108 1033.36 130.495C1034.62 127.82 1036.33 125.704 1038.48 124.149C1040.64 122.593 1043.08 121.815 1045.81 121.815V133.575C1044.5 133.575 1043.47 134.104 1042.69 135.162C1041.96 136.219 1041.6 137.682 1041.6 139.548H1031.46ZM1060.15 174.267C1060.15 177.689 1059.52 180.738 1058.26 183.413C1057 186.027 1055.29 188.111 1053.13 189.666C1050.97 191.222 1048.53 192 1045.81 192V180.24C1047.11 180.24 1048.13 179.711 1048.86 178.653C1049.63 177.596 1050.02 176.134 1050.02 174.267H1060.15ZM1049.71 140.948C1049.51 138.584 1049.06 136.779 1048.37 135.535C1047.72 134.228 1046.86 133.575 1045.81 133.575V121.815C1048.13 121.815 1050.16 122.469 1051.91 123.775C1053.7 125.082 1055.16 126.98 1056.3 129.468C1057.44 131.957 1058.2 134.975 1058.56 138.522L1049.71 140.948ZM1040.31 169.134C1040.44 172.618 1040.99 175.356 1041.96 177.347C1042.94 179.276 1044.22 180.24 1045.81 180.24V192C1041.62 192 1038.24 190.195 1035.68 186.587C1033.11 182.978 1031.63 177.969 1031.22 171.56L1040.31 169.134Z" fill="white"/>
<path d="M1011.12 190.507V178.748H1026.62V190.507H1011.12ZM1011.12 162.788V151.029H1022.96V162.788H1011.12ZM1003.43 123.31H1013.56V190.507H1003.43V123.31ZM1011.73 123.31H1026.01V135.069H1011.73V123.31Z" fill="white"/>
<path d="M986.248 171.095V142.816H996.379V171.095H986.248ZM977.826 190.507V178.748H982.037V190.507H977.826ZM977.826 135.069V123.31H982.037V135.069H977.826ZM977.826 135.069V123.31H982.037V135.069H977.826ZM996.379 142.909H986.248C986.248 140.42 985.862 138.491 985.089 137.122C984.357 135.754 983.339 135.069 982.037 135.069V123.31C984.763 123.31 987.205 124.181 989.361 125.923C991.517 127.603 993.226 129.936 994.487 132.923C995.749 135.847 996.379 139.176 996.379 142.909ZM996.379 170.908C996.379 174.641 995.749 178.001 994.487 180.988C993.226 183.912 991.517 186.245 989.361 187.987C987.205 189.667 984.763 190.507 982.037 190.507V178.748C983.339 178.748 984.357 178.063 985.089 176.694C985.862 175.326 986.248 173.397 986.248 170.908H996.379ZM968.916 190.507V123.31H979.047V190.507H968.916Z" fill="white"/>
</svg>
