<svg width="278" height="430" viewBox="0 0 278 430" fill="none" xmlns="http://www.w3.org/2000/svg">
<mask id="path-1-inside-1_371_1216" fill="white">
<path d="M18.7031 56.1162H257.446L215.682 409.684L177.207 418.056L138.075 420.954L97.9552 418.056L59.4801 409.684L18.7031 56.1162Z"/>
</mask>
<path d="M18.7031 56.1162H257.446L215.682 409.684L177.207 418.056L138.075 420.954L97.9552 418.056L59.4801 409.684L18.7031 56.1162Z" fill="white"/>
<path d="M18.7031 56.1162V53.3624H15.6135L15.9674 56.4317L18.7031 56.1162ZM257.446 56.1162L260.181 56.4392L260.544 53.3624H257.446V56.1162ZM215.682 409.684L216.268 412.375L218.187 411.957L218.417 410.007L215.682 409.684ZM59.4801 409.684L56.7444 410L56.9701 411.956L58.8946 412.375L59.4801 409.684ZM138.075 420.954L137.876 423.701L138.077 423.716L138.278 423.701L138.075 420.954ZM177.207 418.056L177.411 420.803L177.604 420.788L177.793 420.747L177.207 418.056ZM97.9552 418.056L97.3697 420.747L97.5613 420.789L97.7568 420.803L97.9552 418.056ZM18.7031 58.87H257.446V53.3624H18.7031V58.87ZM254.711 55.7932L212.948 409.361L218.417 410.007L260.181 56.4392L254.711 55.7932ZM62.2158 409.369L21.4388 55.8007L15.9674 56.4317L56.7444 410L62.2158 409.369ZM215.097 406.993L176.622 415.366L177.793 420.747L216.268 412.375L215.097 406.993ZM177.004 415.31L137.871 418.208L138.278 423.701L177.411 420.803L177.004 415.31ZM138.273 418.208L98.1536 415.31L97.7568 420.803L137.876 423.701L138.273 418.208ZM98.5408 415.366L60.0657 406.993L58.8946 412.375L97.3697 420.747L98.5408 415.366Z" fill="black" mask="url(#path-1-inside-1_371_1216)"/>
<circle cx="137.794" cy="221.794" r="90.4171" fill="#3A4062" stroke="#3A4062" stroke-width="2.75382"/>
<line x1="77.1211" y1="375.518" x2="201.043" y2="375.518" stroke="#3A4062" stroke-width="2.75382"/>
<path d="M122.063 222.338C124.914 230.03 126.339 238.64 126.339 248.171H137.335H148.331C148.331 238.64 149.756 230.03 152.607 222.338C155.458 214.647 160.345 207.207 167.268 200.017L163.603 197.008C158.92 200.185 153.625 205.368 147.72 212.557L137.335 232.12C136.317 226.268 132.855 219.747 126.95 212.557L111.067 197.008L107.402 200.017C114.325 207.207 119.212 214.647 122.063 222.338Z" fill="#EFC3C4"/>
<path fill-rule="evenodd" clip-rule="evenodd" d="M111.067 197.008L126.95 212.557C121.045 205.368 115.751 200.185 111.067 197.008ZM137.335 232.12L147.72 212.557C141.815 219.747 138.353 226.268 137.335 232.12Z" fill="#EFC3C4"/>
<path fill-rule="evenodd" clip-rule="evenodd" d="M62.7051 271.495L78.7956 289.72C79.5547 283.862 80.6396 278.54 82.0503 273.752C85.3083 263.386 91.519 258.202 100.682 258.202C108.42 258.202 114.631 262.633 119.314 271.495C123.998 280.189 126.339 290.137 126.339 301.34V313.127L148.331 312.375V301.34C148.331 290.137 150.673 280.189 155.356 271.495C160.04 262.633 166.25 258.202 173.988 258.202C183.151 258.202 189.26 263.386 192.315 273.752C193.819 278.54 194.977 283.862 195.786 289.72L213.435 273.752C210.331 268.953 206.549 264.773 202.089 261.212C194.962 255.193 186.409 252.183 176.432 252.183C169.712 252.183 164.01 254.023 159.327 257.701C154.847 261.379 151.385 265.977 148.942 271.495H148.331V248.171H137.335H126.339V271.495H125.728C123.285 265.977 119.823 261.379 115.343 257.701C110.864 254.023 105.162 252.183 98.2387 252.183C88.2609 252.183 79.6068 255.193 72.2762 261.212C68.6337 264.203 65.4433 267.63 62.7051 271.495Z" fill="#EFC3C4"/>
<path d="M38.9885 32.8451V1.5H246.122V32.8451V34.3451H247.622H270.098L275.344 57.75H1.80616L6.17844 34.3451H37.4885H38.9885V32.8451Z" fill="#C38590" stroke="#3A4062" stroke-width="3"/>
</svg>
