<svg width="1297" height="426" viewBox="0 0 1297 426" fill="none" xmlns="http://www.w3.org/2000/svg">
<rect width="326.634" height="245.218" transform="translate(719 180)" fill="#C38590"/>
<rect x="720.454" y="205.685" width="323.727" height="193.848" fill="white" stroke="#3A4062" stroke-width="2.90772"/>
<path d="M903.64 203.746C903.64 214.333 894.217 223.131 882.316 223.131C870.415 223.131 860.993 214.333 860.993 203.746C860.993 193.159 870.415 184.362 882.316 184.362C894.217 184.362 903.64 193.159 903.64 203.746Z" fill="#FBF0D4" stroke="black" stroke-width="2.90772"/>
<path d="M903.64 400.502C903.64 411.089 894.217 419.887 882.316 419.887C870.415 419.887 860.993 411.089 860.993 400.502C860.993 389.915 870.415 381.117 882.316 381.117C894.217 381.117 903.64 389.915 903.64 400.502Z" fill="#FBF0D4" stroke="black" stroke-width="2.90772"/>
<rect x="859.539" y="400.987" width="45.5543" height="24.231" fill="#FBF0D4"/>
<rect x="859.539" y="400.987" width="45.5543" height="24.231" fill="#FBF0D4"/>
<rect x="859.539" y="180" width="45.5543" height="24.231" fill="#FBF0D4"/>
<rect x="859.539" y="180" width="45.5543" height="24.231" fill="#FBF0D4"/>
<rect width="326.634" height="245.218" transform="translate(246 180)" fill="#C38590"/>
<rect x="247.454" y="205.685" width="323.727" height="193.848" fill="white" stroke="#3A4062" stroke-width="2.90772"/>
<path d="M430.64 203.746C430.64 214.333 421.217 223.131 409.316 223.131C397.415 223.131 387.993 214.333 387.993 203.746C387.993 193.159 397.415 184.362 409.316 184.362C421.217 184.362 430.64 193.159 430.64 203.746Z" fill="#FBF0D4" stroke="black" stroke-width="2.90772"/>
<path d="M430.64 400.502C430.64 411.089 421.217 419.887 409.316 419.887C397.415 419.887 387.993 411.089 387.993 400.502C387.993 389.915 397.415 381.117 409.316 381.117C421.217 381.117 430.64 389.915 430.64 400.502Z" fill="#FBF0D4" stroke="black" stroke-width="2.90772"/>
<rect x="386.539" y="400.987" width="45.5543" height="24.231" fill="#FBF0D4"/>
<rect x="386.539" y="400.987" width="45.5543" height="24.231" fill="#FBF0D4"/>
<rect x="386.539" y="180" width="45.5543" height="24.231" fill="#FBF0D4"/>
<rect x="386.539" y="180" width="45.5543" height="24.231" fill="#FBF0D4"/>
<rect width="331.777" height="249.079" fill="#EFC3C4"/>
<rect x="1.47675" y="26.0893" width="328.823" height="196.9" fill="white" stroke="#3A4062" stroke-width="2.9535"/>
<path d="M187.547 24.1201C187.547 34.8737 177.976 43.8101 165.888 43.8101C153.799 43.8101 144.229 34.8737 144.229 24.1201C144.229 13.3665 153.799 4.43012 165.888 4.43012C177.976 4.43012 187.547 13.3665 187.547 24.1201Z" fill="#FBF0D4" stroke="black" stroke-width="2.9535"/>
<path d="M187.547 223.974C187.547 234.727 177.976 243.664 165.888 243.664C153.799 243.664 144.229 234.727 144.229 223.974C144.229 213.22 153.799 204.284 165.888 204.284C177.976 204.284 187.547 213.22 187.547 223.974Z" fill="#FBF0D4" stroke="black" stroke-width="2.9535"/>
<rect x="142.752" y="224.466" width="46.2715" height="24.6125" fill="#FBF0D4"/>
<rect x="142.752" y="224.466" width="46.2715" height="24.6125" fill="#FBF0D4"/>
<rect x="142.752" width="46.2715" height="24.6125" fill="#FBF0D4"/>
<rect x="142.752" width="46.2715" height="24.6125" fill="#FBF0D4"/>
<rect width="326.634" height="245.218" transform="translate(969.732)" fill="#EFC3C4"/>
<rect x="971.186" y="25.6848" width="323.727" height="193.848" fill="white" stroke="#3A4062" stroke-width="2.90772"/>
<path d="M1154.37 23.7464C1154.37 34.3333 1144.95 43.1312 1133.05 43.1312C1121.15 43.1312 1111.73 34.3333 1111.73 23.7464C1111.73 13.1595 1121.15 4.36158 1133.05 4.36158C1144.95 4.36158 1154.37 13.1595 1154.37 23.7464Z" fill="#FBF0D4" stroke="black" stroke-width="2.90772"/>
<path d="M1154.37 220.502C1154.37 231.089 1144.95 239.887 1133.05 239.887C1121.15 239.887 1111.73 231.089 1111.73 220.502C1111.73 209.915 1121.15 201.117 1133.05 201.117C1144.95 201.117 1154.37 209.915 1154.37 220.502Z" fill="#FBF0D4" stroke="black" stroke-width="2.90772"/>
<rect x="1110.27" y="220.987" width="45.5543" height="24.231" fill="#FBF0D4"/>
<rect x="1110.27" y="220.987" width="45.5543" height="24.231" fill="#FBF0D4"/>
<rect x="1110.27" width="45.5543" height="24.231" fill="#FBF0D4"/>
<rect x="1110.27" width="45.5543" height="24.231" fill="#FBF0D4"/>
<rect width="326.634" height="245.218" transform="translate(473.545 2.95312)" fill="#EFC3C4"/>
<rect x="474.999" y="28.6379" width="323.727" height="193.848" fill="white" stroke="#3A4062" stroke-width="2.90772"/>
<path d="M658.184 26.6995C658.184 37.2864 648.762 46.0843 636.861 46.0843C624.96 46.0843 615.538 37.2864 615.538 26.6995C615.538 16.1126 624.96 7.3147 636.861 7.3147C648.762 7.3147 658.184 16.1126 658.184 26.6995Z" fill="#FBF0D4" stroke="black" stroke-width="2.90772"/>
<path d="M658.184 223.455C658.184 234.042 648.762 242.84 636.861 242.84C624.96 242.84 615.538 234.042 615.538 223.455C615.538 212.868 624.96 204.071 636.861 204.071C648.762 204.071 658.184 212.868 658.184 223.455Z" fill="#FBF0D4" stroke="black" stroke-width="2.90772"/>
<rect x="614.084" y="223.94" width="45.5543" height="24.231" fill="#FBF0D4"/>
<rect x="614.084" y="223.94" width="45.5543" height="24.231" fill="#FBF0D4"/>
<rect x="614.084" y="2.95312" width="45.5543" height="24.231" fill="#FBF0D4"/>
<rect x="614.084" y="2.95312" width="45.5543" height="24.231" fill="#FBF0D4"/>
<line x1="14.9845" y1="151" x2="14.9845" y2="202.19" stroke="#3A4062" stroke-width="1.969"/>
<line x1="34.2404" y1="151.004" x2="34.2404" y2="202.194" stroke="#3A4062" stroke-width="1.969"/>
<line x1="71.8575" y1="151.004" x2="71.8575" y2="202.194" stroke="#3A4062" stroke-width="1.969"/>
<line x1="89.7716" y1="151.004" x2="89.7716" y2="202.194" stroke="#3A4062" stroke-width="1.969"/>
<line x1="95.1447" y1="151.004" x2="95.1447" y2="202.194" stroke="#3A4062" stroke-width="1.969"/>
<line x1="122.91" y1="151.004" x2="122.91" y2="202.194" stroke="#3A4062" stroke-width="1.969"/>
<line x1="126.492" y1="151.004" x2="126.492" y2="202.194" stroke="#3A4062" stroke-width="1.969"/>
<line x1="130.074" y1="151.004" x2="130.074" y2="202.194" stroke="#3A4062" stroke-width="1.969"/>
<line x1="56.6329" y1="151.004" x2="56.6329" y2="202.194" stroke="#3A4062" stroke-width="1.969"/>
<line x1="59.3185" y1="151.004" x2="59.3185" y2="202.194" stroke="#3A4062" stroke-width="1.969"/>
<rect x="25.1953" y="151.004" width="5.37388" height="51.1812" fill="#3A4062"/>
<rect x="39.5254" y="151.004" width="5.37388" height="51.1812" fill="#3A4062"/>
<rect x="47.5879" y="151.004" width="5.37388" height="51.1812" fill="#3A4062"/>
<rect x="73.5605" y="151.004" width="5.37388" height="51.1812" fill="#3A4062"/>
<rect x="79.8301" y="151.004" width="5.37388" height="51.1812" fill="#3A4062"/>
<rect x="113.865" y="151.004" width="5.37388" height="51.1812" fill="#3A4062"/>
<rect x="132.674" y="151.004" width="5.37388" height="51.1812" fill="#3A4062"/>
<rect x="96.8477" y="151.004" width="5.37388" height="51.1812" fill="#3A4062"/>
<line x1="434.4" y1="245.969" x2="384.004" y2="245.969" stroke="#3A4062" stroke-width="1.93848"/>
<line x1="434.396" y1="264.927" x2="384" y2="264.927" stroke="#3A4062" stroke-width="1.93848"/>
<line x1="434.396" y1="301.961" x2="384" y2="301.961" stroke="#3A4062" stroke-width="1.93848"/>
<line x1="434.396" y1="319.597" x2="384" y2="319.597" stroke="#3A4062" stroke-width="1.93848"/>
<line x1="434.396" y1="324.887" x2="384" y2="324.887" stroke="#3A4062" stroke-width="1.93848"/>
<line x1="434.396" y1="352.222" x2="384" y2="352.222" stroke="#3A4062" stroke-width="1.93848"/>
<line x1="434.396" y1="355.749" x2="384" y2="355.749" stroke="#3A4062" stroke-width="1.93848"/>
<line x1="434.396" y1="359.276" x2="384" y2="359.276" stroke="#3A4062" stroke-width="1.93848"/>
<line x1="434.396" y1="286.972" x2="384" y2="286.972" stroke="#3A4062" stroke-width="1.93848"/>
<line x1="434.396" y1="289.617" x2="384" y2="289.617" stroke="#3A4062" stroke-width="1.93848"/>
<rect x="434.396" y="256.022" width="5.29059" height="50.388" transform="rotate(90 434.396 256.022)" fill="#3A4062"/>
<rect x="434.396" y="270.13" width="5.29059" height="50.388" transform="rotate(90 434.396 270.13)" fill="#3A4062"/>
<rect x="434.396" y="278.067" width="5.29059" height="50.388" transform="rotate(90 434.396 278.067)" fill="#3A4062"/>
<rect x="434.396" y="303.638" width="5.29059" height="50.388" transform="rotate(90 434.396 303.638)" fill="#3A4062"/>
<rect x="434.396" y="309.81" width="5.29059" height="50.388" transform="rotate(90 434.396 309.81)" fill="#3A4062"/>
<rect x="434.396" y="343.317" width="5.29059" height="50.388" transform="rotate(90 434.396 343.317)" fill="#3A4062"/>
<rect x="434.396" y="361.834" width="5.29059" height="50.388" transform="rotate(90 434.396 361.834)" fill="#3A4062"/>
<rect x="434.396" y="326.563" width="5.29059" height="50.388" transform="rotate(90 434.396 326.563)" fill="#3A4062"/>
<line x1="907.4" y1="242.969" x2="857.004" y2="242.969" stroke="#3A4062" stroke-width="1.93848"/>
<line x1="907.396" y1="261.927" x2="857" y2="261.927" stroke="#3A4062" stroke-width="1.93848"/>
<line x1="907.396" y1="298.961" x2="857" y2="298.961" stroke="#3A4062" stroke-width="1.93848"/>
<line x1="907.396" y1="316.597" x2="857" y2="316.597" stroke="#3A4062" stroke-width="1.93848"/>
<line x1="907.396" y1="321.887" x2="857" y2="321.887" stroke="#3A4062" stroke-width="1.93848"/>
<line x1="907.396" y1="349.222" x2="857" y2="349.222" stroke="#3A4062" stroke-width="1.93848"/>
<line x1="907.396" y1="352.749" x2="857" y2="352.749" stroke="#3A4062" stroke-width="1.93848"/>
<line x1="907.396" y1="356.276" x2="857" y2="356.276" stroke="#3A4062" stroke-width="1.93848"/>
<line x1="907.396" y1="283.972" x2="857" y2="283.972" stroke="#3A4062" stroke-width="1.93848"/>
<line x1="907.396" y1="286.617" x2="857" y2="286.617" stroke="#3A4062" stroke-width="1.93848"/>
<rect x="907.396" y="253.022" width="5.29059" height="50.388" transform="rotate(90 907.396 253.022)" fill="#3A4062"/>
<rect x="907.396" y="267.13" width="5.29059" height="50.388" transform="rotate(90 907.396 267.13)" fill="#3A4062"/>
<rect x="907.396" y="275.067" width="5.29059" height="50.388" transform="rotate(90 907.396 275.067)" fill="#3A4062"/>
<rect x="907.396" y="300.638" width="5.29059" height="50.388" transform="rotate(90 907.396 300.638)" fill="#3A4062"/>
<rect x="907.396" y="306.81" width="5.29059" height="50.388" transform="rotate(90 907.396 306.81)" fill="#3A4062"/>
<rect x="907.396" y="340.317" width="5.29059" height="50.388" transform="rotate(90 907.396 340.317)" fill="#3A4062"/>
<rect x="907.396" y="358.834" width="5.29059" height="50.388" transform="rotate(90 907.396 358.834)" fill="#3A4062"/>
<rect x="907.396" y="323.563" width="5.29059" height="50.388" transform="rotate(90 907.396 323.563)" fill="#3A4062"/>
<line x1="490.266" y1="154.566" x2="490.266" y2="204.963" stroke="#3A4062" stroke-width="1.93848"/>
<line x1="509.223" y1="154.57" x2="509.223" y2="204.967" stroke="#3A4062" stroke-width="1.93848"/>
<line x1="546.258" y1="154.57" x2="546.258" y2="204.967" stroke="#3A4062" stroke-width="1.93848"/>
<line x1="563.895" y1="154.57" x2="563.895" y2="204.967" stroke="#3A4062" stroke-width="1.93848"/>
<line x1="569.184" y1="154.57" x2="569.184" y2="204.967" stroke="#3A4062" stroke-width="1.93848"/>
<line x1="596.52" y1="154.57" x2="596.52" y2="204.967" stroke="#3A4062" stroke-width="1.93848"/>
<line x1="600.045" y1="154.57" x2="600.045" y2="204.967" stroke="#3A4062" stroke-width="1.93848"/>
<line x1="603.573" y1="154.57" x2="603.573" y2="204.967" stroke="#3A4062" stroke-width="1.93848"/>
<line x1="531.268" y1="154.57" x2="531.268" y2="204.967" stroke="#3A4062" stroke-width="1.93848"/>
<line x1="533.913" y1="154.57" x2="533.913" y2="204.967" stroke="#3A4062" stroke-width="1.93848"/>
<rect x="500.318" y="154.57" width="5.29059" height="50.388" fill="#3A4062"/>
<rect x="514.426" y="154.57" width="5.29059" height="50.388" fill="#3A4062"/>
<rect x="522.363" y="154.57" width="5.29059" height="50.388" fill="#3A4062"/>
<rect x="547.934" y="154.57" width="5.29059" height="50.388" fill="#3A4062"/>
<rect x="554.107" y="154.57" width="5.29059" height="50.388" fill="#3A4062"/>
<rect x="587.613" y="154.57" width="5.29059" height="50.388" fill="#3A4062"/>
<rect x="606.131" y="154.57" width="5.29059" height="50.388" fill="#3A4062"/>
<rect x="570.861" y="154.57" width="5.29059" height="50.388" fill="#3A4062"/>
<line x1="985.469" y1="151.613" x2="985.469" y2="202.01" stroke="#3A4062" stroke-width="1.93848"/>
<line x1="1004.43" y1="151.617" x2="1004.43" y2="202.013" stroke="#3A4062" stroke-width="1.93848"/>
<line x1="1041.46" y1="151.617" x2="1041.46" y2="202.013" stroke="#3A4062" stroke-width="1.93848"/>
<line x1="1059.1" y1="151.617" x2="1059.1" y2="202.013" stroke="#3A4062" stroke-width="1.93848"/>
<line x1="1064.39" y1="151.617" x2="1064.39" y2="202.013" stroke="#3A4062" stroke-width="1.93848"/>
<line x1="1091.72" y1="151.617" x2="1091.72" y2="202.013" stroke="#3A4062" stroke-width="1.93848"/>
<line x1="1095.25" y1="151.617" x2="1095.25" y2="202.013" stroke="#3A4062" stroke-width="1.93848"/>
<line x1="1098.78" y1="151.617" x2="1098.78" y2="202.013" stroke="#3A4062" stroke-width="1.93848"/>
<line x1="1026.47" y1="151.617" x2="1026.47" y2="202.013" stroke="#3A4062" stroke-width="1.93848"/>
<line x1="1029.12" y1="151.617" x2="1029.12" y2="202.013" stroke="#3A4062" stroke-width="1.93848"/>
<rect x="995.521" y="151.617" width="5.29059" height="50.388" fill="#3A4062"/>
<rect x="1009.63" y="151.617" width="5.29059" height="50.388" fill="#3A4062"/>
<rect x="1017.57" y="151.617" width="5.29059" height="50.388" fill="#3A4062"/>
<rect x="1043.14" y="151.617" width="5.29059" height="50.388" fill="#3A4062"/>
<rect x="1049.31" y="151.617" width="5.29059" height="50.388" fill="#3A4062"/>
<rect x="1082.82" y="151.617" width="5.29059" height="50.388" fill="#3A4062"/>
<rect x="1101.33" y="151.617" width="5.29059" height="50.388" fill="#3A4062"/>
<rect x="1066.06" y="151.617" width="5.29059" height="50.388" fill="#3A4062"/>
</svg>
