<svg width="271" height="400" viewBox="0 0 271 400" fill="none" xmlns="http://www.w3.org/2000/svg">
<rect x="0.5" y="0.5" width="270" height="399" fill="#3A4062" stroke="black"/>
<path d="M270 263H175.197H140.171H132.148C126.901 263 121.71 261.926 116.893 259.845L115.439 259.217C113.094 258.204 110.904 256.866 108.932 255.243L104.723 251.779C101.099 248.797 99 244.35 99 239.657V239.657C99 234.766 101.28 230.154 105.166 227.184L109.084 224.19C110.955 222.76 113.015 221.594 115.204 220.725L119.126 219.169C125.722 216.551 132.755 215.207 139.852 215.207H143.243H149.047C150.932 215.207 152.461 216.735 152.461 218.621V218.621C152.461 220.506 150.932 222.034 149.047 222.034V222.034C147.45 222.034 146.067 220.928 145.716 219.37L143.618 210.045C143.369 208.938 143.243 207.807 143.243 206.672V196.87C143.243 194.433 143.476 192.003 143.937 189.61L144.819 185.04C145.791 179.996 148.349 175.394 152.118 171.904V171.904C154.771 169.448 157.941 167.619 161.396 166.553L165.018 165.435C168.914 164.232 172.969 163.621 177.047 163.621H188.716H214.525H227.201C232.252 163.621 237.288 164.196 242.209 165.335L252.741 167.773C253.881 168.037 254.962 168.512 255.927 169.174L258.486 170.929C259.432 171.578 259.997 172.651 259.997 173.798V174.085C259.997 175.847 258.569 177.276 256.807 177.276V177.276C255.414 177.276 254.182 176.372 253.764 175.044L250.911 165.987C250.417 164.419 250.165 162.784 250.165 161.139V143.897V135.425C250.165 129.696 247.804 124.219 243.638 120.286V120.286C241.067 117.859 237.922 116.127 234.497 115.253L227.724 113.522C223.855 112.534 219.879 112.034 215.887 112.034H205.307H188.716H181.763C179.876 112.034 178.022 112.526 176.383 113.46L172.834 115.482C171.636 116.165 170.896 117.438 170.896 118.817V120.504C170.896 121.692 171.859 122.655 173.046 122.655V122.655C174.234 122.655 175.197 121.692 175.197 120.504V104.448V91.5517V87.8613C175.197 83.502 177.263 79.4007 180.766 76.806V76.806C183.135 75.0509 186.006 74.1034 188.955 74.1034H194.246H208.38H213.747C216.497 74.1034 219.026 75.6119 220.333 78.0321V78.0321C221.331 79.8792 221.507 82.0603 220.818 84.0435L220.489 84.9906C219.126 88.9184 215.424 91.5517 211.266 91.5517H210.809C209.211 91.5517 207.634 91.1837 206.202 90.4761L204.365 89.5693C201.039 87.9266 198.517 85.0092 197.374 81.4797V81.4797C196.93 80.1109 196.704 78.681 196.704 77.2421V68.7193C196.704 67.7642 196.87 66.8164 197.193 65.9177L197.614 64.7485C198.543 62.1684 200.991 60.4483 203.733 60.4483V60.4483C204.767 60.4483 205.787 60.6952 206.707 61.1685L206.848 61.2409C210.149 62.9387 214.199 61.8318 216.178 58.6915L216.602 58.0177C216.855 57.6159 217.072 57.1924 217.251 56.7523L221.899 45.2759L224.325 36.2879C224.754 34.699 225.366 33.1652 226.148 31.7171L226.558 30.9572C228.707 26.9791 232.205 23.8989 236.423 22.2716V22.2716C238.601 21.4311 240.916 21 243.252 21H246.478" stroke="#C38590" stroke-width="3"/>
</svg>
