<svg width="227" height="342" viewBox="0 0 227 342" fill="none" xmlns="http://www.w3.org/2000/svg">
<rect x="1.35802" y="1.32846" width="24.5092" height="59.3803" transform="matrix(0.993884 -0.110432 -0.0885398 0.996073 5.64937 239.24)" fill="#9E626D" stroke="#5B1727" stroke-width="3"/>
<rect x="1.26027" y="1.31653" width="24.5092" height="59.3803" transform="matrix(0.993884 -0.110432 -0.153707 0.988117 148.812 225.754)" fill="#9E626D" stroke="#5B1727" stroke-width="3"/>
<rect x="0.784216" y="2.13528" width="3.91546" height="73.6705" transform="matrix(0.647231 0.762294 0 1 176.296 239.963)" fill="#C38590" stroke="#5B1727" stroke-width="2.42329"/>
<rect x="1.09961" y="1.09961" width="200.577" height="217.573" transform="matrix(0.996073 -0.0885398 -0.0885398 0.996073 23.9278 22.8158)" fill="#DADADA" stroke="#5B1727" stroke-width="2.42329"/>
<rect x="1.20424" y="1.07784" width="200.577" height="239.577" transform="matrix(0.993884 -0.110432 0 1 23.023 22.6901)" fill="white" stroke="#5B1727" stroke-width="2.42329"/>
<rect x="0.784216" y="2.13528" width="3.91546" height="73.6705" transform="matrix(0.647231 0.762294 0 1 23.2962 256.873)" fill="#C38590" stroke="#5B1727" stroke-width="2.42329"/>
<rect x="1.20424" y="1.07784" width="37.9064" height="73.6705" transform="matrix(0.993884 -0.110432 0 1 26.9976 262.155)" fill="#C38590" stroke="#5B1727" stroke-width="2.42329"/>
<rect x="1.20424" y="1.07784" width="37.9064" height="73.6705" transform="matrix(0.993884 -0.110432 0 1 179.535 245.206)" fill="#C38590" stroke="#5B1727" stroke-width="2.42329"/>
<path d="M57.5853 88.4723L58.9449 88.3213C59.2848 88.2835 59.4548 88.0936 59.4548 87.7516V76.4656C59.4548 76.2883 59.4107 76.1665 59.3226 76.1003C59.2471 76.02 59.1212 75.9897 58.9449 76.0093L57.5853 76.1603V75.5523L67.7825 74.4193L68.0091 79.3721L67.537 79.4246C67.5245 79.35 67.4867 79.1705 67.4237 78.8862C67.3734 78.5878 67.2853 78.2366 67.1594 77.8325C67.0335 77.4159 66.8698 77.035 66.6684 76.6901C66.4166 76.2494 66.0767 75.9135 65.6487 75.6824C65.2206 75.4513 64.6919 75.3707 64.0624 75.4406L61.702 75.7029C61.5257 75.7225 61.3935 75.7815 61.3054 75.88C61.2299 75.9644 61.1921 76.0952 61.1921 76.2726V81.3076L64.5723 80.932C65.3654 80.8439 66.083 80.9225 66.725 81.1678C67.3797 81.3991 67.8958 81.7724 68.2735 82.2877C68.6512 82.8031 68.84 83.4218 68.84 84.1438C68.84 84.8658 68.6512 85.5264 68.2735 86.1257C67.8958 86.725 67.3797 87.2194 66.725 87.6088C66.083 87.9841 65.3654 88.2159 64.5723 88.304L57.5853 89.0803V88.4723ZM64.2513 87.7317C65.1073 87.6365 65.7494 87.2992 66.1774 86.7196C66.618 86.126 66.8383 85.3415 66.8383 84.3662C66.8383 83.3909 66.618 82.6617 66.1774 82.1786C65.7494 81.6815 65.1073 81.4805 64.2513 81.5757L61.1921 81.9156V87.5586C61.1921 87.9006 61.362 88.0527 61.702 88.0149L64.2513 87.7317ZM70.9552 86.9868L72.3148 86.8357C72.6547 86.7979 72.8247 86.6081 72.8247 86.2661V74.9801C72.8247 74.8027 72.7806 74.681 72.6925 74.6147C72.6169 74.5345 72.491 74.5041 72.3148 74.5237L70.9552 74.6748V74.0668L81.4923 72.896L81.5679 77.6376L81.0958 77.6901C81.0958 77.4367 81.0391 77.0123 80.9258 76.4169C80.8251 75.8201 80.6174 75.2985 80.3026 74.8522C79.7739 74.1003 79.0311 73.7775 78.0744 73.8838L75.0718 74.2174C74.8956 74.237 74.7634 74.296 74.6753 74.3944C74.5997 74.4788 74.562 74.6097 74.562 74.787V79.898L76.016 79.7365C76.6581 79.6651 77.1176 79.2847 77.3945 78.5953C77.6841 77.9045 77.8289 77.1854 77.8289 76.438L78.3198 76.3835V83.1855L77.8289 83.24C77.8289 82.4927 77.6841 81.8058 77.3945 81.1793C77.1176 80.5514 76.6581 80.2731 76.016 80.3445L74.562 80.506V86.073C74.562 86.415 74.7319 86.5671 75.0718 86.5294L78.0932 86.1937C78.4583 86.1531 78.8297 86.0295 79.2074 85.8229C79.5851 85.6162 79.9061 85.3272 80.1705 84.9559C80.4222 84.5732 80.63 84.1068 80.7936 83.5566C80.9573 83.0064 81.0706 82.5125 81.1335 82.0749C81.1965 81.6245 81.2342 81.3353 81.2468 81.2073L81.7189 81.1548L81.4923 86.424L70.9552 87.5948V86.9868ZM89.7338 85.8503C88.563 85.9804 87.5558 85.7503 86.7124 85.16C85.8689 84.5697 85.2268 83.748 84.7862 82.695C84.3582 81.6279 84.1442 80.48 84.1442 79.2513C84.1442 77.972 84.3582 76.7766 84.7862 75.665C85.2142 74.5534 85.8248 73.6433 86.6179 72.9345C87.4111 72.213 88.3364 71.7935 89.3939 71.676C89.9478 71.6145 90.4702 71.6831 90.9612 71.8819C91.4522 72.0807 91.855 72.3082 92.1698 72.5646C92.4719 72.8097 92.6733 72.9267 92.7741 72.9155C92.8748 72.9043 92.944 72.8649 92.9818 72.7974C93.0321 72.7285 93.0825 72.6215 93.1328 72.4766L93.4916 71.3727L93.9637 71.3203L94.0393 77.2019L93.5105 77.2606C93.2336 76.0881 92.8748 75.1209 92.4341 74.3592C91.9935 73.5849 91.5088 73.0307 90.9801 72.6968C90.4639 72.3615 89.9478 72.2225 89.4316 72.2798C88.2356 72.4127 87.3859 73.0518 86.8823 74.1971C86.3913 75.341 86.1458 76.9516 86.1458 79.0289C86.1458 81.1696 86.4039 82.7813 86.9201 83.8639C87.4362 84.9339 88.3741 85.3933 89.7338 85.2423C90.9423 85.108 91.8613 84.5562 92.4908 83.5869C93.1328 82.6036 93.4979 81.461 93.5861 80.1592L94.2659 80.0837C94.2281 80.8352 94.0707 81.6254 93.7938 82.4542C93.5294 83.2815 93.0636 84.0236 92.3964 84.6804C91.7292 85.3372 90.8416 85.7272 89.7338 85.8503ZM96.6438 84.1325L98.0034 83.9814C98.3433 83.9437 98.5133 83.7538 98.5133 83.4118V72.1258C98.5133 71.9484 98.4692 71.8267 98.3811 71.7605C98.3055 71.6802 98.1796 71.6498 98.0034 71.6694L96.6438 71.8205V71.2125L109.56 69.7773V70.3853L108.201 70.5364C108.024 70.556 107.892 70.615 107.804 70.7135C107.729 70.7979 107.691 70.9287 107.691 71.106V82.3921C107.691 82.7341 107.861 82.8862 108.201 82.8484L109.56 82.6973V83.3053L104.084 83.9138V83.3058L105.444 83.1547C105.784 83.117 105.953 82.9271 105.953 82.5851V71.2991C105.953 71.1218 105.909 71 105.821 70.9338C105.746 70.8535 105.62 70.8232 105.444 70.8427L100.76 71.3631C100.584 71.3827 100.452 71.4417 100.364 71.5402C100.288 71.6245 100.251 71.7554 100.251 71.9327V83.2187C100.251 83.5607 100.421 83.7129 100.76 83.6751L102.12 83.524V84.132L96.6438 84.7405V84.1325ZM113.244 83.124C112.665 83.1883 112.18 83.0522 111.79 82.7156C111.413 82.3775 111.224 81.8792 111.224 81.2205C111.224 80.6885 111.381 80.2467 111.696 79.8951C112.023 79.542 112.413 79.3403 112.867 79.29C113.219 79.2508 113.49 79.3347 113.679 79.5417C113.88 79.7347 113.981 79.9768 113.981 80.2682C113.981 80.5595 113.911 80.8015 113.773 80.9942C113.647 81.1856 113.471 81.3698 113.244 81.547C113.005 81.7509 112.885 81.9542 112.885 82.1569C112.885 82.2835 112.93 82.38 113.018 82.4462C113.118 82.4983 113.244 82.516 113.395 82.4992C113.949 82.4377 114.358 82.2402 114.623 81.9068C114.887 81.5608 115.095 81.145 115.246 80.6596C115.51 79.8195 115.718 78.4285 115.869 76.4863C116.033 74.5302 116.115 72.6274 116.115 70.7781C116.115 70.3981 116.02 70.1299 115.831 69.9735C115.642 69.8045 115.328 69.7445 114.887 69.7935L114.018 69.89V69.282L124.253 68.1447V68.7527L122.894 68.9038C122.718 68.9234 122.585 68.9824 122.497 69.0809C122.422 69.1653 122.384 69.2961 122.384 69.4735V80.7595C122.384 81.1015 122.554 81.2536 122.894 81.2158L124.253 81.0647V81.6727L118.777 82.2812V81.6732L120.137 81.5222C120.477 81.4844 120.647 81.2945 120.647 80.9525V69.6665C120.647 69.4765 120.609 69.3477 120.533 69.2801C120.47 69.2111 120.351 69.1864 120.175 69.206L118.551 69.3864C118.034 69.4438 117.65 69.6258 117.399 69.9324C117.147 70.2264 116.983 70.5802 116.908 70.9939C116.832 71.4077 116.782 71.9389 116.757 72.5877C116.618 76.0738 116.36 78.6295 115.982 80.2548C115.844 80.8781 115.58 81.4902 115.189 82.0909C114.799 82.6789 114.151 83.0233 113.244 83.124ZM125.921 80.8794L126.62 80.8018C127.363 80.7193 127.904 80.1968 128.244 79.2344L132.304 67.2502L132.776 67.1978L136.874 78.8265C137 79.1292 137.151 79.334 137.327 79.4411C137.503 79.5355 137.73 79.5674 138.007 79.5366L139.064 79.4191V80.0271L133.21 80.6775V80.0695L134.457 79.931C134.646 79.9101 134.803 79.8482 134.929 79.7456C135.055 79.6303 135.118 79.5093 135.118 79.3826C135.118 79.2179 135.093 79.0814 135.042 78.973L134.155 76.5446L129.736 77.0356L129.283 78.359C129.106 78.8852 129.018 79.2623 129.018 79.4903C129.018 79.769 129.087 80.0083 129.226 80.2083C129.364 80.3955 129.604 80.4703 129.944 80.4325L131.095 80.3045V80.9125L125.921 81.4874V80.8794ZM129.944 76.4045L133.947 75.9597L131.983 70.3829L129.944 76.4045ZM141.553 79.1426L143.366 78.9412C143.706 78.9034 143.876 78.7135 143.876 78.3715V67.0285C143.876 66.8512 143.838 66.7287 143.762 66.6611C143.687 66.5808 143.555 66.5512 143.366 66.5722L142.686 66.6477C141.893 66.7358 141.207 67.2174 140.628 68.0924C140.263 68.6523 140.017 69.3319 139.891 70.1312C139.765 70.9179 139.702 71.4949 139.702 71.8622L139.174 71.921L139.325 66.4702L150.164 65.2658L150.315 70.683L149.786 70.7418C149.786 70.3744 149.723 69.8114 149.597 69.0528C149.472 68.2814 149.226 67.6564 148.861 67.1776C148.282 66.4313 147.596 66.1022 146.803 66.1903L146.123 66.2658C145.934 66.2868 145.802 66.3458 145.726 66.4429C145.651 66.5273 145.613 66.6581 145.613 66.8355V78.1785C145.613 78.5205 145.783 78.6726 146.123 78.6348L147.936 78.4334V79.0414L141.553 79.7506V79.1426ZM152.465 77.9301L153.825 77.779C154.165 77.7413 154.335 77.5514 154.335 77.2094V65.9234C154.335 65.5814 154.165 65.4293 153.825 65.467L152.465 65.6181V65.0101L157.942 64.4016V65.0096L156.582 65.1607C156.242 65.1985 156.072 65.3883 156.072 65.7303V70.7273L161.775 70.0937V65.0967C161.775 64.7547 161.605 64.6026 161.265 64.6403L159.905 64.7914V64.1834L165.382 63.5749V64.1829L164.022 64.334C163.682 64.3718 163.512 64.5617 163.512 64.9037V76.1897C163.512 76.5317 163.682 76.6838 164.022 76.646L165.382 76.4949V77.1029L159.905 77.7114V77.1034L161.265 76.9523C161.605 76.9146 161.775 76.7247 161.775 76.3827V70.7017L156.072 71.3353V77.0163C156.072 77.3583 156.242 77.5105 156.582 77.4727L157.942 77.3216V77.9296L152.465 78.5381V77.9301ZM167.347 76.2765L168.707 76.1255C169.047 76.0877 169.217 75.8978 169.217 75.5558V64.2698C169.217 64.0925 169.173 63.9707 169.085 63.9045C169.009 63.8242 168.883 63.7939 168.707 63.8135L167.347 63.9645V63.3565L172.824 62.7481V63.3561L171.464 63.5071C171.288 63.5267 171.156 63.5857 171.067 63.6842C170.992 63.7686 170.954 63.8995 170.954 64.0768V68.8458L174.334 68.4702C175.127 68.3821 175.851 68.4663 176.506 68.7229C177.161 68.9795 177.67 69.3789 178.036 69.921C178.413 70.4617 178.602 71.0867 178.602 71.796C178.602 72.5054 178.413 73.1787 178.036 73.816C177.658 74.4406 177.142 74.9603 176.487 75.375C175.845 75.7757 175.127 76.0201 174.334 76.1082L167.347 76.8845V76.2765ZM178.678 75.0176L180.037 74.8666C180.377 74.8288 180.547 74.6389 180.547 74.2969V63.0109C180.547 62.8336 180.503 62.7118 180.415 62.6456C180.339 62.5653 180.213 62.535 180.037 62.5546L178.678 62.7056V62.0976L184.154 61.4891V62.0971L182.794 62.2482C182.618 62.2678 182.486 62.3268 182.398 62.4253C182.322 62.5097 182.284 62.6405 182.284 62.8179V74.1039C182.284 74.4459 182.454 74.598 182.794 74.5602L184.154 74.4091V75.0171L178.678 75.6256V75.0176ZM173.994 75.538C174.485 75.4834 174.926 75.2951 175.316 74.9731C175.719 74.637 176.034 74.2157 176.26 73.7092C176.487 73.19 176.6 72.6264 176.6 72.0184C176.6 71.4231 176.487 70.8973 176.26 70.4412C176.034 69.9724 175.719 69.621 175.316 69.3871C174.926 69.1518 174.485 69.0614 173.994 69.116L170.954 69.4538V75.3628C170.954 75.7048 171.124 75.8569 171.464 75.8191L173.994 75.538ZM192.352 60.0082C191.584 60.0936 190.923 60.0403 190.369 59.8485C189.815 59.6441 189.394 59.3553 189.104 58.9821C188.827 58.6076 188.689 58.2113 188.689 57.7933C188.689 57.4386 188.796 57.1101 189.01 56.8076C189.236 56.5038 189.557 56.3288 189.973 56.2826C190.287 56.2476 190.539 56.3147 190.728 56.4837C190.917 56.6527 191.011 56.8702 191.011 57.1362C191.011 57.3642 190.948 57.5675 190.823 57.7462C190.709 57.9108 190.539 58.0057 190.313 58.0308C190.174 58.0462 190.073 58.0954 190.011 58.1784C189.96 58.2473 189.935 58.3325 189.935 58.4338C189.935 58.8518 190.143 59.1454 190.558 59.3146C190.974 59.4837 191.572 59.525 192.352 59.4382C193.133 59.3515 193.731 59.1774 194.146 58.9159C194.562 58.6544 194.769 58.3147 194.769 57.8967C194.769 57.7953 194.744 57.7158 194.694 57.6581C194.643 57.5877 194.543 57.5608 194.392 57.5776C194.165 57.6028 193.989 57.5464 193.863 57.4084C193.75 57.2563 193.693 57.0663 193.693 56.8383C193.693 56.5723 193.787 56.3338 193.976 56.1228C194.178 55.9104 194.429 55.7874 194.731 55.7539C195.147 55.7077 195.462 55.8121 195.676 56.0669C195.902 56.3204 196.016 56.6245 196.016 56.9792C196.016 57.3972 195.871 57.8249 195.581 58.2624C195.304 58.6985 194.889 59.0804 194.335 59.4079C193.781 59.7228 193.12 59.9229 192.352 60.0082ZM186.12 74.1906L187.48 74.0396C187.82 74.0018 187.99 73.8119 187.99 73.4699V62.1839C187.99 62.0066 187.946 61.8848 187.858 61.8186C187.782 61.7383 187.656 61.708 187.48 61.7276L186.12 61.8786V61.2706L191.597 60.6622V61.2702L190.237 61.4212C190.061 61.4408 189.929 61.4998 189.841 61.5983C189.765 61.6827 189.727 61.8135 189.727 61.9909V71.5479L195.09 62.022V61.395C195.09 61.2177 195.046 61.0959 194.958 61.0297C194.883 60.9494 194.757 60.9191 194.58 60.9386L193.221 61.0897V60.4817L198.697 59.8732V60.4812L197.337 60.6323C196.998 60.6701 196.828 60.86 196.828 61.202V72.488C196.828 72.83 196.998 72.9821 197.337 72.9443L198.697 72.7932V73.4012L193.221 74.0097V73.4017L194.58 73.2506C194.92 73.2129 195.09 73.023 195.09 72.681V63.124L189.727 72.6499V73.2769C189.727 73.6189 189.897 73.771 190.237 73.7332L191.597 73.5822V74.1902L186.12 74.7986V74.1906ZM107.246 106.22L108.266 106.107C108.618 106.068 108.883 105.956 109.059 105.772C109.248 105.586 109.424 105.301 109.588 104.915C110.129 103.639 110.544 102.098 110.834 100.293C111.136 98.4732 111.287 96.4804 111.287 94.3144C111.287 93.5671 110.96 93.2298 110.305 93.3026L109.248 93.4201V92.8121L119.483 91.6748V92.2828L118.123 92.4339C117.947 92.4535 117.815 92.5125 117.727 92.611C117.651 92.6954 117.613 92.8262 117.613 93.0036V104.043C117.613 104.727 117.953 105.031 118.633 104.955L119.898 104.815V108.957L119.426 109.009C119.426 108.68 119.363 108.193 119.237 107.548C119.124 106.915 118.872 106.404 118.482 106.017C118.293 105.835 118.041 105.692 117.727 105.588C117.424 105.495 117.097 105.468 116.745 105.507L110.381 106.214C110.041 106.252 109.714 106.352 109.399 106.513C109.097 106.686 108.851 106.884 108.662 107.108C108.272 107.582 108.014 108.149 107.888 108.809C107.775 109.48 107.718 109.981 107.718 110.31L107.246 110.362V106.22ZM115.366 105.052C115.706 105.014 115.876 104.825 115.876 104.483V93.1966C115.876 92.8546 115.706 92.7025 115.366 92.7402L113.61 92.9354C112.98 93.0053 112.559 93.2738 112.345 93.7409C112.143 94.194 112.043 94.6549 112.043 95.1235C112.043 96.6182 111.91 98.2162 111.646 99.9176C111.382 101.606 111.092 102.93 110.777 103.89C110.74 104.021 110.683 104.217 110.607 104.479C110.544 104.727 110.513 104.895 110.513 104.983C110.513 105.199 110.551 105.353 110.626 105.446C110.702 105.526 110.878 105.551 111.155 105.52L115.366 105.052ZM123.396 104.996C122.817 105.06 122.332 104.924 121.942 104.588C121.564 104.25 121.376 103.751 121.376 103.093C121.376 102.561 121.533 102.119 121.848 101.767C122.175 101.414 122.565 101.212 123.018 101.162C123.371 101.123 123.642 101.207 123.83 101.414C124.032 101.607 124.133 101.849 124.133 102.14C124.133 102.432 124.063 102.674 123.925 102.866C123.799 103.058 123.623 103.242 123.396 103.419C123.157 103.623 123.037 103.826 123.037 104.029C123.037 104.156 123.081 104.252 123.17 104.318C123.27 104.37 123.396 104.388 123.547 104.371C124.101 104.31 124.51 104.112 124.775 103.779C125.039 103.433 125.247 103.017 125.398 102.532C125.662 101.692 125.87 100.3 126.021 98.3584C126.185 96.4022 126.266 94.4994 126.266 92.6501C126.266 92.2701 126.172 92.0019 125.983 91.8456C125.794 91.6765 125.48 91.6165 125.039 91.6655L124.17 91.762V91.154L134.405 90.0168V90.6248L133.046 90.7758C132.869 90.7954 132.737 90.8544 132.649 90.9529C132.574 91.0373 132.536 91.1681 132.536 91.3455V102.631C132.536 102.973 132.706 103.126 133.046 103.088L134.405 102.937V103.545L128.929 104.153V103.545L130.289 103.394C130.629 103.356 130.799 103.167 130.799 102.825V91.5385C130.799 91.3485 130.761 91.2197 130.685 91.1521C130.622 91.0831 130.503 91.0584 130.326 91.078L128.702 91.2584C128.186 91.3158 127.802 91.4978 127.551 91.8044C127.299 92.0984 127.135 92.4522 127.06 92.866C126.984 93.2797 126.934 93.8109 126.908 94.4597C126.77 97.9458 126.512 100.501 126.134 102.127C125.996 102.75 125.731 103.362 125.341 103.963C124.951 104.551 124.303 104.895 123.396 104.996ZM138.245 103.346C137.376 103.443 136.816 103.182 136.564 102.564C136.312 101.946 136.186 101.194 136.186 100.307L136.659 100.254C136.659 101.85 137.017 102.609 137.735 102.529C138.012 102.498 138.207 102.331 138.32 102.027C138.434 101.71 138.509 101.227 138.547 100.577C138.61 99.6449 138.837 98.8091 139.227 98.069C139.63 97.3276 140.328 96.6737 141.323 96.1071V96.0121C140.278 96.0142 139.428 95.7603 138.774 95.2504C138.132 94.7264 137.81 94.0337 137.81 93.1724C137.81 92.4377 138.006 91.7827 138.396 91.2074C138.786 90.632 139.296 90.17 139.925 89.8214C140.568 89.4714 141.247 89.2565 141.965 89.1768L148.574 88.4424V89.0504L147.215 89.2015C147.038 89.2211 146.906 89.2801 146.818 89.3786C146.743 89.463 146.705 89.5938 146.705 89.7712V101.057C146.705 101.399 146.875 101.551 147.215 101.514L148.574 101.362V101.97L142.777 102.615V102.007L144.458 101.82C144.646 101.799 144.779 101.746 144.854 101.662C144.93 101.565 144.967 101.428 144.967 101.25V95.7592L142.38 96.0466C141.839 96.1068 141.43 96.4626 141.153 97.114C140.876 97.7528 140.719 98.524 140.681 99.4275C140.643 100.192 140.568 100.833 140.454 101.353C140.341 101.859 140.108 102.303 139.756 102.684C139.416 103.051 138.912 103.272 138.245 103.346ZM144.967 95.1512V89.9642C144.967 89.7869 144.923 89.6651 144.835 89.5989C144.76 89.5186 144.634 89.4883 144.458 89.5078L142.097 89.7701C141.417 89.8457 140.863 90.1859 140.435 90.7908C140.02 91.3943 139.812 92.1013 139.812 92.912C139.812 93.8113 140.032 94.4835 140.473 94.9286C140.914 95.3609 141.669 95.5177 142.739 95.3988L144.967 95.1512ZM79.8564 132.834C79.2773 132.898 78.7926 132.762 78.4024 132.425C78.0247 132.087 77.8359 131.589 77.8359 130.93C77.8359 130.398 77.9932 129.956 78.308 129.605C78.6353 129.252 79.0255 129.05 79.4788 129C79.8313 128.961 80.1019 129.044 80.2908 129.251C80.4922 129.444 80.5929 129.687 80.5929 129.978C80.5929 130.269 80.5237 130.511 80.3852 130.704C80.2593 130.895 80.083 131.08 79.8564 131.257C79.6172 131.461 79.4976 131.664 79.4976 131.867C79.4976 131.993 79.5417 132.09 79.6298 132.156C79.7305 132.208 79.8564 132.226 80.0075 132.209C80.5614 132.147 80.9706 131.95 81.235 131.617C81.4993 131.271 81.707 130.855 81.8581 130.369C82.1225 129.529 82.3302 128.138 82.4813 126.196C82.6449 124.24 82.7268 122.337 82.7268 120.488C82.7268 120.108 82.6324 119.84 82.4435 119.683C82.2547 119.514 81.9399 119.454 81.4993 119.503L80.6307 119.6V118.992L90.8657 117.855V118.463L89.5061 118.614C89.3298 118.633 89.1976 118.692 89.1095 118.791C89.034 118.875 88.9962 119.006 88.9962 119.183V130.469C88.9962 130.811 89.1661 130.963 89.5061 130.926L90.8657 130.775V131.383L85.3894 131.991V131.383L86.749 131.232C87.0889 131.194 87.2589 131.004 87.2589 130.662V119.376C87.2589 119.186 87.2211 119.057 87.1456 118.99C87.0826 118.921 86.963 118.896 86.7868 118.916L85.1628 119.096C84.6466 119.154 84.2627 119.336 84.0109 119.642C83.7591 119.936 83.5954 120.29 83.5199 120.704C83.4444 121.117 83.394 121.649 83.3688 122.297C83.2303 125.784 82.9723 128.339 82.5946 129.965C82.4561 130.588 82.1917 131.2 81.8015 131.801C81.4112 132.389 80.7629 132.733 79.8564 132.834ZM92.8356 130.556L94.1953 130.405C94.5352 130.367 94.7051 130.177 94.7051 129.835V118.549C94.7051 118.372 94.6611 118.25 94.573 118.184C94.4974 118.103 94.3715 118.073 94.1953 118.093L92.8356 118.244V117.636L98.3119 117.027V117.635L96.9523 117.786C96.7761 117.806 96.6439 117.865 96.5558 117.963C96.4802 118.048 96.4425 118.179 96.4425 118.356V127.913L101.805 118.387V117.76C101.805 117.583 101.761 117.461 101.673 117.395C101.598 117.314 101.472 117.284 101.296 117.304L99.936 117.455V116.847L105.412 116.238V116.846L104.053 116.997C103.713 117.035 103.543 117.225 103.543 117.567V128.853C103.543 129.195 103.713 129.347 104.053 129.309L105.412 129.158V129.766L99.936 130.375V129.767L101.296 129.616C101.635 129.578 101.805 129.388 101.805 129.046V119.489L96.4425 129.015V129.642C96.4425 129.984 96.6124 130.136 96.9523 130.098L98.3119 129.947V130.555L92.8356 131.164V130.556ZM113.448 128.265L115.11 128.081C115.45 128.043 115.62 127.853 115.62 127.511V121.032C115.33 121.47 114.883 121.893 114.279 122.302C113.687 122.71 113.058 122.951 112.39 123.025C111.383 123.137 110.527 123.004 109.822 122.626C109.13 122.247 108.784 121.608 108.784 120.709V116.985C108.784 116.643 108.614 116.491 108.274 116.528L106.914 116.679V116.071L112.39 115.463V116.071L111.031 116.222C110.691 116.26 110.521 116.45 110.521 116.792V120.725C110.521 121.459 110.703 121.939 111.069 122.165C111.446 122.389 111.975 122.463 112.655 122.387C113.322 122.313 113.907 122.084 114.411 121.698C114.927 121.299 115.33 120.874 115.62 120.424V116.225C115.62 116.048 115.575 115.926 115.487 115.86C115.412 115.779 115.286 115.749 115.11 115.769L113.75 115.92V115.312L119.226 114.703V115.311L117.867 115.462C117.527 115.5 117.357 115.69 117.357 116.032V127.318C117.357 127.66 117.527 127.812 117.867 127.774L119.226 127.623V128.231L113.448 128.873V128.265ZM121.198 127.404L122.558 127.253C122.898 127.215 123.068 127.026 123.068 126.684V115.398C123.068 115.056 122.898 114.903 122.558 114.941L121.198 115.092V114.484L126.675 113.876V114.484L125.315 114.635C124.975 114.673 124.805 114.862 124.805 115.204V120.201L130.508 119.568V114.571C130.508 114.229 130.338 114.077 129.998 114.114L128.638 114.266V113.658L134.115 113.049V113.657L132.755 113.808C132.415 113.846 132.245 114.036 132.245 114.378V125.664C132.245 126.006 132.415 126.158 132.755 126.12L134.115 125.969V126.577L128.638 127.186V126.578L129.998 126.426C130.338 126.389 130.508 126.199 130.508 125.857V120.176L124.805 120.809V126.49C124.805 126.832 124.975 126.985 125.315 126.947L126.675 126.796V127.404L121.198 128.012V127.404ZM141.708 126.075C140.65 126.193 139.706 125.962 138.875 125.383C138.044 124.804 137.396 123.996 136.93 122.958C136.464 121.908 136.231 120.781 136.231 119.578C136.231 118.375 136.464 117.202 136.93 116.061C137.396 114.907 138.044 113.949 138.875 113.185C139.706 112.421 140.65 111.981 141.708 111.863C142.765 111.746 143.709 111.977 144.54 112.556C145.371 113.135 146.019 113.949 146.485 115C146.951 116.037 147.184 117.158 147.184 118.361C147.184 119.564 146.951 120.743 146.485 121.897C146.019 123.038 145.371 123.99 144.54 124.754C143.709 125.517 142.765 125.958 141.708 126.075ZM141.708 125.467C142.941 125.33 143.829 124.668 144.37 123.481C144.912 122.28 145.182 120.648 145.182 118.583C145.182 116.506 144.912 114.934 144.37 113.867C143.829 112.799 142.941 112.334 141.708 112.471C140.474 112.608 139.586 113.271 139.045 114.458C138.504 115.646 138.233 117.278 138.233 119.355C138.233 121.42 138.504 122.992 139.045 124.072C139.586 125.139 140.474 125.604 141.708 125.467ZM149.303 124.282L150.662 124.13C151.002 124.093 151.172 123.903 151.172 123.561V112.275C151.172 112.097 151.128 111.976 151.04 111.909C150.964 111.829 150.838 111.799 150.662 111.818L149.303 111.97V111.362L159.198 110.262L159.424 115.481L158.952 115.533C158.94 115.433 158.902 115.216 158.839 114.881C158.789 114.545 158.694 114.156 158.556 113.715C158.417 113.275 158.247 112.882 158.046 112.537C157.781 112.11 157.429 111.782 156.988 111.553C156.548 111.31 156.019 111.223 155.402 111.292L153.419 111.512C153.243 111.532 153.111 111.591 153.023 111.689C152.947 111.774 152.909 111.904 152.909 112.082V123.368C152.909 123.71 153.079 123.862 153.419 123.824L155.1 123.637V124.245L149.303 124.89V124.282ZM167.212 123.242C166.154 123.359 165.21 123.128 164.379 122.549C163.548 121.97 162.9 121.162 162.434 120.124C161.968 119.074 161.736 117.947 161.736 116.744C161.736 115.541 161.968 114.369 162.434 113.227C162.9 112.074 163.548 111.115 164.379 110.351C165.21 109.588 166.154 109.147 167.212 109.03C168.269 108.912 169.214 109.143 170.044 109.722C170.875 110.301 171.524 111.116 171.989 112.166C172.455 113.203 172.688 114.324 172.688 115.527C172.688 116.73 172.455 117.909 171.989 119.063C171.524 120.204 170.875 121.156 170.044 121.92C169.214 122.684 168.269 123.124 167.212 123.242ZM167.212 122.634C168.446 122.497 169.333 121.834 169.874 120.647C170.416 119.447 170.686 117.814 170.686 115.75C170.686 113.672 170.416 112.1 169.874 111.033C169.333 109.966 168.446 109.501 167.212 109.638C165.978 109.775 165.091 110.437 164.549 111.624C164.008 112.812 163.737 114.444 163.737 116.522C163.737 118.586 164.008 120.159 164.549 121.238C165.091 122.306 165.978 122.771 167.212 122.634ZM121.853 150.331L123.213 150.18C123.552 150.143 123.722 149.953 123.722 149.611V138.325C123.722 138.147 123.678 138.026 123.59 137.959C123.515 137.879 123.389 137.849 123.213 137.868L121.853 138.019V137.411L127.329 136.803V137.411L125.97 137.562C125.793 137.582 125.661 137.641 125.573 137.739C125.497 137.824 125.46 137.954 125.46 138.132V147.689L130.823 138.163V137.536C130.823 137.359 130.779 137.237 130.69 137.171C130.615 137.09 130.489 137.06 130.313 137.079L128.953 137.231V136.623L134.429 136.014V136.622L133.07 136.773C132.73 136.811 132.56 137.001 132.56 137.343V148.629C132.56 148.971 132.73 149.123 133.07 149.085L134.429 148.934V149.542L128.953 150.151V149.543L130.313 149.391C130.653 149.354 130.823 149.164 130.823 148.822V139.265L125.46 148.791V149.418C125.46 149.76 125.63 149.912 125.97 149.874L127.329 149.723V150.331L121.853 150.939V150.331ZM50.6308 182.081C49.9888 182.152 49.4978 182.061 49.1579 181.808C48.818 181.554 48.5914 181.212 48.4781 180.781C48.3648 180.338 48.2955 179.782 48.2703 179.113C48.2074 177.917 48.0626 177.002 47.836 176.369C47.622 175.721 47.2003 175.432 46.5708 175.502L44.4936 175.733V181.414C44.4936 181.756 44.6635 181.908 45.0034 181.87L46.3631 181.719V182.327L40.8868 182.936V182.328L42.2464 182.177C42.5863 182.139 42.7563 181.949 42.7563 181.607V170.321C42.7563 170.144 42.7122 170.022 42.6241 169.956C42.5486 169.875 42.4227 169.845 42.2464 169.865L40.8868 170.016V169.408L46.3631 168.799V169.407L45.0034 169.558C44.8272 169.578 44.695 169.637 44.6069 169.735C44.5314 169.82 44.4936 169.951 44.4936 170.128V175.125L46.1176 174.945C46.8226 174.866 47.3136 174.552 47.5905 174.002C47.8675 173.439 48.0374 172.553 48.1004 171.342C48.1382 170.502 48.264 169.867 48.4781 169.438C48.6543 169.077 48.8872 168.785 49.1768 168.563C49.4789 168.326 49.7873 168.191 50.1021 168.156C50.6686 168.093 51.1218 168.182 51.4617 168.423C51.8897 168.768 52.1038 169.251 52.1038 169.871C52.1038 170.327 52.003 170.725 51.8016 171.064C51.6757 171.268 51.5121 171.438 51.3106 171.575C51.1218 171.709 50.9204 171.789 50.7064 171.813C50.3664 171.85 50.1021 171.785 49.9132 171.616C49.7118 171.435 49.6111 171.206 49.6111 170.927C49.6111 170.687 49.6552 170.485 49.7433 170.324C49.844 170.16 49.9888 170.005 50.1776 169.857C50.4546 169.611 50.5931 169.406 50.5931 169.241C50.5931 169.102 50.5301 169.014 50.4042 168.977C50.2783 168.928 50.1524 168.91 50.0265 168.924C49.5481 168.977 49.2145 169.23 49.0257 169.681C48.8494 170.132 48.7298 170.854 48.6669 171.849C48.6165 172.628 48.5095 173.285 48.3459 173.823C48.1822 174.36 47.8675 174.763 47.4017 175.03V175.125C48.22 175.414 48.8243 175.714 49.2145 176.025C49.6048 176.337 49.8755 176.75 50.0265 177.265C50.1776 177.768 50.2846 178.516 50.3476 179.51C50.3853 180.088 50.4609 180.517 50.5742 180.795C50.7001 181.06 50.9267 181.174 51.254 181.138C51.6317 181.096 51.9149 180.805 52.1038 180.264C52.2926 179.711 52.387 179.163 52.387 178.618L52.8591 178.565C52.8591 179.313 52.7017 180.065 52.387 180.822C52.0723 181.566 51.4869 181.986 50.6308 182.081ZM60.2528 181.126C59.1954 181.243 58.2512 181.013 57.4203 180.434C56.5894 179.855 55.941 179.046 55.4752 178.009C55.0094 176.959 54.7765 175.832 54.7765 174.628C54.7765 173.425 55.0094 172.253 55.4752 171.112C55.941 169.958 56.5894 168.999 57.4203 168.236C58.2512 167.472 59.1954 167.031 60.2528 166.914C61.3103 166.796 62.2545 167.027 63.0854 167.606C63.9163 168.185 64.5646 169 65.0304 170.05C65.4962 171.088 65.7291 172.208 65.7291 173.411C65.7291 174.615 65.4962 175.793 65.0304 176.947C64.5646 178.088 63.9163 179.041 63.0854 179.804C62.2545 180.568 61.3103 181.008 60.2528 181.126ZM60.2528 180.518C61.4866 180.381 62.3741 179.719 62.9155 178.531C63.4568 177.331 63.7275 175.699 63.7275 173.634C63.7275 171.557 63.4568 169.984 62.9155 168.917C62.3741 167.85 61.4866 167.385 60.2528 167.522C59.0191 167.659 58.1316 168.321 57.5902 169.509C57.0489 170.696 56.7782 172.329 56.7782 174.406C56.7782 176.471 57.0489 178.043 57.5902 179.123C58.1316 180.19 59.0191 180.655 60.2528 180.518ZM70.586 167.818L70.4727 167.83V177.52C70.4727 177.989 70.5797 178.351 70.7937 178.606C71.0203 178.847 71.3098 178.947 71.6623 178.908L72.3422 178.833V179.441L67.8478 179.94V179.332L68.5276 179.257C68.8801 179.217 69.1634 179.053 69.3774 178.763C69.604 178.459 69.7173 178.073 69.7173 177.604V167.325C69.7173 167.148 69.6733 167.026 69.5851 166.96C69.5096 166.88 69.3837 166.849 69.2075 166.869L67.8478 167.02V166.412L71.8512 165.967L74.9292 176.094L77.7996 165.306L81.7085 164.872V165.48L80.3489 165.631C80.1726 165.651 80.0405 165.71 79.9523 165.808C79.8768 165.892 79.839 166.023 79.839 166.201V177.487C79.839 177.829 80.009 177.981 80.3489 177.943L81.7085 177.792V178.4L76.2322 179.008V178.4L77.5919 178.249C77.9318 178.212 78.1017 178.022 78.1017 177.68V166.47L74.646 179.413L74.1928 179.463L70.586 167.818ZM86.4085 166.06L86.2952 166.072V175.762C86.2952 176.231 86.4022 176.593 86.6162 176.848C86.8428 177.088 87.1324 177.189 87.4849 177.15L88.1647 177.075V177.683L83.6704 178.182V177.574L84.3502 177.498C84.7027 177.459 84.9859 177.295 85.2 177.005C85.4266 176.701 85.5399 176.315 85.5399 175.846V165.567C85.5399 165.39 85.4958 165.268 85.4077 165.202C85.3321 165.122 85.2063 165.091 85.03 165.111L83.6704 165.262V164.654L87.6737 164.209L90.7518 174.336L93.6221 163.548L97.5311 163.114V163.722L96.1714 163.873C95.9952 163.893 95.863 163.952 95.7749 164.05C95.6993 164.134 95.6616 164.265 95.6616 164.443V175.729C95.6616 176.071 95.8315 176.223 96.1714 176.185L97.5311 176.034V176.642L92.0548 177.25V176.642L93.4144 176.491C93.7543 176.454 93.9243 176.264 93.9243 175.922V164.712L90.4685 177.655L90.0153 177.705L86.4085 166.06ZM99.4929 175.816L100.853 175.665C101.192 175.627 101.362 175.437 101.362 175.095V163.809C101.362 163.632 101.318 163.51 101.23 163.444C101.155 163.364 101.029 163.333 100.853 163.353L99.4929 163.504V162.896L110.03 161.725L110.106 166.467L109.634 166.519C109.634 166.266 109.577 165.841 109.464 165.246C109.363 164.649 109.155 164.128 108.84 163.681C108.312 162.929 107.569 162.607 106.612 162.713L103.61 163.047C103.433 163.066 103.301 163.125 103.213 163.224C103.137 163.308 103.1 163.439 103.1 163.616V168.727L104.554 168.566C105.196 168.494 105.655 168.114 105.932 167.424C106.222 166.734 106.367 166.015 106.367 165.267L106.858 165.213V172.015L106.367 172.069C106.367 171.322 106.222 170.635 105.932 170.008C105.655 169.381 105.196 169.102 104.554 169.174L103.1 169.335V174.902C103.1 175.244 103.27 175.396 103.61 175.359L106.631 175.023C106.996 174.982 107.367 174.859 107.745 174.652C108.123 174.445 108.444 174.156 108.708 173.785C108.96 173.402 109.168 172.936 109.331 172.386C109.495 171.836 109.608 171.342 109.671 170.904C109.734 170.454 109.772 170.164 109.785 170.036L110.257 169.984L110.03 175.253L99.4929 176.424V175.816ZM112.531 174.367L113.89 174.216C114.23 174.178 114.4 173.989 114.4 173.647V162.361C114.4 162.183 114.356 162.061 114.268 161.995C114.193 161.915 114.067 161.885 113.89 161.904L112.531 162.055V161.447L118.838 160.746C119.719 160.649 120.5 160.714 121.18 160.942C121.872 161.157 122.407 161.515 122.785 162.018C123.175 162.507 123.37 163.093 123.37 163.777C123.37 164.474 123.175 165.116 122.785 165.704C122.407 166.291 121.872 166.781 121.18 167.174C120.5 167.554 119.719 167.793 118.838 167.89L116.138 168.191V173.454C116.138 173.631 116.175 173.76 116.251 173.84C116.326 173.908 116.459 173.931 116.648 173.91L118.309 173.725V174.333L112.531 174.975V174.367ZM119.084 167.255C119.763 167.18 120.311 166.827 120.726 166.199C121.154 165.556 121.368 164.823 121.368 163.999C121.368 163.176 121.161 162.509 120.745 161.998C120.33 161.474 119.776 161.25 119.084 161.327L116.648 161.598C116.471 161.617 116.339 161.676 116.251 161.775C116.175 161.859 116.138 161.99 116.138 162.168V167.583L119.084 167.255ZM131.447 172.266L133.108 172.081C133.448 172.043 133.618 171.853 133.618 171.511V165.032C133.329 165.47 132.882 165.893 132.277 166.302C131.686 166.71 131.056 166.951 130.389 167.025C129.382 167.137 128.526 167.004 127.821 166.626C127.128 166.247 126.782 165.608 126.782 164.709V160.985C126.782 160.643 126.612 160.491 126.272 160.528L124.913 160.68V160.072L130.389 159.463V160.071L129.029 160.222C128.689 160.26 128.52 160.45 128.52 160.792V164.725C128.52 165.459 128.702 165.939 129.067 166.165C129.445 166.389 129.974 166.463 130.653 166.388C131.321 166.314 131.906 166.084 132.41 165.699C132.926 165.299 133.329 164.874 133.618 164.424V160.225C133.618 160.048 133.574 159.926 133.486 159.86C133.41 159.78 133.285 159.749 133.108 159.769L131.749 159.92V159.312L137.225 158.703V159.311L135.865 159.463C135.525 159.5 135.355 159.69 135.355 160.032V171.318C135.355 171.66 135.525 171.812 135.865 171.775L137.225 171.623V172.231L131.447 172.874V172.266ZM139.197 171.404L140.556 171.253C140.896 171.216 141.066 171.026 141.066 170.684V159.398C141.066 159.22 141.022 159.099 140.934 159.032C140.859 158.952 140.733 158.922 140.556 158.941L139.197 159.092V158.484L149.734 157.314L149.81 162.055L149.337 162.108C149.337 161.854 149.281 161.43 149.167 160.835C149.067 160.238 148.859 159.716 148.544 159.27C148.016 158.518 147.273 158.195 146.316 158.301L143.313 158.635C143.137 158.655 143.005 158.714 142.917 158.812C142.841 158.896 142.804 159.027 142.804 159.205V164.316L144.258 164.154C144.9 164.083 145.359 163.702 145.636 163.013C145.926 162.322 146.071 161.603 146.071 160.856L146.562 160.801V167.603L146.071 167.658C146.071 166.91 145.926 166.223 145.636 165.597C145.359 164.969 144.9 164.691 144.258 164.762L142.804 164.924V170.491C142.804 170.833 142.974 170.985 143.313 170.947L146.335 170.611C146.7 170.571 147.071 170.447 147.449 170.24C147.827 170.034 148.148 169.745 148.412 169.373C148.664 168.991 148.872 168.524 149.035 167.974C149.199 167.424 149.312 166.93 149.375 166.492C149.438 166.042 149.476 165.753 149.488 165.625L149.961 165.572L149.734 170.842L139.197 172.012V171.404ZM157.975 170.268C156.805 170.398 155.798 170.168 154.954 169.578C154.111 168.987 153.468 168.166 153.028 167.113C152.6 166.045 152.386 164.898 152.386 163.669C152.386 162.39 152.6 161.194 153.028 160.083C153.456 158.971 154.066 158.061 154.86 157.352C155.653 156.631 156.578 156.211 157.636 156.094C158.189 156.032 158.712 156.101 159.203 156.299C159.694 156.498 160.097 156.726 160.411 156.982C160.714 157.227 160.915 157.344 161.016 157.333C161.116 157.322 161.186 157.283 161.223 157.215C161.274 157.146 161.324 157.039 161.375 156.894L161.733 155.79L162.205 155.738L162.281 161.619L161.752 161.678C161.475 160.506 161.116 159.539 160.676 158.777C160.235 158.002 159.751 157.448 159.222 157.114C158.706 156.779 158.189 156.64 157.673 156.697C156.477 156.83 155.628 157.469 155.124 158.615C154.633 159.759 154.388 161.369 154.388 163.447C154.388 165.587 154.646 167.199 155.162 168.281C155.678 169.351 156.616 169.811 157.975 169.66C159.184 169.526 160.103 168.974 160.732 168.005C161.375 167.021 161.74 165.879 161.828 164.577L162.508 164.501C162.47 165.253 162.312 166.043 162.035 166.872C161.771 167.699 161.305 168.441 160.638 169.098C159.971 169.755 159.083 170.145 157.975 170.268ZM174.629 168.303C173.987 168.375 173.496 168.284 173.157 168.03C172.817 167.777 172.59 167.434 172.477 167.004C172.363 166.56 172.294 166.004 172.269 165.336C172.206 164.139 172.061 163.224 171.835 162.591C171.621 161.943 171.199 161.655 170.569 161.725L168.492 161.955V167.636C168.492 167.978 168.662 168.13 169.002 168.093L170.362 167.942V168.55L164.885 169.158V168.55L166.245 168.399C166.585 168.361 166.755 168.171 166.755 167.829V156.543C166.755 156.366 166.711 156.244 166.623 156.178C166.547 156.098 166.421 156.067 166.245 156.087L164.885 156.238V155.63L170.362 155.022V155.63L169.002 155.781C168.826 155.8 168.694 155.859 168.606 155.958C168.53 156.042 168.492 156.173 168.492 156.35V161.347L170.116 161.167C170.821 161.089 171.312 160.774 171.589 160.224C171.866 159.661 172.036 158.775 172.099 157.565C172.137 156.724 172.263 156.09 172.477 155.661C172.653 155.299 172.886 155.007 173.175 154.785C173.478 154.549 173.786 154.413 174.101 154.378C174.667 154.315 175.12 154.404 175.46 154.645C175.888 154.99 176.102 155.473 176.102 156.094C176.102 156.55 176.002 156.947 175.8 157.286C175.674 157.49 175.511 157.661 175.309 157.797C175.12 157.932 174.919 158.011 174.705 158.035C174.365 158.073 174.101 158.007 173.912 157.838C173.71 157.658 173.61 157.428 173.61 157.15C173.61 156.909 173.654 156.708 173.742 156.546C173.843 156.383 173.987 156.227 174.176 156.08C174.453 155.834 174.592 155.628 174.592 155.464C174.592 155.324 174.529 155.236 174.403 155.2C174.277 155.15 174.151 155.133 174.025 155.147C173.547 155.2 173.213 155.452 173.024 155.904C172.848 156.354 172.728 157.077 172.666 158.072C172.615 158.85 172.508 159.508 172.345 160.045C172.181 160.583 171.866 160.985 171.4 161.252V161.347C172.219 161.636 172.823 161.936 173.213 162.248C173.603 162.559 173.874 162.972 174.025 163.488C174.176 163.99 174.283 164.738 174.346 165.732C174.384 166.31 174.46 166.739 174.573 167.018C174.699 167.282 174.925 167.397 175.253 167.36C175.63 167.318 175.914 167.027 176.102 166.487C176.291 165.934 176.386 165.385 176.386 164.84L176.858 164.788C176.858 165.535 176.7 166.287 176.386 167.044C176.071 167.789 175.486 168.208 174.629 168.303ZM184.251 167.348C183.194 167.466 182.25 167.235 181.419 166.656C180.588 166.077 179.94 165.269 179.474 164.231C179.008 163.181 178.775 162.054 178.775 160.851C178.775 159.647 179.008 158.475 179.474 157.334C179.94 156.18 180.588 155.222 181.419 154.458C182.25 153.694 183.194 153.254 184.251 153.136C185.309 153.019 186.253 153.25 187.084 153.829C187.915 154.408 188.563 155.222 189.029 156.272C189.495 157.31 189.728 158.43 189.728 159.634C189.728 160.837 189.495 162.016 189.029 163.169C188.563 164.311 187.915 165.263 187.084 166.027C186.253 166.79 185.309 167.231 184.251 167.348ZM184.251 166.74C185.485 166.603 186.373 165.941 186.914 164.753C187.455 163.553 187.726 161.921 187.726 159.856C187.726 157.779 187.455 156.207 186.914 155.139C186.373 154.072 185.485 153.607 184.251 153.744C183.018 153.881 182.13 154.544 181.589 155.731C181.048 156.919 180.777 158.551 180.777 160.628C180.777 162.693 181.048 164.265 181.589 165.345C182.13 166.412 183.018 166.877 184.251 166.74ZM191.846 165.554L193.206 165.403C193.546 165.366 193.716 165.176 193.716 164.834V153.548C193.716 153.37 193.672 153.249 193.584 153.182C193.508 153.102 193.382 153.072 193.206 153.091L191.846 153.242V152.634L201.742 151.535L201.968 156.754L201.496 156.806C201.483 156.706 201.446 156.489 201.383 156.154C201.332 155.817 201.238 155.429 201.1 154.988C200.961 154.548 200.791 154.155 200.59 153.81C200.325 153.383 199.973 153.055 199.532 152.825C199.092 152.583 198.563 152.496 197.946 152.565L195.963 152.785C195.787 152.805 195.655 152.864 195.567 152.962C195.491 153.046 195.453 153.177 195.453 153.355V164.641C195.453 164.983 195.623 165.135 195.963 165.097L197.644 164.91V165.518L191.846 166.162V165.554ZM209.756 164.515C208.698 164.632 207.754 164.401 206.923 163.822C206.092 163.243 205.444 162.435 204.978 161.397C204.512 160.347 204.279 159.22 204.279 158.017C204.279 156.814 204.512 155.641 204.978 154.5C205.444 153.347 206.092 152.388 206.923 151.624C207.754 150.861 208.698 150.42 209.756 150.303C210.813 150.185 211.757 150.416 212.588 150.995C213.419 151.574 214.067 152.388 214.533 153.439C214.999 154.476 215.232 155.597 215.232 156.8C215.232 158.003 214.999 159.182 214.533 160.336C214.067 161.477 213.419 162.429 212.588 163.193C211.757 163.956 210.813 164.397 209.756 164.515ZM209.756 163.907C210.989 163.769 211.877 163.107 212.418 161.92C212.96 160.72 213.23 159.087 213.23 157.022C213.23 154.945 212.96 153.373 212.418 152.306C211.877 151.238 210.989 150.773 209.756 150.911C208.522 151.048 207.634 151.71 207.093 152.897C206.552 154.085 206.281 155.717 206.281 157.795C206.281 159.859 206.552 161.431 207.093 162.511C207.634 163.579 208.522 164.044 209.756 163.907ZM40.0293 205.423L41.3889 205.272C41.7288 205.234 41.8988 205.044 41.8988 204.702V193.416C41.8988 193.239 41.8547 193.117 41.7666 193.051C41.691 192.971 41.5651 192.94 41.3889 192.96L40.0293 193.111V192.503L45.5056 191.895V192.503L44.1459 192.654C43.9697 192.673 43.8375 192.732 43.7494 192.831C43.6738 192.915 43.6361 193.046 43.6361 193.223V202.78L48.9991 193.254V192.627C48.9991 192.45 48.955 192.328 48.8669 192.262C48.7913 192.182 48.6655 192.151 48.4892 192.171L47.1296 192.322V191.714L52.6059 191.106V191.714L51.2462 191.865C50.9063 191.902 50.7364 192.092 50.7364 192.434V203.72C50.7364 204.062 50.9063 204.214 51.2462 204.177L52.6059 204.026V204.634L47.1296 205.242V204.634L48.4892 204.483C48.8291 204.445 48.9991 204.255 48.9991 203.913V194.356L43.6361 203.882V204.509C43.6361 204.851 43.806 205.003 44.1459 204.966L45.5056 204.815V205.423L40.0293 206.031V205.423ZM60.3016 204.121C59.1308 204.251 58.1237 204.021 57.2802 203.43C56.4367 202.84 55.7947 202.018 55.3541 200.965C54.926 199.898 54.712 198.75 54.712 197.522C54.712 196.242 54.926 195.047 55.3541 193.935C55.7821 192.824 56.3927 191.914 57.1858 191.205C57.9789 190.483 58.9042 190.064 59.9617 189.946C60.5156 189.885 61.0381 189.953 61.5291 190.152C62.02 190.351 62.4229 190.578 62.7376 190.835C63.0398 191.08 63.2412 191.197 63.3419 191.186C63.4426 191.175 63.5118 191.135 63.5496 191.068C63.6 190.999 63.6503 190.892 63.7007 190.747L64.0595 189.643L64.5316 189.591L64.6071 195.472L64.0784 195.531C63.8014 194.358 63.4426 193.391 63.002 192.629C62.5614 191.855 62.0767 191.301 61.5479 190.967C61.0318 190.632 60.5156 190.493 59.9995 190.55C58.8035 190.683 57.9537 191.322 57.4502 192.467C56.9592 193.611 56.7137 195.222 56.7137 197.299C56.7137 199.44 56.9718 201.051 57.4879 202.134C58.0041 203.204 58.942 203.664 60.3016 203.513C61.5102 203.378 62.4292 202.826 63.0586 201.857C63.7007 200.874 64.0658 199.731 64.1539 198.429L64.8337 198.354C64.7959 199.105 64.6386 199.896 64.3616 200.724C64.0972 201.552 63.6314 202.294 62.9642 202.951C62.297 203.607 61.4095 203.997 60.3016 204.121ZM67.2116 202.403L68.5712 202.252C68.9111 202.214 69.0811 202.024 69.0811 201.682V190.396C69.0811 190.219 69.037 190.097 68.9489 190.031C68.8734 189.95 68.7475 189.92 68.5712 189.94L67.2116 190.091V189.483L80.1281 188.048V188.656L78.7685 188.807C78.5922 188.826 78.46 188.885 78.3719 188.984C78.2964 189.068 78.2586 189.199 78.2586 189.376V200.662C78.2586 201.004 78.4286 201.156 78.7685 201.119L80.1281 200.968V201.576L74.6518 202.184V201.576L76.0114 201.425C76.3514 201.387 76.5213 201.197 76.5213 200.855V189.569C76.5213 189.392 76.4772 189.27 76.3891 189.204C76.3136 189.124 76.1877 189.093 76.0114 189.113L71.3283 189.633C71.152 189.653 71.0198 189.712 70.9317 189.81C70.8562 189.895 70.8184 190.026 70.8184 190.203V201.489C70.8184 201.831 70.9884 201.983 71.3283 201.945L72.6879 201.794V202.402L67.2116 203.011V202.403ZM87.721 201.074C86.6635 201.191 85.7193 200.961 84.8884 200.382C84.0576 199.803 83.4092 198.994 82.9434 197.957C82.4776 196.907 82.2447 195.78 82.2447 194.576C82.2447 193.373 82.4776 192.201 82.9434 191.06C83.4092 189.906 84.0576 188.947 84.8884 188.184C85.7193 187.42 86.6635 186.979 87.721 186.862C88.7785 186.744 89.7227 186.975 90.5536 187.554C91.3845 188.133 92.0328 188.948 92.4986 189.998C92.9644 191.036 93.1973 192.156 93.1973 193.359C93.1973 194.563 92.9644 195.741 92.4986 196.895C92.0328 198.036 91.3845 198.989 90.5536 199.752C89.7227 200.516 88.7785 200.956 87.721 201.074ZM87.721 200.466C88.9548 200.329 89.8423 199.667 90.3836 198.479C90.925 197.279 91.1956 195.647 91.1956 193.582C91.1956 191.505 90.925 189.932 90.3836 188.865C89.8423 187.798 88.9548 187.333 87.721 187.47C86.4873 187.607 85.5997 188.269 85.0584 189.457C84.5171 190.644 84.2464 192.277 84.2464 194.354C84.2464 196.419 84.5171 197.991 85.0584 199.071C85.5997 200.138 86.4873 200.603 87.721 200.466ZM96.5734 199.976C95.9943 200.041 95.5096 199.905 95.1193 199.568C94.7417 199.23 94.5528 198.731 94.5528 198.073C94.5528 197.541 94.7102 197.099 95.0249 196.747C95.3522 196.394 95.7425 196.193 96.1957 196.142C96.5482 196.103 96.8189 196.187 97.0077 196.394C97.2091 196.587 97.3099 196.829 97.3099 197.12C97.3099 197.412 97.2406 197.654 97.1021 197.847C96.9762 198.038 96.8 198.222 96.5734 198.399C96.3342 198.603 96.2146 198.807 96.2146 199.009C96.2146 199.136 96.2587 199.232 96.3468 199.298C96.4475 199.351 96.5734 199.368 96.7245 199.352C97.2784 199.29 97.6875 199.093 97.9519 198.759C98.2163 198.413 98.424 197.997 98.5751 197.512C98.8394 196.672 99.0472 195.281 99.1982 193.339C99.3619 191.382 99.4437 189.48 99.4437 187.63C99.4437 187.25 99.3493 186.982 99.1605 186.826C98.9716 186.657 98.6569 186.597 98.2163 186.646L97.3476 186.742V186.134L107.583 184.997V185.605L106.223 185.756C106.047 185.776 105.915 185.835 105.826 185.933C105.751 186.018 105.713 186.148 105.713 186.326V197.612C105.713 197.954 105.883 198.106 106.223 198.068L107.583 197.917V198.525L102.106 199.134V198.526L103.466 198.374C103.806 198.337 103.976 198.147 103.976 197.805V186.519C103.976 186.329 103.938 186.2 103.863 186.132C103.8 186.063 103.68 186.039 103.504 186.058L101.88 186.239C101.364 186.296 100.98 186.478 100.728 186.785C100.476 187.079 100.312 187.433 100.237 187.846C100.161 188.26 100.111 188.791 100.086 189.44C99.9473 192.926 99.6892 195.482 99.3115 197.107C99.1731 197.73 98.9087 198.343 98.5184 198.943C98.1281 199.531 97.4798 199.876 96.5734 199.976ZM109.553 197.698L110.912 197.547C111.252 197.509 111.422 197.319 111.422 196.977V185.691C111.422 185.514 111.378 185.392 111.29 185.326C111.214 185.246 111.088 185.216 110.912 185.235L109.553 185.386V184.778L115.029 184.17V184.778L113.669 184.929C113.493 184.948 113.361 185.007 113.273 185.106C113.197 185.19 113.159 185.321 113.159 185.498V190.267L116.54 189.892C117.333 189.804 118.057 189.888 118.711 190.145C119.366 190.401 119.876 190.8 120.241 191.343C120.618 191.883 120.807 192.508 120.807 193.218C120.807 193.927 120.618 194.6 120.241 195.238C119.863 195.862 119.347 196.382 118.692 196.797C118.05 197.197 117.333 197.442 116.54 197.53L109.553 198.306V197.698ZM116.2 196.96C116.691 196.905 117.131 196.717 117.522 196.395C117.924 196.059 118.239 195.637 118.466 195.131C118.692 194.612 118.806 194.048 118.806 193.44C118.806 192.845 118.692 192.319 118.466 191.863C118.239 191.394 117.924 191.043 117.522 190.809C117.131 190.573 116.691 190.483 116.2 190.538L113.159 190.875V196.784C113.159 197.126 113.329 197.279 113.669 197.241L116.2 196.96ZM127.152 196.693C126.397 196.777 125.692 196.703 125.037 196.472C124.395 196.239 123.879 195.872 123.489 195.371C123.111 194.855 122.922 194.23 122.922 193.496C122.922 193.014 123.067 192.599 123.357 192.25C123.659 191.887 124.011 191.684 124.414 191.639C124.842 191.591 125.17 191.682 125.396 191.91C125.635 192.124 125.755 192.421 125.755 192.801C125.755 193.118 125.667 193.381 125.491 193.59C125.327 193.786 125.119 193.923 124.867 194.002C124.679 194.061 124.521 194.129 124.395 194.206C124.27 194.283 124.207 194.398 124.207 194.55C124.207 194.905 124.364 195.21 124.679 195.467C124.993 195.71 125.384 195.889 125.849 196.001C126.315 196.102 126.75 196.129 127.152 196.085C128.273 195.96 129.123 195.555 129.702 194.87C130.293 194.184 130.589 193.309 130.589 192.245C130.589 191.371 130.388 190.633 129.985 190.032C129.595 189.417 128.965 189.157 128.097 189.254L126.17 189.468V188.784L128.059 188.574C128.865 188.484 129.463 188.146 129.853 187.558C130.243 186.957 130.438 186.27 130.438 185.498C130.438 184.712 130.224 184.077 129.796 183.593C129.381 183.107 128.764 182.91 127.946 183.001C126.926 183.114 126.063 183.602 125.358 184.466C124.653 185.317 124.2 186.463 123.999 187.904L123.527 187.956V183.035L123.999 182.983L124.131 183.652C124.169 183.8 124.213 183.903 124.263 183.961C124.326 184.017 124.408 184.04 124.509 184.028C124.66 184.012 124.905 183.87 125.245 183.605C126.126 182.899 127.027 182.495 127.946 182.393C128.953 182.281 129.777 182.36 130.419 182.631C131.061 182.901 131.527 183.28 131.817 183.767C132.106 184.242 132.251 184.745 132.251 185.277C132.251 185.822 132.094 186.34 131.779 186.831C131.477 187.307 131.118 187.708 130.703 188.033C130.287 188.345 129.922 188.544 129.607 188.63V188.82C130.035 188.81 130.482 188.944 130.948 189.222C131.414 189.487 131.804 189.861 132.119 190.346C132.434 190.818 132.591 191.332 132.591 191.889C132.591 192.814 132.333 193.622 131.817 194.312C131.301 194.99 130.627 195.534 129.796 195.943C128.978 196.338 128.097 196.588 127.152 196.693ZM140.334 195.228C139.276 195.346 138.332 195.115 137.501 194.536C136.67 193.957 136.022 193.148 135.556 192.111C135.09 191.061 134.857 189.934 134.857 188.731C134.857 187.527 135.09 186.355 135.556 185.214C136.022 184.06 136.67 183.101 137.501 182.338C138.332 181.574 139.276 181.134 140.334 181.016C141.391 180.899 142.335 181.129 143.166 181.708C143.997 182.287 144.646 183.102 145.111 184.152C145.577 185.19 145.81 186.31 145.81 187.514C145.81 188.717 145.577 189.895 145.111 191.049C144.646 192.19 143.997 193.143 143.166 193.906C142.335 194.67 141.391 195.111 140.334 195.228ZM140.334 194.62C141.568 194.483 142.455 193.821 142.996 192.633C143.538 191.433 143.808 189.801 143.808 187.736C143.808 185.659 143.538 184.086 142.996 183.019C142.455 181.952 141.568 181.487 140.334 181.624C139.1 181.761 138.212 182.423 137.671 183.611C137.13 184.798 136.859 186.431 136.859 188.508C136.859 190.573 137.13 192.145 137.671 193.225C138.212 194.292 139.1 194.757 140.334 194.62ZM147.929 193.434L149.288 193.283C149.628 193.245 149.798 193.055 149.798 192.713V181.427C149.798 181.25 149.754 181.128 149.666 181.062C149.591 180.982 149.465 180.952 149.288 180.971L147.929 181.122V180.514L154.085 179.83C154.828 179.748 155.52 179.81 156.162 180.017C156.817 180.223 157.339 180.552 157.729 181.002C158.12 181.44 158.315 181.969 158.315 182.59C158.315 183.451 158.025 184.193 157.446 184.815C156.867 185.436 156.194 185.872 155.426 186.122V186.198C155.942 186.179 156.452 186.287 156.955 186.522C157.471 186.744 157.893 187.083 158.22 187.541C158.56 187.997 158.73 188.535 158.73 189.156C158.73 189.929 158.529 190.616 158.126 191.218C157.723 191.82 157.182 192.305 156.502 192.672C155.835 193.024 155.098 193.246 154.293 193.335L147.929 194.042V193.434ZM154.009 185.995C155.029 185.881 155.721 185.545 156.087 184.985C156.464 184.411 156.653 183.674 156.653 182.775C156.653 182.015 156.414 181.414 155.935 180.974C155.457 180.533 154.865 180.351 154.16 180.43L152.045 180.665C151.869 180.684 151.737 180.743 151.649 180.842C151.573 180.926 151.536 181.057 151.536 181.234V186.269L154.009 185.995ZM154.085 192.75C154.853 192.665 155.482 192.367 155.973 191.856C156.477 191.332 156.729 190.506 156.729 189.378C156.729 188.251 156.477 187.487 155.973 187.087C155.482 186.673 154.853 186.509 154.085 186.594L151.536 186.877V192.52C151.536 192.862 151.705 193.015 152.045 192.977L154.085 192.75ZM159.908 192.103L160.607 192.025C161.35 191.943 161.891 191.42 162.231 190.458L166.291 178.474L166.763 178.421L170.861 190.05C170.987 190.353 171.138 190.558 171.314 190.665C171.49 190.759 171.717 190.791 171.994 190.76L173.052 190.643V191.251L167.198 191.901V191.293L168.444 191.155C168.633 191.134 168.79 191.072 168.916 190.969C169.042 190.854 169.105 190.733 169.105 190.606C169.105 190.442 169.08 190.305 169.029 190.197L168.142 187.768L163.723 188.259L163.27 189.583C163.094 190.109 163.005 190.486 163.005 190.714C163.005 190.993 163.075 191.232 163.213 191.432C163.352 191.619 163.591 191.694 163.931 191.656L165.083 191.528V192.136L159.908 192.711V192.103ZM163.931 187.628L167.934 187.183L165.97 181.607L163.931 187.628ZM174.632 190.467L175.991 190.316C176.331 190.278 176.501 190.088 176.501 189.746V178.46C176.501 178.118 176.331 177.966 175.991 178.004L174.632 178.155V177.547L180.108 176.939V177.547L178.748 177.698C178.408 177.736 178.238 177.925 178.238 178.267V183.264L183.941 182.631V177.634C183.941 177.292 183.771 177.14 183.431 177.177L182.072 177.328V176.72L187.548 176.112V176.72L186.188 176.871C185.849 176.909 185.679 177.099 185.679 177.441V188.727C185.679 189.069 185.849 189.221 186.188 189.183L187.548 189.032V189.64L182.072 190.248V189.64L183.431 189.489C183.771 189.452 183.941 189.262 183.941 188.92V183.239L178.238 183.872V189.553C178.238 189.895 178.408 190.048 178.748 190.01L180.108 189.859V190.467L174.632 191.075V190.467ZM189.514 188.814L190.873 188.663C191.213 188.625 191.383 188.435 191.383 188.093V176.807C191.383 176.63 191.339 176.508 191.251 176.442C191.175 176.361 191.05 176.331 190.873 176.351L189.514 176.502V175.894L194.99 175.285V175.893L193.63 176.044C193.454 176.064 193.322 176.123 193.234 176.221C193.158 176.306 193.12 176.437 193.12 176.614V186.171L198.483 176.645V176.018C198.483 175.841 198.439 175.719 198.351 175.653C198.276 175.572 198.15 175.542 197.974 175.562L196.614 175.713V175.105L202.09 174.496V175.104L200.731 175.255C200.391 175.293 200.221 175.483 200.221 175.825V187.111C200.221 187.453 200.391 187.605 200.731 187.567L202.09 187.416V188.024L196.614 188.633V188.025L197.974 187.874C198.313 187.836 198.483 187.646 198.483 187.304V177.747L193.12 187.273V187.9C193.12 188.242 193.29 188.394 193.63 188.356L194.99 188.205V188.813L189.514 189.422V188.814ZM205.915 187.827C205.046 187.924 204.486 187.663 204.234 187.045C203.982 186.427 203.856 185.675 203.856 184.788L204.329 184.736C204.329 186.332 204.687 187.09 205.405 187.01C205.682 186.979 205.877 186.812 205.99 186.508C206.104 186.191 206.179 185.708 206.217 185.058C206.28 184.126 206.507 183.29 206.897 182.55C207.3 181.809 207.998 181.155 208.993 180.588V180.493C207.948 180.495 207.098 180.241 206.444 179.732C205.802 179.208 205.48 178.515 205.48 177.654C205.48 176.919 205.676 176.264 206.066 175.688C206.456 175.113 206.966 174.651 207.595 174.303C208.238 173.953 208.917 173.738 209.635 173.658L216.244 172.924V173.532L214.885 173.683C214.708 173.702 214.576 173.761 214.488 173.86C214.413 173.944 214.375 174.075 214.375 174.252V185.538C214.375 185.88 214.545 186.032 214.885 185.995L216.244 185.844V186.452L210.447 187.096V186.488L212.128 186.301C212.316 186.28 212.449 186.227 212.524 186.143C212.6 186.046 212.637 185.909 212.637 185.731V180.24L210.05 180.528C209.509 180.588 209.1 180.944 208.823 181.595C208.546 182.234 208.389 183.005 208.351 183.909C208.313 184.673 208.238 185.315 208.124 185.834C208.011 186.34 207.778 186.784 207.426 187.165C207.086 187.533 206.582 187.753 205.915 187.827ZM212.637 179.632V174.445C212.637 174.268 212.593 174.146 212.505 174.08C212.43 174 212.304 173.969 212.128 173.989L209.767 174.251C209.087 174.327 208.533 174.667 208.105 175.272C207.69 175.875 207.482 176.582 207.482 177.393C207.482 178.292 207.702 178.965 208.143 179.41C208.584 179.842 209.339 179.999 210.409 179.88L212.637 179.632Z" fill="#5B1727"/>
</svg>
