<svg width="384" height="505" viewBox="0 0 384 505" fill="none" xmlns="http://www.w3.org/2000/svg">
<path d="M137.708 460.508L135.761 371.31L140.158 373.914L142.144 463.267L139.926 461.887L137.708 460.508Z" fill="#C38590" stroke="#5B1727" stroke-width="3"/>
<path d="M308.154 404.877L306.217 315.694L312.632 319.537L314.618 408.899L311.385 406.888L308.154 404.877Z" fill="#C38590" stroke="#5B1727" stroke-width="3"/>
<rect x="0.782256" y="0.931267" width="40.8106" height="59.3803" transform="matrix(0.960714 -0.27754 -0.43921 0.898384 253.254 291.865)" fill="#FFDBDF" stroke="#5B1727" stroke-width="3"/>
<rect x="0.96673" y="1.00672" width="253" height="267.199" transform="matrix(0.960714 -0.27754 -0.316228 0.948683 112.491 76.2774)" fill="#DADADA" stroke="#5B1727" stroke-width="3"/>
<rect x="1.54085" y="1.08037" width="253" height="297" transform="matrix(0.960714 -0.27754 0.066519 0.997785 115.897 75.6192)" fill="white" stroke="#5B1727" stroke-width="3"/>
<rect x="1.4744" y="1.08332" width="46.9275" height="91.2029" transform="matrix(0.960714 -0.27754 0.0222167 0.999753 141.448 372.09)" fill="#C38590" stroke="#5B1727" stroke-width="3"/>
<rect x="0.96673" y="1.00672" width="40.8106" height="59.3803" transform="matrix(0.960714 -0.27754 -0.316228 0.948683 26.3661 332.288)" fill="#9E626D" stroke="#5B1727" stroke-width="3"/>
<rect x="1.4744" y="1.08332" width="46.9275" height="91.2029" transform="matrix(0.960714 -0.27754 0.0222167 0.999753 313.719 317.296)" fill="#C38590" stroke="#5B1727" stroke-width="3"/>
<path d="M167.462 153.763C166.171 154.136 164.98 154.047 163.891 153.495C162.801 152.944 161.911 152.065 161.22 150.858C160.528 149.636 160.115 148.268 159.981 146.754C159.846 145.24 160.002 143.716 160.449 142.181C160.895 140.63 161.587 139.285 162.527 138.148C163.466 137.01 164.581 136.255 165.872 135.882C167.164 135.509 168.354 135.598 169.444 136.149C170.533 136.701 171.424 137.588 172.116 138.81C172.807 140.016 173.219 141.377 173.354 142.891C173.488 144.405 173.333 145.937 172.887 147.488C172.44 149.023 171.747 150.359 170.808 151.497C169.868 152.635 168.753 153.39 167.462 153.763ZM167.394 152.998C168.9 152.563 169.921 151.541 170.456 149.931C170.989 148.306 171.141 146.194 170.91 143.597C170.677 140.983 170.168 139.062 169.381 137.835C168.594 136.608 167.447 136.211 165.94 136.647C164.434 137.082 163.413 138.104 162.879 139.713C162.344 141.323 162.192 143.434 162.425 146.048C162.656 148.646 163.165 150.566 163.954 151.81C164.741 153.037 165.888 153.433 167.394 152.998ZM175.862 150.307L177.061 149.96C177.246 149.907 177.373 149.829 177.443 149.727C177.512 149.625 177.539 149.479 177.522 149.288L176.204 134.466C176.187 134.275 176.137 134.151 176.053 134.093C175.969 134.036 175.835 134.033 175.65 134.087L174.451 134.433L174.4 133.859L177.767 132.887L179.182 148.808C179.199 148.999 179.249 149.124 179.333 149.181C179.417 149.239 179.551 149.241 179.736 149.187L180.935 148.841L180.986 149.415L175.913 150.88L175.862 150.307ZM186.673 148.066C185.95 148.275 185.252 148.223 184.578 147.911C183.917 147.579 183.364 147.028 182.917 146.258C182.47 145.488 182.199 144.569 182.104 143.501C182.01 142.433 182.108 141.408 182.399 140.425C182.69 139.442 183.121 138.614 183.692 137.943C184.276 137.251 184.93 136.8 185.653 136.591C186.252 136.418 186.808 136.47 187.322 136.747C187.834 137.008 188.23 137.391 188.512 137.899L188.602 137.848L187.999 131.059C187.982 130.868 187.931 130.743 187.847 130.686C187.763 130.628 187.629 130.626 187.445 130.679L185.785 131.159L185.734 130.585L189.561 129.48L190.976 145.401C190.993 145.592 191.044 145.716 191.128 145.774C191.212 145.831 191.346 145.833 191.53 145.78L192.729 145.434L192.78 146.008L189.414 146.98L189.257 145.211L189.162 145.214C188.927 145.936 188.596 146.554 188.168 147.07C187.755 147.565 187.257 147.898 186.673 148.066ZM186.867 147.324C187.328 147.19 187.735 146.893 188.088 146.431C188.441 145.97 188.698 145.405 188.86 144.737C189.035 144.049 189.091 143.346 189.027 142.629L188.832 140.43C188.768 139.713 188.594 139.085 188.309 138.546C188.039 137.986 187.696 137.587 187.281 137.347C186.865 137.108 186.427 137.054 185.966 137.188C185.212 137.405 184.683 138.008 184.376 138.995C184.07 139.983 183.989 141.289 184.134 142.915C184.278 144.541 184.581 145.736 185.044 146.502C185.506 147.267 186.113 147.541 186.867 147.324ZM208.122 142.017C207.477 142.203 206.826 142.244 206.17 142.139C205.529 142.014 204.961 141.843 204.469 141.625C203.778 141.302 203.371 141.158 203.248 141.194C202.941 141.282 202.772 141.683 202.74 142.395L202.733 143.378L202.203 143.531L201.37 136.023L201.923 135.863C202.12 137.016 202.536 138.056 203.17 138.985C203.819 139.893 204.58 140.564 205.454 140.998C206.327 141.416 207.194 141.5 208.054 141.252C209.315 140.888 210.201 140.305 210.713 139.503C211.241 138.697 211.465 137.847 211.385 136.955C211.316 136.174 211.038 135.625 210.553 135.307C210.083 134.985 209.41 134.771 208.533 134.665L204.899 134.219C203.639 134.06 202.682 133.666 202.027 133.038C201.386 132.39 201.015 131.5 200.914 130.368C200.778 128.838 201.108 127.582 201.904 126.6C202.7 125.619 203.743 124.941 205.034 124.568C206.049 124.275 207.213 124.429 208.528 125.03C208.692 125.097 208.855 125.156 209.017 125.208C209.178 125.243 209.319 125.243 209.442 125.207C209.704 125.132 209.84 124.896 209.853 124.5L209.868 123.613L210.422 123.453L211.205 129.602L210.651 129.762C210.303 128.686 209.821 127.779 209.203 127.042C208.601 126.3 207.925 125.785 207.174 125.495C206.423 125.205 205.671 125.169 204.918 125.387C204.057 125.635 203.376 126.134 202.875 126.884C202.373 127.617 202.168 128.502 202.26 129.538C202.323 130.255 202.55 130.762 202.939 131.058C203.328 131.355 203.881 131.546 204.598 131.633L209.212 132.188C210.28 132.321 211.103 132.713 211.681 133.363C212.274 134.009 212.61 134.77 212.688 135.647C212.763 136.491 212.649 137.342 212.347 138.197C212.06 139.048 211.561 139.822 210.851 140.518C210.154 141.193 209.244 141.693 208.122 142.017ZM219.064 138.709C218.373 138.908 217.774 138.82 217.267 138.443C216.776 138.062 216.492 137.433 216.414 136.557L215.731 128.883L214.025 129.376L213.966 128.706L214.473 128.56C215.165 128.36 215.669 127.822 215.985 126.946C216.315 126.05 216.439 125.131 216.355 124.191L216.279 123.33L216.924 123.144L217.332 127.734L220.191 126.908L220.251 127.577L217.392 128.403L218.084 136.196C218.127 136.675 218.254 137.046 218.467 137.312C218.68 137.577 219.009 137.646 219.455 137.517C220.546 137.202 221.007 136.088 220.837 134.175L221.252 134.055C221.347 135.123 221.276 136.092 221.038 136.962C220.813 137.811 220.156 138.393 219.064 138.709ZM226.434 136.58C225.619 136.815 224.893 136.812 224.257 136.571C223.636 136.325 223.279 135.677 223.186 134.625C223.113 133.812 223.256 133.117 223.615 132.539C223.974 131.961 224.406 131.502 224.911 131.159C225.431 130.797 226.061 130.435 226.801 130.074L228.886 129.055L228.706 127.023C228.574 125.541 227.793 125.006 226.364 125.419C225.841 125.57 225.378 125.851 224.973 126.262C224.566 126.657 224.379 127.03 224.41 127.381C224.424 127.54 224.458 127.653 224.511 127.72C224.546 127.759 224.596 127.793 224.662 127.823C224.743 127.849 224.815 127.861 224.878 127.859C225.162 127.859 225.379 127.91 225.53 128.014C225.697 128.113 225.791 128.29 225.814 128.545C225.844 128.879 225.765 129.147 225.578 129.348C225.406 129.545 225.174 129.686 224.882 129.77C224.544 129.868 224.225 129.821 223.924 129.63C223.623 129.439 223.45 129.089 223.405 128.579C223.352 127.989 223.461 127.435 223.73 126.915C224.015 126.392 224.394 125.955 224.867 125.606C225.354 125.236 225.859 124.976 226.382 124.825C227.397 124.532 228.298 124.558 229.085 124.903C229.871 125.231 230.316 125.977 230.419 127.141L230.942 133.022C231.013 133.818 231.286 134.148 231.763 134.01C232.147 133.899 232.403 133.588 232.531 133.077C232.659 132.566 232.694 131.976 232.634 131.307L233.049 131.187C233.134 132.143 233.067 132.988 232.849 133.721C232.645 134.45 232.198 134.914 231.506 135.114C230.845 135.305 230.328 135.25 229.954 134.95C229.595 134.628 229.368 134.114 229.273 133.405L229.154 133.391C228.973 134.015 228.644 134.658 228.166 135.319C227.703 135.96 227.125 136.38 226.434 136.58ZM226.726 135.613C227.418 135.413 227.931 134.978 228.266 134.31C228.614 133.62 228.903 132.793 229.133 131.828L228.931 129.557L226.966 130.59C226.242 130.963 225.732 131.437 225.437 132.013C225.155 132.568 225.052 133.276 225.129 134.137C225.194 134.87 225.384 135.33 225.701 135.516C226.015 135.687 226.357 135.719 226.726 135.613ZM234.569 133.347L235.537 133.067C235.722 133.014 235.849 132.936 235.919 132.834C235.988 132.732 236.015 132.586 235.998 132.395L235.224 123.693C235.207 123.502 235.157 123.377 235.073 123.32C234.989 123.262 234.855 123.26 234.67 123.314L233.702 123.593L233.651 123.02L236.787 122.114L236.961 124.074L237.055 124.071C237.341 123.204 237.728 122.512 238.219 121.994C238.707 121.461 239.267 121.103 239.897 120.921C241.019 120.597 241.842 120.727 242.367 121.311C242.908 121.89 243.222 122.682 243.312 123.686L243.883 130.117C243.9 130.308 243.951 130.432 244.035 130.49C244.119 130.547 244.253 130.549 244.437 130.496L245.406 130.216L245.457 130.79L240.845 132.122L240.794 131.548L241.763 131.269C241.947 131.215 242.074 131.138 242.144 131.036C242.214 130.934 242.24 130.787 242.223 130.596L241.611 123.711C241.549 123.01 241.357 122.452 241.037 122.038C240.731 121.62 240.256 121.504 239.61 121.69C239.072 121.846 238.606 122.185 238.211 122.707C237.83 123.21 237.547 123.839 237.362 124.596C237.191 125.332 237.142 126.114 237.216 126.943L237.658 131.915C237.675 132.106 237.725 132.231 237.809 132.288C237.893 132.346 238.027 132.348 238.212 132.294L239.18 132.015L239.231 132.588L234.62 133.921L234.569 133.347ZM251.386 129.371C250.663 129.58 249.965 129.528 249.291 129.216C248.631 128.884 248.077 128.333 247.63 127.563C247.183 126.793 246.913 125.874 246.818 124.806C246.723 123.739 246.821 122.713 247.112 121.73C247.403 120.747 247.834 119.919 248.405 119.248C248.99 118.556 249.643 118.105 250.366 117.897C250.965 117.723 251.522 117.775 252.035 118.052C252.547 118.313 252.944 118.697 253.225 119.204L253.315 119.153L252.712 112.364C252.695 112.173 252.644 112.048 252.56 111.991C252.476 111.933 252.342 111.931 252.158 111.985L250.498 112.464L250.447 111.89L254.274 110.785L255.689 126.706C255.706 126.897 255.757 127.022 255.841 127.079C255.925 127.136 256.059 127.139 256.243 127.085L257.442 126.739L257.493 127.313L254.127 128.285L253.97 126.516L253.875 126.519C253.64 127.241 253.309 127.86 252.882 128.375C252.468 128.871 251.97 129.203 251.386 129.371ZM251.58 128.629C252.041 128.495 252.448 128.198 252.801 127.736C253.154 127.275 253.412 126.71 253.573 126.042C253.748 125.354 253.804 124.651 253.74 123.934L253.545 121.735C253.481 121.018 253.307 120.39 253.023 119.851C252.752 119.291 252.409 118.892 251.994 118.652C251.578 118.413 251.14 118.359 250.679 118.493C249.926 118.71 249.396 119.313 249.089 120.3C248.783 121.288 248.702 122.595 248.847 124.22C248.991 125.846 249.294 127.041 249.757 127.807C250.219 128.572 250.827 128.846 251.58 128.629ZM262.325 126.211C261.511 126.446 260.785 126.443 260.149 126.202C259.528 125.957 259.171 125.308 259.077 124.256C259.005 123.443 259.148 122.748 259.507 122.17C259.865 121.593 260.297 121.133 260.803 120.791C261.323 120.428 261.953 120.066 262.693 119.705L264.778 118.686L264.598 116.654C264.466 115.172 263.685 114.637 262.256 115.05C261.733 115.201 261.269 115.482 260.864 115.893C260.458 116.289 260.27 116.662 260.302 117.012C260.316 117.172 260.349 117.285 260.403 117.351C260.438 117.39 260.488 117.424 260.554 117.454C260.635 117.48 260.707 117.492 260.77 117.49C261.054 117.49 261.271 117.541 261.422 117.645C261.588 117.744 261.683 117.921 261.706 118.176C261.735 118.511 261.657 118.779 261.47 118.98C261.298 119.176 261.066 119.317 260.774 119.401C260.436 119.499 260.116 119.452 259.816 119.261C259.515 119.07 259.342 118.72 259.297 118.21C259.244 117.62 259.352 117.066 259.622 116.547C259.906 116.023 260.285 115.587 260.759 115.237C261.246 114.868 261.751 114.607 262.274 114.456C263.288 114.163 264.189 114.189 264.977 114.534C265.763 114.863 266.207 115.609 266.311 116.772L266.834 122.653C266.904 123.45 267.178 123.779 267.655 123.642C268.039 123.531 268.295 123.22 268.423 122.709C268.551 122.198 268.585 121.607 268.526 120.938L268.941 120.818C269.026 121.774 268.959 122.619 268.74 123.352C268.537 124.081 268.09 124.546 267.398 124.746C266.737 124.937 266.22 124.882 265.846 124.581C265.486 124.26 265.259 123.745 265.165 123.037L265.045 123.022C264.864 123.647 264.535 124.289 264.058 124.95C263.595 125.591 263.017 126.011 262.325 126.211ZM262.618 125.244C263.309 125.044 263.823 124.61 264.157 123.941C264.506 123.252 264.795 122.424 265.025 121.459L264.823 119.188L262.857 120.222C262.134 120.594 261.624 121.068 261.328 121.644C261.046 122.2 260.944 122.908 261.02 123.768C261.086 124.501 261.276 124.961 261.592 125.148C261.907 125.318 262.249 125.35 262.618 125.244ZM270.46 122.978L271.429 122.698C271.613 122.645 271.74 122.568 271.81 122.466C271.88 122.364 271.906 122.217 271.889 122.026L271.116 113.324C271.099 113.133 271.048 113.009 270.964 112.951C270.881 112.894 270.746 112.892 270.562 112.945L269.593 113.225L269.542 112.651L272.678 111.745L272.891 114.136L272.985 114.133C273.234 113.211 273.591 112.438 274.056 111.813C274.535 111.168 275.066 110.761 275.65 110.592C276.234 110.423 276.726 110.461 277.126 110.705C277.527 110.949 277.753 111.374 277.807 111.98C277.838 112.33 277.746 112.708 277.53 113.114C277.329 113.515 277.044 113.769 276.675 113.876C276.383 113.96 276.13 113.952 275.916 113.85C275.702 113.748 275.582 113.554 275.557 113.267C275.527 112.933 275.655 112.601 275.942 112.273C276.071 112.138 276.163 112.021 276.218 111.924C276.288 111.822 276.317 111.707 276.306 111.58C276.293 111.436 276.214 111.345 276.068 111.305C275.937 111.245 275.756 111.248 275.525 111.315C275.049 111.452 274.609 111.825 274.206 112.432C273.818 113.034 273.527 113.756 273.334 114.596C273.14 115.437 273.081 116.271 273.154 117.1L273.549 121.546C273.566 121.738 273.617 121.862 273.701 121.919C273.785 121.977 273.919 121.979 274.103 121.926L275.072 121.646L275.123 122.22L270.511 123.552L270.46 122.978ZM284.283 119.868C283.56 120.076 282.862 120.025 282.188 119.713C281.528 119.381 280.974 118.829 280.527 118.059C280.08 117.289 279.809 116.371 279.715 115.303C279.62 114.235 279.718 113.209 280.009 112.226C280.3 111.243 280.731 110.416 281.302 109.744C281.886 109.052 282.54 108.602 283.263 108.393C283.862 108.22 284.419 108.272 284.932 108.548C285.444 108.809 285.841 109.193 286.122 109.7L286.212 109.65L285.609 102.86C285.592 102.669 285.541 102.545 285.457 102.487C285.373 102.43 285.239 102.428 285.055 102.481L283.395 102.961L283.344 102.387L287.171 101.281L288.586 117.202C288.603 117.394 288.654 117.518 288.738 117.575C288.822 117.633 288.956 117.635 289.14 117.582L290.339 117.235L290.39 117.809L287.024 118.782L286.867 117.013L286.772 117.015C286.537 117.737 286.206 118.356 285.779 118.872C285.365 119.367 284.867 119.699 284.283 119.868ZM284.477 119.125C284.938 118.992 285.345 118.695 285.698 118.233C286.051 117.771 286.308 117.207 286.47 116.539C286.645 115.851 286.701 115.148 286.637 114.431L286.442 112.231C286.378 111.514 286.204 110.886 285.919 110.347C285.649 109.788 285.306 109.388 284.891 109.149C284.475 108.909 284.037 108.856 283.576 108.989C282.823 109.207 282.293 109.809 281.986 110.797C281.68 111.784 281.599 113.091 281.744 114.717C281.888 116.342 282.191 117.538 282.654 118.303C283.116 119.069 283.724 119.343 284.477 119.125ZM302.098 113.642L304.312 113.003C304.727 112.883 304.915 112.608 304.877 112.177L303.608 97.9057C303.589 97.6825 303.528 97.5365 303.428 97.4675C303.325 97.3826 303.159 97.3734 302.929 97.44L302.098 97.6798C301.13 97.9596 300.338 98.7116 299.721 99.9359C299.334 100.718 299.107 101.625 299.041 102.658C298.974 103.674 298.96 104.414 299.002 104.876L298.356 105.063L297.933 98.1722L311.167 94.3488L311.96 101.133L311.314 101.319C311.273 100.857 311.132 100.162 310.892 99.2342C310.651 98.2905 310.278 97.5563 309.774 97.0317C308.976 96.216 308.093 95.948 307.125 96.2278L306.295 96.4675C306.064 96.5342 305.908 96.6366 305.826 96.7748C305.742 96.897 305.71 97.0697 305.73 97.2929L306.998 111.565C307.037 111.995 307.263 112.15 307.678 112.03L309.892 111.391L309.96 112.156L302.166 114.407L302.098 113.642ZM318.558 108.887L320.772 108.248C321.187 108.128 321.375 107.853 321.337 107.422L320.068 93.1506C320.048 92.9275 319.988 92.7815 319.887 92.7125C319.785 92.6276 319.619 92.6184 319.388 92.685L318.558 92.9248C317.59 93.2046 316.797 93.9566 316.181 95.1808C315.793 95.963 315.566 96.8704 315.501 97.9029C315.433 98.9195 315.42 99.6588 315.461 100.121L314.816 100.308L314.392 93.4172L327.627 89.5938L328.419 96.3776L327.774 96.5641C327.733 96.1019 327.592 95.4069 327.352 94.4792C327.11 93.5355 326.738 92.8013 326.234 92.2766C325.436 91.4609 324.553 91.193 323.585 91.4727L322.755 91.7125C322.524 91.7791 322.368 91.8815 322.285 92.0197C322.202 92.142 322.17 92.3147 322.189 92.5378L323.458 106.81C323.496 107.24 323.723 107.395 324.138 107.275L326.351 106.636L326.419 107.401L318.626 109.652L318.558 108.887ZM190.683 176.675L191.651 176.395C191.836 176.341 191.963 176.264 192.033 176.162C192.102 176.06 192.129 175.914 192.112 175.722L191.338 167.021C191.321 166.829 191.271 166.705 191.187 166.648C191.103 166.59 190.969 166.588 190.784 166.641L189.816 166.921L189.765 166.347L195.16 164.789C196.129 164.509 196.934 164.521 197.576 164.826C198.233 165.127 198.597 165.676 198.668 166.472C198.732 167.19 198.552 167.822 198.127 168.369C197.717 168.897 197.233 169.306 196.676 169.598L196.68 169.646C196.99 169.589 197.37 169.602 197.818 169.685C198.266 169.752 198.669 169.938 199.027 170.243C199.385 170.548 199.59 170.995 199.643 171.585C199.724 172.494 199.428 173.331 198.755 174.097C198.096 174.844 197.282 175.357 196.314 175.636L190.734 177.248L190.683 176.675ZM195.275 169.806C195.905 169.624 196.348 169.284 196.603 168.785C196.874 168.282 196.981 167.712 196.924 167.074C196.869 166.453 196.655 165.992 196.281 165.691C195.906 165.374 195.457 165.291 194.935 165.442L193.459 165.869C193.274 165.922 193.147 165.999 193.078 166.101C193.008 166.203 192.981 166.35 192.998 166.541L193.338 170.366L195.275 169.806ZM195.986 175.143C196.601 174.965 197.041 174.593 197.306 174.026C197.569 173.443 197.672 172.825 197.614 172.171C197.551 171.47 197.347 170.941 197 170.583C196.653 170.226 196.156 170.14 195.511 170.327L193.389 170.94L193.772 175.243C193.789 175.434 193.839 175.558 193.923 175.616C194.007 175.673 194.141 175.675 194.326 175.622L195.986 175.143ZM201.308 173.703L202.092 173.477C202.446 173.374 202.694 173.237 202.836 173.065C202.993 172.873 203.111 172.61 203.192 172.276C203.505 170.829 203.697 169.449 203.77 168.137C203.858 166.82 203.834 165.405 203.7 163.891C203.643 163.253 203.446 162.983 203.108 163.081L202.139 163.361L202.088 162.787L210.389 160.389L210.44 160.963L209.471 161.243C209.287 161.296 209.16 161.374 209.09 161.475C209.02 161.577 208.994 161.724 209.011 161.915L209.763 170.378C209.805 170.676 209.887 170.882 210.007 170.994C210.126 171.09 210.316 171.101 210.577 171.025L211.823 170.666L212.335 174.833L211.874 174.966C211.864 174.855 211.774 174.554 211.604 174.063C211.451 173.584 211.238 173.139 210.965 172.728C210.458 171.991 209.751 171.754 208.845 172.016L204.418 173.295C203.864 173.455 203.444 173.691 203.156 174.003C202.869 174.315 202.643 174.707 202.48 175.179C202.292 175.724 202.159 176.269 202.082 176.814C202.021 177.371 201.995 177.706 202.005 177.817L201.544 177.95L201.308 173.703ZM207.664 171.769C207.848 171.716 207.975 171.638 208.045 171.536C208.115 171.434 208.141 171.288 208.124 171.096L207.351 162.395C207.334 162.204 207.283 162.079 207.199 162.022C207.115 161.964 206.981 161.962 206.797 162.015L205.667 162.342C204.729 162.613 204.326 163.481 204.456 164.947C204.523 165.696 204.526 166.619 204.465 167.715C204.405 168.812 204.324 169.669 204.221 170.287C204.036 171.403 203.957 172.104 203.982 172.391C203.995 172.535 204.051 172.633 204.151 172.686C204.264 172.718 204.39 172.715 204.528 172.675L207.664 171.769ZM217.983 169.671C217.138 169.915 216.339 169.884 215.586 169.578C214.832 169.257 214.209 168.717 213.716 167.961C213.238 167.2 212.954 166.301 212.862 165.265C212.769 164.229 212.884 163.215 213.206 162.223C213.543 161.227 214.043 160.372 214.704 159.657C215.365 158.927 216.118 158.44 216.963 158.196C217.808 157.952 218.608 157.99 219.362 158.312C220.114 158.618 220.729 159.151 221.207 159.912C221.7 160.669 221.992 161.565 222.084 162.601C222.177 163.637 222.054 164.653 221.717 165.649C221.395 166.641 220.904 167.503 220.244 168.233C219.582 168.947 218.828 169.426 217.983 169.671ZM217.932 169.097C218.854 168.83 219.476 168.193 219.796 167.185C220.115 166.161 220.201 164.829 220.055 163.187C219.909 161.546 219.597 160.336 219.118 159.559C218.638 158.766 217.936 158.503 217.014 158.77C216.092 159.036 215.471 159.681 215.152 160.705C214.832 161.713 214.745 163.038 214.891 164.679C215.037 166.321 215.35 167.538 215.83 168.331C216.309 169.108 217.01 169.363 217.932 169.097ZM223.848 167.094L224.447 166.92C224.816 166.814 225.114 166.613 225.34 166.319C225.565 166.009 225.789 165.609 226.014 165.119L227.823 161.262L224.596 157.413C224.456 157.257 224.321 157.157 224.19 157.113C224.076 157.065 223.888 157.078 223.626 157.153L223.073 157.313L223.022 156.74L227.587 155.421L227.638 155.994L227.085 156.154C226.778 156.243 226.638 156.447 226.666 156.766C226.682 156.941 226.743 157.095 226.849 157.228L228.678 159.446L229.992 156.663C230.112 156.416 230.158 156.141 230.131 155.838C230.116 155.663 230.042 155.545 229.911 155.485C229.795 155.421 229.667 155.408 229.529 155.448L228.976 155.608L228.925 155.034L232.937 153.875L232.988 154.449L232.411 154.616C232.088 154.709 231.811 154.871 231.579 155.101C231.348 155.332 231.126 155.674 230.914 156.127L229.1 159.937L232.462 163.967C232.62 164.151 232.773 164.27 232.92 164.326C233.066 164.381 233.309 164.36 233.647 164.263L234.177 164.109L234.228 164.683L229.433 166.069L229.382 165.495L230.073 165.295C230.242 165.246 230.37 165.177 230.457 165.086C230.542 164.98 230.579 164.863 230.567 164.735C230.56 164.656 230.538 164.581 230.5 164.51C230.461 164.423 230.415 164.346 230.361 164.28L228.245 161.753L226.892 164.62C226.695 165.07 226.605 165.382 226.62 165.557C226.663 166.035 226.876 166.219 227.26 166.108L227.675 165.988L227.726 166.562L223.899 167.667L223.848 167.094ZM235.919 163.606L236.887 163.327C237.072 163.273 237.199 163.196 237.269 163.094C237.339 162.992 237.365 162.845 237.348 162.654L236.574 153.952C236.557 153.761 236.507 153.637 236.423 153.579C236.339 153.522 236.205 153.52 236.02 153.573L235.052 153.853L235.001 153.279L239.612 151.947L239.663 152.521L238.695 152.8C238.511 152.854 238.383 152.931 238.314 153.033C238.244 153.135 238.218 153.282 238.235 153.473L238.575 157.298L243.186 155.966L242.846 152.141C242.829 151.949 242.778 151.825 242.695 151.768C242.611 151.71 242.476 151.708 242.292 151.761L241.324 152.041L241.273 151.467L245.884 150.135L245.935 150.709L244.967 150.989C244.782 151.042 244.655 151.119 244.585 151.221C244.515 151.323 244.489 151.47 244.506 151.661L245.28 160.363C245.297 160.554 245.347 160.678 245.431 160.736C245.515 160.793 245.649 160.795 245.834 160.742L246.802 160.462L246.853 161.036L242.242 162.368L242.191 161.795L243.159 161.515C243.343 161.461 243.471 161.384 243.54 161.282C243.61 161.18 243.636 161.034 243.619 160.842L243.237 156.539L238.626 157.871L239.008 162.174C239.025 162.366 239.075 162.49 239.159 162.548C239.243 162.605 239.378 162.607 239.562 162.554L240.53 162.274L240.581 162.848L235.97 164.18L235.919 163.606ZM253.469 159.419C252.624 159.663 251.825 159.632 251.073 159.327C250.319 159.005 249.695 158.466 249.202 157.709C248.725 156.948 248.44 156.05 248.348 155.014C248.256 153.978 248.371 152.964 248.692 151.972C249.03 150.975 249.529 150.12 250.191 149.406C250.851 148.676 251.604 148.188 252.449 147.944C253.295 147.7 254.094 147.739 254.848 148.06C255.601 148.366 256.216 148.899 256.693 149.66C257.186 150.417 257.479 151.313 257.571 152.349C257.663 153.385 257.54 154.401 257.203 155.398C256.882 156.39 256.39 157.251 255.73 157.981C255.068 158.695 254.315 159.175 253.469 159.419ZM253.418 158.845C254.341 158.579 254.962 157.942 255.282 156.934C255.601 155.91 255.688 154.577 255.542 152.936C255.396 151.294 255.083 150.085 254.604 149.308C254.124 148.515 253.423 148.251 252.5 148.518C251.578 148.784 250.958 149.429 250.639 150.453C250.318 151.461 250.231 152.786 250.377 154.428C250.523 156.069 250.836 157.286 251.316 158.079C251.795 158.856 252.496 159.112 253.418 158.845ZM259.989 156.653L260.958 156.373C261.142 156.32 261.269 156.242 261.339 156.14C261.409 156.038 261.435 155.892 261.418 155.7L260.645 146.999C260.628 146.807 260.577 146.683 260.493 146.626C260.409 146.568 260.275 146.566 260.091 146.619L259.122 146.899L259.071 146.325L264.467 144.767C265.435 144.487 266.24 144.5 266.882 144.804C267.54 145.105 267.904 145.654 267.975 146.45C268.038 147.168 267.858 147.8 267.434 148.348C267.023 148.875 266.54 149.284 265.982 149.576L265.986 149.624C266.297 149.567 266.676 149.58 267.125 149.663C267.572 149.73 267.975 149.916 268.333 150.221C268.692 150.526 268.897 150.974 268.949 151.563C269.03 152.472 268.734 153.309 268.061 154.076C267.402 154.822 266.589 155.335 265.62 155.614L260.04 157.226L259.989 156.653ZM264.582 149.785C265.212 149.602 265.655 149.262 265.91 148.763C266.18 148.26 266.287 147.69 266.231 147.052C266.176 146.431 265.961 145.97 265.588 145.669C265.213 145.352 264.764 145.269 264.241 145.42L262.765 145.847C262.581 145.9 262.454 145.978 262.384 146.079C262.314 146.181 262.288 146.328 262.305 146.519L262.645 150.344L264.582 149.785ZM265.293 155.121C265.907 154.943 266.347 154.571 266.612 154.004C266.876 153.421 266.978 152.803 266.92 152.149C266.858 151.448 266.653 150.919 266.306 150.561C265.959 150.204 265.463 150.118 264.817 150.305L262.696 150.918L263.078 155.221C263.095 155.412 263.146 155.536 263.23 155.594C263.314 155.651 263.448 155.654 263.632 155.6L265.293 155.121ZM272.504 153.92C271.813 154.12 271.295 154.057 270.951 153.731C270.606 153.406 270.415 153.028 270.377 152.598C270.336 152.135 270.41 151.73 270.6 151.381C270.805 151.027 271.115 150.791 271.53 150.671C271.853 150.577 272.108 150.618 272.297 150.792C272.5 150.946 272.615 151.174 272.642 151.477C272.659 151.668 272.629 151.865 272.553 152.067C272.476 152.269 272.371 152.422 272.239 152.525C272.061 152.658 271.984 152.852 272.007 153.107C272.015 153.203 272.061 153.28 272.145 153.337C272.243 153.374 272.338 153.379 272.43 153.353C273.045 153.175 273.485 152.713 273.75 151.966C274.015 151.22 274.149 150.069 274.153 148.515L274.133 145.897C274.12 144.691 274.09 143.818 274.042 143.276C274.02 143.037 273.967 142.88 273.882 142.807C273.795 142.718 273.613 142.713 273.336 142.793L272.46 143.046L272.409 142.472L280.018 140.274L280.069 140.848L279.101 141.128C278.916 141.181 278.789 141.258 278.719 141.36C278.65 141.462 278.623 141.609 278.64 141.8L279.414 150.502C279.431 150.693 279.481 150.817 279.565 150.875C279.649 150.932 279.783 150.934 279.968 150.881L280.913 150.608L280.964 151.182L276.353 152.514L276.302 151.94L277.293 151.654C277.478 151.601 277.605 151.523 277.674 151.421C277.744 151.319 277.771 151.173 277.754 150.981L276.98 142.28C276.963 142.088 276.913 141.964 276.829 141.907C276.745 141.849 276.611 141.847 276.426 141.9L275.665 142.12C275.296 142.227 275.04 142.448 274.896 142.784C274.767 143.099 274.705 143.558 274.711 144.161L274.746 148.54C274.769 150.037 274.609 151.252 274.266 152.185C273.922 153.102 273.335 153.68 272.504 153.92ZM287.743 149.518C286.314 149.931 285.116 149.762 284.151 149.011C283.201 148.255 282.646 146.985 282.488 145.2C282.397 144.18 282.505 143.176 282.811 142.189C283.116 141.185 283.583 140.323 284.213 139.602C284.857 138.86 285.601 138.367 286.446 138.123C287.384 137.852 288.176 137.893 288.822 138.246C289.469 138.598 289.958 139.143 290.292 139.881C290.639 140.598 290.851 141.378 290.926 142.223C290.941 142.398 290.898 142.533 290.796 142.628C290.693 142.707 290.511 142.784 290.249 142.86L284.508 144.518C284.65 146.112 284.978 147.317 285.492 148.133C286.021 148.944 286.785 149.206 287.784 148.917C288.491 148.713 289.128 148.243 289.693 147.508C290.274 146.768 290.596 145.784 290.66 144.556L291.214 144.396C291.225 145.586 290.919 146.663 290.295 147.628C289.685 148.572 288.834 149.202 287.743 149.518ZM288.93 142.652C288.817 141.377 288.56 140.348 288.159 139.565C287.758 138.782 287.189 138.497 286.451 138.71C285.667 138.936 285.108 139.556 284.772 140.568C284.45 141.56 284.345 142.686 284.457 143.945L288.93 142.652ZM293.292 147.032L294.26 146.752C294.444 146.699 294.572 146.621 294.641 146.519C294.711 146.418 294.738 146.271 294.721 146.08L293.947 137.378C293.93 137.187 293.88 137.062 293.796 137.005C293.712 136.947 293.578 136.945 293.393 136.999L292.425 137.278L292.374 136.705L296.985 135.373L297.036 135.946L296.068 136.226C295.883 136.279 295.756 136.357 295.686 136.459C295.617 136.561 295.59 136.707 295.607 136.898L295.947 140.723L300.559 139.391L300.219 135.566C300.202 135.375 300.151 135.251 300.067 135.193C299.983 135.136 299.849 135.134 299.665 135.187L298.696 135.467L298.645 134.893L303.257 133.561L303.308 134.134L302.339 134.414C302.155 134.468 302.028 134.545 301.958 134.647C301.888 134.749 301.862 134.895 301.879 135.087L302.652 143.788C302.669 143.98 302.72 144.104 302.804 144.161C302.888 144.219 303.022 144.221 303.206 144.168L304.175 143.888L304.226 144.462L299.614 145.794L299.563 145.22L300.532 144.94C300.716 144.887 300.843 144.81 300.913 144.708C300.983 144.606 301.009 144.459 300.992 144.268L300.61 139.965L295.998 141.297L296.381 145.6C296.398 145.791 296.448 145.916 296.532 145.973C296.616 146.031 296.75 146.033 296.935 145.98L297.903 145.7L297.954 146.274L293.343 147.606L293.292 147.032ZM150.668 219.766C149.823 220.011 149.024 219.98 148.272 219.674C147.518 219.353 146.894 218.813 146.401 218.057C145.924 217.296 145.639 216.397 145.547 215.361C145.455 214.325 145.57 213.311 145.891 212.319C146.229 211.323 146.728 210.468 147.39 209.753C148.05 209.023 148.803 208.536 149.648 208.292C150.494 208.047 151.294 208.086 152.047 208.408C152.8 208.714 153.415 209.247 153.892 210.008C154.385 210.765 154.678 211.661 154.77 212.697C154.862 213.733 154.739 214.749 154.402 215.745C154.081 216.737 153.59 217.599 152.929 218.329C152.267 219.043 151.514 219.522 150.668 219.766ZM150.617 219.193C151.54 218.926 152.161 218.289 152.481 217.281C152.8 216.257 152.887 214.925 152.741 213.283C152.595 211.642 152.282 210.432 151.803 209.655C151.323 208.862 150.622 208.599 149.699 208.865C148.777 209.132 148.157 209.777 147.838 210.801C147.517 211.809 147.43 213.134 147.576 214.775C147.722 216.417 148.035 217.634 148.516 218.427C148.994 219.204 149.695 219.459 150.617 219.193ZM157.188 217L158.157 216.72C158.341 216.667 158.468 216.59 158.538 216.488C158.608 216.386 158.634 216.239 158.617 216.048L157.844 207.346C157.827 207.155 157.776 207.031 157.692 206.973C157.609 206.916 157.474 206.914 157.29 206.967L156.321 207.247L156.27 206.673L167.153 203.529L167.204 204.103L166.236 204.382C166.052 204.436 165.924 204.513 165.855 204.615C165.785 204.717 165.759 204.864 165.776 205.055L166.549 213.757C166.566 213.948 166.616 214.072 166.7 214.13C166.784 214.187 166.919 214.189 167.103 214.136L168.071 213.856L168.122 214.43L163.511 215.762L163.46 215.188L164.428 214.909C164.613 214.855 164.74 214.778 164.81 214.676C164.879 214.574 164.906 214.427 164.889 214.236L164.115 205.535C164.098 205.343 164.048 205.219 163.964 205.161C163.88 205.104 163.746 205.102 163.561 205.155L159.964 206.194C159.78 206.248 159.653 206.325 159.583 206.427C159.513 206.529 159.487 206.675 159.504 206.867L160.277 215.568C160.294 215.76 160.345 215.884 160.429 215.942C160.513 215.999 160.647 216.001 160.831 215.948L161.8 215.668L161.851 216.242L157.239 217.574L157.188 217ZM170.078 218.916L171.277 218.57C171.462 218.516 171.589 218.439 171.659 218.337C171.729 218.235 171.755 218.088 171.738 217.897L170.476 203.697C170.459 203.506 170.408 203.381 170.324 203.324C170.24 203.267 170.106 203.264 169.922 203.318L168.723 203.664L168.672 203.09L172.038 202.118L172.195 203.887L172.29 203.884C172.525 203.162 172.849 202.554 173.263 202.058C173.69 201.543 174.195 201.2 174.779 201.032C175.502 200.823 176.193 200.885 176.853 201.217C177.528 201.529 178.088 202.07 178.535 202.84C178.982 203.61 179.253 204.529 179.348 205.597C179.442 206.664 179.344 207.69 179.053 208.673C178.762 209.656 178.324 210.494 177.74 211.186C177.169 211.858 176.522 212.298 175.799 212.506C175.2 212.68 174.644 212.636 174.132 212.375C173.619 212.098 173.222 211.706 172.94 211.199L172.85 211.25L173.398 217.418C173.415 217.609 173.466 217.733 173.549 217.791C173.633 217.848 173.768 217.85 173.952 217.797L175.151 217.451L175.202 218.024L170.129 219.49L170.078 218.916ZM175.486 211.91C176.24 211.693 176.769 211.09 177.076 210.103C177.382 209.115 177.463 207.808 177.318 206.183C177.174 204.557 176.871 203.362 176.408 202.596C175.946 201.831 175.339 201.557 174.585 201.774C174.124 201.908 173.717 202.205 173.364 202.667C173.011 203.128 172.747 203.703 172.571 204.391C172.41 205.059 172.361 205.752 172.425 206.469L172.62 208.668C172.684 209.385 172.851 210.023 173.122 210.583C173.406 211.122 173.756 211.511 174.171 211.751C174.587 211.99 175.025 212.044 175.486 211.91ZM186.811 209.325C185.381 209.738 184.184 209.569 183.219 208.818C182.269 208.063 181.714 206.793 181.556 205.008C181.465 203.988 181.573 202.984 181.879 201.997C182.184 200.993 182.651 200.131 183.281 199.409C183.924 198.668 184.669 198.175 185.514 197.93C186.452 197.66 187.244 197.701 187.89 198.053C188.536 198.406 189.026 198.951 189.36 199.688C189.707 200.405 189.919 201.186 189.994 202.031C190.009 202.206 189.966 202.341 189.864 202.436C189.761 202.515 189.579 202.592 189.317 202.668L183.576 204.326C183.718 205.92 184.046 207.125 184.56 207.941C185.089 208.752 185.853 209.014 186.852 208.725C187.559 208.521 188.196 208.051 188.761 207.315C189.341 206.575 189.664 205.591 189.728 204.363L190.282 204.203C190.293 205.393 189.986 206.471 189.363 207.436C188.753 208.38 187.902 209.01 186.811 209.325ZM187.998 202.46C187.885 201.185 187.628 200.156 187.227 199.373C186.826 198.589 186.257 198.304 185.519 198.518C184.735 198.744 184.175 199.363 183.84 200.376C183.518 201.368 183.413 202.493 183.525 203.752L187.998 202.46ZM191.907 207.069L192.691 206.842C193.044 206.74 193.292 206.603 193.435 206.431C193.591 206.239 193.71 205.976 193.79 205.642C194.103 204.195 194.296 202.815 194.368 201.503C194.456 200.186 194.433 198.77 194.298 197.256C194.242 196.619 194.044 196.349 193.706 196.447L192.738 196.726L192.687 196.153L200.987 193.755L201.038 194.328L200.07 194.608C199.885 194.662 199.758 194.739 199.689 194.841C199.619 194.943 199.592 195.089 199.609 195.281L200.362 203.743C200.404 204.042 200.485 204.247 200.606 204.359C200.724 204.456 200.915 204.466 201.176 204.391L202.421 204.031L202.933 208.199L202.472 208.332C202.462 208.22 202.372 207.919 202.203 207.429C202.05 206.95 201.837 206.505 201.564 206.093C201.057 205.357 200.35 205.12 199.443 205.382L195.016 206.661C194.463 206.821 194.042 207.056 193.755 207.368C193.467 207.68 193.242 208.072 193.079 208.544C192.891 209.089 192.758 209.634 192.68 210.18C192.619 210.737 192.594 211.071 192.604 211.183L192.143 211.316L191.907 207.069ZM198.262 205.134C198.447 205.081 198.574 205.004 198.644 204.902C198.713 204.8 198.74 204.653 198.723 204.462L197.949 195.76C197.932 195.569 197.882 195.445 197.798 195.387C197.714 195.33 197.58 195.328 197.395 195.381L196.265 195.707C195.328 195.978 194.924 196.847 195.054 198.313C195.121 199.062 195.124 199.985 195.064 201.081C195.004 202.177 194.922 203.034 194.82 203.653C194.635 204.768 194.555 205.47 194.581 205.757C194.594 205.9 194.65 205.998 194.749 206.051C194.862 206.084 194.988 206.08 195.126 206.04L198.262 205.134ZM208.72 202.996C207.29 203.409 206.093 203.24 205.127 202.489C204.177 201.734 203.623 200.464 203.464 198.679C203.374 197.659 203.481 196.655 203.788 195.667C204.093 194.664 204.56 193.801 205.19 193.08C205.833 192.338 206.578 191.845 207.423 191.601C208.361 191.33 209.153 191.371 209.799 191.724C210.445 192.077 210.935 192.622 211.269 193.359C211.616 194.076 211.828 194.857 211.903 195.702C211.918 195.877 211.875 196.012 211.773 196.107C211.67 196.186 211.487 196.263 211.226 196.338L205.485 197.997C205.626 199.591 205.954 200.795 206.468 201.611C206.998 202.423 207.762 202.684 208.761 202.396C209.468 202.191 210.104 201.722 210.67 200.986C211.25 200.246 211.573 199.262 211.637 198.034L212.19 197.874C212.201 199.064 211.895 200.142 211.272 201.107C210.662 202.051 209.811 202.681 208.72 202.996ZM209.907 196.131C209.794 194.856 209.537 193.827 209.136 193.044C208.735 192.26 208.166 191.975 207.428 192.188C206.644 192.415 206.084 193.034 205.749 194.047C205.427 195.039 205.322 196.164 205.434 197.423L209.907 196.131ZM215.705 200.978C215.014 201.178 214.496 201.115 214.151 200.789C213.807 200.464 213.616 200.086 213.578 199.656C213.536 199.194 213.611 198.788 213.8 198.439C214.006 198.085 214.316 197.849 214.731 197.729C215.053 197.636 215.309 197.676 215.498 197.85C215.701 198.004 215.816 198.233 215.843 198.535C215.86 198.727 215.83 198.923 215.753 199.125C215.677 199.327 215.572 199.48 215.439 199.584C215.262 199.717 215.185 199.911 215.207 200.166C215.216 200.261 215.262 200.338 215.346 200.395C215.444 200.432 215.539 200.438 215.631 200.411C216.246 200.233 216.686 199.771 216.951 199.025C217.215 198.278 217.349 197.128 217.353 195.574L217.333 192.956C217.321 191.75 217.29 190.876 217.242 190.334C217.221 190.095 217.168 189.939 217.082 189.865C216.996 189.776 216.814 189.771 216.537 189.851L215.661 190.104L215.61 189.53L223.219 187.332L223.27 187.906L222.301 188.186C222.117 188.239 221.99 188.317 221.92 188.419C221.85 188.52 221.824 188.667 221.841 188.858L222.614 197.56C222.631 197.751 222.682 197.876 222.766 197.933C222.85 197.991 222.984 197.993 223.168 197.939L224.114 197.666L224.165 198.24L219.553 199.572L219.502 198.998L220.494 198.712C220.678 198.659 220.805 198.581 220.875 198.479C220.945 198.377 220.971 198.231 220.954 198.04L220.181 189.338C220.164 189.147 220.113 189.022 220.029 188.965C219.945 188.907 219.811 188.905 219.627 188.958L218.866 189.178C218.497 189.285 218.241 189.506 218.097 189.842C217.968 190.157 217.906 190.616 217.912 191.219L217.947 195.598C217.969 197.096 217.809 198.311 217.467 199.243C217.122 200.16 216.535 200.738 215.705 200.978ZM230.944 196.576C229.514 196.989 228.317 196.82 227.351 196.069C226.401 195.314 225.847 194.043 225.688 192.258C225.598 191.238 225.706 190.235 226.012 189.247C226.317 188.244 226.784 187.381 227.414 186.66C228.057 185.918 228.802 185.425 229.647 185.181C230.585 184.91 231.377 184.951 232.023 185.304C232.669 185.657 233.159 186.202 233.493 186.939C233.84 187.656 234.052 188.437 234.127 189.281C234.142 189.457 234.099 189.592 233.997 189.686C233.894 189.765 233.711 189.843 233.45 189.918L227.709 191.577C227.851 193.17 228.178 194.375 228.692 195.191C229.222 196.003 229.986 196.264 230.985 195.975C231.692 195.771 232.328 195.301 232.894 194.566C233.474 193.826 233.797 192.842 233.861 191.614L234.414 191.454C234.426 192.644 234.119 193.721 233.496 194.686C232.886 195.631 232.035 196.261 230.944 196.576ZM232.131 189.711C232.018 188.436 231.761 187.407 231.36 186.623C230.959 185.84 230.39 185.555 229.652 185.768C228.868 185.995 228.308 186.614 227.973 187.626C227.651 188.618 227.546 189.744 227.658 191.003L232.131 189.711ZM236.492 194.09L237.461 193.81C237.645 193.757 237.772 193.68 237.842 193.578C237.912 193.476 237.938 193.329 237.921 193.138L237.148 184.436C237.131 184.245 237.08 184.121 236.996 184.063C236.912 184.006 236.778 184.004 236.594 184.057L235.625 184.337L235.574 183.763L240.186 182.431L240.237 183.004L239.268 183.284C239.084 183.338 238.957 183.415 238.887 183.517C238.817 183.619 238.791 183.765 238.808 183.957L239.148 187.782L243.759 186.449L243.419 182.624C243.402 182.433 243.352 182.309 243.268 182.251C243.184 182.194 243.05 182.192 242.865 182.245L241.897 182.525L241.846 181.951L246.457 180.619L246.508 181.193L245.54 181.472C245.356 181.526 245.228 181.603 245.159 181.705C245.089 181.807 245.062 181.954 245.079 182.145L245.853 190.847C245.87 191.038 245.92 191.162 246.004 191.22C246.088 191.277 246.222 191.279 246.407 191.226L247.375 190.946L247.426 191.52L242.815 192.852L242.764 192.278L243.732 191.999C243.917 191.945 244.044 191.868 244.114 191.766C244.183 191.664 244.21 191.517 244.193 191.326L243.81 187.023L239.199 188.355L239.581 192.658C239.598 192.85 239.649 192.974 239.733 193.031C239.817 193.089 239.951 193.091 240.135 193.038L241.104 192.758L241.155 193.332L236.543 194.664L236.492 194.09ZM249.124 190.441L250.093 190.161C250.277 190.108 250.404 190.03 250.474 189.928C250.544 189.827 250.57 189.68 250.553 189.489L249.78 180.787C249.763 180.596 249.712 180.471 249.628 180.414C249.544 180.356 249.41 180.354 249.226 180.408L248.257 180.687L248.206 180.114L252.818 178.782L252.869 179.355L251.9 179.635C251.716 179.688 251.589 179.766 251.519 179.868C251.449 179.97 251.423 180.116 251.44 180.307L251.78 184.132L256.391 182.8L256.051 178.975C256.034 178.784 255.984 178.66 255.9 178.602C255.816 178.545 255.682 178.543 255.497 178.596L254.529 178.876L254.478 178.302L259.089 176.97L259.14 177.543L258.172 177.823C257.987 177.877 257.86 177.954 257.791 178.056C257.721 178.158 257.694 178.304 257.711 178.496L258.485 187.197C258.502 187.389 258.552 187.513 258.636 187.57C258.72 187.628 258.854 187.63 259.039 187.577L260.007 187.297L260.058 187.871L255.447 189.203L255.396 188.629L256.364 188.349C256.549 188.296 256.676 188.219 256.746 188.117C256.815 188.015 256.842 187.868 256.825 187.677L256.442 183.374L251.831 184.706L252.213 189.009C252.23 189.2 252.281 189.325 252.365 189.382C252.449 189.44 252.583 189.442 252.767 189.389L253.736 189.109L253.787 189.683L249.175 191.015L249.124 190.441ZM261.756 186.792L262.725 186.512C262.909 186.459 263.036 186.381 263.106 186.279C263.176 186.177 263.202 186.031 263.185 185.84L262.412 177.138C262.395 176.947 262.344 176.822 262.26 176.765C262.176 176.707 262.042 176.705 261.858 176.758L260.889 177.038L260.838 176.464L265.45 175.132L265.501 175.706L264.532 175.986C264.348 176.039 264.221 176.117 264.151 176.219C264.081 176.32 264.055 176.467 264.072 176.658L264.416 180.531L267.091 179.758C267.736 179.572 268.325 179.541 268.856 179.665C269.386 179.774 269.817 180.017 270.151 180.395C270.482 180.756 270.672 181.208 270.72 181.75C270.767 182.276 270.65 182.817 270.368 183.372C270.1 183.907 269.717 184.386 269.218 184.808C268.735 185.225 268.202 185.518 267.618 185.687L261.807 187.366L261.756 186.792ZM270.61 184.234L271.579 183.954C271.763 183.901 271.89 183.823 271.96 183.721C272.03 183.62 272.056 183.473 272.039 183.282L271.266 174.58C271.249 174.389 271.198 174.264 271.114 174.207C271.03 174.149 270.896 174.147 270.712 174.201L269.743 174.48L269.692 173.907L274.304 172.574L274.355 173.148L273.386 173.428C273.202 173.481 273.075 173.559 273.005 173.661C272.935 173.763 272.909 173.909 272.926 174.1L273.699 182.802C273.716 182.993 273.767 183.118 273.851 183.175C273.934 183.233 274.069 183.235 274.253 183.182L275.222 182.902L275.273 183.476L270.661 184.808L270.61 184.234ZM266.921 185.3C267.567 185.113 268.039 184.748 268.337 184.204C268.636 183.66 268.754 183.038 268.691 182.336C268.629 181.635 268.401 181.112 268.008 180.768C267.63 180.42 267.126 180.336 266.496 180.519L264.467 181.105L264.845 185.36C264.862 185.551 264.913 185.676 264.997 185.733C265.081 185.791 265.215 185.793 265.399 185.739L266.921 185.3ZM277.006 173.608L277.652 180.876C277.691 181.306 277.781 181.615 277.924 181.802C278.065 181.974 278.305 182.011 278.643 181.913L279.104 181.78L279.155 182.354L275.835 183.313L275.784 182.739L276.245 182.606C276.583 182.508 276.805 182.338 276.909 182.095C277.012 181.837 277.045 181.492 277.007 181.062L276.301 173.125C276.284 172.934 276.234 172.81 276.15 172.752C276.066 172.695 275.932 172.693 275.747 172.746L274.917 172.986L274.866 172.412L278.048 171.493L281.336 178.683L283.098 170.034L286.395 169.081L286.446 169.655L285.616 169.895C285.431 169.948 285.304 170.026 285.234 170.128C285.165 170.23 285.138 170.376 285.155 170.567L285.929 179.269C285.946 179.46 285.996 179.585 286.08 179.642C286.164 179.7 286.298 179.702 286.483 179.649L287.313 179.409L287.364 179.983L283.029 181.235L282.978 180.661L283.808 180.421C283.992 180.368 284.12 180.29 284.189 180.188C284.259 180.087 284.285 179.94 284.268 179.749L283.538 171.525L281.386 181.906L280.971 182.026L277.006 173.608ZM297.791 176.382L298.759 176.102C298.944 176.049 299.071 175.971 299.141 175.869C299.21 175.767 299.237 175.621 299.22 175.43L298.446 166.728C298.429 166.537 298.379 166.412 298.295 166.355C298.211 166.297 298.077 166.295 297.892 166.348C297.4 166.491 296.995 166.722 296.677 167.043C296.357 167.348 296.121 167.71 295.97 168.13C295.781 168.675 295.649 169.228 295.573 169.789C295.511 170.33 295.485 170.657 295.495 170.768L295.033 170.901L294.821 166.647L303.559 164.123L304.072 168.29L303.611 168.423C303.601 168.312 303.512 168.019 303.343 167.544C303.189 167.05 302.975 166.596 302.702 166.185C302.485 165.872 302.198 165.66 301.842 165.551C301.484 165.425 301.059 165.434 300.567 165.576C300.382 165.629 300.255 165.707 300.186 165.809C300.116 165.91 300.089 166.057 300.106 166.248L300.88 174.95C300.897 175.141 300.947 175.266 301.031 175.323C301.115 175.381 301.249 175.383 301.434 175.329L302.402 175.05L302.453 175.623L297.842 176.955L297.791 176.382ZM306.407 173.893L307.375 173.613C307.56 173.56 307.687 173.482 307.757 173.38C307.826 173.278 307.853 173.132 307.836 172.94L307.062 164.239C307.045 164.048 306.995 163.923 306.911 163.866C306.827 163.808 306.693 163.806 306.508 163.859L305.54 164.139L305.489 163.565L310.1 162.233L310.151 162.807L309.183 163.087C308.998 163.14 308.871 163.218 308.802 163.319C308.732 163.421 308.705 163.568 308.722 163.759L309.347 170.787L313.159 163.115L313.103 162.494C313.086 162.302 313.036 162.178 312.952 162.12C312.868 162.063 312.734 162.061 312.549 162.114L311.581 162.394L311.53 161.82L316.141 160.488L316.192 161.062L315.224 161.342C315.039 161.395 314.912 161.472 314.843 161.574C314.773 161.676 314.746 161.823 314.763 162.014L315.537 170.716C315.554 170.907 315.604 171.031 315.688 171.089C315.772 171.146 315.906 171.148 316.091 171.095L317.059 170.815L317.11 171.389L312.499 172.721L312.448 172.148L313.416 171.868C313.601 171.814 313.728 171.737 313.798 171.635C313.867 171.533 313.894 171.387 313.877 171.195L313.252 164.167L309.441 171.839L309.496 172.461C309.513 172.652 309.563 172.776 309.647 172.834C309.731 172.891 309.865 172.894 310.05 172.84L311.018 172.56L311.069 173.134L306.458 174.466L306.407 173.893ZM318.814 170.309L319.782 170.029C319.966 169.975 320.094 169.898 320.163 169.796C320.233 169.694 320.259 169.548 320.242 169.356L319.469 160.655C319.452 160.463 319.402 160.339 319.318 160.282C319.234 160.224 319.099 160.222 318.915 160.275L317.947 160.555L317.896 159.981L328.779 156.837L328.83 157.411L327.861 157.691C327.677 157.744 327.55 157.822 327.48 157.924C327.41 158.025 327.384 158.172 327.401 158.363L328.174 167.065C328.191 167.256 328.242 167.381 328.326 167.438C328.409 167.495 328.544 167.498 328.728 167.444L329.697 167.165L329.748 167.738L325.136 169.07L325.085 168.497L326.054 168.217C326.238 168.164 326.365 168.086 326.435 167.984C326.505 167.882 326.531 167.736 326.514 167.545L325.741 158.843C325.724 158.652 325.673 158.527 325.589 158.47C325.505 158.412 325.371 158.41 325.187 158.463L321.59 159.503C321.405 159.556 321.278 159.633 321.208 159.735C321.139 159.837 321.112 159.984 321.129 160.175L321.903 168.877C321.92 169.068 321.97 169.192 322.054 169.25C322.138 169.307 322.272 169.309 322.457 169.256L323.425 168.976L323.476 169.55L318.865 170.882L318.814 170.309ZM336.364 166.121C335.519 166.365 334.72 166.335 333.967 166.029C333.213 165.707 332.59 165.168 332.097 164.411C331.619 163.65 331.335 162.752 331.243 161.716C331.15 160.68 331.265 159.666 331.587 158.674C331.924 157.678 332.424 156.822 333.085 156.108C333.746 155.378 334.499 154.891 335.344 154.646C336.189 154.402 336.989 154.441 337.743 154.762C338.495 155.068 339.11 155.602 339.588 156.363C340.081 157.119 340.373 158.016 340.465 159.052C340.557 160.087 340.435 161.104 340.098 162.1C339.776 163.092 339.285 163.953 338.625 164.683C337.963 165.398 337.209 165.877 336.364 166.121ZM336.313 165.547C337.235 165.281 337.857 164.644 338.177 163.636C338.496 162.612 338.582 161.279 338.436 159.638C338.29 157.996 337.978 156.787 337.499 156.01C337.019 155.217 336.317 154.954 335.395 155.22C334.473 155.487 333.852 156.132 333.533 157.156C333.213 158.163 333.126 159.488 333.272 161.13C333.417 162.771 333.731 163.989 334.211 164.781C334.69 165.559 335.391 165.814 336.313 165.547ZM344.106 154.224L344.752 161.491C344.79 161.921 344.881 162.23 345.024 162.418C345.165 162.59 345.405 162.627 345.743 162.529L346.204 162.396L346.255 162.969L342.935 163.929L342.884 163.355L343.345 163.222C343.683 163.124 343.905 162.954 344.009 162.711C344.112 162.452 344.145 162.108 344.107 161.678L343.401 153.741C343.384 153.55 343.334 153.425 343.25 153.368C343.166 153.31 343.032 153.308 342.847 153.362L342.017 153.601L341.966 153.028L345.148 152.108L348.436 159.299L350.197 150.65L353.495 149.697L353.546 150.271L352.716 150.511C352.531 150.564 352.404 150.641 352.334 150.743C352.264 150.845 352.238 150.992 352.255 151.183L353.028 159.885C353.045 160.076 353.096 160.2 353.18 160.258C353.264 160.315 353.398 160.317 353.582 160.264L354.413 160.024L354.464 160.598L350.129 161.85L350.078 161.277L350.908 161.037C351.092 160.984 351.219 160.906 351.289 160.804C351.359 160.702 351.385 160.556 351.368 160.364L350.637 152.141L348.486 162.521L348.071 162.641L344.106 154.224ZM145.715 250.964L146.684 250.684C146.868 250.631 146.995 250.554 147.065 250.452C147.135 250.35 147.161 250.203 147.144 250.012L146.371 241.31C146.354 241.119 146.303 240.995 146.219 240.937C146.135 240.88 146.001 240.878 145.817 240.931L144.848 241.211L144.797 240.637L149.409 239.305L149.46 239.878L148.491 240.158C148.307 240.212 148.18 240.289 148.11 240.391C148.04 240.493 148.014 240.639 148.031 240.831L148.804 249.532C148.821 249.724 148.872 249.848 148.956 249.905C149.04 249.963 149.174 249.965 149.358 249.912L152.264 249.072C152.448 249.019 152.575 248.942 152.645 248.84C152.715 248.738 152.741 248.591 152.724 248.4L151.951 239.698C151.934 239.507 151.883 239.383 151.799 239.325C151.715 239.268 151.581 239.266 151.397 239.319L150.428 239.599L150.377 239.025L154.989 237.693L155.04 238.267L154.071 238.546C153.887 238.6 153.76 238.677 153.69 238.779C153.62 238.881 153.594 239.027 153.611 239.219L154.384 247.92C154.401 248.112 154.452 248.236 154.536 248.294C154.62 248.351 154.754 248.353 154.938 248.3L157.843 247.461C158.028 247.407 158.155 247.33 158.225 247.228C158.295 247.126 158.321 246.979 158.304 246.788L157.53 238.086C157.513 237.895 157.463 237.771 157.379 237.713C157.295 237.656 157.161 237.654 156.976 237.707L156.008 237.987L155.957 237.413L160.568 236.081L160.619 236.655L159.651 236.934C159.467 236.988 159.339 237.065 159.27 237.167C159.2 237.269 159.174 237.416 159.191 237.607L159.964 246.308C159.981 246.5 160.032 246.624 160.115 246.682C160.199 246.739 160.334 246.741 160.518 246.688L161.486 246.408L161.537 246.982L145.766 251.538L145.715 250.964ZM163.537 251.455L164.736 251.109C164.92 251.056 165.047 250.978 165.117 250.876C165.187 250.774 165.213 250.628 165.196 250.437L163.934 236.237C163.917 236.045 163.866 235.921 163.782 235.863C163.698 235.806 163.564 235.804 163.38 235.857L162.181 236.203L162.13 235.63L165.496 234.657L165.653 236.426L165.748 236.424C165.983 235.702 166.307 235.093 166.721 234.598C167.148 234.082 167.653 233.74 168.238 233.571C168.96 233.362 169.651 233.424 170.312 233.757C170.986 234.069 171.546 234.61 171.993 235.379C172.44 236.149 172.711 237.068 172.806 238.136C172.901 239.204 172.802 240.229 172.511 241.212C172.22 242.196 171.783 243.033 171.198 243.725C170.627 244.397 169.98 244.837 169.258 245.046C168.658 245.219 168.102 245.175 167.59 244.914C167.077 244.638 166.68 244.246 166.398 243.739L166.308 243.789L166.856 249.957C166.873 250.148 166.924 250.273 167.008 250.33C167.092 250.388 167.226 250.39 167.41 250.336L168.609 249.99L168.66 250.564L163.588 252.029L163.537 251.455ZM168.944 244.45C169.698 244.232 170.227 243.63 170.534 242.642C170.84 241.654 170.921 240.348 170.777 238.722C170.632 237.097 170.329 235.901 169.867 235.136C169.404 234.37 168.797 234.096 168.043 234.314C167.582 234.447 167.175 234.744 166.822 235.206C166.469 235.668 166.205 236.243 166.029 236.931C165.868 237.598 165.819 238.291 165.883 239.008L166.078 241.207C166.142 241.925 166.309 242.563 166.58 243.122C166.864 243.661 167.214 244.051 167.63 244.29C168.045 244.53 168.483 244.583 168.944 244.45ZM175.212 242.443L176.181 242.163C176.365 242.11 176.492 242.032 176.562 241.93C176.632 241.828 176.658 241.682 176.641 241.491L175.868 232.789C175.851 232.598 175.8 232.473 175.716 232.416C175.632 232.358 175.498 232.356 175.314 232.41L174.345 232.689L174.294 232.116L178.906 230.783L178.957 231.357L177.988 231.637C177.804 231.69 177.677 231.768 177.607 231.87C177.537 231.972 177.511 232.118 177.528 232.309L178.153 239.338L181.964 231.665L181.909 231.044C181.892 230.853 181.841 230.728 181.757 230.671C181.673 230.613 181.539 230.611 181.355 230.664L180.386 230.944L180.335 230.37L184.947 229.038L184.998 229.612L184.029 229.892C183.845 229.945 183.718 230.023 183.648 230.124C183.578 230.226 183.552 230.373 183.569 230.564L184.342 239.266C184.359 239.457 184.41 239.581 184.494 239.639C184.578 239.696 184.712 239.699 184.896 239.645L185.865 239.365L185.916 239.939L181.304 241.271L181.253 240.698L182.222 240.418C182.406 240.365 182.533 240.287 182.603 240.185C182.673 240.083 182.699 239.937 182.682 239.745L182.057 232.717L178.246 240.389L178.301 241.011C178.318 241.202 178.369 241.327 178.453 241.384C178.537 241.442 178.671 241.444 178.855 241.39L179.824 241.111L179.875 241.684L175.263 243.017L175.212 242.443ZM192.669 243.53C193.131 242.693 193.437 241.878 193.587 241.082C193.737 240.287 193.772 239.435 193.691 238.527L193.498 236.351L193.452 236.365C193.339 236.871 193.12 237.335 192.795 237.756C192.47 238.177 192.046 238.463 191.523 238.614C190.77 238.831 190.092 238.741 189.489 238.343C188.9 237.925 188.428 237.317 188.073 236.521C187.719 235.724 187.5 234.856 187.416 233.915C187.333 232.975 187.39 232.027 187.589 231.07C187.788 230.114 188.131 229.279 188.62 228.566C189.122 227.832 189.75 227.356 190.503 227.139C191.026 226.988 191.472 227.039 191.841 227.292C192.21 227.545 192.511 227.907 192.742 228.38L192.788 228.367L192.59 226.144C192.51 225.235 192.329 224.445 192.049 223.774C191.768 223.104 191.336 222.501 190.753 221.967L191.004 221.6C191.384 221.8 191.828 222.179 192.335 222.736C192.841 223.292 193.158 223.838 193.284 224.374C193.312 223.794 193.518 223.097 193.903 222.283C194.287 221.469 194.643 220.859 194.97 220.454L195.272 220.661C194.81 221.497 194.504 222.313 194.354 223.108C194.204 223.904 194.17 224.756 194.25 225.664L194.448 227.887L194.494 227.874C194.632 227.295 194.854 226.781 195.161 226.333C195.484 225.88 195.898 225.58 196.406 225.434C197.159 225.216 197.83 225.316 198.419 225.735C199.022 226.133 199.501 226.73 199.855 227.527C200.21 228.323 200.429 229.192 200.513 230.132C200.596 231.072 200.539 232.021 200.34 232.977C200.141 233.934 199.79 234.779 199.288 235.512C198.8 236.225 198.179 236.691 197.426 236.908C196.903 237.059 196.451 237.027 196.069 236.81C195.687 236.593 195.399 236.276 195.204 235.858L195.158 235.872L195.351 238.047C195.432 238.956 195.612 239.745 195.893 240.416C196.173 241.087 196.605 241.69 197.189 242.224L196.937 242.591C196.557 242.39 196.113 242.012 195.607 241.455C195.1 240.899 194.784 240.352 194.657 239.817C194.63 240.397 194.424 241.094 194.039 241.908C193.654 242.722 193.298 243.332 192.972 243.737L192.669 243.53ZM191.656 237.987C192.256 237.813 192.689 237.28 192.957 236.385C193.239 235.486 193.334 234.511 193.241 233.459L193.041 231.212C192.946 230.144 192.685 229.247 192.258 228.52C191.829 227.777 191.323 227.491 190.738 227.659C190.047 227.859 189.622 228.489 189.464 229.548C189.321 230.602 189.315 231.863 189.445 233.329C189.575 234.795 189.8 235.989 190.118 236.911C190.452 237.828 190.965 238.186 191.656 237.987ZM197.19 236.388C197.882 236.188 198.299 235.561 198.442 234.506C198.6 233.447 198.614 232.184 198.484 230.718C198.353 229.252 198.121 228.06 197.787 227.143C197.469 226.222 196.964 225.861 196.272 226.061C195.688 226.229 195.257 226.787 194.978 227.734C194.698 228.665 194.606 229.664 194.701 230.732L194.901 232.979C194.994 234.031 195.245 234.906 195.654 235.606C196.079 236.3 196.591 236.561 197.19 236.388ZM205.19 233.783L206.158 233.503C206.343 233.45 206.47 233.372 206.54 233.27C206.61 233.168 206.636 233.022 206.619 232.83L205.845 224.129C205.828 223.937 205.778 223.813 205.694 223.756C205.61 223.698 205.476 223.696 205.291 223.749C204.8 223.891 204.394 224.123 204.076 224.444C203.756 224.749 203.521 225.111 203.369 225.531C203.181 226.076 203.048 226.629 202.972 227.19C202.91 227.731 202.884 228.057 202.894 228.169L202.433 228.302L202.22 224.048L210.959 221.524L211.471 225.691L211.01 225.824C211 225.713 210.911 225.42 210.742 224.945C210.588 224.45 210.374 223.997 210.101 223.586C209.884 223.273 209.597 223.061 209.241 222.952C208.883 222.826 208.458 222.835 207.966 222.977C207.782 223.03 207.654 223.108 207.585 223.209C207.515 223.311 207.489 223.458 207.506 223.649L208.279 232.351C208.296 232.542 208.346 232.666 208.43 232.724C208.514 232.781 208.649 232.783 208.833 232.73L209.801 232.45L209.852 233.024L205.241 234.356L205.19 233.783ZM218.724 230.755C217.879 231 217.08 230.969 216.328 230.663C215.574 230.341 214.95 229.802 214.458 229.046C213.98 228.285 213.695 227.386 213.603 226.35C213.511 225.314 213.626 224.3 213.948 223.308C214.285 222.312 214.784 221.457 215.446 220.742C216.106 220.012 216.859 219.525 217.705 219.281C218.55 219.036 219.35 219.075 220.103 219.397C220.856 219.702 221.471 220.236 221.948 220.997C222.441 221.754 222.734 222.65 222.826 223.686C222.918 224.722 222.795 225.738 222.458 226.734C222.137 227.726 221.646 228.587 220.985 229.318C220.324 230.032 219.57 230.511 218.724 230.755ZM218.673 230.182C219.596 229.915 220.217 229.278 220.537 228.27C220.856 227.246 220.943 225.913 220.797 224.272C220.651 222.63 220.339 221.421 219.86 220.644C219.379 219.851 218.678 219.588 217.756 219.854C216.833 220.121 216.213 220.766 215.894 221.79C215.573 222.798 215.486 224.122 215.632 225.764C215.778 227.406 216.091 228.623 216.572 229.416C217.051 230.193 217.751 230.448 218.673 230.182ZM225.244 227.989L226.213 227.709C226.397 227.656 226.524 227.578 226.594 227.477C226.664 227.375 226.69 227.228 226.673 227.037L225.9 218.335C225.883 218.144 225.832 218.02 225.749 217.962C225.665 217.905 225.53 217.903 225.346 217.956L224.378 218.236L224.327 217.662L229.722 216.103C230.69 215.823 231.495 215.836 232.137 216.141C232.795 216.441 233.159 216.99 233.23 217.787C233.293 218.504 233.113 219.136 232.689 219.684C232.279 220.211 231.795 220.621 231.237 220.913L231.241 220.96C231.552 220.903 231.931 220.916 232.38 220.999C232.828 221.066 233.23 221.252 233.589 221.557C233.947 221.863 234.152 222.31 234.204 222.9C234.285 223.808 233.989 224.646 233.316 225.412C232.657 226.158 231.844 226.671 230.875 226.951L225.295 228.563L225.244 227.989ZM229.837 221.121C230.467 220.939 230.91 220.599 231.165 220.1C231.436 219.597 231.543 219.026 231.486 218.389C231.431 217.767 231.216 217.306 230.843 217.005C230.468 216.689 230.019 216.606 229.496 216.757L228.021 217.183C227.836 217.236 227.709 217.314 227.639 217.416C227.569 217.518 227.543 217.664 227.56 217.856L227.9 221.681L229.837 221.121ZM230.548 226.457C231.162 226.279 231.602 225.907 231.867 225.34C232.131 224.757 232.234 224.139 232.175 223.486C232.113 222.785 231.908 222.255 231.561 221.898C231.214 221.54 230.718 221.455 230.072 221.641L227.951 222.254L228.334 226.557C228.351 226.749 228.401 226.873 228.485 226.93C228.569 226.988 228.703 226.99 228.888 226.937L230.548 226.457ZM247.611 222.41C246.72 222.668 245.905 222.642 245.168 222.331C244.447 222.017 243.855 221.477 243.393 220.711C242.946 219.941 242.676 219.03 242.582 217.978C242.489 216.927 242.595 215.907 242.901 214.919C243.208 213.932 243.676 213.085 244.307 212.38C244.954 211.67 245.715 211.189 246.591 210.936C247.298 210.731 247.927 210.713 248.478 210.881C249.028 211.033 249.463 211.316 249.784 211.73C250.103 212.128 250.284 212.574 250.328 213.068C250.372 213.562 250.284 213.988 250.063 214.346C249.842 214.688 249.554 214.91 249.2 215.012C248.893 215.101 248.622 215.073 248.389 214.928C248.171 214.778 248.049 214.56 248.023 214.273C247.998 213.987 248.053 213.725 248.19 213.49C248.327 213.254 248.5 213.073 248.709 212.947C248.948 212.797 249.058 212.618 249.04 212.41C249.023 212.219 248.919 212.028 248.729 211.838C248.554 211.644 248.29 211.507 247.936 211.43C247.581 211.336 247.15 211.363 246.642 211.509C245.674 211.789 245.051 212.41 244.774 213.373C244.512 214.331 244.458 215.671 244.611 217.392C244.764 219.114 245.048 220.356 245.463 221.118C245.877 221.881 246.577 222.121 247.56 221.837C248.498 221.566 249.19 221.014 249.636 220.182C250.083 219.351 250.319 218.457 250.344 217.502L250.897 217.342C250.909 218.008 250.805 218.693 250.583 219.394C250.36 220.08 249.998 220.699 249.495 221.253C248.992 221.807 248.365 222.193 247.611 222.41ZM263.148 217.922C262.564 218.091 261.978 218.154 261.391 218.111C260.804 218.068 260.306 217.877 259.897 217.537C259.487 217.181 259.251 216.653 259.189 215.952C259.157 215.601 259.228 215.246 259.401 214.885C259.588 214.504 259.874 214.258 260.258 214.147C260.612 214.045 260.882 214.073 261.07 214.231C261.272 214.385 261.387 214.614 261.414 214.916C261.434 215.14 261.383 215.359 261.26 215.574C261.151 215.769 260.984 215.924 260.757 216.038C260.591 216.119 260.472 216.202 260.401 216.288C260.344 216.354 260.322 216.458 260.334 216.602C260.375 217.064 260.677 217.353 261.239 217.468C261.816 217.579 262.436 217.539 263.097 217.348C263.881 217.122 264.437 216.724 264.764 216.155C265.106 215.566 265.239 214.841 265.162 213.981C265.103 213.311 264.923 212.791 264.622 212.421C264.335 212.03 263.876 211.925 263.246 212.107L261.263 212.68L261.203 212.011L263.186 211.438C263.786 211.265 264.182 210.929 264.374 210.433C264.582 209.931 264.657 209.362 264.6 208.724C264.525 207.88 264.265 207.342 263.819 207.111C263.386 206.86 262.901 206.812 262.363 206.968C261.671 207.168 261.056 207.697 260.518 208.555C259.993 209.393 259.682 210.325 259.584 211.351L259.169 211.47L258.82 207.55L259.235 207.43L259.471 207.95C259.551 208.14 259.667 208.212 259.821 208.168C259.944 208.132 260.091 208.016 260.263 207.82C260.506 207.537 260.82 207.258 261.206 206.983C261.59 206.693 262.02 206.478 262.497 206.341C263.619 206.017 264.52 206.042 265.199 206.418C265.895 206.789 266.281 207.405 266.357 208.266C266.409 208.856 266.241 209.444 265.852 210.03C265.461 210.601 264.995 211.03 264.453 211.317L264.461 211.413C265.119 211.37 265.723 211.506 266.271 211.822C266.819 212.137 267.128 212.685 267.198 213.466C267.288 214.486 266.864 215.475 265.924 216.433C265.606 216.754 265.198 217.044 264.701 217.302C264.203 217.56 263.686 217.767 263.148 217.922ZM272.546 215.207C271.731 215.442 271.005 215.439 270.369 215.198C269.748 214.953 269.391 214.304 269.297 213.252C269.225 212.439 269.368 211.744 269.727 211.166C270.086 210.589 270.518 210.129 271.023 209.787C271.543 209.424 272.173 209.062 272.913 208.701L274.998 207.682L274.818 205.65C274.686 204.168 273.905 203.633 272.476 204.046C271.953 204.197 271.489 204.478 271.085 204.89C270.678 205.285 270.491 205.658 270.522 206.008C270.536 206.168 270.57 206.281 270.623 206.347C270.658 206.386 270.708 206.42 270.774 206.45C270.855 206.476 270.927 206.488 270.99 206.486C271.274 206.486 271.491 206.537 271.642 206.641C271.809 206.74 271.903 206.917 271.926 207.172C271.956 207.507 271.877 207.775 271.69 207.976C271.518 208.172 271.286 208.313 270.994 208.397C270.656 208.495 270.337 208.448 270.036 208.257C269.735 208.066 269.562 207.716 269.517 207.206C269.464 206.616 269.573 206.062 269.842 205.543C270.126 205.019 270.505 204.583 270.979 204.233C271.466 203.864 271.971 203.604 272.494 203.453C273.509 203.159 274.41 203.185 275.197 203.53C275.983 203.859 276.428 204.605 276.531 205.768L277.054 211.649C277.125 212.446 277.398 212.775 277.875 212.638C278.259 212.527 278.515 212.216 278.643 211.705C278.771 211.194 278.805 210.603 278.746 209.934L279.161 209.814C279.246 210.77 279.179 211.615 278.961 212.349C278.757 213.077 278.31 213.542 277.618 213.742C276.957 213.933 276.44 213.878 276.066 213.577C275.707 213.256 275.48 212.741 275.385 212.033L275.266 212.018C275.085 212.643 274.755 213.285 274.278 213.946C273.815 214.587 273.237 215.007 272.546 215.207ZM272.838 214.24C273.53 214.04 274.043 213.606 274.378 212.937C274.726 212.248 275.015 211.42 275.245 210.455L275.043 208.184L273.077 209.218C272.354 209.59 271.844 210.064 271.548 210.64C271.267 211.196 271.164 211.904 271.241 212.764C271.306 213.497 271.496 213.957 271.813 214.144C272.127 214.314 272.469 214.346 272.838 214.24ZM285.507 211.463C284.615 211.72 283.801 211.694 283.064 211.384C282.342 211.069 281.75 210.529 281.288 209.764C280.841 208.994 280.571 208.083 280.478 207.031C280.384 205.979 280.491 204.959 280.797 203.972C281.103 202.984 281.572 202.138 282.203 201.432C282.85 200.722 283.611 200.241 284.487 199.988C285.194 199.784 285.823 199.765 286.374 199.933C286.924 200.085 287.359 200.368 287.679 200.782C287.998 201.18 288.18 201.626 288.224 202.12C288.268 202.614 288.18 203.04 287.959 203.398C287.737 203.74 287.45 203.962 287.096 204.065C286.789 204.153 286.518 204.125 286.284 203.98C286.066 203.831 285.944 203.613 285.919 203.326C285.893 203.039 285.949 202.778 286.086 202.542C286.222 202.306 286.396 202.126 286.605 202C286.844 201.849 286.954 201.67 286.936 201.463C286.919 201.271 286.815 201.081 286.625 200.891C286.45 200.696 286.185 200.56 285.832 200.482C285.476 200.389 285.045 200.415 284.538 200.562C283.57 200.841 282.947 201.463 282.67 202.425C282.408 203.384 282.354 204.723 282.507 206.445C282.66 208.166 282.944 209.408 283.358 210.171C283.773 210.934 284.472 211.173 285.456 210.889C286.394 210.618 287.086 210.067 287.532 209.235C287.978 208.403 288.214 207.509 288.24 206.554L288.793 206.394C288.805 207.061 288.7 207.745 288.479 208.446C288.256 209.132 287.893 209.752 287.391 210.305C286.888 210.859 286.26 211.245 285.507 211.463ZM295.78 208.495C294.35 208.908 293.153 208.739 292.188 207.988C291.238 207.233 290.683 205.962 290.524 204.177C290.434 203.157 290.542 202.154 290.848 201.166C291.153 200.163 291.62 199.3 292.25 198.579C292.893 197.837 293.638 197.344 294.483 197.1C295.421 196.829 296.213 196.87 296.859 197.223C297.505 197.576 297.995 198.121 298.329 198.858C298.676 199.575 298.888 200.356 298.963 201.2C298.978 201.376 298.935 201.511 298.833 201.606C298.73 201.684 298.548 201.762 298.286 201.837L292.545 203.496C292.687 205.089 293.015 206.294 293.528 207.11C294.058 207.922 294.822 208.183 295.821 207.895C296.528 207.69 297.165 207.22 297.73 206.485C298.31 205.745 298.633 204.761 298.697 203.533L299.251 203.373C299.262 204.563 298.955 205.64 298.332 206.605C297.722 207.55 296.871 208.18 295.78 208.495ZM296.967 201.63C296.854 200.355 296.597 199.326 296.196 198.542C295.795 197.759 295.226 197.474 294.488 197.687C293.704 197.914 293.144 198.533 292.809 199.545C292.487 200.537 292.382 201.663 292.494 202.922L296.967 201.63ZM306.47 204.524L307.462 204.237C307.646 204.184 307.773 204.107 307.843 204.005C307.913 203.903 307.939 203.756 307.922 203.565L307.529 199.142C307.32 199.448 306.94 199.787 306.39 200.158C305.855 200.525 305.349 200.778 304.872 200.915C303.904 201.195 303.183 201.158 302.711 200.804C302.238 200.45 301.973 199.955 301.916 199.317L301.661 196.449C301.644 196.257 301.594 196.133 301.51 196.076C301.426 196.018 301.292 196.016 301.107 196.069L300.139 196.349L300.088 195.775L304.699 194.443L304.75 195.017L303.782 195.297C303.597 195.35 303.47 195.427 303.4 195.529C303.331 195.631 303.304 195.778 303.321 195.969L303.602 199.125C303.64 199.555 303.757 199.897 303.953 200.151C304.148 200.389 304.499 200.435 305.006 200.288C305.513 200.142 305.99 199.922 306.437 199.629C306.9 199.332 307.251 199.027 307.491 198.712L307.149 194.863C307.132 194.672 307.081 194.548 306.997 194.49C306.913 194.433 306.779 194.431 306.595 194.484L305.626 194.764L305.575 194.19L310.187 192.858L310.238 193.431L309.269 193.711C309.085 193.765 308.958 193.842 308.888 193.944C308.818 194.046 308.792 194.192 308.809 194.384L309.582 203.085C309.599 203.277 309.65 203.401 309.734 203.458C309.818 203.516 309.952 203.518 310.136 203.465L311.105 203.185L311.156 203.759L306.521 205.098L306.47 204.524ZM321.119 201.175C320.381 201.388 319.84 201.332 319.496 201.006C319.165 200.66 318.945 200.037 318.833 199.138C318.703 198.031 318.51 197.278 318.254 196.878C318.013 196.473 317.608 196.353 317.039 196.518L315.564 196.944L315.946 201.247C315.963 201.438 316.014 201.563 316.098 201.62C316.181 201.678 316.316 201.68 316.5 201.626L317.469 201.347L317.52 201.92L312.908 203.253L312.857 202.679L313.826 202.399C314.01 202.346 314.137 202.268 314.207 202.166C314.277 202.064 314.303 201.918 314.286 201.727L313.515 193.049C313.498 192.858 313.447 192.733 313.363 192.676C313.279 192.618 313.145 192.616 312.961 192.669L311.992 192.949L311.941 192.375L316.553 191.043L316.604 191.617L315.635 191.897C315.451 191.95 315.324 192.028 315.254 192.129C315.184 192.231 315.158 192.378 315.175 192.569L315.513 196.37L317.011 195.937C317.519 195.791 317.845 195.386 317.991 194.722C318.151 194.039 318.222 193.242 318.204 192.331C318.19 191.633 318.321 191.072 318.599 190.648C318.892 190.22 319.254 189.944 319.684 189.82C320.191 189.673 320.583 189.74 320.86 190.019C321.153 190.295 321.318 190.647 321.357 191.078C321.395 191.508 321.303 191.894 321.081 192.236C320.859 192.578 320.579 192.798 320.241 192.896C319.934 192.984 319.688 192.966 319.503 192.839C319.318 192.713 319.215 192.522 319.192 192.267C319.179 192.123 319.206 191.977 319.271 191.827C319.335 191.662 319.411 191.534 319.497 191.443C319.655 191.267 319.727 191.107 319.715 190.963C319.695 190.74 319.562 190.664 319.316 190.735C319.131 190.789 318.98 190.947 318.861 191.21C318.757 191.453 318.714 191.767 318.733 192.154C318.759 192.98 318.702 193.757 318.561 194.484C318.421 195.211 318.135 195.719 317.703 196.007L317.71 196.079C318.704 196.086 319.45 196.32 319.948 196.781C320.187 196.99 320.37 197.272 320.496 197.628C320.622 197.984 320.731 198.41 320.823 198.906C320.908 199.339 321.009 199.67 321.124 199.898C321.254 200.122 321.434 200.201 321.665 200.134C322.034 200.028 322.259 199.726 322.341 199.228C322.423 198.73 322.441 198.226 322.396 197.716L322.811 197.596C322.878 198.346 322.801 199.079 322.581 199.796C322.375 200.493 321.887 200.953 321.119 201.175ZM327.689 199.277C326.874 199.512 326.149 199.509 325.513 199.268C324.892 199.022 324.534 198.374 324.441 197.322C324.369 196.509 324.512 195.814 324.87 195.236C325.229 194.658 325.661 194.199 326.167 193.856C326.686 193.494 327.316 193.132 328.057 192.771L330.142 191.752L329.961 189.72C329.83 188.238 329.049 187.703 327.619 188.116C327.097 188.267 326.633 188.548 326.228 188.959C325.822 189.354 325.634 189.727 325.665 190.078C325.68 190.237 325.713 190.35 325.766 190.417C325.801 190.456 325.852 190.49 325.917 190.52C325.999 190.546 326.071 190.558 326.133 190.556C326.417 190.556 326.635 190.607 326.786 190.711C326.952 190.81 327.047 190.987 327.069 191.242C327.099 191.576 327.021 191.844 326.833 192.045C326.662 192.242 326.43 192.383 326.138 192.467C325.8 192.565 325.48 192.518 325.179 192.327C324.879 192.136 324.706 191.786 324.66 191.276C324.608 190.686 324.716 190.132 324.985 189.612C325.27 189.089 325.649 188.652 326.122 188.303C326.61 187.933 327.115 187.673 327.638 187.522C328.652 187.229 329.553 187.255 330.34 187.6C331.126 187.928 331.571 188.674 331.675 189.838L332.197 195.719C332.268 196.515 332.542 196.845 333.018 196.707C333.403 196.596 333.659 196.285 333.787 195.774C333.915 195.263 333.949 194.673 333.889 194.004L334.305 193.884C334.39 194.84 334.323 195.685 334.104 196.418C333.901 197.147 333.453 197.611 332.762 197.811C332.101 198.002 331.583 197.947 331.21 197.647C330.85 197.325 330.623 196.811 330.529 196.103L330.409 196.088C330.228 196.712 329.899 197.355 329.422 198.016C328.958 198.657 328.381 199.077 327.689 199.277ZM327.982 198.31C328.673 198.11 329.186 197.675 329.521 197.007C329.87 196.317 330.159 195.49 330.388 194.525L330.187 192.254L328.221 193.287C327.497 193.66 326.988 194.134 326.692 194.71C326.41 195.265 326.308 195.973 326.384 196.834C326.449 197.567 326.64 198.027 326.956 198.213C327.271 198.384 327.613 198.416 327.982 198.31ZM337.046 186.913L337.692 194.18C337.731 194.61 337.821 194.919 337.964 195.107C338.105 195.279 338.345 195.316 338.683 195.218L339.144 195.085L339.195 195.658L335.875 196.618L335.824 196.044L336.285 195.911C336.624 195.813 336.845 195.643 336.949 195.4C337.053 195.141 337.085 194.797 337.047 194.367L336.341 186.43C336.324 186.239 336.274 186.114 336.19 186.057C336.106 185.999 335.972 185.997 335.787 186.051L334.957 186.29L334.906 185.717L338.088 184.797L341.376 191.988L343.138 183.339L346.435 182.386L346.486 182.96L345.656 183.2C345.471 183.253 345.344 183.331 345.274 183.432C345.205 183.534 345.178 183.681 345.195 183.872L345.969 192.574C345.986 192.765 346.036 192.889 346.12 192.947C346.204 193.004 346.338 193.006 346.523 192.953L347.353 192.713L347.404 193.287L343.069 194.539L343.018 193.966L343.848 193.726C344.033 193.673 344.16 193.595 344.229 193.493C344.299 193.391 344.326 193.245 344.309 193.053L343.578 184.83L341.426 195.21L341.011 195.33L337.046 186.913ZM349.109 192.206L350.077 191.926C350.262 191.873 350.389 191.795 350.459 191.693C350.529 191.592 350.555 191.445 350.538 191.254L349.764 182.552C349.747 182.361 349.697 182.236 349.613 182.179C349.529 182.122 349.395 182.119 349.21 182.173L348.242 182.452L348.191 181.879L352.803 180.547L352.854 181.12L351.885 181.4C351.701 181.453 351.574 181.531 351.504 181.633C351.434 181.735 351.408 181.881 351.425 182.073L352.049 189.101L355.861 181.428L355.805 180.807C355.788 180.616 355.738 180.491 355.654 180.434C355.57 180.376 355.436 180.374 355.251 180.428L354.283 180.707L354.232 180.134L358.843 178.801L358.894 179.375L357.926 179.655C357.742 179.708 357.615 179.786 357.545 179.888C357.475 179.99 357.449 180.136 357.466 180.327L358.239 189.029C358.256 189.22 358.307 189.345 358.39 189.402C358.474 189.46 358.609 189.462 358.793 189.408L359.761 189.129L359.812 189.702L355.201 191.035L355.15 190.461L356.118 190.181C356.303 190.128 356.43 190.05 356.5 189.948C356.57 189.846 356.596 189.7 356.579 189.509L355.954 182.48L352.143 190.153L352.198 190.774C352.215 190.965 352.266 191.09 352.35 191.147C352.433 191.205 352.568 191.207 352.752 191.154L353.721 190.874L353.772 191.448L349.16 192.78L349.109 192.206ZM177.992 272.289L178.961 272.01C179.145 271.956 179.272 271.879 179.342 271.777C179.412 271.675 179.438 271.528 179.421 271.337L178.648 262.635C178.631 262.444 178.58 262.32 178.496 262.262C178.412 262.205 178.278 262.203 178.094 262.256L177.125 262.536L177.074 261.962L182.47 260.403C183.438 260.124 184.243 260.136 184.885 260.441C185.543 260.742 185.907 261.29 185.978 262.087C186.041 262.804 185.861 263.437 185.437 263.984C185.026 264.511 184.543 264.921 183.985 265.213L183.989 265.261C184.3 265.204 184.679 265.217 185.128 265.299C185.575 265.366 185.978 265.552 186.336 265.858C186.695 266.163 186.9 266.61 186.952 267.2C187.033 268.108 186.737 268.946 186.064 269.712C185.405 270.458 184.592 270.971 183.623 271.251L178.043 272.863L177.992 272.289ZM182.585 265.421C183.215 265.239 183.658 264.899 183.913 264.4C184.183 263.897 184.29 263.326 184.234 262.689C184.178 262.067 183.964 261.606 183.59 261.306C183.215 260.989 182.767 260.906 182.244 261.057L180.768 261.483C180.584 261.537 180.457 261.614 180.387 261.716C180.317 261.818 180.291 261.965 180.308 262.156L180.648 265.981L182.585 265.421ZM183.295 270.757C183.91 270.58 184.35 270.207 184.615 269.64C184.879 269.058 184.981 268.439 184.923 267.786C184.861 267.085 184.656 266.555 184.309 266.198C183.962 265.841 183.466 265.755 182.82 265.942L180.699 266.554L181.081 270.857C181.098 271.049 181.149 271.173 181.233 271.231C181.317 271.288 181.451 271.29 181.635 271.237L183.295 270.757ZM200.359 266.71C199.468 266.968 198.653 266.942 197.916 266.632C197.195 266.317 196.603 265.777 196.14 265.011C195.694 264.241 195.423 263.33 195.33 262.279C195.236 261.227 195.343 260.207 195.649 259.219C195.956 258.232 196.424 257.385 197.055 256.68C197.702 255.97 198.463 255.489 199.339 255.236C200.046 255.031 200.675 255.013 201.226 255.181C201.776 255.333 202.211 255.616 202.531 256.03C202.851 256.428 203.032 256.874 203.076 257.368C203.12 257.862 203.032 258.288 202.811 258.646C202.589 258.988 202.302 259.21 201.948 259.312C201.641 259.401 201.37 259.373 201.137 259.228C200.918 259.079 200.797 258.86 200.771 258.574C200.746 258.287 200.801 258.025 200.938 257.79C201.075 257.554 201.248 257.373 201.457 257.247C201.696 257.097 201.806 256.918 201.788 256.711C201.771 256.519 201.667 256.329 201.477 256.138C201.302 255.944 201.038 255.808 200.684 255.73C200.329 255.636 199.897 255.663 199.39 255.809C198.422 256.089 197.799 256.71 197.522 257.673C197.26 258.631 197.206 259.971 197.359 261.692C197.512 263.414 197.796 264.656 198.21 265.419C198.625 266.182 199.324 266.421 200.308 266.137C201.246 265.866 201.938 265.314 202.384 264.483C202.83 263.651 203.066 262.757 203.092 261.802L203.645 261.642C203.657 262.309 203.552 262.993 203.331 263.694C203.108 264.38 202.745 264.999 202.243 265.553C201.74 266.107 201.112 266.493 200.359 266.71ZM207.835 263.668L208.803 263.388C208.988 263.335 209.115 263.257 209.185 263.156C209.254 263.054 209.281 262.907 209.264 262.716L208.49 254.014C208.473 253.823 208.423 253.699 208.339 253.641C208.255 253.584 208.121 253.581 207.936 253.635C207.444 253.777 207.039 254.008 206.721 254.329C206.401 254.634 206.165 254.996 206.014 255.416C205.826 255.961 205.693 256.514 205.617 257.075C205.555 257.617 205.529 257.943 205.539 258.054L205.077 258.188L204.865 253.934L213.604 251.409L214.116 255.577L213.655 255.71C213.645 255.598 213.556 255.305 213.387 254.831C213.233 254.336 213.019 253.883 212.746 253.471C212.529 253.158 212.242 252.947 211.886 252.837C211.528 252.712 211.103 252.72 210.611 252.862C210.427 252.915 210.299 252.993 210.23 253.095C210.16 253.197 210.133 253.343 210.15 253.535L210.924 262.236C210.941 262.427 210.991 262.552 211.075 262.609C211.159 262.667 211.294 262.669 211.478 262.616L212.446 262.336L212.497 262.91L207.886 264.242L207.835 263.668ZM216.451 261.179L217.419 260.899C217.604 260.846 217.731 260.768 217.801 260.666C217.87 260.565 217.897 260.418 217.88 260.227L217.106 251.525C217.089 251.334 217.039 251.209 216.955 251.152C216.871 251.095 216.737 251.092 216.552 251.146L215.584 251.425L215.533 250.852L220.144 249.52L220.195 250.093L219.227 250.373C219.043 250.426 218.915 250.504 218.846 250.606C218.776 250.708 218.749 250.854 218.766 251.045L219.391 258.074L223.203 250.401L223.147 249.78C223.13 249.589 223.08 249.464 222.996 249.407C222.912 249.349 222.778 249.347 222.593 249.401L221.625 249.68L221.574 249.107L226.185 247.774L226.236 248.348L225.268 248.628C225.083 248.681 224.956 248.759 224.887 248.861C224.817 248.963 224.79 249.109 224.807 249.3L225.581 258.002C225.598 258.193 225.648 258.318 225.732 258.375C225.816 258.433 225.95 258.435 226.135 258.381L227.103 258.102L227.154 258.675L222.543 260.008L222.492 259.434L223.46 259.154C223.645 259.101 223.772 259.023 223.842 258.921C223.911 258.819 223.938 258.673 223.921 258.482L223.296 251.453L219.485 259.126L219.54 259.747C219.557 259.938 219.607 260.063 219.691 260.12C219.775 260.178 219.909 260.18 220.094 260.127L221.062 259.847L221.113 260.421L216.502 261.753L216.451 261.179ZM230.295 258.062C229.603 258.262 229.085 258.199 228.741 257.874C228.396 257.548 228.205 257.17 228.167 256.74C228.126 256.278 228.2 255.872 228.39 255.523C228.595 255.17 228.905 254.933 229.32 254.813C229.643 254.72 229.899 254.76 230.087 254.935C230.29 255.089 230.405 255.317 230.432 255.62C230.449 255.811 230.419 256.008 230.343 256.21C230.266 256.412 230.161 256.564 230.029 256.668C229.851 256.801 229.774 256.995 229.797 257.25C229.805 257.346 229.851 257.422 229.935 257.48C230.033 257.517 230.128 257.522 230.22 257.495C230.835 257.318 231.275 256.856 231.54 256.109C231.805 255.362 231.939 254.212 231.943 252.658L231.923 250.04C231.91 248.834 231.88 247.96 231.832 247.418C231.81 247.179 231.757 247.023 231.672 246.95C231.585 246.86 231.403 246.855 231.126 246.935L230.25 247.189L230.199 246.615L237.808 244.417L237.859 244.99L236.891 245.27C236.706 245.323 236.579 245.401 236.509 245.503C236.44 245.605 236.413 245.751 236.43 245.943L237.204 254.644C237.221 254.836 237.271 254.96 237.355 255.017C237.439 255.075 237.573 255.077 237.758 255.024L238.703 254.751L238.754 255.324L234.143 256.657L234.092 256.083L235.083 255.796C235.268 255.743 235.395 255.666 235.464 255.564C235.534 255.462 235.561 255.315 235.544 255.124L234.77 246.422C234.753 246.231 234.703 246.107 234.619 246.049C234.535 245.992 234.401 245.99 234.216 246.043L233.455 246.263C233.086 246.369 232.83 246.59 232.686 246.926C232.557 247.241 232.495 247.701 232.501 248.304L232.536 252.683C232.559 254.18 232.399 255.395 232.056 256.328C231.712 257.244 231.125 257.823 230.295 258.062ZM245.533 253.66C244.104 254.073 242.906 253.904 241.941 253.153C240.991 252.398 240.436 251.128 240.278 249.343C240.187 248.323 240.295 247.319 240.601 246.331C240.906 245.328 241.373 244.466 242.003 243.744C242.647 243.003 243.391 242.51 244.236 242.265C245.174 241.994 245.966 242.035 246.612 242.388C247.259 242.741 247.748 243.286 248.082 244.023C248.43 244.74 248.641 245.521 248.716 246.366C248.731 246.541 248.688 246.676 248.586 246.771C248.483 246.85 248.301 246.927 248.039 247.002L242.298 248.661C242.44 250.255 242.768 251.46 243.282 252.275C243.811 253.087 244.575 253.348 245.574 253.06C246.281 252.856 246.918 252.386 247.483 251.65C248.064 250.91 248.386 249.926 248.45 248.698L249.004 248.538C249.015 249.728 248.709 250.806 248.085 251.771C247.475 252.715 246.624 253.345 245.533 253.66ZM246.72 246.795C246.607 245.52 246.35 244.491 245.949 243.708C245.548 242.924 244.979 242.639 244.241 242.852C243.457 243.079 242.898 243.698 242.562 244.711C242.24 245.703 242.135 246.828 242.247 248.087L246.72 246.795ZM258.766 240.177L259.412 247.444C259.45 247.874 259.541 248.183 259.684 248.371C259.825 248.542 260.065 248.579 260.403 248.482L260.864 248.348L260.915 248.922L257.595 249.881L257.544 249.308L258.005 249.174C258.343 249.077 258.565 248.907 258.669 248.664C258.772 248.405 258.805 248.061 258.767 247.63L258.061 239.694C258.044 239.502 257.994 239.378 257.91 239.321C257.826 239.263 257.692 239.261 257.507 239.314L256.677 239.554L256.626 238.98L259.808 238.061L263.096 245.252L264.857 236.602L268.155 235.65L268.206 236.224L267.376 236.463C267.191 236.517 267.064 236.594 266.994 236.696C266.924 236.798 266.898 236.945 266.915 237.136L267.688 245.838C267.705 246.029 267.756 246.153 267.84 246.211C267.924 246.268 268.058 246.27 268.242 246.217L269.073 245.977L269.124 246.551L264.789 247.803L264.738 247.229L265.568 246.99C265.752 246.936 265.879 246.859 265.949 246.757C266.019 246.655 266.045 246.508 266.028 246.317L265.297 238.094L263.146 248.474L262.731 248.594L258.766 240.177ZM275.747 244.932C274.902 245.176 274.103 245.145 273.351 244.839C272.597 244.518 271.973 243.979 271.48 243.222C271.003 242.461 270.718 241.562 270.626 240.526C270.534 239.491 270.649 238.477 270.97 237.485C271.308 236.488 271.807 235.633 272.469 234.919C273.129 234.188 273.882 233.701 274.727 233.457C275.573 233.213 276.372 233.251 277.126 233.573C277.879 233.879 278.494 234.412 278.971 235.173C279.464 235.93 279.757 236.826 279.849 237.862C279.941 238.898 279.818 239.914 279.481 240.911C279.159 241.903 278.668 242.764 278.008 243.494C277.346 244.208 276.593 244.687 275.747 244.932ZM275.696 244.358C276.619 244.091 277.24 243.454 277.56 242.446C277.879 241.422 277.966 240.09 277.82 238.448C277.674 236.807 277.361 235.597 276.882 234.82C276.402 234.027 275.701 233.764 274.778 234.031C273.856 234.297 273.235 234.942 272.917 235.966C272.596 236.974 272.509 238.299 272.655 239.94C272.801 241.582 273.114 242.799 273.594 243.592C274.073 244.369 274.774 244.624 275.696 244.358ZM281.162 242.583L281.946 242.356C282.299 242.254 282.547 242.117 282.69 241.945C282.846 241.753 282.964 241.49 283.045 241.156C283.358 239.709 283.551 238.329 283.623 237.017C283.711 235.7 283.688 234.285 283.553 232.771C283.496 232.133 283.299 231.863 282.961 231.961L281.992 232.241L281.941 231.667L290.242 229.269L290.293 229.843L289.325 230.123C289.14 230.176 289.013 230.253 288.943 230.355C288.874 230.457 288.847 230.604 288.864 230.795L289.616 239.258C289.659 239.556 289.74 239.761 289.86 239.874C289.979 239.97 290.169 239.981 290.431 239.905L291.676 239.545L292.188 243.713L291.727 243.846C291.717 243.735 291.627 243.434 291.458 242.943C291.305 242.464 291.092 242.019 290.819 241.608C290.312 240.871 289.605 240.634 288.698 240.896L284.271 242.175C283.717 242.335 283.297 242.571 283.009 242.883C282.722 243.195 282.496 243.587 282.333 244.059C282.145 244.604 282.013 245.149 281.935 245.694C281.874 246.251 281.849 246.585 281.859 246.697L281.397 246.83L281.162 242.583ZM287.517 240.649C287.701 240.596 287.829 240.518 287.898 240.416C287.968 240.314 287.995 240.168 287.978 239.976L287.204 231.275C287.187 231.083 287.137 230.959 287.053 230.902C286.969 230.844 286.834 230.842 286.65 230.895L285.52 231.222C284.583 231.493 284.179 232.361 284.309 233.827C284.376 234.576 284.379 235.499 284.319 236.595C284.259 237.692 284.177 238.549 284.074 239.167C283.89 240.283 283.81 240.984 283.836 241.271C283.848 241.414 283.904 241.513 284.004 241.566C284.117 241.598 284.243 241.595 284.381 241.555L287.517 240.649ZM297.975 238.51C296.545 238.923 295.348 238.754 294.382 238.004C293.432 237.248 292.878 235.978 292.719 234.193C292.628 233.173 292.736 232.169 293.043 231.182C293.348 230.178 293.815 229.316 294.444 228.594C295.088 227.853 295.833 227.36 296.678 227.116C297.616 226.845 298.408 226.886 299.054 227.238C299.7 227.591 300.19 228.136 300.523 228.873C300.871 229.59 301.082 230.371 301.157 231.216C301.173 231.391 301.13 231.526 301.028 231.621C300.925 231.7 300.742 231.777 300.481 231.853L294.74 233.511C294.881 235.105 295.209 236.31 295.723 237.126C296.252 237.937 297.017 238.199 298.016 237.91C298.723 237.706 299.359 237.236 299.924 236.5C300.505 235.761 300.827 234.777 300.892 233.548L301.445 233.389C301.456 234.579 301.15 235.656 300.526 236.621C299.917 237.565 299.066 238.195 297.975 238.51ZM299.162 231.645C299.048 230.37 298.791 229.341 298.391 228.558C297.99 227.775 297.421 227.49 296.683 227.703C295.899 227.929 295.339 228.549 295.003 229.561C294.682 230.553 294.577 231.678 294.689 232.937L299.162 231.645ZM303.781 241.59L304.98 241.243C305.165 241.19 305.292 241.112 305.362 241.011C305.431 240.909 305.458 240.762 305.441 240.571L304.179 226.371C304.162 226.18 304.111 226.055 304.027 225.998C303.943 225.94 303.809 225.938 303.625 225.991L302.426 226.338L302.375 225.764L305.741 224.792L305.898 226.561L305.993 226.558C306.228 225.836 306.552 225.227 306.965 224.732C307.393 224.216 307.898 223.874 308.482 223.705C309.205 223.497 309.896 223.559 310.556 223.891C311.23 224.203 311.791 224.744 312.238 225.514C312.685 226.284 312.955 227.203 313.05 228.27C313.145 229.338 313.047 230.364 312.756 231.347C312.465 232.33 312.027 233.168 311.442 233.86C310.871 234.531 310.225 234.971 309.502 235.18C308.903 235.353 308.347 235.31 307.835 235.049C307.322 234.772 306.924 234.38 306.643 233.873L306.553 233.924L307.101 240.091C307.118 240.283 307.168 240.407 307.252 240.464C307.336 240.522 307.47 240.524 307.655 240.471L308.854 240.124L308.905 240.698L303.832 242.163L303.781 241.59ZM309.189 234.584C309.942 234.367 310.472 233.764 310.779 232.776C311.085 231.789 311.166 230.482 311.021 228.857C310.877 227.231 310.573 226.036 310.111 225.27C309.649 224.504 309.041 224.23 308.288 224.448C307.827 224.581 307.42 224.879 307.067 225.34C306.714 225.802 306.449 226.377 306.274 227.065C306.113 227.733 306.064 228.425 306.128 229.142L306.323 231.342C306.387 232.059 306.554 232.697 306.824 233.257C307.109 233.796 307.459 234.185 307.874 234.425C308.29 234.664 308.728 234.717 309.189 234.584ZM315.457 232.577L316.425 232.297C316.61 232.244 316.737 232.167 316.807 232.065C316.877 231.963 316.903 231.816 316.886 231.625L316.112 222.923C316.095 222.732 316.045 222.608 315.961 222.55C315.877 222.493 315.743 222.491 315.558 222.544L314.59 222.824L314.539 222.25L319.15 220.918L319.201 221.492L318.233 221.771C318.049 221.825 317.922 221.902 317.852 222.004C317.782 222.106 317.756 222.252 317.773 222.444L318.113 226.269L322.724 224.936L322.384 221.112C322.367 220.92 322.317 220.796 322.233 220.738C322.149 220.681 322.014 220.679 321.83 220.732L320.862 221.012L320.811 220.438L325.422 219.106L325.473 219.68L324.505 219.959C324.32 220.013 324.193 220.09 324.123 220.192C324.053 220.294 324.027 220.441 324.044 220.632L324.818 229.334C324.835 229.525 324.885 229.649 324.969 229.707C325.053 229.764 325.187 229.766 325.372 229.713L326.34 229.433L326.391 230.007L321.78 231.339L321.729 230.765L322.697 230.486C322.881 230.432 323.009 230.355 323.078 230.253C323.148 230.151 323.174 230.004 323.157 229.813L322.775 225.51L318.164 226.842L318.546 231.145C318.563 231.337 318.614 231.461 318.697 231.519C318.781 231.576 318.916 231.578 319.1 231.525L320.068 231.245L320.119 231.819L315.508 233.151L315.457 232.577ZM330.517 229.109C330.102 229.229 329.744 229.194 329.444 229.003C329.157 228.791 328.994 228.47 328.956 228.04C328.918 227.61 329.017 227.221 329.254 226.875C329.506 226.508 329.839 226.265 330.254 226.145C330.669 226.025 331.02 226.071 331.307 226.282C331.607 226.473 331.777 226.784 331.815 227.214C331.853 227.644 331.747 228.043 331.496 228.41C331.258 228.756 330.932 228.989 330.517 229.109Z" fill="#5B1727"/>
</svg>
