<svg width="649" height="457" viewBox="0 0 649 457" fill="none" xmlns="http://www.w3.org/2000/svg">
<rect x="1.5" y="1.5" width="646" height="453.313" fill="#3A4062" stroke="black" stroke-width="3"/>
<rect x="53.2059" y="49.3709" width="277.047" height="134.21" fill="#FFFFF5" stroke="black" stroke-width="0.958641"/>
<rect x="551.5" y="1.5" width="58" height="453" fill="#FFFFF5" stroke="black" stroke-width="3"/>
<path d="M483.18 169.428C482.888 170.265 482.512 171.071 482.057 171.832L481.884 172.122C480.909 173.753 479.653 175.208 478.179 176.416C476.956 177.418 475.591 178.245 474.133 178.865L471.087 180.159L464.095 182.388L457.94 183.565C456.22 183.894 454.473 184.059 452.721 184.059H447.197H439.039H429.715H424.25C422.074 184.059 419.906 183.804 417.791 183.298L413.982 182.388L409.269 180.749C408.14 180.356 407.046 179.871 405.998 179.299C404.336 178.39 402.802 177.268 401.435 175.962L400.414 174.985C400.137 174.72 399.879 174.436 399.643 174.135C398.731 172.973 398.16 171.585 397.99 170.122L397.667 167.344L397.084 162.886L396.501 157.314L395.919 151.185L400.58 150.628L400.7 150.605C402.452 150.27 404.258 150.802 405.543 152.03C405.73 152.21 405.905 152.402 406.065 152.606L407.573 154.528L409.044 156.287C409.612 156.966 410.298 157.541 411.069 157.983C412.214 158.64 413.514 158.986 414.837 158.986H418.061H423.306H429.133H431.155C432.898 158.986 434.623 158.646 436.234 157.986C437.322 157.54 438.346 156.953 439.278 156.24L440.787 155.086L440.906 155C442.286 154.011 444.075 153.78 445.663 154.388C445.908 154.481 446.145 154.594 446.372 154.724L447.319 155.268C448.4 155.887 449.544 156.391 450.732 156.77C451.868 157.132 453.039 157.378 454.226 157.504L457.685 157.872H462.347H467.591C470.278 157.505 472.884 156.54 475.166 155.086L477.429 153.787C477.861 153.539 478.261 153.24 478.621 152.897C479.769 151.799 481.301 151.185 482.896 151.185H485.072V154.503C485.072 156.372 484.879 158.237 484.497 160.067L484.253 161.231C484.023 162.332 483.907 163.453 483.907 164.577V165.138C483.907 166.598 483.661 168.048 483.18 169.428Z" fill="#EFC3C4"/>
<path fill-rule="evenodd" clip-rule="evenodd" d="M435.949 51.8434C435.953 51.8515 435.959 51.8649 435.959 51.8932V53.922C435.959 54.7204 436.17 55.5028 436.568 56.1806L437.191 57.2413C437.75 58.1934 438.478 59.0209 439.335 59.6778L439.845 60.0681C440.387 60.4837 440.963 60.8477 441.566 61.1557L444.292 62.5486L446.961 63.5711C448.367 64.1097 449.81 64.5309 451.278 64.8308L452.846 65.1512C454.174 65.4226 455.479 65.8036 456.751 66.2909L459.441 67.3217L464.632 68.5004L464.985 68.6356C467.607 69.6403 470.055 71.0977 472.229 72.9488L473.084 71.8199L472.284 72.9934L472.339 73.0356C473.398 73.8472 474.026 75.1487 474.026 76.5345V79.4811C474.026 82.559 476.378 85.0541 479.28 85.0541H479.428C481.426 85.0541 483.382 85.6628 485.063 86.8079L485.639 87.2001L486.91 87.9799C487.714 88.4726 488.343 89.2323 488.699 90.1416C488.912 90.6864 489.022 91.2704 489.022 91.8603V96.1113C489.022 97.4496 488.839 98.7809 488.481 100.064L488.045 101.621C488 101.783 487.934 101.938 487.85 102.082C486.624 104.169 487.089 106.901 488.925 108.402L489.625 108.974L492.56 110.773L495.933 113.071L497.98 114.813C498.727 115.45 499.341 116.244 499.782 117.146C500.291 118.187 500.557 119.341 500.557 120.514V129.335C500.557 130.917 500.342 132.491 499.918 134.007C499.638 135.008 499.269 135.978 498.815 136.905L497.851 138.875L497.843 138.889C496.778 140.703 495.505 142.37 494.054 143.853L493.347 144.576C492.493 145.448 491.418 146.039 490.254 146.277C489.872 146.355 489.484 146.395 489.095 146.395H483.042C481.11 146.395 479.254 147.189 477.863 148.61C477.587 148.892 477.28 149.137 476.948 149.341L474.708 150.714L475.391 151.968L474.653 150.75C472.584 152.159 470.226 153.098 467.797 153.467H458.16L454.808 153.086C453.726 152.963 452.659 152.723 451.623 152.37C450.539 152.001 449.496 151.511 448.511 150.907L447.573 150.332C447.287 150.156 446.988 150.005 446.679 149.879C444.676 149.06 442.42 149.371 440.68 150.704L440.545 150.807L439.035 152.041C438.207 152.718 437.299 153.275 436.334 153.697C434.905 154.323 433.374 154.645 431.828 154.645H415.675C414.606 154.645 413.555 154.346 412.629 153.778C412.006 153.397 411.451 152.9 410.992 152.313L409.549 150.471L408.07 148.456C407.872 148.186 407.656 147.931 407.423 147.693C405.832 146.067 403.594 145.364 401.425 145.807L401.353 145.822L396.962 146.383L395.636 146.189C394.123 145.968 392.651 145.502 391.272 144.808L387.943 142.54L387.468 142.136C385.684 140.617 384.219 138.721 383.166 136.568L381.954 137.235L383.076 136.411L382.155 134.999C381.355 133.773 380.817 132.376 380.577 130.907C380.483 130.329 380.435 129.744 380.435 129.157V127.31L381.012 122.595V121.848C381.012 119.861 381.534 117.913 382.519 116.224L384.773 112.77L385.972 111.239C386.609 110.425 387.34 109.7 388.148 109.08L388.917 108.491C388.972 108.449 389.031 108.412 389.092 108.381L389.976 107.929C391.984 106.903 392.412 104.069 390.807 102.428C390.739 102.359 390.693 102.269 390.673 102.171L390.484 101.202C390.356 100.549 390.397 99.8707 390.603 99.24L391.061 97.8338C391.281 97.1592 391.394 96.4504 391.394 95.7365C391.394 94.7805 391.761 93.8656 392.41 93.2023L393.914 91.665L394.452 90.9789C395.578 89.5405 396.869 88.2575 398.296 87.16L398.813 86.8079C400.494 85.6628 402.45 85.0541 404.448 85.0541H406.839C408.788 85.0541 410.374 83.4066 410.426 81.3535L410.509 80.6714C410.805 78.2555 411.493 75.9124 412.542 73.7457L413.857 71.7294C414.432 70.8487 415.088 70.0308 415.815 69.2878L416.292 68.8001C417.353 67.7164 418.596 66.8539 419.958 66.2578C421.23 65.7005 422.421 64.9536 423.495 64.0395L424.148 63.4837C425.105 62.6687 425.99 61.7634 426.793 60.7788L426.931 60.6101C427.938 59.3748 429.078 58.2678 430.326 57.3112L430.703 57.0218L435.795 51.8194C435.803 51.8118 435.811 51.8056 435.82 51.8008C435.844 51.7886 435.858 51.7883 435.867 51.7889C435.879 51.7899 435.896 51.7947 435.914 51.8064C435.931 51.8181 435.943 51.8321 435.949 51.8434ZM411.369 72.9986L410.158 72.3317C408.94 74.8211 408.142 77.5176 407.802 80.2989L407.709 81.0628L409.062 81.2491H407.697C407.697 81.7515 407.313 82.1587 406.839 82.1587H404.448C401.927 82.1587 399.459 82.9268 397.338 84.3717L396.789 84.7456L397.527 85.9637L396.727 84.7903C395.102 86.0355 393.632 87.4934 392.351 89.1292L391.911 89.6915L390.516 91.1172C389.332 92.3262 388.664 93.9939 388.664 95.7365C388.664 96.1281 388.602 96.517 388.481 96.8871L388.023 98.2933C387.656 99.4175 387.583 100.626 387.811 101.791L388 102.76C388.131 103.428 388.449 104.04 388.913 104.514C389.149 104.754 389.086 105.17 388.791 105.321L387.907 105.772C387.701 105.878 387.504 106.002 387.318 106.144L386.55 106.733C385.555 107.496 384.655 108.388 383.871 109.389L382.596 111.018L380.255 114.606L381.377 115.43L380.219 114.664C378.953 116.82 378.282 119.308 378.282 121.848V122.408L377.705 127.123V129.157C377.705 129.909 377.766 130.66 377.887 131.401C378.194 133.284 378.884 135.074 379.91 136.646L380.783 137.984C382.009 140.46 383.702 142.642 385.759 144.393L386.347 144.894L389.868 147.292L390.606 146.074L390.013 147.379C391.67 148.225 393.441 148.792 395.263 149.057L395.693 149.12L396.168 154.461L396.169 154.474L396.749 160.404L397.324 165.099L397.327 165.119L397.644 168.037C397.841 169.848 398.503 171.566 399.559 173.005C399.833 173.378 400.131 173.729 400.452 174.057L401.463 175.09C402.902 176.561 404.518 177.823 406.268 178.845C407.372 179.49 408.524 180.035 409.713 180.477L414.443 182.235L418.28 183.215C420.478 183.776 422.731 184.06 424.992 184.06H453.174C454.995 184.06 456.811 183.876 458.598 183.511L464.771 182.249L471.832 179.845L474.906 178.449C476.469 177.739 477.932 176.792 479.242 175.644C480.822 174.261 482.168 172.594 483.214 170.725L483.385 170.418C483.883 169.529 484.294 168.588 484.613 167.611C485.139 165.999 485.407 164.305 485.407 162.599V162.006C485.407 160.916 485.513 159.829 485.721 158.762L485.962 157.531C486.36 155.498 486.561 153.427 486.561 151.351V149.29H489.095C489.657 149.29 490.218 149.233 490.771 149.12C492.454 148.776 494.006 147.922 495.241 146.661L495.948 145.938C497.561 144.29 498.976 142.436 500.16 140.42L500.225 140.309L501.238 138.238C501.772 137.149 502.206 136.008 502.535 134.831C503.034 133.047 503.287 131.196 503.287 129.335V120.514C503.287 118.877 502.916 117.265 502.205 115.812C501.589 114.553 500.732 113.444 499.689 112.556L497.53 110.717L493.981 108.3L491.148 106.563L490.592 106.108C489.867 105.516 489.683 104.437 490.167 103.613C490.381 103.249 490.548 102.855 490.663 102.444L491.098 100.887C491.532 99.3369 491.752 97.7283 491.752 96.1113V91.8603C491.752 90.8894 491.571 89.9281 491.22 89.0314C490.634 87.5347 489.6 86.2842 488.277 85.4732L487.06 84.7273L486.538 84.3717C484.417 82.9268 481.949 82.1587 479.428 82.1587H479.28C477.886 82.1587 476.756 80.9599 476.756 79.4811V76.5345C476.756 74.2193 475.708 72.0448 473.938 70.6888L473.911 70.6678C471.509 68.628 468.807 67.0214 465.913 65.9126L465.385 65.7104L460.194 64.5318L457.679 63.5679C456.273 63.0293 454.83 62.6081 453.362 62.3082L451.794 61.9877C450.466 61.7164 449.16 61.3353 447.889 60.848L445.351 59.8758L442.751 58.5472C442.293 58.3133 441.856 58.0369 441.444 57.7213L440.934 57.331C440.364 56.8941 439.88 56.3438 439.508 55.7107L438.885 54.65C438.757 54.4315 438.689 54.1793 438.689 53.922V51.8932C438.689 49.6839 436.512 48.2335 434.635 49.1923C434.365 49.3305 434.117 49.5134 433.901 49.7342L431.763 51.9191L428.948 54.7948L428.727 54.9644C427.307 56.0522 426.012 57.3111 424.866 58.7159L424.728 58.8847C424.033 59.7369 423.267 60.5205 422.438 61.226L421.786 61.7818C420.915 62.5234 419.948 63.1295 418.916 63.5816C417.238 64.3163 415.705 65.3793 414.398 66.715L413.921 67.2027C413.063 68.0789 412.29 69.0434 411.612 70.0819L410.247 72.1748L411.369 72.9986ZM483.831 149.29V151.351C483.831 153.23 483.649 155.103 483.289 156.942L483.048 158.173C482.802 159.434 482.677 160.718 482.677 162.006V162.599C482.677 163.983 482.459 165.357 482.033 166.664C481.774 167.457 481.441 168.22 481.037 168.941L480.866 169.248C479.981 170.829 478.841 172.241 477.504 173.412C476.393 174.384 475.154 175.186 473.831 175.787L470.875 177.129L464.093 179.439L458.081 180.668C456.464 180.998 454.821 181.165 453.174 181.165H424.992C422.947 181.165 420.908 180.908 418.919 180.4L415.216 179.454L410.616 177.745C409.57 177.356 408.556 176.876 407.585 176.309C406.045 175.41 404.623 174.299 403.357 173.005L402.346 171.972C402.119 171.74 401.907 171.49 401.713 171.226C400.965 170.207 400.495 168.989 400.356 167.705L400.034 164.746L399.459 160.05L398.886 154.189L398.885 154.175L398.434 149.111L401.775 148.684L401.941 148.65C403.239 148.385 404.577 148.806 405.529 149.778C405.668 149.921 405.797 150.073 405.916 150.235L407.421 152.286L408.891 154.163C409.557 155.013 410.36 155.732 411.262 156.285C412.604 157.108 414.126 157.541 415.675 157.541H431.828C433.731 157.541 435.616 157.144 437.375 156.374C438.564 155.853 439.683 155.167 440.701 154.335L442.178 153.128L442.279 153.05C443.27 152.291 444.556 152.114 445.697 152.58C445.873 152.652 446.044 152.739 446.207 152.839L447.144 153.413C448.298 154.121 449.519 154.695 450.788 155.127C452.001 155.54 453.251 155.821 454.518 155.965L458.015 156.362H467.893V154.914L468.079 156.348C470.927 155.933 473.684 154.845 476.101 153.204L478.314 151.848C478.837 151.527 479.322 151.14 479.757 150.695C480.639 149.794 481.817 149.29 483.042 149.29H483.831Z" fill="white"/>
<path d="M435.959 51.8932C435.959 51.8649 435.953 51.8515 435.949 51.8434C435.943 51.8321 435.931 51.8181 435.914 51.8064C435.896 51.7947 435.879 51.7899 435.867 51.7889C435.858 51.7883 435.844 51.7886 435.82 51.8008C435.811 51.8056 435.803 51.8118 435.795 51.8194L430.703 57.0218L430.326 57.3112C429.078 58.2678 427.938 59.3748 426.931 60.6101L426.793 60.7788C425.99 61.7634 425.105 62.6687 424.148 63.4837L423.495 64.0395C422.421 64.9536 421.23 65.7005 419.958 66.2578C418.596 66.8539 417.353 67.7164 416.292 68.8001L415.815 69.2878C415.088 70.0308 414.432 70.8487 413.857 71.7294L412.542 73.7457C411.493 75.9124 410.805 78.2555 410.509 80.6714L410.426 81.3535C410.374 83.4066 408.788 85.0541 406.839 85.0541H404.448C402.45 85.0541 400.494 85.6628 398.813 86.8079L398.296 87.16C396.869 88.2575 395.578 89.5405 394.452 90.9789L393.914 91.665L392.41 93.2023C391.761 93.8656 391.394 94.7805 391.394 95.7365C391.394 96.4504 391.281 97.1592 391.061 97.8338L390.603 99.24C390.397 99.8707 390.356 100.549 390.484 101.202L390.673 102.171C390.693 102.269 390.739 102.359 390.807 102.428C392.412 104.069 391.984 106.903 389.976 107.929L389.092 108.381C389.031 108.412 388.972 108.449 388.917 108.491L388.148 109.08C387.34 109.7 386.609 110.425 385.972 111.239L384.773 112.77L382.519 116.224C381.534 117.913 381.012 119.861 381.012 121.848V122.595L380.435 127.31V129.157C380.435 129.744 380.483 130.329 380.577 130.907C380.817 132.376 381.355 133.773 382.155 134.999L383.076 136.411L381.954 137.235L383.166 136.568C384.219 138.721 385.684 140.617 387.468 142.136L387.943 142.54L391.272 144.808C392.651 145.502 394.123 145.968 395.636 146.189L396.962 146.383L401.353 145.822L401.425 145.807C403.594 145.364 405.832 146.067 407.423 147.693C407.656 147.931 407.872 148.186 408.07 148.456L409.549 150.471L410.992 152.313C411.451 152.9 412.006 153.397 412.629 153.778C413.555 154.346 414.606 154.645 415.675 154.645H431.828C433.374 154.645 434.905 154.323 436.334 153.697C437.299 153.275 438.207 152.718 439.035 152.041L440.545 150.807L440.68 150.704C442.42 149.371 444.676 149.06 446.679 149.879C446.988 150.005 447.287 150.156 447.573 150.332L448.511 150.907C449.496 151.511 450.539 152.001 451.623 152.37C452.659 152.723 453.726 152.963 454.808 153.086L458.16 153.467H467.797C470.226 153.098 472.584 152.159 474.653 150.75L475.391 151.968L474.708 150.714L476.948 149.341C477.28 149.137 477.587 148.892 477.863 148.61C479.254 147.189 481.11 146.395 483.042 146.395H489.095C489.484 146.395 489.872 146.355 490.254 146.277C491.418 146.039 492.493 145.448 493.347 144.576L494.054 143.853C495.505 142.37 496.778 140.703 497.843 138.889L497.851 138.875L498.815 136.905C499.269 135.978 499.638 135.008 499.918 134.007C500.342 132.491 500.557 130.917 500.557 129.335V120.514C500.557 119.341 500.291 118.187 499.782 117.146C499.341 116.244 498.727 115.45 497.98 114.813L495.933 113.071L492.56 110.773L489.625 108.974L488.925 108.402C487.089 106.901 486.624 104.169 487.85 102.082C487.934 101.938 488 101.783 488.045 101.621L488.481 100.064C488.839 98.7809 489.022 97.4496 489.022 96.1113V91.8603C489.022 91.2704 488.912 90.6864 488.699 90.1416C488.343 89.2323 487.714 88.4726 486.91 87.9799L485.639 87.2001L485.063 86.8079C483.382 85.6628 481.426 85.0541 479.428 85.0541H479.28C476.378 85.0541 474.026 82.559 474.026 79.4811V76.5345C474.026 75.1487 473.398 73.8472 472.339 73.0356L472.284 72.9934L473.084 71.8199L472.229 72.9488C470.055 71.0977 467.607 69.6403 464.985 68.6356L464.632 68.5004L459.441 67.3217L456.751 66.2909C455.479 65.8036 454.174 65.4226 452.846 65.1512L451.278 64.8308C449.81 64.5309 448.367 64.1097 446.961 63.5711L444.292 62.5486L441.566 61.1557C440.963 60.8477 440.387 60.4837 439.845 60.0681L439.335 59.6778C438.478 59.0209 437.75 58.1934 437.191 57.2413L436.568 56.1806C436.17 55.5028 435.959 54.7204 435.959 53.922V51.8932Z" fill="white"/>
</svg>
