<svg width="1293" height="185" viewBox="0 0 1293 185" fill="none" xmlns="http://www.w3.org/2000/svg">
<path d="M1.13126 183.931L98.1833 0.5H1191.84L1291.92 184.056L1211.17 153.544C1198.95 148.927 1185.42 149.224 1173.41 154.373L1103.29 184.451L1044.74 156.631C1031.02 150.115 1015.11 150.115 1001.39 156.631L942.844 184.451L875.403 155.047C862.66 149.491 848.191 149.434 835.404 154.889L766.111 184.451L710.186 157.225C696.075 150.356 679.573 150.437 665.531 157.445L611.437 184.441L557.832 157.689C543.512 150.542 526.651 150.607 512.386 157.863L460.145 184.436L412.092 158.672C397.648 150.927 380.343 150.674 365.679 157.993L312.695 184.435L265.538 158.45C251.683 150.815 235.052 150.114 220.603 156.555L158.037 184.446L104.865 157.4C91.1194 150.408 74.9325 150.08 60.9151 156.509L1.13126 183.931Z" fill="white" stroke="black"/>
<path d="M98.6596 0H136L71.3723 152.876L1 184L98.6596 0Z" fill="#3A4062"/>
<path d="M196.931 0H234L187.901 170.726L158.436 184L138 173.473L196.931 0Z" fill="#3A4062"/>
<path d="M289.671 0H327L302.114 178L260 155.121L289.671 0Z" fill="#3A4062"/>
<path d="M390.492 0H436L422.543 164L416.775 161.251L409.085 156.67L399.953 153.922L386.977 152.547L374 154.38L390.492 0Z" fill="#3A4062"/>
<path d="M620.216 0H659.103L661 159.21L650.093 165.158L634.918 172.935L615 183L620.216 0Z" fill="#3A4062"/>
<path d="M843 0H887.67L901 166L886.14 159.141L871.281 152.738L856.901 150.402H850.669L843 0Z" fill="#3A4062"/>
<path d="M992.168 0H955L980.732 166L1002.65 155.511L1014.09 151.863L1026 150.951L992.168 0Z" fill="#3A4062"/>
<path d="M1091.2 0H1054L1103.6 184L1109.32 181.711L1121.72 175.761L1147 165.234L1091.2 0Z" fill="#3A4062"/>
<path d="M1192.25 0H1155L1218.51 155.692L1293 184L1192.25 0Z" fill="#3A4062"/>
<path d="M508.66 1H551L542.34 152.585L531.274 151.672L515.877 155.782L500 164L508.66 1Z" fill="#3A4062"/>
<path d="M730 1H774.628L779 178.067L766.631 184L739.039 170.309L730.951 166.202L730 1Z" fill="#3A4062"/>
</svg>
