<svg width="1300" height="997" viewBox="0 0 1300 997" fill="none" xmlns="http://www.w3.org/2000/svg">
<rect width="1300" height="997" fill="#3A4062"/>
<path d="M935.327 226.136C920.865 226.136 908.894 223.737 899.414 218.938C889.934 214.002 882.944 207.626 878.445 199.811C874.106 191.859 871.937 183.152 871.937 173.691V87.5173C871.937 85.5977 871.535 84.2952 870.732 83.6096C869.928 82.9241 868.402 82.5813 866.152 82.5813H850.727V76H928.819V82.5813H913.394C911.305 82.5813 909.778 82.9241 908.814 83.6096C908.011 84.2952 907.609 85.5977 907.609 87.5173V181.712C907.609 194.327 910.421 203.513 916.045 209.272C921.669 215.03 930.346 217.91 942.076 217.91C949.949 217.91 957.019 216.264 963.286 212.974C969.553 209.683 974.454 205.295 977.989 199.811C981.524 194.327 983.291 188.294 983.291 181.712V101.091C983.291 94.9213 980.801 90.3281 975.819 87.3116C970.999 84.1581 965.134 82.5813 958.225 82.5813V76H1018V82.5813C1011.09 82.5813 1005.14 84.1581 1000.16 87.3116C995.343 90.3281 992.932 94.9213 992.932 101.091V179.656C992.932 188.294 990.602 196.178 985.943 203.307C981.443 210.3 974.775 215.853 965.937 219.966C957.26 224.08 947.057 226.136 935.327 226.136Z" fill="white" fill-opacity="0.57"/>
<path d="M702.816 116.105H701.852V194.464C701.852 200.771 704.664 205.912 710.288 209.889C716.073 213.865 723.384 215.853 732.222 215.853V222.434H661.842V215.853C670.679 215.853 677.91 213.865 683.534 209.889C689.319 205.912 692.211 200.771 692.211 194.464V106.644C692.211 105.136 692.051 104.039 691.729 103.354C691.408 102.668 690.685 101.64 689.56 100.269L679.919 87.9286C678.312 85.872 676.544 84.5009 674.616 83.8153C672.688 82.9926 669.876 82.5813 666.18 82.5813H661.842V76H715.35L792.478 169.989V103.971C792.478 97.6635 789.586 92.5218 783.801 88.5456C778.177 84.5694 770.947 82.5813 762.109 82.5813V76H832.489V82.5813C823.651 82.5813 816.34 84.5694 810.555 88.5456C804.931 92.5218 802.119 97.6635 802.119 103.971V226.136H792.96L702.816 116.105Z" fill="white" fill-opacity="0.57"/>
<path d="M498.803 215.853H515.675C517.924 215.853 519.451 215.51 520.254 214.825C521.058 214.002 521.459 212.699 521.459 210.917V87.5173C521.459 85.5977 521.058 84.2952 520.254 83.6096C519.451 82.9241 517.924 82.5813 515.675 82.5813H498.803V76H634.26L635.706 123.715H627.993C627.993 122.755 627.109 119.67 625.342 114.46C623.735 109.249 621.405 104.519 618.352 100.269C614.656 94.7842 610.398 90.4652 605.578 87.3116C600.757 84.1581 595.374 82.5813 589.429 82.5813H562.916C560.827 82.5813 559.3 82.9241 558.336 83.6096C557.533 84.2952 557.131 85.5977 557.131 87.5173V144.281H569.424C573.762 144.281 577.779 142.773 581.475 139.756C585.171 136.74 588.063 133.038 590.152 128.651C592.402 124.126 593.526 119.875 593.526 115.899H601.239V180.273H593.526C593.526 176.159 592.402 171.909 590.152 167.521C588.063 162.997 585.171 159.226 581.475 156.21C577.779 153.193 573.762 151.685 569.424 151.685H557.131V210.917C557.131 212.699 557.533 214.002 558.336 214.825C559.3 215.51 560.827 215.853 562.916 215.853H589.188C598.025 215.853 605.417 212.836 611.362 206.804C617.308 200.771 621.807 194.052 624.86 186.648C626.145 183.495 627.27 179.587 628.234 174.925C629.198 170.264 629.761 167.179 629.921 165.67H637.634L636.188 222.434H498.803V215.853Z" fill="white" fill-opacity="0.57"/>
<path d="M317.395 111.992H315.708V197.343C315.708 203.513 318.118 208.175 322.939 211.328C327.92 214.345 333.865 215.853 340.775 215.853V222.434H281V215.853C287.909 215.853 293.774 214.345 298.595 211.328C303.576 208.175 306.067 203.513 306.067 197.343V87.5173C306.067 85.5977 305.665 84.2952 304.862 83.6096C304.058 82.9241 302.532 82.5813 300.282 82.5813H281V76H338.605L382.713 177.188L415.011 76H476.232V82.5813H459.36C457.271 82.5813 455.744 82.9241 454.78 83.6096C453.977 84.2952 453.575 85.5977 453.575 87.5173V210.917C453.575 212.699 453.977 214.002 454.78 214.825C455.744 215.51 457.271 215.853 459.36 215.853H476.232V222.434H395.247V215.853H412.119C414.368 215.853 415.895 215.51 416.698 214.825C417.502 214.002 417.903 212.699 417.903 210.917V93.8929L375.965 224.902H366.565L317.395 111.992Z" fill="white" fill-opacity="0.57"/>
<rect y="115" width="1300" height="77" fill="#3A4062"/>
<path d="M874 684.5V700L869 715L860.5 730L846 741.5L825.5 750.5H805.5L782.5 741.5L766.5 730L755 715L748 705.5M874 684.5L860.5 679.5L841 675.5H817L796.5 679.5L774.5 688.5L760 695.5L748 705.5M874 684.5L885 679.5L892 669.5L900.5 654.5V639M748 705.5H736.5L721.5 695.5L710.5 684.5L699 669.5L695 654.5L690.5 632.5V616M900.5 639L895.5 621L880.5 602.5L860.5 587L846 576.5L825.5 570L805.5 563.5H786.5H766.5L748 570L730.5 576.5L710.5 587L699 602.5L690.5 616M900.5 639L918 628L930 616L941.5 602.5L948.5 587L953 570M690.5 616L685 608L679 596V576.5V554L685 532L690.5 512L699 490.5L705.5 470.5M705.5 470.5L710.5 459L721.5 446.5L736.5 439L755 431.5L774.5 427.5H796.5H817L846 431.5L869 439L892 451.5L912 466L930 481L941.5 497.5L948.5 512L953 528.5V546.5V570M705.5 470.5L699 451.5L705.5 423.5L718 401L730.5 382L743 365L760 345.5L779 332L796.5 323.5L815.5 314L837.5 305.5L860.5 299.5L882 296L905.5 299.5L930 304L953 317.5M953 570H966.5L984.5 563.5L999 554L1016 537.5M1016 537.5L1027.5 523.5V504V481L1023.5 459L1019.5 433L1011 409.5L999 382L988 356.5L971.5 335.5L953 317.5M1016 537.5L1038.5 532L1055 528.5L1073.5 520M953 317.5L961 309.5L971.5 304L991.5 301L1011 304L1034 309.5L1055 317.5L1073.5 332L1088.5 349M1088.5 349L1097 370.5L1103 396.5V423.5L1097 451.5L1092 481L1083.5 504L1073.5 520M1088.5 349H1097L1115 352L1133 360.5L1141 375.5L1149.5 391.5V409.5M1073.5 520H1083.5L1103 516L1110.5 510M1110.5 510L1118 504L1133 486L1144.5 466L1149.5 439V414.5V409.5M1110.5 510H1137.5L1156.5 504L1171.5 490.5L1181.5 481V466.5L1178 451.5L1171.5 439L1164.5 427.5L1156.5 414.5L1149.5 409.5" stroke="white" stroke-width="5"/>
<path d="M1051.87 666.324V656.854L1054.92 647.69L1060.11 638.526L1068.97 631.5L1081.5 626.001H1093.72L1107.77 631.5L1117.54 638.526L1124.57 647.69L1128.84 653.494M1051.87 666.324L1060.11 669.378L1072.03 671.822H1086.69L1099.21 669.378L1112.65 663.88L1121.51 659.603L1128.84 653.494M1051.87 666.324L1045.15 669.378L1040.87 675.488L1035.68 684.652V694.122M1128.84 653.494H1135.87L1145.03 659.603L1151.76 666.324L1158.78 675.488L1161.22 684.652L1163.97 698.093V708.173M1035.68 694.122L1038.73 705.119L1047.89 716.421L1060.11 725.891L1068.97 732.306L1081.5 736.277L1093.72 740.248H1105.32H1117.54L1128.84 736.277L1139.54 732.306L1151.76 725.891L1158.78 716.421L1163.97 708.173M1035.68 694.122L1024.98 700.842L1017.65 708.173L1010.63 716.421L1006.35 725.891L1003.6 736.277M1163.97 708.173L1167.33 713.061L1171 720.392V732.306V746.052L1167.33 759.493L1163.97 771.712L1158.78 784.847L1154.81 797.066M1154.81 797.066L1151.76 804.092L1145.03 811.729L1135.87 816.311L1124.57 820.893L1112.65 823.336H1099.21H1086.69L1068.97 820.893L1054.92 816.311L1040.87 808.674L1028.65 799.815L1017.65 790.651L1010.63 780.57L1006.35 771.712L1003.6 761.631V750.634V736.277M1154.81 797.066L1158.78 808.674L1154.81 825.78L1147.17 839.527L1139.54 851.134L1131.9 861.521L1121.51 873.434L1109.91 881.682L1099.21 886.875L1087.61 892.679L1074.17 897.872L1060.11 901.537L1046.98 903.676L1032.62 901.537L1017.65 898.788L1003.6 890.54M1003.6 736.277H995.353L984.356 740.248L975.498 746.052L965.111 756.132M965.111 756.132L958.086 764.686V776.599V790.651L960.529 804.092L962.973 819.976L968.166 834.333L975.498 851.134L982.218 866.714L992.299 879.543L1003.6 890.54M965.111 756.132L951.365 759.493L941.285 761.631L929.982 766.824M1003.6 890.54L998.713 895.428L992.299 898.788L980.08 900.621L968.166 898.788L954.114 895.428L941.285 890.54L929.982 881.682L920.818 871.296M920.818 871.296L915.625 858.16L911.959 842.276V825.78L915.625 808.674L918.68 790.651L923.873 776.599L929.982 766.824M920.818 871.296H915.625L904.628 869.463L893.631 864.27L888.743 855.106L883.55 845.331V834.333M929.982 766.824H923.873L911.959 769.268L907.377 772.933M907.377 772.933L902.795 776.599L893.631 787.596L886.605 799.815L883.55 816.311V831.279V834.333M907.377 772.933H890.882L879.274 776.599L870.109 784.847L864 790.651V799.51L866.138 808.674L870.109 816.311L874.386 823.336L879.274 831.279L883.55 834.333" stroke="white" stroke-width="3.05473"/>
</svg>
