<svg width="278" height="423" viewBox="0 0 278 423" fill="none" xmlns="http://www.w3.org/2000/svg">
<mask id="path-1-inside-1_371_1208" fill="white">
<path d="M20.0234 57.4941H258.766L217.003 411.062L178.528 419.434L139.395 422.332L99.2755 419.434L60.8004 411.062L20.0234 57.4941Z"/>
</mask>
<path d="M20.0234 57.4941H258.766L217.003 411.062L178.528 419.434L139.395 422.332L99.2755 419.434L60.8004 411.062L20.0234 57.4941Z" fill="white"/>
<path d="M20.0234 57.4941V54.7403H16.9338L17.2878 57.8096L20.0234 57.4941ZM258.766 57.4941L261.501 57.8172L261.864 54.7403H258.766V57.4941ZM217.003 411.062L217.588 413.753L219.507 413.335L219.738 411.385L217.003 411.062ZM60.8004 411.062L58.0648 411.378L58.2904 413.334L60.2149 413.753L60.8004 411.062ZM139.395 422.332L139.196 425.079L139.397 425.094L139.598 425.079L139.395 422.332ZM178.528 419.434L178.731 422.181L178.924 422.166L179.113 422.125L178.528 419.434ZM99.2755 419.434L98.69 422.125L98.8816 422.167L99.0771 422.181L99.2755 419.434ZM20.0234 60.248H258.766V54.7403H20.0234V60.248ZM256.031 57.1711L214.268 410.739L219.738 411.385L261.501 57.8172L256.031 57.1711ZM63.5361 410.747L22.7591 57.1786L17.2878 57.8096L58.0648 411.378L63.5361 410.747ZM216.417 408.371L177.942 416.743L179.113 422.125L217.588 413.753L216.417 408.371ZM178.324 416.688L139.191 419.586L139.598 425.079L178.731 422.181L178.324 416.688ZM139.593 419.586L99.4739 416.688L99.0771 422.181L139.196 425.079L139.593 419.586ZM99.8611 416.743L61.386 408.371L60.2149 413.753L98.69 422.125L99.8611 416.743Z" fill="black" mask="url(#path-1-inside-1_371_1208)"/>
<line x1="73.8516" y1="378.731" x2="197.773" y2="378.73" stroke="#3A4062" stroke-width="2.75382"/>
<circle cx="139.024" cy="225.894" r="90.4171" fill="#C38590" stroke="#3A4062" stroke-width="2.75382"/>
<path fill-rule="evenodd" clip-rule="evenodd" d="M137.817 240.54C127.672 240.54 118.941 239.055 111.623 236.085C104.305 232.967 98.7337 229.032 94.9085 224.28C91.2496 219.529 89.4201 214.703 89.4201 209.803C89.4201 205.645 90.8338 201.933 93.6611 198.666C96.6548 195.399 100.896 193.766 106.384 193.766C110.542 193.766 113.868 194.879 116.363 197.107C118.858 199.334 120.105 202.007 120.105 205.125C120.105 207.798 119.273 210.1 117.61 212.03C116.113 213.812 113.868 214.703 110.875 214.703C109.045 214.703 107.715 215.148 106.883 216.039C106.218 216.782 105.885 217.747 105.885 218.935C105.885 223.835 108.629 227.547 114.118 230.071C119.606 232.596 127.506 233.858 137.817 233.858C148.129 233.858 156.029 232.596 161.517 230.071C167.005 227.547 169.75 223.835 169.75 218.935C169.75 217.747 169.417 216.782 168.752 216.039C168.086 215.148 166.756 214.703 164.76 214.703C161.766 214.703 159.438 213.812 157.775 212.03C156.278 210.1 155.53 207.798 155.53 205.125C155.53 202.007 156.777 199.334 159.272 197.107C161.933 194.879 165.259 193.766 169.251 193.766C174.739 193.766 178.897 195.399 181.724 198.666C184.718 201.933 186.215 205.645 186.215 209.803C186.215 214.703 184.302 219.529 180.477 224.28C176.818 229.032 171.33 232.967 164.012 236.085C156.694 239.055 147.962 240.54 137.817 240.54ZM80.1897 293.821V260.364C80.1897 258.285 79.6076 256.8 78.4434 255.909C77.4456 254.869 75.7824 254.35 73.454 254.35H55.4922V247.222H127.839V254.35H109.877C107.548 254.35 105.802 254.869 104.638 255.909C103.64 256.8 103.141 258.285 103.141 260.364V308.049L91.2918 302.542L80.1897 293.821ZM173.991 280.632L151.397 314.016L141.779 315.393L173.991 267.714V260.364C173.991 258.285 173.408 256.8 172.244 255.909C171.246 254.869 169.583 254.35 167.255 254.35H149.293V247.222H221.639V254.35H203.677C199.187 254.35 196.942 256.354 196.942 260.364V296.116L173.991 308.049V280.632Z" fill="#3A4062"/>
<path d="M38.4065 32.8451V0.91794H246.704V32.8451V33.763H247.622H270.564L276.071 58.3321H1.1053L5.69504 33.763H37.4885H38.4065V32.8451Z" fill="#3A4062" stroke="#3A4062" stroke-width="1.83588"/>
</svg>
