<svg width="278" height="419" viewBox="0 0 278 419" fill="none" xmlns="http://www.w3.org/2000/svg">
<mask id="path-1-inside-1_371_1233" fill="white">
<path d="M18.4062 54.1162H257.149L215.386 407.684L176.91 416.056L137.778 418.954L97.6583 416.056L59.1833 407.684L18.4062 54.1162Z"/>
</mask>
<path d="M18.4062 54.1162H257.149L215.386 407.684L176.91 416.056L137.778 418.954L97.6583 416.056L59.1833 407.684L18.4062 54.1162Z" fill="white"/>
<path d="M18.4062 54.1162V51.3624H15.3166L15.6706 54.4317L18.4062 54.1162ZM257.149 54.1162L259.884 54.4392L260.247 51.3624H257.149V54.1162ZM215.386 407.684L215.971 410.375L217.89 409.957L218.12 408.007L215.386 407.684ZM59.1833 407.684L56.4476 408L56.6732 409.956L58.5977 410.375L59.1833 407.684ZM137.778 418.954L137.579 421.701L137.78 421.716L137.981 421.701L137.778 418.954ZM176.91 416.056L177.114 418.803L177.307 418.788L177.496 418.747L176.91 416.056ZM97.6583 416.056L97.0728 418.747L97.2644 418.789L97.4599 418.803L97.6583 416.056ZM18.4062 56.87H257.149V51.3624H18.4062V56.87ZM254.414 53.7932L212.651 407.361L218.12 408.007L259.884 54.4392L254.414 53.7932ZM61.9189 407.369L21.1419 53.8007L15.6706 54.4317L56.4476 408L61.9189 407.369ZM214.8 404.993L176.325 413.366L177.496 418.747L215.971 410.375L214.8 404.993ZM176.707 413.31L137.574 416.208L137.981 421.701L177.114 418.803L176.707 413.31ZM137.976 416.208L97.8567 413.31L97.4599 418.803L137.579 421.701L137.976 416.208ZM98.2439 413.366L59.7688 404.993L58.5977 410.375L97.0728 418.747L98.2439 413.366Z" fill="black" mask="url(#path-1-inside-1_371_1233)"/>
<circle cx="138.085" cy="214.595" r="90.4171" fill="#C38590" stroke="#3A4062" stroke-width="2.75382"/>
<line x1="76.8242" y1="373.518" x2="200.746" y2="373.518" stroke="#3A4062" stroke-width="2.75382"/>
<path fill-rule="evenodd" clip-rule="evenodd" d="M65.953 260.491C64.4287 260.491 62.9269 260.451 61.4478 260.372L51.7997 240.755C56.6669 244.61 65.953 247.479 72.1011 247.479C83.6287 247.479 92.5946 243.262 98.9988 234.828C105.659 226.154 111.551 215.19 116.675 201.938V167.601L83.2444 174.468C70.9483 176.878 61.9824 181.697 56.3467 188.926C54.1232 191.814 50.3503 195.071 49.0458 198.989L57.1152 171.556C64.2649 169.508 72.3343 167.708 81.3232 166.155L116.675 160.011V129.288C116.675 127.921 116.63 126.596 116.541 125.313H143.042C143.908 129.319 144.341 133.656 144.341 138.324V227.238C144.341 239.286 148.311 245.31 156.253 245.31C162.657 245.31 167.268 241.816 170.086 234.828C172.904 227.841 174.313 219.287 174.313 209.166H181.229C181.229 223.624 178.924 235.792 174.313 245.672C169.958 255.551 162.017 260.491 150.489 260.491C139.474 260.491 131.148 257.479 125.512 251.455C120.133 245.19 117.187 236.636 116.675 225.793L114.753 225.07C110.911 233.503 104.635 241.575 95.9248 249.286C87.4712 256.756 77.4806 260.491 65.953 260.491Z" fill="#3A4062"/>
<path d="M38.4065 32.8451V0.91794H246.704V32.8451V33.763H247.622H270.564L276.071 58.3321H1.1053L5.69504 33.763H37.4885H38.4065V32.8451Z" fill="#3A4062" stroke="#3A4062" stroke-width="1.83588"/>
</svg>
