<svg width="278" height="421" viewBox="0 0 278 421" fill="none" xmlns="http://www.w3.org/2000/svg">
<mask id="path-1-inside-1_371_1200" fill="white">
<path d="M20 56.1162H258.743L216.979 409.684L178.504 418.056L139.371 420.954L99.2521 418.056L60.777 409.684L20 56.1162Z"/>
</mask>
<path d="M20 56.1162H258.743L216.979 409.684L178.504 418.056L139.371 420.954L99.2521 418.056L60.777 409.684L20 56.1162Z" fill="white"/>
<path d="M20 56.1162V53.3624H16.9103L17.2643 56.4317L20 56.1162ZM258.743 56.1162L261.478 56.4392L261.841 53.3624H258.743V56.1162ZM216.979 409.684L217.565 412.375L219.484 411.957L219.714 410.007L216.979 409.684ZM60.777 409.684L58.0413 410L58.267 411.956L60.1915 412.375L60.777 409.684ZM139.371 420.954L139.173 423.701L139.374 423.716L139.575 423.701L139.371 420.954ZM178.504 418.056L178.708 420.803L178.901 420.788L179.09 420.747L178.504 418.056ZM99.2521 418.056L98.6666 420.747L98.8581 420.789L99.0537 420.803L99.2521 418.056ZM20 58.87H258.743V53.3624H20V58.87ZM256.008 55.7932L214.244 409.361L219.714 410.007L261.478 56.4392L256.008 55.7932ZM63.5127 409.369L22.7357 55.8007L17.2643 56.4317L58.0413 410L63.5127 409.369ZM216.394 406.993L177.919 415.366L179.09 420.747L217.565 412.375L216.394 406.993ZM178.301 415.31L139.168 418.208L139.575 423.701L178.708 420.803L178.301 415.31ZM139.57 418.208L99.4505 415.31L99.0537 420.803L139.173 423.701L139.57 418.208ZM99.8376 415.366L61.3625 406.993L60.1915 412.375L98.6666 420.747L99.8376 415.366Z" fill="black" mask="url(#path-1-inside-1_371_1200)"/>
<line x1="76.582" y1="375.518" x2="200.504" y2="375.518" stroke="#3A4062" stroke-width="2.75382"/>
<circle cx="136.247" cy="208.911" r="90.4171" fill="#EFC3C4" stroke="#3A4062" stroke-width="2.75382"/>
<path fill-rule="evenodd" clip-rule="evenodd" d="M78.8334 170.235C64.3814 179.332 53.0498 191.7 44.8385 207.337L46.2906 226.81L51.7982 243.792L59.6007 258.938L69.6981 271.33C69.6981 240.625 79.4903 205.204 86.7162 189.852C94.2707 174.499 108.394 166.823 129.087 166.823C139.926 166.823 148.958 168.529 156.184 171.94C163.41 175.068 168.665 178.764 171.95 183.028C175.563 187.293 177.369 191.131 177.369 194.543C177.369 198.239 174.742 200.798 169.486 202.219C164.888 203.356 160.947 205.631 157.662 209.042C154.378 212.454 152.735 216.719 152.735 221.836C152.735 226.954 154.87 231.36 159.14 235.056C163.739 238.752 169.322 240.6 175.891 240.6C183.446 240.6 189.851 238.184 195.106 233.351C200.361 228.233 202.989 221.268 202.989 212.454C202.989 203.641 200.033 194.969 194.12 186.44C188.208 177.627 179.668 170.519 168.501 165.117C157.334 159.431 144.196 156.588 129.087 156.588C110.365 156.588 93.6138 161.137 78.8334 170.235Z" fill="#3A4062"/>
<path d="M38.4065 32.8451V0.91794H246.704V32.8451V33.763H247.622H270.564L276.071 58.3321H1.1053L5.69504 33.763H37.4885H38.4065V32.8451Z" fill="#3A4062" stroke="#3A4062" stroke-width="1.83588"/>
</svg>
