<svg width="278" height="425" viewBox="0 0 278 425" fill="none" xmlns="http://www.w3.org/2000/svg">
<mask id="path-1-inside-1_371_1225" fill="white">
<path fill-rule="evenodd" clip-rule="evenodd" d="M37.4885 0H247.622V32.8451H271.299L277.218 59.25L261.105 59.2499L219.341 412.818L180.866 421.19L141.733 424.088L101.614 421.19L63.1388 412.818L22.3618 59.25H0L4.9327 32.8451H37.4885V0Z"/>
</mask>
<path fill-rule="evenodd" clip-rule="evenodd" d="M37.4885 0H247.622V32.8451H271.299L277.218 59.25L261.105 59.2499L219.341 412.818L180.866 421.19L141.733 424.088L101.614 421.19L63.1388 412.818L22.3618 59.25H0L4.9327 32.8451H37.4885V0Z" fill="white"/>
<path d="M247.622 0H250.375V-2.75382H247.622V0ZM37.4885 0V-2.75382H34.7347V0H37.4885ZM247.622 32.8451H244.868V35.5989H247.622V32.8451ZM271.299 32.8451L273.986 32.2427L273.504 30.0913H271.299V32.8451ZM277.218 59.25L277.218 62.0038L280.657 62.0038L279.905 58.6476L277.218 59.25ZM261.105 59.2499L261.105 56.4961L258.657 56.4961L258.37 58.9269L261.105 59.2499ZM219.341 412.818L219.927 415.509L221.845 415.091L222.076 413.141L219.341 412.818ZM180.866 421.19L181.069 423.936L181.262 423.922L181.452 423.881L180.866 421.19ZM141.733 424.088L141.535 426.835L141.736 426.849L141.937 426.834L141.733 424.088ZM101.614 421.19L101.028 423.881L101.22 423.923L101.415 423.937L101.614 421.19ZM63.1388 412.818L60.4031 413.133L60.6288 415.09L62.5533 415.509L63.1388 412.818ZM22.3618 59.25L25.0975 58.9345L24.8163 56.4962H22.3618V59.25ZM0 59.25L-2.70699 58.7443L-3.3159 62.0038H0V59.25ZM4.9327 32.8451V30.0913H2.64569L2.22571 32.3394L4.9327 32.8451ZM37.4885 32.8451V35.5989H40.2424V32.8451H37.4885ZM247.622 -2.75382H37.4885V2.75382H247.622V-2.75382ZM250.375 32.8451V0H244.868V32.8451H250.375ZM271.299 30.0913H247.622V35.5989H271.299V30.0913ZM279.905 58.6476L273.986 32.2427L268.612 33.4475L274.531 59.8524L279.905 58.6476ZM261.105 62.0037L277.218 62.0038L277.218 56.4962L261.105 56.4961L261.105 62.0037ZM258.37 58.9269L216.606 412.495L222.076 413.141L263.839 59.5729L258.37 58.9269ZM218.756 410.127L180.28 418.499L181.452 423.881L219.927 415.509L218.756 410.127ZM180.663 418.444L141.53 421.342L141.937 426.834L181.069 423.936L180.663 418.444ZM141.932 421.342L101.812 418.443L101.415 423.937L141.535 426.835L141.932 421.342ZM102.199 418.499L63.7243 410.127L62.5533 415.509L101.028 423.881L102.199 418.499ZM65.8745 412.502L25.0975 58.9345L19.6261 59.5655L60.4031 413.133L65.8745 412.502ZM0 62.0038H22.3618V56.4962H0V62.0038ZM2.22571 32.3394L-2.70699 58.7443L2.70699 59.7557L7.63969 33.3508L2.22571 32.3394ZM37.4885 30.0913H4.9327V35.5989H37.4885V30.0913ZM34.7347 0V32.8451H40.2424V0H34.7347Z" fill="black" mask="url(#path-1-inside-1_371_1225)"/>
<path d="M38.4065 32.8451V0.91794H246.704V32.8451V33.763H247.622H270.564L276.071 58.3321H1.1053L5.69504 33.763H37.4885H38.4065V32.8451Z" fill="#3A4062" stroke="#3A4062" stroke-width="1.83588"/>
<circle cx="142.28" cy="227.649" r="90.4171" fill="#EFC3C4" stroke="#3A4062" stroke-width="2.75382"/>
<line x1="79.8613" y1="380.486" x2="203.783" y2="380.486" stroke="#3A4062" stroke-width="2.75382"/>
<path d="M140.271 235.859C143.475 229.593 148.013 224.689 153.886 221.148V205.619H138.469H123.053L121.651 241.58L120.25 277.541H128.259C128.259 275.634 129.193 270.321 131.062 261.603C133.197 252.613 136.267 244.032 140.271 235.859Z" fill="#3A4062"/>
<path fill-rule="evenodd" clip-rule="evenodd" d="M184.318 224.417V308.428L200.111 297.413L213.149 283.644V224.417C213.149 221.148 213.817 218.832 215.151 217.47C216.486 216.108 218.755 215.427 221.959 215.427C225.281 215.427 228.402 215.715 231.321 216.292V205.619H153.886V221.148C159.759 217.334 166.967 215.427 175.509 215.427C178.712 215.427 180.982 216.108 182.316 217.47C183.651 218.832 184.318 221.148 184.318 224.417Z" fill="#3A4062"/>
</svg>
