<svg width="278" height="425" viewBox="0 0 278 425" fill="none" xmlns="http://www.w3.org/2000/svg">
<mask id="path-1-inside-1_390_1602" fill="white">
<path fill-rule="evenodd" clip-rule="evenodd" d="M37.4885 0H247.622V32.8451H271.299L277.218 59.25L261.105 59.2499L219.341 412.818L180.866 421.19L141.733 424.088L101.614 421.19L63.1388 412.818L22.3618 59.25H0L4.9327 32.8451H37.4885V0Z"/>
</mask>
<path fill-rule="evenodd" clip-rule="evenodd" d="M37.4885 0H247.622V32.8451H271.299L277.218 59.25L261.105 59.2499L219.341 412.818L180.866 421.19L141.733 424.088L101.614 421.19L63.1388 412.818L22.3618 59.25H0L4.9327 32.8451H37.4885V0Z" fill="white"/>
<path d="M247.622 0H250.375V-2.75382H247.622V0ZM37.4885 0V-2.75382H34.7347V0H37.4885ZM247.622 32.8451H244.868V35.5989H247.622V32.8451ZM271.299 32.8451L273.986 32.2427L273.504 30.0913H271.299V32.8451ZM277.218 59.25L277.218 62.0038L280.657 62.0038L279.905 58.6476L277.218 59.25ZM261.105 59.2499L261.105 56.4961L258.657 56.4961L258.37 58.9269L261.105 59.2499ZM219.341 412.818L219.927 415.509L221.845 415.091L222.076 413.141L219.341 412.818ZM180.866 421.19L181.069 423.936L181.262 423.922L181.452 423.881L180.866 421.19ZM141.733 424.088L141.535 426.835L141.736 426.849L141.937 426.834L141.733 424.088ZM101.614 421.19L101.028 423.881L101.22 423.923L101.415 423.937L101.614 421.19ZM63.1388 412.818L60.4031 413.133L60.6288 415.09L62.5533 415.509L63.1388 412.818ZM22.3618 59.25L25.0975 58.9345L24.8163 56.4962H22.3618V59.25ZM0 59.25L-2.70699 58.7443L-3.3159 62.0038H0V59.25ZM4.9327 32.8451V30.0913H2.64569L2.22571 32.3394L4.9327 32.8451ZM37.4885 32.8451V35.5989H40.2424V32.8451H37.4885ZM247.622 -2.75382H37.4885V2.75382H247.622V-2.75382ZM250.375 32.8451V0H244.868V32.8451H250.375ZM271.299 30.0913H247.622V35.5989H271.299V30.0913ZM279.905 58.6476L273.986 32.2427L268.612 33.4475L274.531 59.8524L279.905 58.6476ZM261.105 62.0037L277.218 62.0038L277.218 56.4962L261.105 56.4961L261.105 62.0037ZM258.37 58.9269L216.606 412.495L222.076 413.141L263.839 59.5729L258.37 58.9269ZM218.756 410.127L180.28 418.499L181.452 423.881L219.927 415.509L218.756 410.127ZM180.663 418.444L141.53 421.342L141.937 426.834L181.069 423.936L180.663 418.444ZM141.932 421.342L101.812 418.443L101.415 423.937L141.535 426.835L141.932 421.342ZM102.199 418.499L63.7243 410.127L62.5533 415.509L101.028 423.881L102.199 418.499ZM65.8745 412.502L25.0975 58.9345L19.6261 59.5655L60.4031 413.133L65.8745 412.502ZM0 62.0038H22.3618V56.4962H0V62.0038ZM2.22571 32.3394L-2.70699 58.7443L2.70699 59.7557L7.63969 33.3508L2.22571 32.3394ZM37.4885 30.0913H4.9327V35.5989H37.4885V30.0913ZM34.7347 0V32.8451H40.2424V0H34.7347Z" fill="black" mask="url(#path-1-inside-1_390_1602)"/>
<path d="M38.4065 32.8451V0.91794H246.704V32.8451V33.763H247.622H270.564L276.071 58.3321H1.1053L5.69504 33.763H37.4885H38.4065V32.8451Z" fill="#3A4062" stroke="#3A4062" stroke-width="1.83588"/>
<circle cx="142.085" cy="214.595" r="90.4171" fill="#C38590" stroke="#3A4062" stroke-width="2.75382"/>
<path fill-rule="evenodd" clip-rule="evenodd" d="M69.953 260.491C68.4287 260.491 66.9269 260.451 65.4478 260.372L55.7997 240.755C60.6669 244.61 69.953 247.479 76.1011 247.479C87.6287 247.479 96.5946 243.262 102.999 234.828C109.659 226.154 115.551 215.19 120.675 201.938V167.601L87.2444 174.468C74.9483 176.878 65.9824 181.697 60.3467 188.926C58.1232 191.814 54.3503 195.071 53.0458 198.989L61.1152 171.556C68.2649 169.508 76.3343 167.708 85.3232 166.155L120.675 160.011V129.288C120.675 127.921 120.63 126.596 120.541 125.313H147.042C147.908 129.319 148.341 133.656 148.341 138.324V227.238C148.341 239.286 152.311 245.31 160.253 245.31C166.657 245.31 171.268 241.816 174.086 234.828C176.904 227.841 178.313 219.287 178.313 209.166H185.229C185.229 223.624 182.924 235.792 178.313 245.672C173.958 255.551 166.017 260.491 154.489 260.491C143.474 260.491 135.148 257.479 129.512 251.455C124.133 245.19 121.187 236.636 120.675 225.793L118.753 225.07C114.911 233.503 108.635 241.575 99.9248 249.286C91.4712 256.756 81.4806 260.491 69.953 260.491Z" fill="#3A4062"/>
<line x1="79.8613" y1="380.486" x2="203.783" y2="380.486" stroke="#3A4062" stroke-width="2.75382"/>
</svg>
