<svg width="228" height="103" viewBox="0 0 228 103" fill="none" xmlns="http://www.w3.org/2000/svg">
<path d="M0.5 30C0.5 13.7076 13.7076 0.5 30 0.5H198C214.292 0.5 227.5 13.7076 227.5 30V73C227.5 89.2924 214.292 102.5 198 102.5H30C13.7076 102.5 0.5 89.2924 0.5 73V30Z" fill="#C38590" stroke="#3A4062"/>
<path d="M16.5 47C16.5 30.7076 29.7076 17.5 46 17.5H184C200.292 17.5 213.5 30.7076 213.5 47V58C213.5 74.2924 200.292 87.5 184 87.5H46C29.7076 87.5 16.5 74.2924 16.5 58V47Z" fill="white" stroke="#3A4062"/>
</svg>
