<svg width="1440" height="1382" viewBox="0 0 1440 1382" fill="none" xmlns="http://www.w3.org/2000/svg">
<g clip-path="url(#clip0_368_7986)">
<rect x="-18" y="873" width="1458" height="509" fill="#4A4A4A"/>
<rect x="-18" y="896" width="1458" height="45" fill="white"/>
<rect x="-18" y="1308" width="1458" height="45" fill="white"/>
<path fill-rule="evenodd" clip-rule="evenodd" d="M42.3167 1105H-18.5V1150H74L42.3167 1105Z" fill="white"/>
<path d="M759 1105H959.18L991 1150H785.035L759 1105Z" fill="white"/>
<path d="M1062 1105H1261.32L1293 1150H1087.92L1062 1105Z" fill="white"/>
<path fill-rule="evenodd" clip-rule="evenodd" d="M1441.5 1105H1364L1390.03 1150H1441.5V1105Z" fill="white"/>
<path d="M456 1105H655.317L687 1150H481.923L456 1105Z" fill="white"/>
<path d="M149 1105H348.317L380 1150H174.923L149 1105Z" fill="white"/>
<path d="M159.5 261.5H1250.5V919.5H159.5V261.5Z" fill="#EFC3C4" stroke="#3A4062"/>
<path d="M158.5 0.5H1249.5V260.5H158.5V0.5Z" fill="#EFC3C4" stroke="#3A4062"/>
<rect x="361" y="347" width="71" height="60" fill="#EFC3C4"/>
<path d="M610 450H804V874H610V450Z" fill="#AD8C8C"/>
<path fill-rule="evenodd" clip-rule="evenodd" d="M803 451H611V873H803V451ZM610 450V874H804V450H610Z" fill="#3A4062"/>
<path d="M611 450L678 482.826V833.424L611 874V450Z" fill="#3A4062"/>
<path fill-rule="evenodd" clip-rule="evenodd" d="M611 450V874L678 833.424V482.826L611 450ZM612 451.604V872.225L677 832.86V483.449L612 451.604Z" fill="#3A4062"/>
<path d="M986.806 504.459C986.931 504.833 987.091 505.193 987.285 505.534L987.359 505.663C987.774 506.392 988.31 507.043 988.938 507.583C989.459 508.031 990.041 508.401 990.663 508.678L991.961 509.256L994.941 510.253L997.565 510.779C998.298 510.926 999.042 511 999.789 511H1002.14H1005.62H1009.59H1011.92C1012.85 511 1013.78 510.886 1014.68 510.66L1016.3 510.253L1018.31 509.52C1018.79 509.345 1019.26 509.128 1019.7 508.872C1020.41 508.466 1021.07 507.964 1021.65 507.38L1022.08 506.943C1022.2 506.825 1022.31 506.698 1022.41 506.563C1022.8 506.044 1023.04 505.423 1023.12 504.769L1023.25 503.527L1023.5 501.534L1023.75 499.043L1024 496.303L1022.01 496.054L1021.96 496.044C1021.22 495.894 1020.45 496.132 1019.9 496.681C1019.82 496.761 1019.74 496.847 1019.68 496.939L1019.03 497.798L1018.41 498.584C1018.16 498.888 1017.87 499.145 1017.54 499.342C1017.05 499.636 1016.5 499.791 1015.94 499.791H1014.56H1012.33H1009.84H1008.98C1008.24 499.791 1007.5 499.639 1006.82 499.344C1006.35 499.144 1005.92 498.882 1005.52 498.563L1004.88 498.047L1004.82 498.009C1004.24 497.566 1003.47 497.463 1002.8 497.735C1002.69 497.777 1002.59 497.827 1002.5 497.885L1002.09 498.128C1001.63 498.405 1001.14 498.631 1000.64 498.8C1000.15 498.962 999.654 499.072 999.148 499.128L997.673 499.292H995.686H993.451C992.306 499.128 991.195 498.697 990.222 498.047L989.258 497.467C989.073 497.356 988.903 497.222 988.75 497.068C988.26 496.578 987.607 496.303 986.928 496.303H986V497.787C986 498.622 986.082 499.456 986.245 500.274L986.349 500.794C986.447 501.286 986.497 501.788 986.497 502.29V502.541C986.497 503.194 986.601 503.842 986.806 504.459Z" fill="#EFC3C4"/>
<path fill-rule="evenodd" clip-rule="evenodd" d="M803 812V557H804V812H803Z" fill="#3A4062"/>
<path d="M1024.19 577.459C1024.07 577.833 1023.91 578.193 1023.71 578.534L1023.64 578.663C1023.23 579.392 1022.69 580.043 1022.06 580.583C1021.54 581.031 1020.96 581.401 1020.34 581.678L1019.04 582.256L1016.06 583.253L1013.44 583.779C1012.7 583.926 1011.96 584 1011.21 584H1008.86H1005.38H1001.41H999.076C998.148 584 997.224 583.886 996.323 583.66L994.699 583.253L992.69 582.52C992.209 582.345 991.743 582.128 991.296 581.872C990.588 581.466 989.934 580.964 989.351 580.38L988.916 579.943C988.798 579.825 988.688 579.698 988.587 579.563C988.199 579.044 987.955 578.423 987.883 577.769L987.745 576.527L987.497 574.534L987.248 572.043L987 569.303L988.987 569.054L989.038 569.044C989.785 568.894 990.555 569.132 991.102 569.681C991.182 569.761 991.256 569.847 991.325 569.939L991.967 570.798L992.594 571.584C992.837 571.888 993.129 572.145 993.457 572.342C993.946 572.636 994.5 572.791 995.063 572.791H996.438H998.673H1001.16H1002.02C1002.76 572.791 1003.5 572.639 1004.18 572.344C1004.65 572.144 1005.08 571.882 1005.48 571.563L1006.12 571.047L1006.18 571.009C1006.76 570.566 1007.53 570.463 1008.2 570.735C1008.31 570.777 1008.41 570.827 1008.5 570.885L1008.91 571.128C1009.37 571.405 1009.86 571.631 1010.36 571.8C1010.85 571.962 1011.35 572.072 1011.85 572.128L1013.33 572.292H1015.31H1017.55C1018.69 572.128 1019.81 571.697 1020.78 571.047L1021.74 570.467C1021.93 570.356 1022.1 570.222 1022.25 570.068C1022.74 569.578 1023.39 569.303 1024.07 569.303H1025V570.787C1025 571.622 1024.92 572.456 1024.75 573.274L1024.65 573.794C1024.55 574.286 1024.5 574.788 1024.5 575.29V575.541C1024.5 576.194 1024.4 576.842 1024.19 577.459Z" fill="#EFC3C4"/>
<path d="M953.194 653.459C953.069 653.833 952.909 654.193 952.715 654.534L952.641 654.663C952.226 655.392 951.69 656.043 951.062 656.583C950.541 657.031 949.959 657.401 949.337 657.678L948.039 658.256L945.059 659.253L942.435 659.779C941.702 659.926 940.958 660 940.211 660H937.856H934.379H930.405H928.076C927.148 660 926.224 659.886 925.323 659.66L923.699 659.253L921.69 658.52C921.209 658.345 920.743 658.128 920.296 657.872C919.588 657.466 918.934 656.964 918.351 656.38L917.916 655.943C917.798 655.825 917.688 655.698 917.587 655.563C917.199 655.044 916.955 654.423 916.883 653.769L916.745 652.527L916.497 650.534L916.248 648.043L916 645.303L917.987 645.054L918.038 645.044C918.785 644.894 919.555 645.132 920.102 645.681C920.182 645.761 920.256 645.847 920.325 645.939L920.967 646.798L921.594 647.584C921.837 647.888 922.129 648.145 922.457 648.342C922.946 648.636 923.5 648.791 924.063 648.791H925.438H927.673H930.157H931.019C931.762 648.791 932.497 648.639 933.183 648.344C933.647 648.144 934.084 647.882 934.481 647.563L935.124 647.047L935.175 647.009C935.763 646.566 936.526 646.463 937.203 646.735C937.307 646.777 937.408 646.827 937.505 646.885L937.909 647.128C938.369 647.405 938.857 647.631 939.363 647.8C939.847 647.962 940.346 648.072 940.852 648.128L942.327 648.292H944.314H946.549C947.694 648.128 948.805 647.697 949.778 647.047L950.742 646.467C950.927 646.356 951.097 646.222 951.25 646.068C951.74 645.578 952.393 645.303 953.072 645.303H954V646.787C954 647.622 953.918 648.456 953.755 649.274L953.651 649.794C953.553 650.286 953.503 650.788 953.503 651.29V651.541C953.503 652.194 953.399 652.842 953.194 653.459Z" fill="#EFC3C4"/>
<path d="M654.443 695.83C659.075 697.1 663.31 697.363 667.149 696.619C671.015 695.962 673.781 694.431 675.448 692.023C675.691 691.672 675.748 691.275 675.617 690.831C675.582 690.377 675.321 689.995 674.834 689.687C674.348 689.379 673.479 689.118 672.228 688.904C670.82 688.663 669.63 688.234 668.657 687.618C666.953 686.541 665.762 685.102 665.084 683.303C664.466 681.542 664.747 679.808 665.928 678.103C667.317 676.096 669.184 675.042 671.53 674.939C673.91 674.786 676.135 675.363 678.203 676.672C681.184 678.557 682.953 680.866 683.51 683.599C684.163 686.32 683.604 688.96 681.833 691.518C678.986 695.631 675.078 698.244 670.109 699.356C665.201 700.507 659.919 700.303 654.262 698.744L654.443 695.83Z" fill="black"/>
<path d="M611 800H803V874H611V800Z" fill="black"/>
<path fill-rule="evenodd" clip-rule="evenodd" d="M1250 874H159V873H1250V874Z" fill="#3A4062"/>
<path d="M787.055 808C771.83 808 756.368 800.806 740.668 786.417C736.148 782.333 732.342 779.514 729.25 777.958C726.395 776.208 722.827 775.333 718.545 775.333C715.215 775.333 712.48 776.208 710.339 777.958C708.198 779.514 707.127 781.75 707.127 784.667V803.333H692.855V789.625C692.855 782.042 693.687 774.944 695.352 768.333C697.255 761.528 701.537 753.653 708.198 744.708C714.858 735.569 725.087 725.653 738.884 714.958C756.249 701.153 769.689 688.611 779.205 677.333C788.72 665.861 793.477 653.417 793.477 640C793.477 629.111 790.742 619.972 785.27 612.583C779.799 605.194 770.522 601.5 757.439 601.5C748.399 601.5 740.787 603.931 734.602 608.792C728.655 613.458 725.682 619 725.682 625.417C725.682 633.194 729.012 639.028 735.673 642.917C740.906 646.028 744.831 649.139 747.448 652.25C750.302 655.167 751.73 658.861 751.73 663.333C751.73 668.389 749.47 672.569 744.95 675.875C740.43 679.181 734.721 680.833 727.823 680.833C717.594 680.833 708.673 677.819 701.061 671.792C693.687 665.764 690 657.694 690 647.583C690 637.278 693.33 627.847 699.991 619.292C706.889 610.542 716.167 603.639 727.823 598.583C739.717 593.528 752.8 591 767.073 591C793.239 591 813.102 595.958 826.661 605.875C840.22 615.597 847 628.528 847 644.667C847 655.75 842.718 665.764 834.155 674.708C825.829 683.653 815.6 691.431 803.468 698.042C791.574 704.458 776.469 711.653 758.152 719.625C747.923 724.292 738.289 730.222 729.25 737.417C720.211 744.611 714.026 753.264 710.695 763.375L712.123 763.958C720.686 758.319 730.32 755.5 741.025 755.5C745.307 755.5 750.421 755.986 756.368 756.958C762.553 757.931 767.667 759 771.711 760.167C783.605 763.278 794.429 764.833 804.182 764.833C812.745 764.833 819.882 762.792 825.591 758.708C831.3 754.431 834.155 749.472 834.155 743.833C834.155 738.194 833.56 731.681 832.37 724.292H843.432C844.859 732.653 845.573 740.236 845.573 747.042C845.573 756.958 843.551 766.583 839.507 775.917C835.701 785.056 829.397 792.736 820.595 798.958C811.794 804.986 800.614 808 787.055 808Z" fill="white"/>
<path d="M804 557H851V822H804V557Z" fill="#EFC3C4"/>
<line x1="803.5" y1="551" x2="803.5" y2="815" stroke="#67617B"/>
</g>
<defs>
<clipPath id="clip0_368_7986">
<rect width="1440" height="1382" fill="white"/>
</clipPath>
</defs>
</svg>
