<svg width="327" height="246" viewBox="0 0 327 246" fill="none" xmlns="http://www.w3.org/2000/svg">
<rect x="1.45386" y="25.6848" width="323.727" height="193.848" fill="white" stroke="#3A4062" stroke-width="2.90772"/>
<path d="M184.64 23.7464C184.64 34.3333 175.217 43.1312 163.316 43.1312C151.415 43.1312 141.993 34.3333 141.993 23.7464C141.993 13.1595 151.415 4.36158 163.316 4.36158C175.217 4.36158 184.64 13.1595 184.64 23.7464Z" fill="#FBF0D4" stroke="#3A4062" stroke-width="2.90772"/>
<path d="M184.64 220.502C184.64 231.089 175.217 239.887 163.316 239.887C151.415 239.887 141.993 231.089 141.993 220.502C141.993 209.915 151.415 201.117 163.316 201.117C175.217 201.117 184.64 209.915 184.64 220.502Z" fill="#FBF0D4" stroke="#3A4062" stroke-width="2.90772"/>
<rect x="140.539" y="220.986" width="45.5543" height="24.231" fill="#FBF0D4"/>
<rect x="140.539" y="220.986" width="45.5543" height="24.231" fill="#FBF0D4"/>
<rect x="140.539" width="45.5543" height="24.231" fill="#FBF0D4"/>
<rect x="140.539" width="45.5543" height="24.231" fill="#FBF0D4"/>
<line x1="311" y1="40.9845" x2="236.006" y2="40.9845" stroke="#3A4062" stroke-width="1.969"/>
<line x1="310.994" y1="66.7535" x2="236" y2="66.7535" stroke="#3A4062" stroke-width="1.969"/>
<line x1="310.994" y1="117.093" x2="236" y2="117.093" stroke="#3A4062" stroke-width="1.969"/>
<line x1="310.994" y1="141.064" x2="236" y2="141.064" stroke="#3A4062" stroke-width="1.969"/>
<line x1="310.994" y1="148.256" x2="236" y2="148.256" stroke="#3A4062" stroke-width="1.969"/>
<line x1="310.994" y1="185.411" x2="236" y2="185.411" stroke="#3A4062" stroke-width="1.969"/>
<line x1="310.994" y1="190.205" x2="236" y2="190.205" stroke="#3A4062" stroke-width="1.969"/>
<line x1="310.994" y1="194.999" x2="236" y2="194.999" stroke="#3A4062" stroke-width="1.969"/>
<line x1="310.994" y1="96.7179" x2="236" y2="96.7179" stroke="#3A4062" stroke-width="1.969"/>
<line x1="310.994" y1="100.314" x2="236" y2="100.314" stroke="#3A4062" stroke-width="1.969"/>
<rect x="310.994" y="54.9829" width="7.19134" height="74.9813" transform="rotate(90 310.994 54.9829)" fill="#3A4062"/>
<rect x="310.994" y="74.1587" width="7.19133" height="74.9813" transform="rotate(90 310.994 74.1587)" fill="#3A4062"/>
<rect x="310.994" y="84.9468" width="7.19133" height="74.9813" transform="rotate(90 310.994 84.9468)" fill="#3A4062"/>
<rect x="310.994" y="119.704" width="7.19134" height="74.9813" transform="rotate(90 310.994 119.704)" fill="#3A4062"/>
<rect x="310.994" y="128.094" width="7.19133" height="74.9813" transform="rotate(90 310.994 128.094)" fill="#3A4062"/>
<rect x="310.994" y="173.64" width="7.19135" height="74.9813" transform="rotate(90 310.994 173.64)" fill="#3A4062"/>
<rect x="310.994" y="198.809" width="7.19133" height="74.9813" transform="rotate(90 310.994 198.809)" fill="#3A4062"/>
<rect x="310.994" y="150.866" width="7.19134" height="74.9813" transform="rotate(90 310.994 150.866)" fill="#3A4062"/>
</svg>
